<svg width="372" height="383" viewBox="0 0 372 383" fill="none" xmlns="http://www.w3.org/2000/svg">
<mask id="mask0_194_182823" style="mask-type:alpha" maskUnits="userSpaceOnUse" x="129" y="111" width="199" height="238">
<path d="M327.595 348.024L129.346 348.024L234.279 111.373L327.595 111.373L327.595 348.024Z" fill="#3D1313"/>
</mask>
<g mask="url(#mask0_194_182823)">
<mask id="path-2-inside-1_194_182823" fill="white">
<path fill-rule="evenodd" clip-rule="evenodd" d="M170.381 111.373V111.373H150.577H130.747H110.943L91.1673 111.373V111.374L76.3161 111.374L51.4743 136.2L26.8089 111.374L11.9716 111.374V111.373L-2.88099 111.373L-27.6247 136.113L-52.3499 111.373L-67.243 111.373L-67.243 126.225L-22.5567 170.782L-67.243 170.782L-67.243 190.587H-37.5434L-37.5434 224.555L-37.6493 224.555L-67.2436 253.957L-67.2437 268.81L-67.2428 268.81L-67.2428 288.613H-47.467L-47.467 328.199H-67.2428L-67.2428 348.002H-47.467V348.024H-27.6636V348.002H-7.83263V348.024H11.9708V348.023H26.8961L56.6637 318.431V318.313H91.1889V328.027H91.1673V348.024H91.1889H110.992H150.577H170.381V348.001H189.183V348.022H208.986V348.001H228.817V348.022L247.921 348.023H262.86L292.627 318.431V318.313H327.595V298.51H292.433V298.404L263.171 269.121H267.744H307.33H327.133V249.24V229.331V209.45V190.588V189.596V126.039V123.562V111.374L312.28 111.374L287.438 136.2L262.772 111.374L248.62 111.374V111.373L233.767 111.373L209.024 136.113L184.298 111.373L170.381 111.373ZM248.62 284.358V288.612V328.197V332.479L272.898 308.498L248.62 284.358ZM36.9343 308.498L11.9708 333.157V328.199V288.613V283.676L36.9343 308.498ZM56.47 298.404L27.2073 269.121H31.781H71.3662H91.1696V268.809H91.1889V288.006H91.1673V298.51H56.47L56.47 298.404ZM-17.74 224.362L-17.74 190.587H-2.69436H-0.216728H11.956V190.588H11.9776V209.45H11.956L11.956 229.331H11.9776L11.9776 249.24H11.956V253.944L-17.6216 224.362H-17.74ZM-27.5549 243.977L-2.88302 268.81H-7.83262H-27.6636H-47.467L-52.3911 268.81L-27.5549 243.977ZM170.381 127.198V131.176V170.762V170.782L214.092 170.782L170.381 127.198ZM154.536 190.587H150.577V190.565H130.747V190.587H110.943V190.565H107.028L130.784 214.335L154.536 190.587ZM91.1696 170.762H110.943L110.943 131.176H91.1696V170.762ZM150.577 170.762V131.176H130.747L130.747 170.762L150.577 170.762ZM307.328 190.588H307.33V209.45L267.744 209.45V189.596H263.761L307.328 145.902V190.588ZM247.919 190.588H247.941V209.45H247.919V229.331H247.941V249.24H247.919V253.667L219.028 224.585H218.909V190.587H233.954H236.432H247.919V190.588ZM199.106 190.587H170.38V204.448L145.554 229.113L170.101 253.676L199 224.779L199.106 224.779V190.587ZM184.766 268.809H189.183H208.986H228.817H233.262L209.095 244.327L184.766 268.809ZM27.7971 189.596H31.781V209.45H71.3662V190.588H71.3649L71.3649 145.902L27.7971 189.596ZM91.1696 204.451V209.45V229.331V249.004H135.852L91.1696 204.451ZM110.992 268.809H150.577V288.006L110.992 288.006V268.809ZM170.381 308.003V288.612H189.183V328.197H170.381V328.027V308.003ZM11.956 175.718V175.695L36.6961 150.97L11.9638 126.234L-12.8553 150.891L11.956 175.718ZM223.793 150.891L248.268 126.575L272.66 150.97L248.251 175.364L223.793 150.891ZM-7.83263 288.613V328.199H-27.6636L-27.6636 288.613H-7.83263ZM228.817 328.197V288.612H208.986V328.197H228.817ZM150.577 328.027L110.992 328.027V308.003L150.577 308.003V328.027ZM31.781 249.24L71.3662 249.24V229.331L31.781 229.331L31.781 249.24ZM307.33 249.24L267.744 249.24V229.331L307.33 229.331V249.24Z"/>
</mask>
<path d="M170.381 111.373H171.381V110.373H170.381V111.373ZM170.381 111.373H169.381V112.373H170.381V111.373ZM110.943 111.373V110.373V111.373ZM91.1673 111.373V110.373L90.1673 110.373V111.373H91.1673ZM91.1673 111.374V112.374L92.1673 112.374V111.374H91.1673ZM76.3161 111.374V110.374H75.902L75.6092 110.666L76.3161 111.374ZM51.4743 136.2L50.7649 136.905L51.4718 137.617L52.1812 136.908L51.4743 136.2ZM26.8089 111.374L27.5183 110.669L27.225 110.374H26.8089V111.374ZM11.9716 111.374H10.9716V112.374L11.9716 112.374V111.374ZM11.9716 111.373H12.9716V110.373L11.9716 110.373V111.373ZM-2.88099 111.373V110.373H-3.29516L-3.58804 110.666L-2.88099 111.373ZM-27.6247 136.113L-28.332 136.82L-27.6249 137.528L-26.9176 136.82L-27.6247 136.113ZM-52.3499 111.373L-51.6426 110.666L-51.9355 110.373H-52.3499V111.373ZM-67.243 111.373L-67.243 110.373L-68.243 110.373L-68.243 111.373L-67.243 111.373ZM-67.243 126.225H-68.243V126.64L-67.9491 126.933L-67.243 126.225ZM-22.5567 170.782V171.782H-20.1375L-21.8506 170.074L-22.5567 170.782ZM-67.243 170.782L-67.243 169.782H-68.243L-68.243 170.782H-67.243ZM-67.243 190.587H-68.243L-68.243 191.587H-67.243V190.587ZM-37.5434 190.587H-36.5434V189.587H-37.5434V190.587ZM-37.5434 224.555L-37.5435 225.555L-36.5434 225.555V224.555H-37.5434ZM-37.6493 224.555L-37.6492 223.555L-38.0616 223.555L-38.3541 223.845L-37.6493 224.555ZM-67.2436 253.957L-67.9485 253.248L-68.2436 253.541L-68.2436 253.957H-67.2436ZM-67.2437 268.81H-68.2437L-68.2437 269.791L-67.2625 269.81L-67.2437 268.81ZM-67.2428 268.81H-66.2428V267.829L-67.224 267.81L-67.2428 268.81ZM-67.2428 288.613H-68.2428V289.613H-67.2428V288.613ZM-47.467 288.613H-46.467V287.613H-47.467V288.613ZM-47.467 328.199V329.199H-46.467V328.199H-47.467ZM-67.2428 328.199V327.199H-68.2428L-68.2428 328.199H-67.2428ZM-67.2428 348.002H-68.2428L-68.2428 349.002H-67.2428V348.002ZM-47.467 348.002H-46.467V347.002H-47.467V348.002ZM-47.467 348.024H-48.467V349.024H-47.467V348.024ZM-27.6636 348.024V349.024H-26.6636V348.024H-27.6636ZM-27.6636 348.002V347.002H-28.6636V348.002H-27.6636ZM-7.83263 348.002H-6.83263V347.002H-7.83263V348.002ZM-7.83263 348.024H-8.83263V349.024H-7.83263V348.024ZM11.9708 348.024V349.024H12.9708V348.024H11.9708ZM11.9708 348.023V347.023H10.9708V348.023H11.9708ZM26.8961 348.023V349.023H27.3086L27.6011 348.732L26.8961 348.023ZM56.6637 318.431L57.3687 319.141L57.6637 318.847V318.431H56.6637ZM56.6637 318.313V317.313H55.6637V318.313H56.6637ZM91.1889 318.313H92.1889V317.313H91.1889V318.313ZM91.1889 328.027V329.027H92.1889V328.027H91.1889ZM91.1673 328.027V327.027H90.1673V328.027H91.1673ZM91.1673 348.024H90.1673V349.024H91.1673V348.024ZM170.381 348.024V349.024H171.381V348.024H170.381ZM170.381 348.001V347.001H169.381V348.001H170.381ZM189.183 348.001H190.183V347.001H189.183V348.001ZM189.183 348.022H188.183V349.022H189.183V348.022ZM208.986 348.022V349.022H209.986V348.022H208.986ZM208.986 348.001V347.001H207.986V348.001H208.986ZM228.817 348.001H229.817V347.001H228.817V348.001ZM228.817 348.022H227.817V349.022H228.817V348.022ZM247.921 348.023V349.023V348.023ZM262.86 348.023V349.023H263.272L263.565 348.732L262.86 348.023ZM292.627 318.431L293.332 319.141L293.627 318.847V318.431H292.627ZM292.627 318.313V317.313H291.627V318.313H292.627ZM327.595 318.313V319.313H328.595V318.313H327.595ZM327.595 298.51H328.595V297.51H327.595V298.51ZM292.433 298.51H291.433V299.51H292.433V298.51ZM292.433 298.404H293.433V297.99L293.141 297.697L292.433 298.404ZM263.171 269.121V268.121H260.758L262.463 269.828L263.171 269.121ZM327.133 269.121V270.121H328.133V269.121H327.133ZM327.133 111.374H328.133V110.374L327.133 110.374V111.374ZM312.28 111.374V110.374H311.866L311.573 110.666L312.28 111.374ZM287.438 136.2L286.728 136.905L287.435 137.617L288.145 136.908L287.438 136.2ZM262.772 111.374L263.482 110.669L263.189 110.374H262.772V111.374ZM248.62 111.374H247.62V112.374H248.62V111.374ZM248.62 111.373H249.62V110.373L248.62 110.373V111.373ZM233.767 111.373V110.373H233.353L233.06 110.666L233.767 111.373ZM209.024 136.113L208.316 136.82L209.023 137.528L209.731 136.82L209.024 136.113ZM184.298 111.373L185.006 110.666L184.713 110.373H184.298V111.373ZM248.62 284.358L249.325 283.649L247.62 281.953V284.358H248.62ZM248.62 332.479H247.62V334.872L249.323 333.19L248.62 332.479ZM272.898 308.498L273.601 309.21L274.318 308.5L273.603 307.789L272.898 308.498ZM11.9708 333.157H10.9708V335.55L12.6735 333.868L11.9708 333.157ZM36.9343 308.498L37.637 309.21L38.3549 308.5L37.6394 307.789L36.9343 308.498ZM11.9708 283.676L12.6759 282.966L10.9708 281.271V283.676H11.9708ZM27.2073 269.121V268.121H24.7942L26.4999 269.828L27.2073 269.121ZM56.47 298.404L57.47 298.404L57.47 297.99L57.1774 297.697L56.47 298.404ZM91.1696 269.121V270.121H92.1696V269.121H91.1696ZM91.1696 268.809V267.809H90.1696V268.809H91.1696ZM91.1889 268.809H92.1889V267.809H91.1889V268.809ZM91.1889 288.006V289.006H92.1889V288.006H91.1889ZM91.1673 288.006V287.006H90.1673V288.006H91.1673ZM91.1673 298.51V299.51H92.1673V298.51H91.1673ZM56.47 298.51L55.47 298.51L55.4699 299.51H56.47V298.51ZM-17.74 190.587V189.587H-18.74V190.587H-17.74ZM-17.74 224.362H-18.74V225.362H-17.74V224.362ZM11.956 190.587H12.956V189.587H11.956V190.587ZM11.956 190.588H10.956V191.588H11.956V190.588ZM11.9776 190.588H12.9776V189.588H11.9776V190.588ZM11.9776 209.45V210.45H12.9776V209.45H11.9776ZM11.956 209.45V208.45H10.956V209.45H11.956ZM11.956 229.331H10.956V230.331H11.956V229.331ZM11.9776 229.331H12.9776V228.331H11.9776V229.331ZM11.9776 249.24V250.24H12.9776V249.24H11.9776ZM11.956 249.24V248.24H10.956V249.24H11.956ZM11.956 253.944L11.2488 254.651L12.956 256.358V253.944H11.956ZM-17.6216 224.362L-16.9144 223.655L-17.2073 223.362H-17.6216V224.362ZM-2.88302 268.81V269.81H-0.479851L-2.17362 268.105L-2.88302 268.81ZM-27.5549 243.977L-26.8455 243.273L-27.5526 242.561L-28.262 243.27L-27.5549 243.977ZM-47.467 268.81L-47.467 269.81H-47.467V268.81ZM-52.3911 268.81L-53.0982 268.103L-54.8056 269.81H-52.3911L-52.3911 268.81ZM170.381 127.198L171.087 126.49L169.381 124.789V127.198H170.381ZM170.381 170.782H169.381V171.782H170.381V170.782ZM214.092 170.782V171.782H216.511L214.798 170.074L214.092 170.782ZM150.577 190.587H149.577V191.587H150.577V190.587ZM154.536 190.587L155.243 191.294L156.951 189.587H154.536V190.587ZM150.577 190.565H151.577V189.565H150.577V190.565ZM130.747 190.565V189.565H129.747V190.565H130.747ZM130.747 190.587V191.587H131.747V190.587H130.747ZM110.943 190.587H109.943V191.587H110.943V190.587ZM110.943 190.565H111.943V189.565H110.943V190.565ZM107.028 190.565V189.565H104.615L106.321 191.272L107.028 190.565ZM130.784 214.335L130.077 215.042L130.784 215.75L131.491 215.042L130.784 214.335ZM110.943 170.762V171.762H111.943V170.762H110.943ZM91.1696 170.762H90.1696V171.762H91.1696V170.762ZM110.943 131.176H111.943V130.176H110.943V131.176ZM91.1696 131.176V130.176H90.1696V131.176H91.1696ZM150.577 131.176H151.577V130.176H150.577V131.176ZM150.577 170.762V171.762H151.577V170.762H150.577ZM130.747 131.176V130.176H129.747V131.176H130.747ZM130.747 170.762H129.747V171.762H130.747V170.762ZM307.33 190.588H308.33V189.588H307.33V190.588ZM307.328 190.588H306.328V191.588H307.328V190.588ZM307.33 209.45V210.45H308.33V209.45H307.33ZM267.744 209.45H266.744V210.45H267.744V209.45ZM267.744 189.596H268.744V188.596H267.744V189.596ZM263.761 189.596L263.053 188.89L261.351 190.596H263.761V189.596ZM307.328 145.902H308.328V143.483L306.62 145.196L307.328 145.902ZM247.941 190.588H248.941V189.588H247.941V190.588ZM247.919 190.588H246.919V191.588H247.919V190.588ZM247.941 209.45V210.45H248.941V209.45H247.941ZM247.919 209.45V208.45H246.919V209.45H247.919ZM247.919 229.331H246.919V230.331H247.919V229.331ZM247.941 229.331H248.941V228.331H247.941V229.331ZM247.941 249.24V250.24H248.941V249.24H247.941ZM247.919 249.24V248.24H246.919V249.24H247.919ZM247.919 253.667L247.21 254.372L248.919 256.092V253.667H247.919ZM219.028 224.585L219.737 223.88L219.444 223.585H219.028V224.585ZM218.909 224.585H217.909V225.585H218.909V224.585ZM218.909 190.587V189.587H217.909V190.587H218.909ZM247.919 190.587H248.919V189.587H247.919V190.587ZM170.38 190.587V189.587H169.38V190.587H170.38ZM199.106 190.587H200.106V189.587H199.106V190.587ZM170.38 204.448L171.085 205.157L171.38 204.864V204.448H170.38ZM145.554 229.113L144.849 228.404L144.137 229.111L144.846 229.82L145.554 229.113ZM170.101 253.676L169.394 254.383L170.101 255.09L170.808 254.383L170.101 253.676ZM199 224.779L199 223.779L198.586 223.779L198.293 224.071L199 224.779ZM199.106 224.779L199.106 225.779L200.106 225.779V224.779H199.106ZM184.766 268.809L184.057 268.104L182.362 269.809H184.766V268.809ZM233.262 268.809V269.809H235.655L233.974 268.106L233.262 268.809ZM209.095 244.327L209.806 243.624L209.097 242.906L208.385 243.622L209.095 244.327ZM31.781 189.596H32.781V188.596H31.781V189.596ZM27.7971 189.596L27.089 188.89L25.3879 190.596H27.7971V189.596ZM31.781 209.45H30.781V210.45H31.781V209.45ZM71.3662 209.45V210.45H72.3662V209.45H71.3662ZM71.3662 190.588H72.3662V189.588H71.3662V190.588ZM71.3649 190.588H70.3649V191.588H71.3649V190.588ZM71.3649 145.902H72.3649V143.483L70.6567 145.196L71.3649 145.902ZM91.1696 204.451L91.8757 203.743L90.1696 202.042V204.451H91.1696ZM91.1696 249.004H90.1696V250.004H91.1696V249.004ZM135.852 249.004V250.004H138.271L136.558 248.296L135.852 249.004ZM150.577 268.809H151.577V267.809H150.577V268.809ZM110.992 268.809V267.809H109.992V268.809H110.992ZM150.577 288.006V289.006H151.577V288.006H150.577ZM110.992 288.006H109.992V289.006H110.992V288.006ZM170.381 288.612V287.612H169.381V288.612H170.381ZM189.183 288.612H190.183V287.612H189.183V288.612ZM189.183 328.197V329.197H190.183V328.197H189.183ZM170.381 328.197H169.381V329.197H170.381V328.197ZM11.956 175.695L11.2491 174.988L10.956 175.281V175.695H11.956ZM11.956 175.718L11.2487 176.425L12.956 178.133V175.718H11.956ZM36.6961 150.97L37.403 151.677L38.1104 150.97L37.4032 150.263L36.6961 150.97ZM11.9638 126.234L12.6709 125.527L11.9661 124.822L11.259 125.524L11.9638 126.234ZM-12.8553 150.891L-13.5601 150.182L-14.2716 150.889L-13.5626 151.598L-12.8553 150.891ZM248.268 126.575L248.976 125.868L248.271 125.163L247.564 125.866L248.268 126.575ZM223.793 150.891L223.088 150.182L222.377 150.889L223.086 151.598L223.793 150.891ZM272.66 150.97L273.366 151.677L274.074 150.97L273.367 150.263L272.66 150.97ZM248.251 175.364L247.543 176.071L248.25 176.778L248.958 176.071L248.251 175.364ZM-7.83263 328.199V329.199H-6.83263V328.199H-7.83263ZM-7.83263 288.613H-6.83263V287.613H-7.83263V288.613ZM-27.6636 328.199H-28.6636V329.199H-27.6636V328.199ZM-27.6636 288.613V287.613H-28.6636V288.613H-27.6636ZM228.817 288.612H229.817V287.612H228.817V288.612ZM228.817 328.197V329.197H229.817V328.197H228.817ZM208.986 288.612V287.612H207.986V288.612H208.986ZM208.986 328.197H207.986V329.197H208.986V328.197ZM110.992 328.027H109.992V329.027H110.992V328.027ZM150.577 328.027V329.027H151.577V328.027H150.577ZM110.992 308.003V307.003H109.992V308.003H110.992ZM150.577 308.003H151.577V307.003H150.577V308.003ZM71.3662 249.24V250.24H72.3662V249.24H71.3662ZM31.781 249.24H30.781V250.24H31.781V249.24ZM71.3662 229.331H72.3662V228.331H71.3662V229.331ZM31.781 229.331V228.331H30.781V229.331H31.781ZM267.744 249.24H266.744V250.24H267.744V249.24ZM307.33 249.24V250.24H308.33V249.24H307.33ZM267.744 229.331V228.331H266.744V229.331H267.744ZM307.33 229.331H308.33V228.331H307.33V229.331ZM169.381 111.373V111.373H171.381V111.373H169.381ZM150.577 112.373H170.381V110.373H150.577V112.373ZM130.747 112.373H150.577V110.373H130.747V112.373ZM110.943 112.373H130.747V110.373H110.943V112.373ZM91.1673 112.373L110.943 112.373V110.373L91.1673 110.373V112.373ZM92.1673 111.374V111.373H90.1673V111.374H92.1673ZM76.3161 112.374L91.1673 112.374V110.374L76.3161 110.374V112.374ZM52.1812 136.908L77.0229 112.081L75.6092 110.666L50.7674 135.493L52.1812 136.908ZM26.0995 112.078L50.7649 136.905L52.1837 135.496L27.5183 110.669L26.0995 112.078ZM11.9716 112.374L26.8089 112.374V110.374L11.9716 110.374V112.374ZM10.9716 111.373V111.374H12.9716V111.373H10.9716ZM-2.88099 112.373L11.9716 112.373V110.373L-2.88099 110.373V112.373ZM-26.9176 136.82L-2.17393 112.08L-3.58804 110.666L-28.3317 135.406L-26.9176 136.82ZM-53.0572 112.08L-28.332 136.82L-26.9174 135.406L-51.6426 110.666L-53.0572 112.08ZM-67.243 112.373L-52.3499 112.373V110.373L-67.243 110.373L-67.243 112.373ZM-66.243 126.225L-66.243 111.373L-68.243 111.373L-68.243 126.225H-66.243ZM-21.8506 170.074L-66.5369 125.517L-67.9491 126.933L-23.2628 171.49L-21.8506 170.074ZM-67.243 171.782L-22.5567 171.782V169.782L-67.243 169.782L-67.243 171.782ZM-66.243 190.587L-66.243 170.782H-68.243L-68.243 190.587H-66.243ZM-37.5434 189.587H-67.243V191.587H-37.5434V189.587ZM-36.5434 224.555L-36.5434 190.587H-38.5434L-38.5434 224.555H-36.5434ZM-37.6494 225.555L-37.5435 225.555L-37.5434 223.555L-37.6492 223.555L-37.6494 225.555ZM-66.5388 254.667L-36.9445 225.264L-38.3541 223.845L-67.9485 253.248L-66.5388 254.667ZM-66.2437 268.81L-66.2436 253.957H-68.2436L-68.2437 268.81H-66.2437ZM-67.224 267.81L-67.2248 267.81L-67.2625 269.81L-67.2617 269.81L-67.224 267.81ZM-66.2428 288.613L-66.2428 268.81H-68.2428L-68.2428 288.613H-66.2428ZM-47.467 287.613H-67.2428V289.613H-47.467V287.613ZM-46.467 328.199L-46.467 288.613H-48.467L-48.467 328.199H-46.467ZM-67.2428 329.199H-47.467V327.199H-67.2428V329.199ZM-66.2428 348.002L-66.2428 328.199H-68.2428L-68.2428 348.002H-66.2428ZM-47.467 347.002H-67.2428V349.002H-47.467V347.002ZM-46.467 348.024V348.002H-48.467V348.024H-46.467ZM-27.6636 347.024H-47.467V349.024H-27.6636V347.024ZM-28.6636 348.002V348.024H-26.6636V348.002H-28.6636ZM-7.83263 347.002H-27.6636V349.002H-7.83263V347.002ZM-6.83263 348.024V348.002H-8.83263V348.024H-6.83263ZM11.9708 347.024H-7.83263V349.024H11.9708V347.024ZM10.9708 348.023V348.024H12.9708V348.023H10.9708ZM26.8961 347.023H11.9708V349.023H26.8961V347.023ZM55.9587 317.722L26.1911 347.313L27.6011 348.732L57.3687 319.141L55.9587 317.722ZM55.6637 318.313V318.431H57.6637V318.313H55.6637ZM91.1889 317.313H56.6637V319.313H91.1889V317.313ZM92.1889 328.027V318.313H90.1889V328.027H92.1889ZM91.1673 329.027H91.1889V327.027H91.1673V329.027ZM92.1673 348.024V328.027H90.1673V348.024H92.1673ZM91.1889 347.024H91.1673V349.024H91.1889V347.024ZM110.992 347.024H91.1889V349.024H110.992V347.024ZM150.577 347.024H110.992V349.024H150.577V347.024ZM170.381 347.024H150.577V349.024H170.381V347.024ZM169.381 348.001V348.024H171.381V348.001H169.381ZM189.183 347.001H170.381V349.001H189.183V347.001ZM190.183 348.022V348.001H188.183V348.022H190.183ZM208.986 347.022H189.183V349.022H208.986V347.022ZM207.986 348.001V348.022H209.986V348.001H207.986ZM228.817 347.001H208.986V349.001H228.817V347.001ZM229.817 348.022V348.001H227.817V348.022H229.817ZM247.921 347.023L228.817 347.022V349.022L247.921 349.023V347.023ZM262.86 347.023H247.921V349.023H262.86V347.023ZM291.922 317.722L262.155 347.313L263.565 348.732L293.332 319.141L291.922 317.722ZM291.627 318.313V318.431H293.627V318.313H291.627ZM327.595 317.313H292.627V319.313H327.595V317.313ZM326.595 298.51V318.313H328.595V298.51H326.595ZM292.433 299.51H327.595V297.51H292.433V299.51ZM291.433 298.404V298.51H293.433V298.404H291.433ZM262.463 269.828L291.726 299.111L293.141 297.697L263.878 268.414L262.463 269.828ZM267.744 268.121H263.171V270.121H267.744V268.121ZM307.33 268.121H267.744V270.121H307.33V268.121ZM327.133 268.121H307.33V270.121H327.133V268.121ZM326.133 249.24V269.121H328.133V249.24H326.133ZM326.133 229.331V249.24H328.133V229.331H326.133ZM326.133 209.45V229.331H328.133V209.45H326.133ZM326.133 190.588V209.45H328.133V190.588H326.133ZM326.133 189.596V190.588H328.133V189.596H326.133ZM326.133 126.039V189.596H328.133V126.039H326.133ZM326.133 123.562V126.039H328.133V123.562H326.133ZM326.133 111.374V123.562H328.133V111.374H326.133ZM312.28 112.374L327.133 112.374V110.374L312.28 110.374V112.374ZM288.145 136.908L312.986 112.081L311.573 110.666L286.731 135.493L288.145 136.908ZM262.063 112.078L286.728 136.905L288.147 135.496L263.482 110.669L262.063 112.078ZM248.62 112.374L262.772 112.374V110.374L248.62 110.374V112.374ZM247.62 111.373V111.374H249.62V111.373H247.62ZM233.767 112.373L248.62 112.373V110.373L233.767 110.373V112.373ZM209.731 136.82L234.474 112.08L233.06 110.666L208.317 135.406L209.731 136.82ZM183.591 112.08L208.316 136.82L209.731 135.406L185.006 110.666L183.591 112.08ZM170.381 112.373L184.298 112.373V110.373L170.381 110.373V112.373ZM247.62 284.358V288.612H249.62V284.358H247.62ZM247.62 288.612V328.197H249.62V288.612H247.62ZM247.62 328.197V332.479H249.62V328.197H247.62ZM249.323 333.19L273.601 309.21L272.195 307.787L247.918 331.767L249.323 333.19ZM273.603 307.789L249.325 283.649L247.915 285.067L272.193 309.207L273.603 307.789ZM12.6735 333.868L37.637 309.21L36.2316 307.787L11.268 332.445L12.6735 333.868ZM10.9708 328.199V333.157H12.9708V328.199H10.9708ZM10.9708 288.613V328.199H12.9708V288.613H10.9708ZM10.9708 283.676V288.613H12.9708V283.676H10.9708ZM37.6394 307.789L12.6759 282.966L11.2657 284.385L36.2292 309.207L37.6394 307.789ZM26.4999 269.828L55.7626 299.111L57.1774 297.697L27.9146 268.414L26.4999 269.828ZM31.781 268.121H27.2073V270.121H31.781V268.121ZM71.3662 268.121H31.781V270.121H71.3662V268.121ZM91.1696 268.121H71.3662V270.121H91.1696V268.121ZM90.1696 268.809V269.121H92.1696V268.809H90.1696ZM91.1889 267.809H91.1696V269.809H91.1889V267.809ZM92.1889 288.006V268.809H90.1889V288.006H92.1889ZM91.1673 289.006H91.1889V287.006H91.1673V289.006ZM92.1673 298.51V288.006H90.1673V298.51H92.1673ZM56.47 299.51H91.1673V297.51H56.47V299.51ZM55.47 298.404L55.47 298.51L57.47 298.51L57.47 298.404L55.47 298.404ZM-18.74 190.587L-18.74 224.362H-16.74L-16.74 190.587H-18.74ZM-2.69436 189.587H-17.74V191.587H-2.69436V189.587ZM-0.216728 189.587H-2.69436V191.587H-0.216728V189.587ZM11.956 189.587H-0.216728V191.587H11.956V189.587ZM12.956 190.588V190.587H10.956V190.588H12.956ZM11.9776 189.588H11.956V191.588H11.9776V189.588ZM12.9776 209.45V190.588H10.9776V209.45H12.9776ZM11.956 210.45H11.9776V208.45H11.956V210.45ZM12.956 229.331L12.956 209.45H10.956L10.956 229.331H12.956ZM11.9776 228.331H11.956V230.331H11.9776V228.331ZM12.9776 249.24L12.9776 229.331H10.9776L10.9776 249.24H12.9776ZM11.956 250.24H11.9776V248.24H11.956V250.24ZM12.956 253.944V249.24H10.956V253.944H12.956ZM-18.3288 225.069L11.2488 254.651L12.6632 253.237L-16.9144 223.655L-18.3288 225.069ZM-17.74 225.362H-17.6216V223.362H-17.74V225.362ZM-2.17362 268.105L-26.8455 243.273L-28.2643 244.682L-3.59242 269.515L-2.17362 268.105ZM-7.83262 269.81H-2.88302V267.81H-7.83262V269.81ZM-27.6636 269.81H-7.83262V267.81H-27.6636V269.81ZM-47.467 269.81H-27.6636V267.81H-47.467V269.81ZM-52.3911 269.81L-47.467 269.81L-47.4669 267.81L-52.3911 267.81L-52.3911 269.81ZM-28.262 243.27L-53.0982 268.103L-51.684 269.517L-26.8478 244.685L-28.262 243.27ZM171.381 131.176V127.198H169.381V131.176H171.381ZM171.381 170.762V131.176H169.381V170.762H171.381ZM171.381 170.782V170.762H169.381V170.782H171.381ZM214.092 169.782L170.381 169.782V171.782L214.092 171.782V169.782ZM169.675 127.906L213.385 171.49L214.798 170.074L171.087 126.49L169.675 127.906ZM150.577 191.587H154.536V189.587H150.577V191.587ZM149.577 190.565V190.587H151.577V190.565H149.577ZM130.747 191.565H150.577V189.565H130.747V191.565ZM131.747 190.587V190.565H129.747V190.587H131.747ZM110.943 191.587H130.747V189.587H110.943V191.587ZM109.943 190.565V190.587H111.943V190.565H109.943ZM107.028 191.565H110.943V189.565H107.028V191.565ZM131.492 213.628L107.736 189.858L106.321 191.272L130.077 215.042L131.492 213.628ZM153.829 189.88L130.077 213.628L131.491 215.042L155.243 191.294L153.829 189.88ZM110.943 169.762H91.1696V171.762H110.943V169.762ZM109.943 131.176L109.943 170.762H111.943L111.943 131.176H109.943ZM91.1696 132.176H110.943V130.176H91.1696V132.176ZM92.1696 170.762V131.176H90.1696V170.762H92.1696ZM149.577 131.176V170.762H151.577V131.176H149.577ZM130.747 132.176H150.577V130.176H130.747V132.176ZM131.747 170.762L131.747 131.176H129.747L129.747 170.762H131.747ZM150.577 169.762L130.747 169.762V171.762L150.577 171.762V169.762ZM307.33 189.588H307.328V191.588H307.33V189.588ZM308.33 209.45V190.588H306.33V209.45H308.33ZM267.744 210.45L307.33 210.45V208.45L267.744 208.45V210.45ZM266.744 189.596V209.45H268.744V189.596H266.744ZM263.761 190.596H267.744V188.596H263.761V190.596ZM306.62 145.196L263.053 188.89L264.469 190.302L308.036 146.608L306.62 145.196ZM308.328 190.588V145.902H306.328V190.588H308.328ZM247.941 189.588H247.919V191.588H247.941V189.588ZM248.941 209.45V190.588H246.941V209.45H248.941ZM247.919 210.45H247.941V208.45H247.919V210.45ZM248.919 229.331V209.45H246.919V229.331H248.919ZM247.941 228.331H247.919V230.331H247.941V228.331ZM248.941 249.24V229.331H246.941V249.24H248.941ZM247.919 250.24H247.941V248.24H247.919V250.24ZM248.919 253.667V249.24H246.919V253.667H248.919ZM218.318 225.289L247.21 254.372L248.629 252.962L219.737 223.88L218.318 225.289ZM218.909 225.585H219.028V223.585H218.909V225.585ZM217.909 190.587V224.585H219.909V190.587H217.909ZM233.954 189.587H218.909V191.587H233.954V189.587ZM236.432 189.587H233.954V191.587H236.432V189.587ZM247.919 189.587H236.432V191.587H247.919V189.587ZM248.919 190.588V190.587H246.919V190.588H248.919ZM170.38 191.587H199.106V189.587H170.38V191.587ZM171.38 204.448V190.587H169.38V204.448H171.38ZM146.258 229.823L171.085 205.157L169.676 203.739L144.849 228.404L146.258 229.823ZM170.809 252.969L146.261 228.407L144.846 229.82L169.394 254.383L170.809 252.969ZM198.293 224.071L169.394 252.969L170.808 254.383L199.707 225.486L198.293 224.071ZM199.106 223.779L199 223.779L199 225.779L199.106 225.779L199.106 223.779ZM198.106 190.587V224.779H200.106V190.587H198.106ZM189.183 267.809H184.766V269.809H189.183V267.809ZM208.986 267.809H189.183V269.809H208.986V267.809ZM228.817 267.809H208.986V269.809H228.817V267.809ZM233.262 267.809H228.817V269.809H233.262V267.809ZM208.383 245.029L232.551 269.511L233.974 268.106L209.806 243.624L208.383 245.029ZM185.475 269.514L209.804 245.031L208.385 243.622L184.057 268.104L185.475 269.514ZM31.781 188.596H27.7971V190.596H31.781V188.596ZM32.781 209.45V189.596H30.781V209.45H32.781ZM71.3662 208.45H31.781V210.45H71.3662V208.45ZM70.3662 190.588V209.45H72.3662V190.588H70.3662ZM71.3649 191.588H71.3662V189.588H71.3649V191.588ZM70.3649 145.902L70.3649 190.588H72.3649L72.3649 145.902H70.3649ZM28.5053 190.302L72.073 146.608L70.6567 145.196L27.089 188.89L28.5053 190.302ZM92.1696 209.45V204.451H90.1696V209.45H92.1696ZM92.1696 229.331V209.45H90.1696V229.331H92.1696ZM92.1696 249.004V229.331H90.1696V249.004H92.1696ZM135.852 248.004H91.1696V250.004H135.852V248.004ZM90.4635 205.159L135.146 249.712L136.558 248.296L91.8757 203.743L90.4635 205.159ZM150.577 267.809H110.992V269.809H150.577V267.809ZM151.577 288.006V268.809H149.577V288.006H151.577ZM110.992 289.006L150.577 289.006V287.006L110.992 287.006V289.006ZM109.992 268.809V288.006H111.992V268.809H109.992ZM169.381 288.612V308.003H171.381V288.612H169.381ZM189.183 287.612H170.381V289.612H189.183V287.612ZM190.183 328.197V288.612H188.183V328.197H190.183ZM170.381 329.197H189.183V327.197H170.381V329.197ZM169.381 328.027V328.197H171.381V328.027H169.381ZM169.381 308.003V328.027H171.381V308.003H169.381ZM10.956 175.695V175.718H12.956V175.695H10.956ZM35.9892 150.262L11.2491 174.988L12.6629 176.402L37.403 151.677L35.9892 150.262ZM11.2566 126.941L35.9889 151.677L37.4032 150.263L12.6709 125.527L11.2566 126.941ZM-12.1505 151.601L12.6686 126.943L11.259 125.524L-13.5601 150.182L-12.1505 151.601ZM12.6633 175.011L-12.148 150.185L-13.5626 151.598L11.2487 176.425L12.6633 175.011ZM247.564 125.866L223.088 150.182L224.498 151.601L248.973 127.285L247.564 125.866ZM273.367 150.263L248.976 125.868L247.561 127.282L271.952 151.677L273.367 150.263ZM248.958 176.071L273.366 151.677L271.953 150.262L247.544 174.657L248.958 176.071ZM223.086 151.598L247.543 176.071L248.958 174.657L224.5 150.185L223.086 151.598ZM-6.83263 328.199V288.613H-8.83263V328.199H-6.83263ZM-27.6636 329.199H-7.83263V327.199H-27.6636V329.199ZM-28.6636 288.613L-28.6636 328.199H-26.6636L-26.6636 288.613H-28.6636ZM-7.83263 287.613H-27.6636V289.613H-7.83263V287.613ZM227.817 288.612V328.197H229.817V288.612H227.817ZM208.986 289.612H228.817V287.612H208.986V289.612ZM209.986 328.197V288.612H207.986V328.197H209.986ZM228.817 327.197H208.986V329.197H228.817V327.197ZM110.992 329.027L150.577 329.027V327.027L110.992 327.027V329.027ZM109.992 308.003V328.027H111.992V308.003H109.992ZM150.577 307.003L110.992 307.003V309.003L150.577 309.003V307.003ZM151.577 328.027V308.003H149.577V328.027H151.577ZM71.3662 248.24L31.781 248.24V250.24L71.3662 250.24V248.24ZM70.3662 229.331V249.24H72.3662V229.331H70.3662ZM31.781 230.331L71.3662 230.331V228.331L31.781 228.331V230.331ZM32.781 249.24L32.781 229.331H30.781L30.781 249.24H32.781ZM267.744 250.24L307.33 250.24V248.24L267.744 248.24V250.24ZM266.744 229.331V249.24H268.744V229.331H266.744ZM307.33 228.331L267.744 228.331V230.331L307.33 230.331V228.331ZM308.33 249.24V229.331H306.33V249.24H308.33Z" fill="#6B7078" mask="url(#path-2-inside-1_194_182823)"/>
</g>
<mask id="mask1_194_182823" style="mask-type:alpha" maskUnits="userSpaceOnUse" x="56" y="48" width="200" height="238">
<path d="M56.7817 48.4502L255.031 48.4502L150.097 285.101L56.7817 285.101L56.7817 48.4502Z" fill="#3D1313"/>
</mask>
<g mask="url(#mask1_194_182823)">
<path fill-rule="evenodd" clip-rule="evenodd" d="M213.995 285.101L213.995 285.101L233.799 285.101L253.629 285.101L273.433 285.101L293.209 285.101L293.209 285.101L308.06 285.101L332.902 260.274L357.567 285.101L372.404 285.101L372.404 285.101L387.257 285.101L412.001 260.361L436.726 285.101L451.619 285.101L451.619 270.249L406.933 225.692L451.619 225.692L451.619 205.887L421.919 205.887L421.919 171.919L422.025 171.919L451.62 142.517L451.62 127.664L451.619 127.664L451.619 107.861L431.843 107.861L431.843 68.2754L451.619 68.2754L451.619 48.472L431.843 48.472L431.843 48.4504L412.04 48.4504L412.04 48.472L392.209 48.472L392.209 48.4504L372.405 48.4504L372.405 48.4515L357.481 48.4515L327.714 78.0427L327.714 78.1611L293.187 78.1611L293.187 68.4468L293.209 68.4468L293.209 48.4503L293.187 48.4503L273.384 48.4503L233.798 48.4503L213.995 48.4503L213.995 48.4732L195.193 48.4732L195.193 48.4517L175.39 48.4517L175.39 48.4732L155.559 48.4732L155.559 48.4517L136.457 48.4515L121.518 48.4515L91.75 78.0427L91.75 78.1611L56.782 78.1611L56.782 97.9645L91.9438 97.9645L91.9438 98.0704L121.207 127.353L116.632 127.353L77.0463 127.353L57.2429 127.353L57.2429 147.234L57.2429 167.143L57.2429 187.024L57.2429 205.886L57.2429 206.878L57.2429 270.435L57.2429 272.912L57.2429 285.101L72.0965 285.101L96.9382 260.274L121.604 285.101L135.756 285.101L135.756 285.101L150.609 285.101L175.352 260.361L200.078 285.101L213.995 285.101ZM135.756 112.115L135.756 107.862L135.756 68.2766L135.756 63.9964L111.479 87.976L135.756 112.115ZM347.443 87.976L372.405 63.3188L372.405 68.2754L372.405 107.861L372.405 112.797L347.443 87.976ZM327.907 98.0704L357.17 127.353L352.595 127.353L313.01 127.353L293.206 127.353L293.206 127.665L293.187 127.665L293.187 108.468L293.209 108.468L293.209 97.9645L327.907 97.9645L327.907 98.0704ZM402.116 172.112L402.116 205.887L387.07 205.887L384.593 205.887L372.42 205.887L372.42 205.886L372.398 205.886L372.398 187.024L372.42 187.024L372.42 167.143L372.398 167.143L372.398 147.235L372.42 147.235L372.42 142.53L401.998 172.112L402.116 172.112ZM411.931 152.497L387.259 127.664L392.209 127.664L412.04 127.664L431.843 127.664L436.767 127.664L411.931 152.497ZM213.995 269.276L213.995 265.298L213.995 225.712L213.995 225.692L170.284 225.692L213.995 269.276ZM229.84 205.887L233.799 205.887L233.799 205.909L253.629 205.909L253.629 205.887L273.433 205.887L273.433 205.909L277.348 205.909L253.592 182.139L229.84 205.887ZM293.206 225.712L273.433 225.712L273.433 265.298L293.206 265.298L293.206 225.712ZM233.799 225.712L233.799 265.298L253.629 265.298L253.629 225.712L233.799 225.712ZM77.0477 205.886L77.0463 205.886L77.0463 187.024L116.632 187.024L116.632 206.878L120.615 206.878L77.0477 250.572L77.0477 205.886ZM136.457 205.886L136.435 205.886L136.435 187.024L136.457 187.024L136.457 167.143L136.435 167.143L136.435 147.235L136.457 147.235L136.457 142.807L165.348 171.889L165.467 171.889L165.466 205.887L150.422 205.887L147.944 205.887L136.457 205.887L136.457 205.886ZM185.27 205.887L213.996 205.887L213.996 192.026L238.822 167.361L214.275 142.798L185.376 171.696L185.27 171.696L185.27 205.887ZM199.61 127.665L195.193 127.665L175.39 127.665L155.559 127.665L151.114 127.665L175.281 152.148L199.61 127.665ZM356.579 206.878L352.595 206.878L352.595 187.024L313.01 187.024L313.01 205.886L313.011 205.886L313.011 250.572L356.579 206.878ZM293.206 192.023L293.206 187.024L293.206 167.143L293.206 147.47L248.524 147.47L293.206 192.023ZM273.384 127.665L233.798 127.665L233.798 108.468L273.384 108.468L273.384 127.665ZM213.995 88.4712L213.995 107.862L195.193 107.862L195.193 68.2766L213.995 68.2767L213.995 68.4468L213.995 88.4712ZM160.583 245.583L136.107 269.899L111.716 245.504L136.125 221.11L160.583 245.583ZM372.42 220.756L372.42 220.779L347.68 245.504L372.412 270.24L397.231 245.583L372.42 220.756ZM392.209 107.861L392.209 68.2754L412.04 68.2754L412.04 107.861L392.209 107.861ZM155.559 68.2766L155.559 107.862L175.39 107.862L175.39 68.2766L155.559 68.2766ZM233.798 68.4468L273.384 68.4468L273.384 88.4712L233.798 88.4712L233.798 68.4468ZM352.595 147.235L313.01 147.235L313.01 167.143L352.595 167.143L352.595 147.235ZM77.0463 147.234L116.632 147.235L116.632 167.143L77.0463 167.143L77.0463 147.234Z" fill="#6B7078"/>
</g>
<path d="M131.11 323.965L265.81 24.8536" stroke="url(#paint0_linear_194_182823)" stroke-width="2"/>
<path d="M237.924 40.4276L224.041 40.4278M244.711 33.6405L232.679 21.6088" stroke="#6B7078" stroke-width="2"/>
<path d="M251.498 26.8535L251.498 12.9705M244.711 33.6405L232.679 21.6088" stroke="#6B7078" stroke-width="2"/>
<defs>
<linearGradient id="paint0_linear_194_182823" x1="175.276" y1="202.748" x2="131.11" y2="323.965" gradientUnits="userSpaceOnUse">
<stop stop-color="#425EE0"/>
<stop offset="1" stop-color="#425EE0" stop-opacity="0"/>
</linearGradient>
</defs>
</svg>
