<svg width="372" height="383" viewBox="0 0 372 383" fill="none" xmlns="http://www.w3.org/2000/svg">
<rect width="371.591" height="381.837" transform="translate(0.20459 0.581543)" fill="white"/>
<mask id="mask0_194_181408" style="mask-type:alpha" maskUnits="userSpaceOnUse" x="135" y="142" width="156" height="187">
<path d="M290.826 328.323L135.047 328.323L217.501 142.369L290.826 142.369L290.826 328.323Z" fill="#3D1313"/>
</mask>
<g mask="url(#mask0_194_181408)">
<path fill-rule="evenodd" clip-rule="evenodd" d="M154.842 204.613H151.731V204.596H136.148V204.613H120.587V204.596H117.512L136.178 223.274L154.842 204.613ZM105.05 189.035H120.587V157.93H105.05L105.05 189.035ZM105.048 142.369L120.587 142.369L136.148 142.369L151.731 142.369L167.292 142.369L178.228 142.369L197.657 161.809L217.1 142.369L228.771 142.369L239.891 142.369L259.272 161.877L278.792 142.369L290.464 142.369V151.946V153.893V203.834V204.614V219.435V235.057V250.701V266.323H274.903L243.798 266.323H240.203L263.197 289.333V289.416H290.827V304.977H263.35V305.07L239.959 328.322L228.77 328.322L228.22 328.322L213.209 328.322V328.305H197.626V328.322H182.065V328.305H167.292V328.323H151.731H120.625H105.064H105.048V312.61H105.064V304.977H77.9355V305.07L54.5448 328.322H42.8176V328.323H27.2566V328.306L11.674 328.306V328.323H-3.88705V328.306H-19.4264L-19.4264 312.745H-3.88705L-3.88705 281.64H-19.4264L-19.4264 266.079L-19.4276 266.079L-19.4276 254.408L3.82686 231.304H3.91006L3.91006 204.613H-19.4266L-19.4266 189.051L15.6867 189.051L-19.4266 154.039L-19.4266 142.369L-7.72401 142.369L11.7044 161.809L31.1474 142.369L42.8056 142.369L54.4766 142.369L73.858 161.877L93.378 142.369L105.048 142.369ZM228.77 316.108L247.847 297.265L228.77 278.296V281.639V312.744V316.108ZM105.048 281.163V289.416H77.7832V289.333L54.789 266.323H58.3835L89.4886 266.323H105.05V266.078H105.064V281.163H105.048ZM42.8176 281.64V277.76L62.4326 297.265L42.8176 316.64V312.745L42.8176 281.64ZM-3.88704 266.079L-7.75687 266.079L11.7588 246.566L31.1453 266.079H27.2566H11.674H-3.88704ZM42.8056 250.701V254.398L19.5641 231.153H19.4711V204.613H31.294H33.2409H42.8056V204.614H42.8225V219.435H42.8056V235.057H42.8225L42.8225 250.701H42.8056ZM167.292 154.803V157.93V189.035V189.051L201.639 189.051L167.292 154.803ZM151.731 189.035V157.93L136.148 157.93V189.035H151.731ZM274.902 204.614H274.903V219.435L243.798 219.435V203.834H240.667L274.902 169.5V204.614ZM228.22 204.614H228.237V219.435H228.22V235.057H228.237V250.701H228.22V254.18L205.517 231.328H205.424V204.613H217.247H219.193H228.22V204.614ZM189.863 204.613H167.292V215.505L147.784 234.886L167.073 254.186L189.78 231.48H189.863V204.613ZM178.595 266.078H182.065H197.626H213.209H216.702L197.712 246.841L178.595 266.078ZM55.2531 203.834H58.3835V219.435L89.4886 219.435V204.614H89.4875L89.4875 169.5L55.2531 203.834ZM105.05 215.506V219.435L105.05 235.057V250.515H140.161L105.05 215.506ZM120.625 266.078H151.731V281.163L120.625 281.163V266.078ZM167.292 296.875V281.639H182.065V312.744H167.292V312.61V296.875ZM209.262 173.421L228.494 154.314L247.66 173.483L228.48 192.651L209.262 173.421ZM42.8056 192.929V192.911L62.2457 173.483L42.812 154.046L23.3098 173.421L42.8056 192.929ZM27.2566 281.64V312.745H11.674L11.674 281.64H27.2566ZM213.209 312.744V281.639H197.626V312.744H213.209ZM151.731 312.61L120.625 312.61V296.875L151.731 296.875V312.61ZM58.3835 250.701L89.4886 250.701L89.4886 235.057L58.3835 235.057L58.3835 250.701ZM274.903 250.701L243.798 250.701V235.057L274.903 235.057V250.701Z" fill="#E5E7EB"/>
</g>
<mask id="mask1_194_181408" style="mask-type:alpha" maskUnits="userSpaceOnUse" x="59" y="69" width="156" height="187">
<path d="M59.001 69.3247L214.78 69.3247L132.326 255.279L59.0009 255.279L59.001 69.3247Z" fill="#3D1313"/>
</mask>
<g mask="url(#mask1_194_181408)">
<path fill-rule="evenodd" clip-rule="evenodd" d="M194.985 193.035L198.097 193.035L198.097 193.051L213.679 193.051L213.679 193.035L229.24 193.035L229.24 193.051L232.315 193.051L213.649 174.374L194.985 193.035ZM244.778 208.612L229.24 208.612L229.24 239.718L244.778 239.718L244.778 208.612ZM244.78 255.279L229.24 255.279L213.679 255.279L198.097 255.279L182.536 255.279L171.599 255.279L152.17 235.838L132.727 255.279L121.057 255.279L109.936 255.279L90.5551 235.77L71.035 255.279L59.3635 255.278L59.3635 245.701L59.3635 243.754L59.3635 193.813L59.3635 193.034L59.3635 178.213L59.3635 162.591L59.3635 146.947L59.3635 131.325L74.9245 131.325L106.03 131.325L109.624 131.325L86.6298 108.315L86.6298 108.231L59.0007 108.231L59.0007 92.6704L86.4776 92.6704L86.4776 92.5773L109.868 69.3254L121.057 69.3254L121.607 69.3254L136.618 69.3254L136.618 69.3424L152.201 69.3424L152.201 69.3254L167.762 69.3254L167.762 69.3424L182.536 69.3424L182.536 69.3246L198.097 69.3246L229.202 69.3246L244.763 69.3246L244.78 69.3246L244.78 85.0374L244.763 85.0374L244.763 92.6704L271.892 92.6704L271.892 92.5774L295.282 69.3254L307.01 69.3254L307.01 69.3246L322.571 69.3246L322.571 69.3416L338.153 69.3416L338.153 69.3246L353.714 69.3246L353.714 69.3416L369.254 69.3416L369.254 84.9026L353.714 84.9026L353.714 116.008L369.254 116.008L369.254 131.569L369.255 131.569L369.255 143.239L346 166.343L345.917 166.343L345.917 193.034L369.254 193.034L369.254 208.597L334.14 208.597L369.254 243.608L369.254 255.279L357.551 255.279L338.123 235.838L318.68 255.279L307.022 255.279L295.351 255.279L275.969 235.77L256.449 255.279L244.78 255.279ZM121.057 81.5393L101.981 100.383L121.057 119.352L121.057 116.008L121.057 84.9034L121.057 81.5393ZM244.78 116.485L244.78 108.231L272.044 108.231L272.044 108.315L295.038 131.325L291.444 131.325L260.339 131.325L244.778 131.325L244.778 131.57L244.763 131.57L244.763 116.485L244.78 116.485ZM307.01 116.008L307.01 119.887L287.395 100.383L307.01 81.0075L307.01 84.9026L307.01 116.008ZM353.714 131.569L357.584 131.569L338.068 151.082L318.682 131.569L322.571 131.569L338.153 131.569L353.714 131.569ZM307.022 146.947L307.022 143.25L330.263 166.495L330.356 166.495L330.356 193.034L318.533 193.034L316.586 193.034L307.022 193.034L307.022 193.034L307.005 193.034L307.005 178.213L307.022 178.213L307.022 162.591L307.005 162.591L307.005 146.947L307.022 146.947ZM182.536 242.845L182.536 239.718L182.536 208.612L182.536 208.597L148.188 208.597L182.536 242.845ZM198.097 208.612L198.097 239.718L213.679 239.718L213.679 208.612L198.097 208.612ZM74.9255 193.034L74.9245 193.034L74.9245 178.213L106.03 178.213L106.03 193.813L109.16 193.813L74.9255 228.147L74.9255 193.034ZM121.608 193.034L121.591 193.034L121.591 178.213L121.608 178.213L121.608 162.591L121.591 162.591L121.591 146.947L121.608 146.947L121.608 143.467L144.31 166.32L144.403 166.32L144.403 193.034L132.581 193.034L130.634 193.034L121.608 193.034L121.608 193.034ZM159.964 193.034L182.535 193.034L182.535 182.143L202.043 162.761L182.755 143.461L160.047 166.167L159.964 166.167L159.964 193.034ZM171.232 131.569L167.762 131.569L152.201 131.569L136.618 131.569L133.125 131.569L152.115 150.807L171.232 131.569ZM294.574 193.813L291.444 193.813L291.444 178.213L260.339 178.213L260.339 193.034L260.34 193.034L260.34 228.147L294.574 193.813ZM244.778 182.141L244.778 178.213L244.778 162.591L244.778 147.132L209.666 147.132L244.778 182.141ZM229.202 131.57L198.097 131.57L198.097 116.485L229.202 116.485L229.202 131.57ZM182.536 100.772L182.536 116.008L167.762 116.008L167.762 84.9034L182.536 84.9034L182.536 85.0374L182.536 100.772ZM140.565 224.226L121.333 243.333L102.167 224.165L121.347 204.997L140.565 224.226ZM307.022 204.719L307.022 204.736L287.581 224.165L307.015 243.601L326.517 224.226L307.022 204.719ZM322.571 116.008L322.571 84.9026L338.153 84.9026L338.153 116.008L322.571 116.008ZM136.618 84.9034L136.618 116.008L152.201 116.008L152.201 84.9034L136.618 84.9034ZM198.097 85.0374L229.202 85.0374L229.202 100.772L198.097 100.772L198.097 85.0374ZM291.444 146.947L260.339 146.947L260.339 162.591L291.444 162.591L291.444 146.947ZM74.9245 146.947L106.03 146.947L106.03 162.591L74.9245 162.591L74.9245 146.947Z" fill="#E5E7EB"/>
</g>
<path d="M116.905 285.59L223.752 51.0103" stroke="url(#paint0_linear_194_181408)" stroke-width="2"/>
<path d="M236.062 98.9577L131.415 334.528" stroke="url(#paint1_linear_194_181408)" stroke-width="2"/>
<path d="M219.988 40.7896L216.064 30.6108M226.883 43.8476L232.304 31.6256" stroke="#6B7078" stroke-width="2"/>
<path d="M233.777 46.9054L243.955 42.9819M226.882 43.8474L232.303 31.6254" stroke="#6B7078" stroke-width="2"/>
<defs>
<linearGradient id="paint0_linear_194_181408" x1="152.017" y1="190.49" x2="116.905" y2="285.59" gradientUnits="userSpaceOnUse">
<stop stop-color="#425EE0"/>
<stop offset="1" stop-color="#425EE0" stop-opacity="0"/>
</linearGradient>
<linearGradient id="paint1_linear_194_181408" x1="201.842" y1="194.382" x2="236.062" y2="98.9578" gradientUnits="userSpaceOnUse">
<stop stop-color="#425EE0"/>
<stop offset="1" stop-color="#425EE0" stop-opacity="0"/>
</linearGradient>
</defs>
</svg>
