<svg width="1148" height="240" viewBox="0 0 1148 240" fill="none" xmlns="http://www.w3.org/2000/svg">
<g clip-path="url(#clip0_114_113672)">
<rect width="1394" height="256" transform="translate(-112)" fill="white"/>
<path d="M153.936 89V-0.999976L153.936 44M153.936 89L109.28 44M153.936 89L198.592 134M153.936 89L153.936 44M153.936 89V134M153.936 89H243.248M153.936 89L64.6242 89M109.28 44L64.6242 -0.999968L19.9682 44M109.28 44L64.6242 89M64.6242 89L19.9682 134M64.6242 89L64.6242 134M243.248 89V179M243.248 89V44M243.248 89L243.248 -0.999985M243.248 89V134M243.248 89L332.561 89M243.248 179L198.592 134M243.248 179V224M243.248 179V134M243.248 179H153.936M198.592 134L153.936 179M153.936 179V134M153.936 179L109.28 224M153.936 179V224M19.9682 44V89M19.9682 44L-24.6879 -0.999968M-24.6879 -0.999968L-24.6879 44M-24.6879 -0.999968L-114 -0.999969L-114 44M19.9682 134V179M19.9682 134L-24.6879 89M-24.6879 89L-24.6879 44M-24.6879 89L-24.6879 134M-24.6879 89H-114M-24.6879 44L-114 44M-114 44L-114 89M-114 89L-114 134M153.936 44L243.248 44M243.248 44L243.248 -0.999985M243.248 -0.999985L287.904 44M-24.6879 179V134M-24.6879 179L-24.6879 269M-24.6879 179L-24.6879 224M-24.6879 134H-114M-114 134L-114 224M153.936 134H64.6242M64.6242 134L64.6242 179M64.6242 179L19.9682 224M64.6242 179L109.28 224M-24.6879 269L19.9682 224M-24.6879 269L-69.3439 314M-24.6879 269L-24.6879 224M-24.6879 269L-24.6879 314M-24.6879 269H-114M-24.6879 269H64.6242M19.9682 224L64.6242 269M64.6242 269L109.28 314M64.6242 269V314M-114 269L-114 359M-114 269L-114 224M-114 359L-69.3439 314M-114 359L-114 404M-114 359H-24.6879M-69.3439 314L-24.6879 359M-24.6879 359L-24.6879 314M-24.6879 359L19.9682 404M-24.6879 359L-24.6879 404M109.28 224L109.28 269M109.28 314L109.28 359M109.28 314L153.936 269M153.936 269V224M153.936 269V314M153.936 269H243.248M153.936 224L243.248 224M243.248 224V269M243.248 224L332.561 224M243.248 269V314M243.248 269L332.561 269M-24.6879 224L-114 224M153.936 359V314M153.936 359V449M153.936 359L153.936 404M153.936 314H243.248M243.248 314V359M243.248 314L332.561 314M243.248 359V404M243.248 359V449M243.248 359L287.904 404M243.248 359L332.561 359M-24.6879 314H64.6242M64.6242 314V359M64.6242 359L109.28 404M64.6242 359L19.9682 404M511.185 359L511.185 269M511.185 359V314M511.185 359V404M511.185 269L466.529 314M511.185 269L555.841 224M511.185 269L511.185 314M511.185 269V224M511.185 269H600.497M511.185 269L421.873 269M466.529 314L421.873 359M466.529 314L421.873 269M421.873 359L377.217 314M421.873 359V404M421.873 269L377.217 224M421.873 269V224M600.497 269V179M600.497 269V314M600.497 269L600.497 359M600.497 269L600.497 224M600.497 269L689.809 269M600.497 179L555.841 224M600.497 179L600.497 134M600.497 179L600.497 224M600.497 179L511.185 179M555.841 224L511.185 179M511.185 179V224M511.185 179L466.529 134M511.185 179L511.185 134M377.217 314V269M377.217 314L332.561 359M332.561 359L332.561 314M332.561 359L287.904 404M332.561 359V404M377.217 224L377.217 179M377.217 224L332.561 269M332.561 269V314M332.561 269V224M511.185 314L600.497 314M600.497 314L600.497 359M600.497 359L645.153 314M600.497 359V404M600.497 359L689.809 359M332.561 179L332.561 224M332.561 179L332.561 89M332.561 179L332.561 134M511.185 224L421.873 224M421.873 224V179M421.873 179L377.217 134M421.873 179L466.529 134M332.561 89L377.217 134M332.561 89L287.904 44M332.561 89L332.561 134M332.561 89V44M332.561 89L421.873 89M377.217 134L421.873 89M421.873 89L466.529 44M421.873 89V44M287.904 44L332.56 -0.999976L332.561 44M466.529 134V89M466.529 44V-0.999984M466.529 44L511.185 89M511.185 89V134M511.185 89V44M511.185 89L600.497 89M511.185 134L600.497 134M600.497 134V89M600.497 134L689.809 134M600.497 89V44M600.497 89L689.809 89M332.561 134L243.248 134M511.185 -0.999984V44M511.185 44L600.497 44M600.497 44V-1L689.809 -0.999968M600.497 44L689.809 44M332.561 44L421.873 44M421.873 44V-0.999984M868.433 89V-0.999976V44M868.433 89L823.777 44M868.433 89L913.089 134M868.433 89V44M868.433 89V134M868.433 89H957.745M868.433 89L779.121 89M823.777 44L779.121 -0.999968L734.465 44M823.777 44L779.121 89M779.121 89L734.465 134M779.121 89V134M957.745 89V179M957.745 89V44M957.745 89V-0.999985M957.745 89V134M957.745 89L1047.06 89M957.745 179L913.089 134M957.745 179V224M957.745 179V134M957.745 179H868.433M913.089 134L868.433 179M868.433 179V134M868.433 179L823.777 224M868.433 179V224M734.465 44V89M734.465 44L689.809 -0.999968M689.809 -0.999968V44M734.465 134V179M734.465 134L689.809 89M689.809 89V44M689.809 89V134M868.433 44L957.745 44M957.745 44V-0.999985M957.745 -0.999985L1002.4 44M689.809 179V134M689.809 179V269M689.809 179V224M868.433 134H779.121M779.121 134V179M779.121 179L734.465 224M779.121 179L823.777 224M689.809 269L734.465 224M689.809 269L645.153 314M689.809 269V224M689.809 269V314M689.809 269H779.121M734.465 224L779.121 269M779.121 269L823.777 314M779.121 269V314M645.153 314L689.809 359M689.809 359V314M689.809 359L734.465 404M689.809 359V404M823.777 224V269M823.777 314V359M823.777 314L868.433 269M868.433 269V224M868.433 269V314M868.433 269H957.745M868.433 224L957.745 224M957.745 224V269M957.745 224L1047.06 224M957.745 269V314M957.745 269L1047.06 269M689.809 224L600.497 224M868.433 359V314M868.433 359V449M868.433 359V404M868.433 314H957.745M957.745 314V359M957.745 314L1047.06 314M957.745 359V404M957.745 359V449M957.745 359L1002.4 404M957.745 359L1047.06 359M689.809 314H779.121M779.121 314V359M779.121 359L823.777 404M779.121 359L734.465 404M1225.68 359V269M1225.68 359V314M1225.68 359V404M1225.68 269L1181.03 314M1225.68 269L1270.34 224M1225.68 269V314M1225.68 269V224M1225.68 269H1314.99M1225.68 269L1136.37 269M1181.03 314L1136.37 359M1181.03 314L1136.37 269M1136.37 359L1091.71 314M1136.37 359V404M1136.37 269L1091.71 224M1136.37 269V224M1314.99 269V179M1314.99 269V314M1314.99 269V359M1314.99 269V224M1314.99 269L1404.31 269M1314.99 179L1270.34 224M1314.99 179V134M1314.99 179V224M1314.99 179L1225.68 179M1270.34 224L1225.68 179M1225.68 179V224M1225.68 179L1181.03 134M1225.68 179V134M1091.71 314V269M1091.71 314L1047.06 359M1047.06 359V314M1047.06 359L1002.4 404M1047.06 359V404M1091.71 224V179M1091.71 224L1047.06 269M1047.06 269V314M1047.06 269V224M1225.68 314L1314.99 314M1314.99 314V359M1314.99 359L1359.65 314M1314.99 359V404M1314.99 359L1404.31 359M1047.06 179V224M1047.06 179V89M1047.06 179V134M1225.68 224L1136.37 224M1136.37 224V179M1136.37 179L1091.71 134M1136.37 179L1181.03 134M1047.06 89L1091.71 134M1047.06 89L1002.4 44M1047.06 89V134M1047.06 89V44M1047.06 89L1136.37 89M1091.71 134L1136.37 89M1136.37 89L1181.03 44M1136.37 89V44M1002.4 44L1047.06 -0.999976V44M1181.03 134V89M1181.03 44V-0.999984M1181.03 44L1225.68 89M1225.68 89V134M1225.68 89V44M1225.68 89L1314.99 89M1225.68 134L1314.99 134M1314.99 134V89M1314.99 134L1404.31 134M1314.99 89V44M1314.99 89L1404.31 89M1047.06 134L957.745 134M1225.68 -0.999984V44M1225.68 44L1314.99 44M1314.99 44V-1L1404.31 -0.999968M1314.99 44L1404.31 44M1047.06 44L1136.37 44M1136.37 44V-0.999984M1582.93 89V-0.999976V44M1582.93 89L1538.27 44M1582.93 89L1627.59 134M1582.93 89V44M1582.93 89V134M1582.93 89H1672.24M1582.93 89L1493.62 89M1538.27 44L1493.62 -0.999968L1448.96 44M1538.27 44L1493.62 89M1493.62 89L1448.96 134M1493.62 89V134M1672.24 89V179M1672.24 89V44M1672.24 89V-0.999985M1672.24 89V134M1672.24 89L1761.55 89M1672.24 179L1627.59 134M1672.24 179V224M1672.24 179V134M1672.24 179H1582.93M1627.59 134L1582.93 179M1582.93 179V134M1582.93 179L1538.27 224M1582.93 179V224M1448.96 44V89M1448.96 44L1404.31 -0.999968M1404.31 -0.999968V44M1448.96 134V179M1448.96 134L1404.31 89M1404.31 89V44M1404.31 89V134M1582.93 44L1672.24 44M1672.24 44V-0.999985M1672.24 -0.999985L1716.9 44M1404.31 179V134M1404.31 179V269M1404.31 179V224M1582.93 134H1493.62M1493.62 134V179M1493.62 179L1448.96 224M1493.62 179L1538.27 224M1404.31 269L1448.96 224M1404.31 269L1359.65 314M1404.31 269V224M1404.31 269V314M1404.31 269H1493.62M1448.96 224L1493.62 269M1493.62 269L1538.27 314M1493.62 269V314M1493.62 269V359M1359.65 314L1404.31 359M1404.31 359V314M1404.31 359V404M1404.31 359L1448.96 404M1538.27 224V269M1538.27 314V359M1538.27 314L1582.93 269M1538.27 314L1493.62 359M1538.27 314L1582.93 359M1582.93 269V224M1582.93 269V314M1582.93 269H1672.24M1582.93 224L1672.24 224M1672.24 224V269M1672.24 224L1761.55 224M1672.24 269V314M1672.24 269L1761.55 269M1404.31 224L1314.99 224M1582.93 359V314M1582.93 359L1538.27 404M1582.93 359V404M1582.93 314H1672.24M1672.24 314V359M1672.24 314L1761.55 314M1672.24 359V404M1672.24 359V449M1672.24 359L1716.9 404M1672.24 359L1761.55 359M1404.31 314H1493.62M1493.62 314V359M1493.62 359V449M1493.62 359L1448.96 404M1940.18 359V269M1940.18 359V314M1940.18 359V404M1940.18 269L1895.52 314M1940.18 269L1984.83 224M1940.18 269V314M1940.18 269V224M1940.18 269H2029.49M1940.18 269L1850.87 269M1895.52 314L1850.87 359M1895.52 314L1850.87 269M1850.87 359L1806.21 314M1850.87 359V404M1850.87 269L1806.21 224M1850.87 269V224M2029.49 269V179M2029.49 269V314M2029.49 179L1984.83 224M2029.49 179V134M2029.49 179L1940.18 179M1984.83 224L1940.18 179M1940.18 179V224M1940.18 179L1895.52 134M1940.18 179V134M1806.21 314V269M1806.21 314L1761.55 359M1761.55 359V314M1761.55 359L1716.9 404M1761.55 359V404M1806.21 224V179M1806.21 224L1761.55 269M1761.55 269V314M1761.55 269V224M1940.18 314L2029.49 314M2029.49 314V404M1761.55 179V224M1761.55 179V89M1761.55 179V134M1940.18 224L1850.87 224M1850.87 224V179M1850.87 179L1806.21 134M1850.87 179L1895.52 134M1761.55 89L1806.21 134M1761.55 89L1716.9 44M1761.55 89V134M1761.55 89V44M1761.55 89L1850.87 89M1806.21 134L1850.87 89M1850.87 89L1895.52 44M1850.87 89V44M1716.9 44L1761.55 -0.999976V44M1895.52 134V89M1895.52 44V-0.999984M1895.52 44L1940.18 89M1940.18 89V134M1940.18 89V44M1940.18 89L2029.49 89M1940.18 134L2029.49 134M2029.49 134V89M2029.49 89V44M1761.55 134L1672.24 134M1940.18 -0.999984V44M1940.18 44L2029.49 44M2029.49 44V-1M1761.55 44L1850.87 44M1850.87 44V-0.999984M153.936 449L109.28 404M153.936 449L198.592 494M153.936 449L153.936 404M153.936 449V494M153.936 449H243.248M153.936 449H64.6242M109.28 404L64.6242 449M64.6242 449L19.9682 494M64.6242 449L64.6242 494M243.248 449V539M243.248 449V404M243.248 449V494M243.248 449H332.561M243.248 539L198.592 494M243.248 539V584M243.248 539V494M243.248 539H153.936M198.592 494L153.936 539M153.936 539V494M153.936 539L109.28 584M153.936 539V584M19.9682 404V449M19.9682 494V539M19.9682 494L-24.6879 449M-24.6879 449L-24.6879 404M-24.6879 449L-24.6879 494M-24.6879 449H-114M-24.6879 404H-114M-114 404L-114 449M-114 449L-114 494M153.936 404L243.248 404M-24.6879 539V494M-24.6879 539L-24.6879 629M-24.6879 539L-24.6879 584M-24.6879 494L-114 494M-114 494L-114 584M153.936 494L64.6242 494M64.6242 494L64.6242 539M64.6242 539L19.9682 584M64.6242 539L109.28 584M-24.6879 629L19.9682 584M-24.6879 629L-69.3439 674M-24.6879 629L-24.6879 584M-24.6879 629L-24.6879 674M-24.6879 629H-114M-24.6879 629H64.6242M19.9682 584L64.6242 629M64.6242 629L109.28 674M64.6242 629V674M-114 629L-114 719M-114 629L-114 584M-114 719L-69.3439 674M-114 719L-114 764M-114 719H-24.6879M-69.3439 674L-24.6879 719M-24.6879 719L-24.6879 674M-24.6879 719L19.9682 764M-24.6879 719L-24.6879 764M109.28 584L109.28 629M109.28 674L109.28 719M109.28 674L153.936 629M153.936 629V584M153.936 629V674M153.936 629H243.248M153.936 584H243.248M243.248 584V629M243.248 584L332.561 584M243.248 629V674M243.248 629L332.561 629M-24.6879 584H-114M153.936 719V674M153.936 719V809M153.936 719L153.936 764M153.936 674H243.248M243.248 674V719M243.248 674L332.561 674M243.248 719V764M243.248 719V809M243.248 719L287.904 764M243.248 719L332.561 719M-24.6879 674H64.6242M64.6242 674V719M64.6242 719L109.28 764M64.6242 719L19.9682 764M511.185 719L511.185 629M511.185 719V674M511.185 719V764M511.185 629L466.529 674M511.185 629L555.841 584M511.185 629L511.185 674M511.185 629V584M511.185 629H600.497M511.185 629L421.873 629M466.529 674L421.873 719M466.529 674L421.873 629M421.873 719L377.217 674M421.873 719V764M421.873 629L377.217 584M421.873 629V584M600.497 629V539M600.497 629V674M600.497 629L600.497 719M600.497 629L600.497 584M600.497 629H689.809M600.497 539L555.841 584M600.497 539L600.497 494M600.497 539L600.497 584M600.497 539H511.185M555.841 584L511.185 539M511.185 539V584M511.185 539L466.529 494M511.185 539L511.185 494M377.217 674V629M377.217 674L332.561 719M332.561 719L332.561 674M332.561 719L287.904 764M332.561 719V764M377.217 584L377.217 539M377.217 584L332.561 629M332.561 629V674M332.561 629V584M511.185 674H600.497M600.497 674L600.497 719M600.497 719L645.153 674M600.497 719V764M600.497 719H689.809M332.561 539L332.561 584M332.561 539L332.561 449M332.561 539L332.561 494M511.185 584L421.873 584M421.873 584V539M421.873 539L377.217 494M421.873 539L466.529 494M332.561 449L377.217 494M332.561 449L287.904 404M332.561 449L332.561 494M332.561 449V404M332.561 449L421.873 449M377.217 494L421.873 449M421.873 449L466.529 404M421.873 449V404M466.529 494V449M466.529 404V359M466.529 404L511.185 449M511.185 449V494M511.185 449V404M511.185 449H600.497M511.185 494H600.497M600.497 494V449M600.497 494H689.809M600.497 449V404M600.497 449L689.809 449M332.561 494L243.248 494M511.185 404H600.497M600.497 404L689.809 404M332.561 404L421.873 404M868.433 449L823.777 404M868.433 449L913.089 494M868.433 449V404M868.433 449V494M868.433 449H957.745M868.433 449H779.121M823.777 404L779.121 449M779.121 449L734.465 494M779.121 449V494M957.745 449V539M957.745 449V404M957.745 449V494M957.745 449H1047.06M957.745 539L913.089 494M957.745 539V584M957.745 539V494M957.745 539H868.433M913.089 494L868.433 539M868.433 539V494M868.433 539L823.777 584M868.433 539V584M734.465 404V449M734.465 494V539M734.465 494L689.809 449M689.809 449V404M689.809 449V494M868.433 404L957.745 404M689.809 539V494M689.809 539V629M689.809 539V584M868.433 494L779.121 494M779.121 494V539M779.121 539L734.465 584M779.121 539L823.777 584M689.809 629L734.465 584M689.809 629L645.153 674M689.809 629V584M689.809 629V674M689.809 629H779.121M734.465 584L779.121 629M779.121 629L823.777 674M779.121 629V674M645.153 674L689.809 719M689.809 719V674M689.809 719L734.465 764M689.809 719V764M823.777 584V629M823.777 674V719M823.777 674L868.433 629M868.433 629V584M868.433 629V674M868.433 629H957.745M868.433 584H957.745M957.745 584V629M957.745 584L1047.06 584M957.745 629V674M957.745 629L1047.06 629M689.809 584H600.497M868.433 719V674M868.433 719V809M868.433 719V764M868.433 674H957.745M957.745 674V719M957.745 674L1047.06 674M957.745 719V764M957.745 719V809M957.745 719L1002.4 764M957.745 719L1047.06 719M689.809 674H779.121M779.121 674V719M779.121 719L823.777 764M779.121 719L734.465 764M1225.68 719V629M1225.68 719V674M1225.68 719V764M1225.68 629L1181.03 674M1225.68 629L1270.34 584M1225.68 629V674M1225.68 629V584M1225.68 629H1314.99M1225.68 629L1136.37 629M1181.03 674L1136.37 719M1181.03 674L1136.37 629M1136.37 719L1091.71 674M1136.37 719V764M1136.37 629L1091.71 584M1136.37 629V584M1314.99 629V539M1314.99 629V674M1314.99 629V719M1314.99 629V584M1314.99 629H1404.31M1314.99 539L1270.34 584M1314.99 539V494M1314.99 539V584M1314.99 539H1225.68M1270.34 584L1225.68 539M1225.68 539V584M1225.68 539L1181.03 494M1225.68 539V494M1091.71 674V629M1091.71 674L1047.06 719M1047.06 719V674M1047.06 719L1002.4 764M1047.06 719V764M1091.71 584V539M1091.71 584L1047.06 629M1047.06 629V674M1047.06 629V584M1225.68 674H1314.99M1314.99 674V719M1314.99 719L1359.65 674M1314.99 719V764M1314.99 719H1404.31M1047.06 539V584M1047.06 539V449M1047.06 539V494M1225.68 584L1136.37 584M1136.37 584V539M1136.37 539L1091.71 494M1136.37 539L1181.03 494M1047.06 449L1091.71 494M1047.06 449L1002.4 404M1047.06 449V494M1047.06 449V404M1047.06 449L1136.37 449M1091.71 494L1136.37 449M1136.37 449L1181.03 404M1136.37 449V404M1181.03 494V449M1181.03 404V359M1181.03 404L1225.68 449M1225.68 449V494M1225.68 449V404M1225.68 449H1314.99M1225.68 494H1314.99M1314.99 494V449M1314.99 494H1359.65M1314.99 449V404M1047.06 494L957.745 494M1225.68 404H1314.99M1314.99 404L1404.31 404M1047.06 404L1136.37 404M1493.62 449L1538.27 404M1493.62 449L1448.96 494M1493.62 449V494M1493.62 449L1582.93 449M1538.27 404L1582.93 449M1582.93 449L1627.59 494M1582.93 449V404M1582.93 449V494M1582.93 449H1672.24M1672.24 449V539M1672.24 449V404M1672.24 449V494M1672.24 449H1761.55M1672.24 539L1627.59 494M1672.24 539V584M1672.24 539V494M1672.24 539H1582.93M1627.59 494L1582.93 539M1582.93 539V494M1582.93 539L1538.27 584M1582.93 539V584M1448.96 494H1404.31M1448.96 494L1493.62 539M1493.62 539V494M1493.62 539H1404.31M1493.62 539L1538.27 584M1359.65 494L1404.31 449M1359.65 494L1404.31 539M1404.31 449V404M1404.31 449L1448.96 404M1404.31 539L1448.96 584M1404.31 539V584M1582.93 404L1672.24 404M1582.93 494L1493.62 494M1448.96 584L1493.62 629M1448.96 584L1404.31 629M1493.62 629L1538.27 674M1493.62 629V674M1493.62 629H1404.31M1404.31 629L1359.65 674M1404.31 629V584M1404.31 629V674M1359.65 674L1404.31 719M1404.31 719V674M1404.31 719L1448.96 764M1404.31 719V764M1538.27 584V629M1538.27 674V719M1538.27 674L1582.93 629M1582.93 629V584M1582.93 629V674M1582.93 629H1672.24M1582.93 584H1672.24M1672.24 584V629M1672.24 584L1761.55 584M1672.24 629V674M1672.24 629L1761.55 629M1404.31 584H1314.99M1582.93 719V674M1582.93 719V809M1582.93 719V764M1582.93 674H1672.24M1672.24 674V719M1672.24 674L1761.55 674M1672.24 719V764M1672.24 719V809M1672.24 719L1716.9 764M1672.24 719L1761.55 719M1404.31 674H1493.62M1493.62 674V719M1493.62 719L1538.27 764M1493.62 719L1448.96 764M1940.18 719V629M1940.18 719V674M1940.18 719V764M1940.18 629L1895.52 674M1940.18 629L1984.83 584M1940.18 629V674M1940.18 629V584M1940.18 629H2029.49M1940.18 629L1850.87 629M1895.52 674L1850.87 719M1895.52 674L1850.87 629M1850.87 719L1806.21 674M1850.87 719V764M1850.87 629L1806.21 584M1850.87 629V584M2029.49 629V539M2029.49 629V674M2029.49 539L1984.83 584M2029.49 539V494M2029.49 539H1940.18M1984.83 584L1940.18 539M1940.18 539V584M1940.18 539L1895.52 494M1940.18 539V494M1806.21 674V629M1806.21 674L1761.55 719M1761.55 719V674M1761.55 719L1716.9 764M1761.55 719V764M1806.21 584V539M1806.21 584L1761.55 629M1761.55 629V674M1761.55 629V584M1940.18 674H2029.49M2029.49 674V764M1761.55 539V584M1761.55 539V449M1761.55 539V494M1940.18 584L1850.87 584M1850.87 584V539M1850.87 539L1806.21 494M1850.87 539L1895.52 494M1761.55 449L1806.21 494M1761.55 449L1716.9 404M1761.55 449V494M1761.55 449V404M1761.55 449L1850.87 449M1806.21 494L1850.87 449M1850.87 449L1895.52 404M1850.87 449V404M1895.52 494V449M1895.52 404V359M1895.52 404L1940.18 449M1940.18 449V494M1940.18 449V404M1940.18 449H2029.49M1940.18 494H2029.49M2029.49 494V449M2029.49 449V404M1761.55 494L1672.24 494M1940.18 404H2029.49M1761.55 404L1850.87 404M153.936 809L109.28 764M153.936 809L198.592 854M153.936 809L153.936 764M153.936 809V854M153.936 809H243.248M153.936 809H64.6242M109.28 764L64.6242 809M64.6242 809L19.9682 854M64.6242 809L64.6242 854M243.248 809V899M243.248 809V764M243.248 809V854M243.248 809L332.561 809M243.248 899L198.592 854M243.248 899V944M243.248 899V854M243.248 899H153.936M198.592 854L153.936 899M153.936 899V854M153.936 899L109.28 944M153.936 899V944M19.9682 764V809M19.9682 854V899M19.9682 854L-24.6879 809M-24.6879 809L-24.6879 764M-24.6879 809L-24.6879 854M-24.6879 809H-114M-24.6879 764H-114M-114 764L-114 809M-114 809L-114 854M153.936 764H243.248M-24.6879 899V854M-24.6879 899L-24.6879 989M-24.6879 899L-24.6879 944M-24.6879 854H-114M-114 854L-114 944M153.936 854H64.6242M64.6242 854L64.6242 899M64.6242 899L19.9682 944M64.6242 899L109.28 944M-24.6879 989L19.9682 944M-24.6879 989L-69.3439 1034M-24.6879 989L-24.6879 944M-24.6879 989L-24.6879 1034M-24.6879 989H-114M-24.6879 989H64.6242M19.9682 944L64.6242 989M64.6242 989L109.28 1034M64.6242 989V1034M-114 989L-114 1079L-69.3439 1034M-114 989L-114 944M-69.3439 1034L-24.6879 1079L-24.6879 1034M109.28 944L109.28 989M109.28 1034L109.28 1079M109.28 1034L153.936 989M153.936 989V944M153.936 989V1034M153.936 989H243.248M153.936 944H243.248M243.248 944V989M243.248 944H332.561M243.248 989V1034M243.248 989L332.561 989M-24.6879 944L-114 944M153.936 1079V1034M153.936 1034H243.248M243.248 1034V1079L332.561 1079M243.248 1034H332.561M-24.6879 1034H64.6242M64.6242 1034V1079M511.185 989L511.185 1079V1034M511.185 989L466.529 1034M511.185 989L555.841 944M511.185 989L511.185 1034M511.185 989V944M511.185 989H600.497M511.185 989L421.873 989M466.529 1034L421.873 1079L377.217 1034M466.529 1034L421.873 989M421.873 989L377.217 944M421.873 989V944M600.497 989V899M600.497 989V1034M600.497 989L600.497 1079M600.497 989L600.497 944M600.497 989H689.809M600.497 899L555.841 944M600.497 899L600.497 854M600.497 899L600.497 944M600.497 899H511.185M555.841 944L511.185 899M511.185 899V944M511.185 899L466.529 854M511.185 899L511.185 854M377.217 1034V989M377.217 1034L332.561 1079M332.561 1079L332.561 1034M377.217 944L377.217 899M377.217 944L332.561 989M332.561 989V1034M332.561 989V944M511.185 1034H600.497M600.497 1034L600.497 1079M600.497 1079L645.153 1034M332.561 899L332.561 944M332.561 899L332.561 809M332.561 899L332.561 854M511.185 944L421.873 944M421.873 944V899M421.873 899L377.217 854M421.873 899L466.529 854M332.561 809L377.217 854M332.561 809L287.904 764M332.561 809L332.561 854M332.561 809V764M332.561 809L421.873 809M377.217 854L421.873 809M421.873 809L466.529 764M421.873 809V764M466.529 854V809M466.529 764V719M466.529 764L511.185 809M511.185 809V854M511.185 809V764M511.185 809H600.497M511.185 854H600.497M600.497 854V809M600.497 854H689.809M600.497 809V764M600.497 809H689.809M332.561 854H243.248M511.185 764H600.497M600.497 764H689.809M332.561 764L421.873 764M868.433 809L823.777 764M868.433 809L913.089 854M868.433 809V764M868.433 809V854M868.433 809H957.745M868.433 809H779.121M823.777 764L779.121 809M779.121 809L734.465 854M779.121 809V854M957.745 809V899M957.745 809V764M957.745 809V854M957.745 809L1047.06 809M957.745 899L913.089 854M957.745 899V944M957.745 899V854M957.745 899H868.433M913.089 854L868.433 899M868.433 899V854M868.433 899L823.777 944M868.433 899V944M734.465 764V809M734.465 854V899M734.465 854L689.809 809M689.809 809V764M689.809 809V854M868.433 764H957.745M689.809 899V854M689.809 899V989M689.809 899V944M868.433 854H779.121M779.121 854V899M779.121 899L734.465 944M779.121 899L823.777 944M689.809 989L734.465 944M689.809 989L645.153 1034M689.809 989V944M689.809 989V1034M689.809 989H779.121M734.465 944L779.121 989M779.121 989L823.777 1034M779.121 989V1034M645.153 1034L689.809 1079V1034M823.777 944V989M823.777 1034V1079M823.777 1034L868.433 989M868.433 989V944M868.433 989V1034M868.433 989H957.745M868.433 944H957.745M957.745 944V989M957.745 944H1047.06M957.745 989V1034M957.745 989L1047.06 989M689.809 944L600.497 944M868.433 1079V1034M868.433 1034H957.745M957.745 1034V1079L1047.06 1079M957.745 1034H1047.06M689.809 1034H779.121M779.121 1034V1079M1225.68 989V1079V1034M1225.68 989L1181.03 1034M1225.68 989L1270.34 944M1225.68 989V1034M1225.68 989V944M1225.68 989H1314.99M1225.68 989L1136.37 989M1181.03 1034L1136.37 1079L1091.71 1034M1181.03 1034L1136.37 989M1136.37 989L1091.71 944M1136.37 989V944M1314.99 989V899M1314.99 989V1034M1314.99 989V1079M1314.99 989V944M1314.99 989H1404.31M1314.99 899L1270.34 944M1314.99 899V854M1314.99 899V944M1314.99 899H1225.68M1270.34 944L1225.68 899M1225.68 899V944M1225.68 899L1181.03 854M1225.68 899V854M1091.71 1034V989M1091.71 1034L1047.06 1079M1047.06 1079V1034M1091.71 944V899M1091.71 944L1047.06 989M1047.06 989V1034M1047.06 989V944M1225.68 1034H1314.99M1314.99 1034V1079M1314.99 1079L1359.65 1034M1047.06 899V944M1047.06 899V809M1047.06 899V854M1225.68 944L1136.37 944M1136.37 944V899M1136.37 899L1091.71 854M1136.37 899L1181.03 854M1047.06 809L1091.71 854M1047.06 809L1002.4 764M1047.06 809V854M1047.06 809V764M1047.06 809L1136.37 809M1091.71 854L1136.37 809M1136.37 809L1181.03 764M1136.37 809V764M1181.03 854V809M1181.03 764V719M1181.03 764L1225.68 809M1225.68 809V854M1225.68 809V764M1225.68 809H1314.99M1225.68 854H1314.99M1314.99 854V809M1314.99 854H1404.31M1314.99 809V764M1314.99 809H1404.31M1047.06 854H957.745M1225.68 764H1314.99M1314.99 764H1404.31M1047.06 764L1136.37 764M1582.93 809L1538.27 764M1582.93 809L1627.59 854M1582.93 809V764M1582.93 809V854M1582.93 809H1672.24M1582.93 809H1493.62M1538.27 764L1493.62 809M1493.62 809L1448.96 854M1493.62 809V854M1672.24 809V899M1672.24 809V764M1672.24 809V854M1672.24 809L1761.55 809M1672.24 899L1627.59 854M1672.24 899V944M1672.24 899V854M1672.24 899H1582.93M1627.59 854L1582.93 899M1582.93 899V854M1582.93 899L1538.27 944M1582.93 899V944M1448.96 764V809M1448.96 854V899M1448.96 854L1404.31 809M1404.31 809V764M1404.31 809V854M1582.93 764H1672.24M1404.31 899V854M1404.31 899V989M1404.31 899V944M1582.93 854H1493.62M1493.62 854V899M1493.62 899L1448.96 944M1493.62 899L1538.27 944M1404.31 989L1448.96 944M1404.31 989L1359.65 1034M1404.31 989V944M1404.31 989V1034M1404.31 989H1493.62M1448.96 944L1493.62 989M1493.62 989L1538.27 1034M1493.62 989V1034M1359.65 1034L1404.31 1079V1034M1538.27 944V989M1538.27 1034V1079M1538.27 1034L1582.93 989M1582.93 989V944M1582.93 989V1034M1582.93 989H1672.24M1582.93 944H1672.24M1672.24 944V989M1672.24 944H1761.55M1672.24 989V1034M1672.24 989L1761.55 989M1404.31 944L1314.99 944M1582.93 1079V1034M1582.93 1034H1672.24M1672.24 1034V1079L1761.55 1079M1672.24 1034H1761.55M1404.31 1034H1493.62M1493.62 1034V1079M1940.18 989V1079V1034M1940.18 989L1895.52 1034M1940.18 989L1984.83 944M1940.18 989V1034M1940.18 989V944M1940.18 989H2029.49M1940.18 989L1850.87 989M1895.52 1034L1850.87 1079L1806.21 1034M1895.52 1034L1850.87 989M1850.87 989L1806.21 944M1850.87 989V944M2029.49 989V899M2029.49 989V1034M2029.49 899L1984.83 944M2029.49 899V854M2029.49 899H1940.18M1984.83 944L1940.18 899M1940.18 899V944M1940.18 899L1895.52 854M1940.18 899V854M1806.21 1034V989M1806.21 1034L1761.55 1079M1761.55 1079V1034M1806.21 944V899M1806.21 944L1761.55 989M1761.55 989V1034M1761.55 989V944M1940.18 1034H2029.49M2029.49 1034V1079M1761.55 899V944M1761.55 899V809M1761.55 899V854M1940.18 944L1850.87 944M1850.87 944V899M1850.87 899L1806.21 854M1850.87 899L1895.52 854M1761.55 809L1806.21 854M1761.55 809L1716.9 764M1761.55 809V854M1761.55 809V764M1761.55 809L1850.87 809M1806.21 854L1850.87 809M1850.87 809L1895.52 764M1850.87 809V764M1895.52 854V809M1895.52 764V719M1895.52 764L1940.18 809M1940.18 809V854M1940.18 809V764M1940.18 809H2029.49M1940.18 854H2029.49M2029.49 854V809M2029.49 809V764M1761.55 854H1672.24M1940.18 764H2029.49M1761.55 764L1850.87 764" stroke="#ECC3B2" stroke-width="2" stroke-linecap="round" stroke-linejoin="round"/>
</g>
<defs>
<clipPath id="clip0_114_113672">
<rect width="1394" height="256" fill="white" transform="translate(-112)"/>
</clipPath>
</defs>
</svg>
