<svg width="505" height="386" viewBox="0 0 505 386" fill="none" xmlns="http://www.w3.org/2000/svg">
<rect width="505" height="386" fill="url(#paint0_linear_194_182278)"/>
<path d="M301.343 119.283L334.806 244.221H313.994L280.531 119.283H301.343Z" fill="#DBDBA1" stroke="#8F8E37" stroke-linejoin="round"/>
<path d="M299.691 259.419V255.59L323.719 244.721H334.673L339.213 259.419H299.691Z" fill="#F7F7EB" stroke="#8F8E37"/>
<rect x="299.772" y="257.593" width="39.5362" height="1.74424" fill="#8F8E37"/>
<path d="M317.4 119.283L350.863 244.221H330.051L296.588 119.283H317.4Z" fill="#BAB94A" stroke="#8F8E37" stroke-linejoin="round"/>
<path d="M315.748 259.419V255.59L339.775 244.721H350.729L355.269 259.419H315.748Z" fill="#F7F7EB" stroke="#8F8E37"/>
<rect x="315.829" y="257.593" width="39.5362" height="1.74424" fill="#8F8E37"/>
<circle r="27.3726" transform="matrix(-0.778252 0.627953 0.627953 0.778252 218.534 49.8215)" fill="#F7F7EB" stroke="#8F8E37"/>
<circle r="21.6289" transform="matrix(-0.778252 0.627953 0.627953 0.778252 218.534 49.8215)" fill="url(#paint1_linear_194_182278)" stroke="#BAB94A"/>
<path d="M204.352 61.2646C201.744 58.033 200.318 54.0079 200.311 49.8556C200.303 45.7032 201.713 41.6728 204.309 38.4315" stroke="#BAB94A"/>
<path d="M235.723 71.1245L269.612 113.126" stroke="#8F8E37" stroke-linejoin="round"/>
<ellipse rx="11.7068" ry="11.7129" transform="matrix(0.482875 -0.875689 -0.875689 -0.482875 253.218 44.5482)" fill="#F7F7EB" stroke="#8F8E37"/>
<path d="M264.854 43.2292C264.68 41.7009 264.207 40.2217 263.462 38.8761C262.717 37.5306 261.714 36.345 260.512 35.387C259.309 34.4291 257.929 33.7175 256.451 33.293C254.973 32.8685 253.427 32.7394 251.899 32.9129C250.372 33.0865 248.893 33.5594 247.548 34.3046C246.204 35.0499 245.019 36.0528 244.061 37.2563C243.104 38.4597 242.393 39.84 241.969 41.3184C241.545 42.7968 241.416 44.3444 241.59 45.8727L253.222 44.551L264.854 43.2292Z" fill="#8F8E37" stroke="#8F8E37"/>
<path d="M242.103 45.8465L264.34 43.254" stroke="#8F8E37"/>
<path d="M263.533 51.8149L280.663 119.426H325.217C306.682 67.5756 276.372 52.7477 263.533 51.8149Z" fill="#F7F7EB" stroke="#8F8E37"/>
<path d="M254.768 80.873C256.37 88.0282 260.314 94.4441 265.975 99.1039C271.636 103.764 278.691 106.401 286.02 106.597C293.35 106.794 300.535 104.538 306.438 100.188C312.341 95.8382 316.623 89.6427 318.605 82.5835C320.588 75.5244 320.158 68.0055 317.383 61.2184C314.609 54.4313 309.648 48.7644 303.288 45.1159C296.928 41.4673 289.532 40.0457 282.273 41.0765C275.013 42.1073 268.306 45.5315 263.213 50.8063L286.902 73.6792L254.768 80.873Z" fill="#F7F7EB" stroke="#8F8E37"/>
<g style="mix-blend-mode:multiply">
<path fill-rule="evenodd" clip-rule="evenodd" d="M255.525 83.6718C257.367 87.6512 260.089 91.1927 263.516 94.0132C268.567 98.1713 274.862 100.524 281.403 100.7C287.943 100.875 294.355 98.8623 299.622 94.9807C304.89 91.0991 308.71 85.5707 310.48 79.2715C312.249 72.9724 311.865 66.263 309.389 60.2067C306.913 54.1503 302.487 49.0936 296.812 45.8378C291.137 42.582 284.537 41.3136 278.059 42.2334C277.381 42.3297 276.708 42.4494 276.041 42.592C278.053 41.8893 280.139 41.3795 282.273 41.0765C289.532 40.0457 296.928 41.4673 303.288 45.1159C309.648 48.7645 314.609 54.4314 317.383 61.2184C320.158 68.0055 320.588 75.5244 318.605 82.5836C316.622 89.6427 312.34 95.8382 306.438 100.188C300.535 104.538 293.35 106.794 286.02 106.597C278.69 106.401 271.636 103.764 265.975 99.1039C261.062 95.0606 257.443 89.6951 255.525 83.6718Z" fill="#DBDBA1"/>
</g>
<path d="M304.027 70.0203L241.813 83.2727" stroke="#8F8E37" stroke-linejoin="round"/>
<circle cx="248.31" cy="83.5864" r="6.44614" transform="rotate(-56.9949 248.31 83.5864)" fill="#F7F7EB" stroke="#8F8E37"/>
<path d="M248.587 79.7101L242.322 81.1737" stroke="#8F8E37" stroke-linejoin="round"/>
<rect x="213.131" y="131.455" width="142.08" height="103.436" fill="#E6E6BE" stroke="#D0CF84"/>
<rect x="226.014" y="143.962" width="46.6633" height="9.56283" fill="#DBDBA1" stroke="#D0CF84"/>
<rect x="297.237" y="210.979" width="46.6633" height="9.56283" fill="#DBDBA1" stroke="#D0CF84"/>
<rect x="226.014" y="162.04" width="104.635" height="9.56283" fill="#DBDBA1" stroke="#D0CF84"/>
<rect x="170.119" y="88.4443" width="42.011" height="42.011" fill="#E6E6BE" stroke="#D0CF84"/>
<circle cx="191.124" cy="101.359" r="5.80459" fill="#E6E6BE"/>
<path d="M202.206 120.708C202.206 119.253 201.919 117.812 201.362 116.467C200.806 115.123 199.989 113.901 198.96 112.872C197.931 111.843 196.71 111.027 195.365 110.47C194.021 109.913 192.58 109.626 191.124 109.626C189.669 109.626 188.228 109.913 186.884 110.47C185.539 111.027 184.318 111.843 183.289 112.872C182.26 113.901 181.443 115.123 180.886 116.467C180.33 117.812 180.043 119.253 180.043 120.708L191.124 120.708H202.206Z" fill="#E6E6BE"/>
<path d="M222.28 120.208V87.3404L255.148 120.208H222.28Z" fill="#E6E6BE" stroke="#D0CF84"/>
<path d="M169.118 87.4448L147.315 87.4448L169.118 65.6409L169.118 87.4448Z" fill="#E6E6BE" stroke="#D0CF84"/>
<circle r="27.3726" transform="matrix(-0.96226 -0.272131 -0.272131 0.96226 209.966 181.648)" fill="#F7F7EB" stroke="#8F8E37"/>
<circle r="21.6289" transform="matrix(-0.96226 -0.272131 -0.272131 0.96226 209.966 181.648)" fill="url(#paint2_linear_194_182278)" stroke="#BAB94A"/>
<path d="M192.431 176.689C193.561 172.693 196.021 169.203 199.405 166.797C202.789 164.391 206.893 163.212 211.039 163.457" stroke="#BAB94A"/>
<path d="M202.517 207.987L187.83 259.919" stroke="#8F8E37" stroke-linejoin="round"/>
<path d="M213.263 170.635L213.162 178.835L220.929 181.465L213.099 183.902L212.998 192.102L208.26 185.409L200.431 187.846L205.332 181.272L200.595 174.579L208.362 177.209L213.263 170.635Z" fill="#BAB94A"/>
<mask id="mask0_194_182278" style="mask-type:alpha" maskUnits="userSpaceOnUse" x="190" y="160" width="42" height="30">
<path d="M190.274 172.806C192.616 167.649 196.887 163.617 202.17 161.575C207.452 159.533 213.325 159.644 218.527 161.886C223.728 164.127 227.843 168.319 229.987 173.562C232.131 178.804 232.133 184.678 229.993 189.922L209.967 181.749L190.274 172.806Z" fill="#0F1E86"/>
</mask>
<g mask="url(#mask0_194_182278)">
<rect x="217.504" y="163.291" width="112.65" height="11.5382" fill="#D0CF84" stroke="#D0CF84"/>
</g>
<circle cx="213.677" cy="163.837" r="1.04605" fill="#BAB94A"/>
<path d="M130.389 260.895L130.39 263.829C130.392 272.817 137.679 280.104 146.667 280.106L183.388 280.116L169.334 332.617L187.887 337.593L206.965 266.306C207.686 263.61 205.656 260.963 202.866 260.961L130.389 260.895Z" fill="#DBDBA1" stroke="#8F8E37" stroke-linejoin="round"/>
<path d="M203.916 357.174L204.907 353.476L184.512 336.758L169.374 332.702L165.57 346.9L203.916 357.174Z" fill="#F7F7EB" stroke="#8F8E37"/>
<rect width="39.5362" height="1.74424" transform="matrix(-0.965926 -0.258819 -0.258819 0.965926 204.311 355.39)" fill="#8F8E37"/>
<path d="M130.522 250.181L128.797 252.554C123.51 259.824 125.115 270.002 132.383 275.292L162.07 296.904L119.817 331.09L131.892 346.029L189.259 299.608C191.429 297.853 191.344 294.518 189.089 292.874L130.522 250.181Z" fill="#BAB94A" stroke="#8F8E37" stroke-linejoin="round"/>
<path d="M123.032 340.33L177.589 296.813L141.34 268.074" stroke="#DBDBA1" stroke-linejoin="round"/>
<path d="M133.157 371.463L136.134 369.056L129.478 343.538L119.623 331.352L108.194 340.595L133.157 371.463Z" fill="#F7F7EB" stroke="#8F8E37"/>
<rect width="39.5362" height="1.74424" transform="matrix(-0.628799 -0.777568 -0.777568 0.628799 134.525 370.252)" fill="#8F8E37"/>
<ellipse rx="11.7129" ry="11.7068" transform="matrix(0.427343 0.90409 0.90409 -0.427343 169.623 201.978)" fill="#F7F7EB" stroke="#8F8E37"/>
<path d="M175.072 192.204L164.17 211.752" stroke="#8F8E37"/>
<path d="M164.616 191.552C158.768 194.316 156.267 201.296 159.03 207.141C161.793 212.987 168.774 215.484 174.622 212.72C180.471 209.956 182.972 202.976 180.209 197.131C177.446 191.285 170.465 188.788 164.616 191.552Z" fill="#F7F7EB"/>
<path d="M175.358 191.931C174.018 191.177 172.541 190.695 171.014 190.511C169.487 190.328 167.939 190.446 166.458 190.861C164.978 191.276 163.593 191.978 162.384 192.927C161.175 193.877 160.165 195.055 159.411 196.396C158.658 197.736 158.176 199.211 157.993 200.738C157.81 202.264 157.93 203.812 158.345 205.293C158.76 206.773 159.463 208.158 160.414 209.367C161.364 210.576 162.543 211.586 163.884 212.34L175.358 191.931Z" fill="#8F8E37"/>
<path d="M175.358 191.931L175.603 191.495L176.039 191.74L175.794 192.176L175.358 191.931ZM163.884 212.34L164.32 212.585L164.075 213.021L163.639 212.776L163.884 212.34ZM164.83 192.004C159.231 194.651 156.837 201.332 159.482 206.928L158.578 207.355C155.697 201.26 158.305 193.982 164.403 191.1L164.83 192.004ZM159.482 206.928C162.127 212.523 168.809 214.914 174.408 212.268L174.836 213.172C168.738 216.054 161.459 213.45 158.578 207.355L159.482 206.928ZM174.408 212.268C180.007 209.621 182.402 202.94 179.757 197.344L180.661 196.917C183.542 203.012 180.934 210.29 174.836 213.172L174.408 212.268ZM179.757 197.344C177.112 191.749 170.429 189.358 164.83 192.004L164.403 191.1C170.501 188.218 177.78 190.822 180.661 196.917L179.757 197.344ZM175.113 192.367C173.83 191.645 172.417 191.183 170.955 191.008L171.074 190.015C172.666 190.206 174.205 190.709 175.603 191.495L175.113 192.367ZM170.955 191.008C169.493 190.832 168.011 190.946 166.593 191.342L166.324 190.379C167.868 189.947 169.482 189.823 171.074 190.015L170.955 191.008ZM166.593 191.342C165.176 191.739 163.85 192.411 162.693 193.321L162.075 192.534C163.336 191.544 164.78 190.812 166.324 190.379L166.593 191.342ZM162.693 193.321C161.535 194.23 160.568 195.358 159.847 196.641L158.975 196.15C159.761 194.753 160.814 193.524 162.075 192.534L162.693 193.321ZM159.847 196.641C159.126 197.923 158.665 199.336 158.489 200.797L157.496 200.678C157.687 199.086 158.19 197.548 158.975 196.15L159.847 196.641ZM158.489 200.797C158.314 202.258 158.429 203.74 158.826 205.157L157.864 205.428C157.43 203.884 157.306 202.27 157.496 200.678L158.489 200.797ZM158.826 205.157C159.224 206.575 159.897 207.9 160.807 209.058L160.021 209.676C159.03 208.415 158.297 206.971 157.864 205.428L158.826 205.157ZM160.807 209.058C161.717 210.216 162.846 211.183 164.129 211.904L163.639 212.776C162.241 211.99 161.012 210.937 160.021 209.676L160.807 209.058ZM163.725 211.666L174.639 192.12L175.512 192.607L164.598 212.153L163.725 211.666ZM163.448 212.095L174.922 191.686L175.794 192.176L164.32 212.585L163.448 212.095Z" fill="#8F8E37"/>
<ellipse rx="5.40443" ry="24.7404" transform="matrix(0.62018 -0.78446 -0.78446 -0.62018 141.315 178.641)" fill="#8F8E37" stroke="#8F8E37"/>
<ellipse rx="5.40443" ry="24.7404" transform="matrix(0.794938 -0.60669 -0.60669 -0.794938 145.696 174.629)" fill="#8F8E37" stroke="#8F8E37"/>
<ellipse rx="5.40443" ry="24.7404" transform="matrix(0.684795 -0.728735 -0.728735 -0.684795 142.613 174.906)" fill="#8F8E37" stroke="#8F8E37"/>
<path d="M190.908 227.172C194.925 233.306 196.779 240.605 196.178 247.913C195.576 255.22 192.553 262.118 187.587 267.513C182.621 272.908 175.997 276.491 168.764 277.694C161.532 278.898 154.104 277.653 147.659 274.157C141.213 270.661 136.119 265.114 133.184 258.395C130.248 251.676 129.639 244.17 131.453 237.065C133.266 229.961 137.4 223.665 143.197 219.176C148.994 214.686 156.124 212.26 163.456 212.282L163.359 245.211L190.908 227.172Z" fill="#F7F7EB" stroke="#8F8E37"/>
<circle r="6.44614" transform="matrix(-0.981095 -0.193527 -0.193527 0.981095 197.549 225.297)" fill="#F7F7EB" stroke="#8F8E37"/>
<path d="M194.575 222.797L199.99 219.322" stroke="#8F8E37" stroke-linejoin="round"/>
<g style="mix-blend-mode:multiply">
<path fill-rule="evenodd" clip-rule="evenodd" d="M192.385 229.659C193.958 233.755 194.603 238.177 194.239 242.603C193.702 249.124 191.004 255.279 186.573 260.093C182.142 264.907 176.231 268.104 169.777 269.178C163.323 270.252 156.695 269.142 150.944 266.022C145.192 262.902 140.647 257.953 138.027 251.957C135.407 245.962 134.864 239.263 136.482 232.924C138.101 226.584 141.789 220.966 146.962 216.96C147.504 216.54 148.059 216.141 148.626 215.762C146.721 216.715 144.901 217.856 143.197 219.176C137.4 223.666 133.267 229.961 131.453 237.066C129.639 244.17 130.249 251.677 133.184 258.396C136.12 265.115 141.214 270.662 147.659 274.158C154.104 277.654 161.532 278.898 168.765 277.695C175.998 276.491 182.622 272.908 187.588 267.513C192.553 262.119 195.577 255.221 196.178 247.913C196.7 241.57 195.372 235.233 192.385 229.659Z" fill="#DBDBA1"/>
</g>
<path d="M148.803 254.947L190.908 227.304" stroke="#8F8E37" stroke-linejoin="round"/>
<rect x="280.886" y="260.418" width="74.3246" height="74.3246" fill="#E6E6BE" stroke="#D0CF84"/>
<path d="M207.3 334.743L280.917 261.125V334.743H207.3Z" fill="#E6E6BE" stroke="#D0CF84"/>
<path d="M361.469 290.845L419.173 324.16L373.664 336.354L361.469 290.845Z" fill="#E6E6BE" stroke="#D0CF84"/>
<defs>
<linearGradient id="paint0_linear_194_182278" x1="109.046" y1="-9.14746" x2="504.546" y2="386.353" gradientUnits="userSpaceOnUse">
<stop stop-color="#F8FFFF"/>
<stop offset="1" stop-color="#EDFFFF"/>
</linearGradient>
<linearGradient id="paint1_linear_194_182278" x1="51.5661" y1="53.7086" x2="-0.348412" y2="0.338913" gradientUnits="userSpaceOnUse">
<stop stop-color="#66FCFF"/>
<stop offset="0.58881" stop-color="#CAFCFD"/>
<stop offset="1" stop-color="#EAFCFD"/>
</linearGradient>
<linearGradient id="paint2_linear_194_182278" x1="51.5661" y1="53.7086" x2="-0.348412" y2="0.338913" gradientUnits="userSpaceOnUse">
<stop stop-color="#66FCFF"/>
<stop offset="0.58881" stop-color="#CAFCFD"/>
<stop offset="1" stop-color="#EAFCFD"/>
</linearGradient>
</defs>
</svg>
