<svg width="505" height="386" viewBox="0 0 505 386" fill="none" xmlns="http://www.w3.org/2000/svg">
<rect width="505" height="386" fill="url(#paint0_linear_194_182375)"/>
<mask id="path-2-inside-1_194_182375" fill="white">
<path fill-rule="evenodd" clip-rule="evenodd" d="M82.7109 168.289C81.6064 168.289 80.7109 169.184 80.7109 170.289V200.79H80.7109L80.7109 216.211L95.1316 201.79H186.716C187.82 201.79 188.716 200.895 188.716 199.79V170.289C188.716 169.184 187.82 168.289 186.716 168.289H82.7109Z"/>
</mask>
<path fill-rule="evenodd" clip-rule="evenodd" d="M82.7109 168.289C81.6064 168.289 80.7109 169.184 80.7109 170.289V200.79H80.7109L80.7109 216.211L95.1316 201.79H186.716C187.82 201.79 188.716 200.895 188.716 199.79V170.289C188.716 169.184 187.82 168.289 186.716 168.289H82.7109Z" fill="#ECC3B2"/>
<path d="M80.7109 200.79V201.79H81.7109V200.79H80.7109ZM80.7109 200.79V199.79H79.7109V200.79H80.7109ZM80.7109 216.211H79.7109L79.7109 218.625L81.418 216.918L80.7109 216.211ZM95.1316 201.79V200.79H94.7174L94.4245 201.083L95.1316 201.79ZM81.7109 170.289C81.7109 169.737 82.1587 169.289 82.7109 169.289V167.289C81.0541 167.289 79.7109 168.632 79.7109 170.289H81.7109ZM81.7109 200.79V170.289H79.7109V200.79H81.7109ZM80.7109 201.79H80.7109V199.79H80.7109V201.79ZM81.7109 216.211L81.7109 200.79H79.7109L79.7109 216.211H81.7109ZM94.4245 201.083L80.0038 215.504L81.418 216.918L95.8387 202.497L94.4245 201.083ZM186.716 200.79H95.1316V202.79H186.716V200.79ZM187.716 199.79C187.716 200.342 187.268 200.79 186.716 200.79V202.79C188.373 202.79 189.716 201.447 189.716 199.79H187.716ZM187.716 170.289V199.79H189.716V170.289H187.716ZM186.716 169.289C187.268 169.289 187.716 169.737 187.716 170.289H189.716C189.716 168.632 188.373 167.289 186.716 167.289V169.289ZM82.7109 169.289H186.716V167.289H82.7109V169.289Z" fill="#E19E83" mask="url(#path-2-inside-1_194_182375)"/>
<mask id="path-4-inside-2_194_182375" fill="white">
<path fill-rule="evenodd" clip-rule="evenodd" d="M170.794 220.727C171.899 220.727 172.794 221.622 172.794 222.727V240.555H172.794L172.794 249.964L163.996 241.165H108.9C107.796 241.165 106.9 240.27 106.9 239.165V222.727C106.9 221.622 107.796 220.727 108.9 220.727H170.794Z"/>
</mask>
<path fill-rule="evenodd" clip-rule="evenodd" d="M170.794 220.727C171.899 220.727 172.794 221.622 172.794 222.727V240.555H172.794L172.794 249.964L163.996 241.165H108.9C107.796 241.165 106.9 240.27 106.9 239.165V222.727C106.9 221.622 107.796 220.727 108.9 220.727H170.794Z" fill="#F8E8E1"/>
<path d="M172.794 240.555V241.555H171.794V240.555H172.794ZM172.794 240.555V239.555H173.794V240.555H172.794ZM172.794 249.964H173.794L173.794 252.378L172.087 250.671L172.794 249.964ZM163.996 241.165V240.165H164.41L164.703 240.458L163.996 241.165ZM171.794 222.727C171.794 222.174 171.346 221.727 170.794 221.727V219.727C172.451 219.727 173.794 221.07 173.794 222.727H171.794ZM171.794 240.555V222.727H173.794V240.555H171.794ZM172.794 241.555H172.794V239.555H172.794V241.555ZM171.794 249.964L171.794 240.555H173.794L173.794 249.964H171.794ZM164.703 240.458L173.501 249.257L172.087 250.671L163.289 241.873L164.703 240.458ZM108.9 240.165H163.996V242.165H108.9V240.165ZM107.9 239.165C107.9 239.718 108.348 240.165 108.9 240.165V242.165C107.243 242.165 105.9 240.822 105.9 239.165H107.9ZM107.9 222.727V239.165H105.9V222.727H107.9ZM108.9 221.727C108.348 221.727 107.9 222.174 107.9 222.727H105.9C105.9 221.07 107.243 219.727 108.9 219.727V221.727ZM170.794 221.727H108.9V219.727H170.794V221.727Z" fill="#E19E83" mask="url(#path-4-inside-2_194_182375)"/>
<circle cx="103.003" cy="185.071" r="3.39603" fill="#E19E83" stroke="#E19E83"/>
<circle cx="116.952" cy="185.071" r="3.39603" fill="#E19E83" stroke="#E19E83"/>
<circle cx="130.9" cy="185.071" r="3.39603" fill="#E19E83" stroke="#E19E83"/>
<path fill-rule="evenodd" clip-rule="evenodd" d="M132.727 91.6357C116.311 91.6357 103.004 78.3285 103.004 61.9131C103.004 45.4977 116.311 32.1904 132.727 32.1904C149.142 32.1904 162.449 45.4977 162.449 61.9131C162.449 70.6216 158.704 78.4554 152.736 83.8916L160.48 91.6351H133.403L133.41 91.628C133.183 91.6332 132.955 91.6357 132.727 91.6357Z" fill="url(#paint1_linear_194_182375)"/>
<path d="M152.736 83.8916L152.383 84.2451L152.012 83.8747L152.4 83.522L152.736 83.8916ZM160.48 91.6351L160.834 91.2816L161.687 92.1351H160.48V91.6351ZM133.403 91.6351V92.1351H132.196L133.049 91.2816L133.403 91.6351ZM133.41 91.628L133.398 91.1282L134.645 91.1001L133.763 91.9815L133.41 91.628ZM103.504 61.9131C103.504 78.0523 116.587 91.1357 132.727 91.1357V92.1357C116.035 92.1357 102.504 78.6046 102.504 61.9131H103.504ZM132.727 32.6904C116.587 32.6904 103.504 45.7739 103.504 61.9131H102.504C102.504 45.2216 116.035 31.6904 132.727 31.6904V32.6904ZM161.949 61.9131C161.949 45.7739 148.866 32.6904 132.727 32.6904V31.6904C149.418 31.6904 162.949 45.2216 162.949 61.9131H161.949ZM152.4 83.522C158.268 78.1765 161.949 70.4751 161.949 61.9131H162.949C162.949 70.7681 159.14 78.7342 153.073 84.2612L152.4 83.522ZM153.09 83.538L160.834 91.2816L160.126 91.9887L152.383 84.2451L153.09 83.538ZM160.48 92.1351H133.403V91.1351H160.48V92.1351ZM133.049 91.2816L133.056 91.2745L133.763 91.9815L133.756 91.9887L133.049 91.2816ZM132.727 91.1357C132.951 91.1357 133.175 91.1332 133.398 91.1282L133.421 92.1279C133.19 92.1331 132.959 92.1357 132.727 92.1357V91.1357Z" fill="#E19E83"/>
<mask id="path-11-inside-3_194_182375" fill="white">
<path fill-rule="evenodd" clip-rule="evenodd" d="M222.628 58.9175C221.523 58.9175 220.628 59.8129 220.628 60.9175V78.7464H220.628L220.628 88.1545L229.426 79.3564H284.522C285.626 79.3564 286.522 78.461 286.522 77.3564V60.9175C286.522 59.8129 285.626 58.9175 284.522 58.9175H222.628Z"/>
</mask>
<path fill-rule="evenodd" clip-rule="evenodd" d="M222.628 58.9175C221.523 58.9175 220.628 59.8129 220.628 60.9175V78.7464H220.628L220.628 88.1545L229.426 79.3564H284.522C285.626 79.3564 286.522 78.461 286.522 77.3564V60.9175C286.522 59.8129 285.626 58.9175 284.522 58.9175H222.628Z" fill="#F8E8E1"/>
<path d="M220.628 78.7464V79.7464H221.628V78.7464H220.628ZM220.628 78.7464V77.7464H219.628V78.7464H220.628ZM220.628 88.1545H219.628L219.628 90.5687L221.335 88.8616L220.628 88.1545ZM229.426 79.3564V78.3564H229.012L228.719 78.6493L229.426 79.3564ZM221.628 60.9175C221.628 60.3652 222.076 59.9175 222.628 59.9175V57.9175C220.971 57.9175 219.628 59.2606 219.628 60.9175H221.628ZM221.628 78.7464V60.9175H219.628V78.7464H221.628ZM220.628 79.7464H220.628V77.7464H220.628V79.7464ZM221.628 88.1545L221.628 78.7464H219.628L219.628 88.1545H221.628ZM228.719 78.6493L219.921 87.4474L221.335 88.8616L230.133 80.0635L228.719 78.6493ZM284.522 78.3564H229.426V80.3564H284.522V78.3564ZM285.522 77.3564C285.522 77.9087 285.074 78.3564 284.522 78.3564V80.3564C286.178 80.3564 287.522 79.0133 287.522 77.3564H285.522ZM285.522 60.9175V77.3564H287.522V60.9175H285.522ZM284.522 59.9175C285.074 59.9175 285.522 60.3652 285.522 60.9175H287.522C287.522 59.2606 286.178 57.9175 284.522 57.9175V59.9175ZM222.628 59.9175H284.522V57.9175H222.628V59.9175Z" fill="#E19E83" mask="url(#path-11-inside-3_194_182375)"/>
<rect x="298.447" y="261.012" width="93.0108" height="93.0108" fill="url(#paint2_linear_194_182375)" stroke="#E19E83"/>
<path d="M146.635 342.288L205.49 306.692L193.861 353.918L146.635 342.288Z" fill="#F8E8E1" stroke="#E19E83"/>
<rect x="206.008" y="261.012" width="93.0108" height="93.0108" fill="url(#paint3_linear_194_182375)" stroke="#E19E83"/>
<path d="M132.076 142.011L134.004 149.11C135.93 156.202 142.368 161.124 149.716 161.124L188.296 161.124L188.296 214.983L208.104 214.926L208.104 146.259C208.104 143.913 206.203 142.011 203.857 142.011L132.076 142.011Z" fill="#E7B19A" stroke="#A86A50" stroke-linejoin="round"/>
<path d="M188.343 215.041L188.39 230.229L229.358 230.102L229.346 226.128L204.523 214.991L188.343 215.041Z" fill="#FAF1ED" stroke="#A86A50"/>
<rect width="40.7691" height="1.79863" transform="matrix(-0.999995 0.00310634 0.00310634 0.999995 229.253 228.204)" fill="#A86A50"/>
<path d="M217.202 216.93L224.86 230.046L260.239 209.391L258.236 205.959L231.175 208.773L217.202 216.93Z" fill="#FAF1ED" stroke="#A86A50"/>
<rect width="40.7691" height="1.79863" transform="matrix(-0.863595 0.504187 0.504187 0.863595 259.196 207.801)" fill="#A86A50"/>
<path d="M128.167 147.441L128.168 150.025C128.17 160.186 136.407 168.423 146.569 168.426L189.209 168.435L216.983 216.516L235.155 206.03L202.865 151.074C201.729 149.14 199.659 147.946 197.417 147.93L128.167 147.441Z" fill="#A86A50" stroke="#A86A50" stroke-linejoin="round"/>
<path d="M227.556 211.456L195.556 157.956L148.556 157.956C143.033 157.956 138.556 153.479 138.556 147.956L138.556 145.456" stroke="#E19E83" stroke-linejoin="round"/>
<path d="M128.248 147.44C156.31 147.638 159.877 147.976 170.368 147.598C172 142.606 174.462 132.64 176.93 127.834C175.829 123.952 175.419 119.893 175.733 115.846C176.149 110.488 177.821 105.307 180.609 100.722C158.218 109.455 131.335 121.341 128.248 147.44Z" fill="#FAF1ED" stroke="#A86A50"/>
<rect x="238.991" y="94.5815" width="2.75275" height="27.9373" transform="rotate(54.597 238.991 94.5815)" fill="#A86A50"/>
<path fill-rule="evenodd" clip-rule="evenodd" d="M226.139 107.935C226.622 108.663 226.424 109.644 225.697 110.126L221.193 113.117C222.184 114.522 222.634 116.308 222.304 118.133C221.65 121.746 218.192 124.145 214.58 123.492C210.967 122.839 208.568 119.381 209.221 115.768C209.874 112.156 213.332 109.757 216.945 110.41C217.567 110.522 218.153 110.718 218.693 110.983L223.948 107.493C224.675 107.01 225.656 107.208 226.139 107.935Z" fill="#FAF1ED"/>
<path d="M225.697 110.126L225.973 110.543L225.973 110.543L225.697 110.126ZM226.139 107.935L225.722 108.212L226.139 107.935ZM221.193 113.117L220.784 113.405L220.488 112.985L220.916 112.701L221.193 113.117ZM222.304 118.133L221.812 118.044L222.304 118.133ZM214.58 123.492L214.491 123.984L214.58 123.492ZM209.221 115.768L208.729 115.679L209.221 115.768ZM216.945 110.41L216.856 110.902L216.945 110.41ZM218.693 110.983L218.97 111.399L218.731 111.558L218.473 111.431L218.693 110.983ZM223.948 107.493L223.671 107.077L223.948 107.493ZM225.42 109.71C225.917 109.38 226.053 108.709 225.722 108.212L226.555 107.659C227.191 108.616 226.93 109.907 225.973 110.543L225.42 109.71ZM220.916 112.701L225.42 109.71L225.973 110.543L221.469 113.534L220.916 112.701ZM221.812 118.044C222.117 116.356 221.702 114.705 220.784 113.405L221.601 112.829C222.667 114.338 223.15 116.259 222.796 118.222L221.812 118.044ZM214.669 123C218.01 123.604 221.208 121.385 221.812 118.044L222.796 118.222C222.093 122.107 218.375 124.686 214.491 123.984L214.669 123ZM209.713 115.857C209.109 119.198 211.328 122.396 214.669 123L214.491 123.984C210.607 123.282 208.027 119.564 208.729 115.679L209.713 115.857ZM216.856 110.902C213.515 110.298 210.317 112.516 209.713 115.857L208.729 115.679C209.431 111.795 213.15 109.215 217.034 109.918L216.856 110.902ZM218.473 111.431C217.973 111.187 217.432 111.006 216.856 110.902L217.034 109.918C217.702 110.038 218.332 110.248 218.913 110.534L218.473 111.431ZM224.225 107.91L218.97 111.399L218.416 110.566L223.671 107.077L224.225 107.91ZM225.722 108.212C225.392 107.715 224.722 107.58 224.225 107.91L223.671 107.077C224.629 106.441 225.92 106.702 226.555 107.659L225.722 108.212Z" fill="#A86A50"/>
<path d="M213.639 114.318L218.8 110.923" stroke="#A86A50"/>
<path d="M209.216 115.562C213.358 121.887 215.27 129.414 214.65 136.95C214.03 144.485 210.912 151.598 205.792 157.161C200.671 162.724 193.84 166.419 186.382 167.66C178.924 168.901 171.264 167.618 164.618 164.013C157.972 160.408 152.719 154.688 149.692 147.759C146.665 140.831 146.036 133.09 147.907 125.764C149.777 118.438 154.039 111.946 160.017 107.317C165.995 102.687 173.347 100.185 180.908 100.208L180.808 134.164L209.216 115.562Z" fill="#FAF1ED" stroke="#A86A50"/>
<g style="mix-blend-mode:multiply">
<path fill-rule="evenodd" clip-rule="evenodd" d="M209.164 115.596C211.619 120.526 212.694 126.055 212.239 131.589C211.685 138.313 208.903 144.66 204.334 149.624C199.765 154.588 193.669 157.885 187.014 158.993C180.358 160.1 173.524 158.955 167.593 155.738C161.663 152.521 156.975 147.417 154.274 141.234C151.573 135.052 151.012 128.145 152.681 121.607C154.35 115.07 158.153 109.277 163.487 105.146C163.85 104.865 164.218 104.593 164.592 104.33C162.997 105.197 161.467 106.194 160.017 107.317C154.039 111.946 149.777 118.438 147.907 125.764C146.037 133.09 146.665 140.831 149.692 147.759C152.719 154.688 157.972 160.408 164.618 164.013C171.264 167.618 178.924 168.901 186.382 167.66C193.841 166.419 200.671 162.724 205.792 157.161C210.913 151.598 214.03 144.485 214.65 136.95C215.271 129.415 213.358 121.888 209.216 115.562L209.164 115.596Z" fill="#E7B19A"/>
</g>
<path d="M165.798 144.204L208.752 115.907" stroke="#A86A50" stroke-linejoin="round"/>
<ellipse rx="12.074" ry="12.076" transform="matrix(-0.657747 0.753239 0.752912 0.658121 189.826 92.6652)" fill="#FAF1ED" stroke="#A86A50"/>
<path d="M201.61 94.6401C201.858 93.1061 201.802 91.5383 201.445 90.0261C201.087 88.514 200.436 87.0871 199.527 85.8269C198.619 84.5667 197.471 83.4979 196.15 82.6816C194.828 81.8653 193.359 81.3174 191.826 81.0692C190.293 80.821 188.726 80.8774 187.214 81.2351C185.703 81.5928 184.276 82.2449 183.017 83.154C181.757 84.0632 180.689 85.2117 179.872 86.5339C179.056 87.8561 178.508 89.3262 178.26 90.8601L189.935 92.7501L201.61 94.6401Z" fill="#A86A50" stroke="#A86A50"/>
<path d="M211.323 96.5493L178.039 91.1187" stroke="#A86A50"/>
<rect x="268.374" y="148.771" width="111.972" height="81.4601" fill="#ECC3B2" stroke="#E19E83"/>
<rect x="278.546" y="158.646" width="36.6337" height="7.34014" fill="#E19E83" stroke="#E19E83"/>
<rect x="334.783" y="211.561" width="36.6337" height="7.34014" fill="#E19E83" stroke="#E19E83"/>
<rect x="278.546" y="172.919" width="82.4063" height="7.34014" fill="#E19E83" stroke="#E19E83"/>
<path d="M251.444 130.816L251.772 131.1L252.1 130.816L268.023 117.003V148.909H235.521V117.003L251.444 130.816ZM251.772 116.408H267.183L251.772 129.776L236.361 116.408H251.772Z" fill="url(#paint4_linear_194_182375)" stroke="#E19E83"/>
<rect x="380.488" y="119.573" width="29.3467" height="29.3467" fill="#ECC3B2" stroke="#E19E83"/>
<path d="M395.162 127.226L396.626 131.732L396.738 132.077H397.101H401.839L398.006 134.862L397.712 135.075L397.824 135.421L399.288 139.926L395.456 137.142L395.162 136.928L394.868 137.142L391.035 139.926L392.499 135.421L392.612 135.075L392.318 134.862L388.485 132.077H393.222H393.586L393.698 131.732L395.162 127.226Z" fill="#E19E83" stroke="#E19E83"/>
<mask id="mask0_194_182375" style="mask-type:alpha" maskUnits="userSpaceOnUse" x="279" y="166" width="114" height="189">
<rect x="279.984" y="167.208" width="112.474" height="186.816" fill="#BFC6F6" stroke="#6279EF"/>
</mask>
<g mask="url(#mask0_194_182375)">
<path fill-rule="evenodd" clip-rule="evenodd" d="M285.722 175.716C284.793 176.152 284.394 177.26 284.83 178.189L287.535 183.945C285.68 184.753 284.139 186.275 283.356 188.312C281.809 192.344 283.822 196.867 287.854 198.415C291.886 199.963 296.409 197.949 297.957 193.917C299.504 189.886 297.491 185.363 293.459 183.815C292.765 183.548 292.057 183.387 291.351 183.324L288.196 176.608C287.759 175.678 286.652 175.279 285.722 175.716Z" fill="#FAF1ED"/>
<path d="M284.83 178.189L285.283 177.976L284.83 178.189ZM285.722 175.716L285.51 175.263L285.51 175.263L285.722 175.716ZM287.535 183.945L287.734 184.404L288.206 184.198L287.987 183.733L287.535 183.945ZM283.356 188.312L283.823 188.491L283.356 188.312ZM287.854 198.415L287.675 198.882L287.854 198.415ZM297.957 193.917L298.423 194.097L297.957 193.917ZM293.459 183.815L293.28 184.282L293.459 183.815ZM291.351 183.324L290.899 183.537L291.021 183.797L291.307 183.822L291.351 183.324ZM288.196 176.608L287.743 176.82L288.196 176.608ZM285.283 177.976C284.964 177.297 285.256 176.487 285.935 176.168L285.51 175.263C284.331 175.817 283.824 177.222 284.378 178.402L285.283 177.976ZM287.987 183.733L285.283 177.976L284.378 178.402L287.082 184.158L287.987 183.733ZM283.823 188.491C284.555 186.584 285.998 185.16 287.734 184.404L287.335 183.487C285.363 184.346 283.722 185.966 282.89 188.133L283.823 188.491ZM288.033 197.948C284.259 196.499 282.374 192.265 283.823 188.491L282.89 188.133C281.243 192.423 283.385 197.235 287.675 198.882L288.033 197.948ZM297.49 193.738C296.041 197.512 291.807 199.397 288.033 197.948L287.675 198.882C291.964 200.529 296.777 198.386 298.423 194.097L297.49 193.738ZM293.28 184.282C297.054 185.73 298.939 189.964 297.49 193.738L298.423 194.097C300.07 189.807 297.928 184.995 293.638 183.348L293.28 184.282ZM291.307 183.822C291.966 183.881 292.63 184.032 293.28 184.282L293.638 183.348C292.901 183.065 292.147 182.894 291.396 182.826L291.307 183.822ZM287.743 176.82L290.899 183.537L291.804 183.112L288.648 176.395L287.743 176.82ZM285.935 176.168C286.615 175.849 287.424 176.141 287.743 176.82L288.648 176.395C288.094 175.216 286.689 174.709 285.51 175.263L285.935 176.168Z" fill="#A86A50"/>
<path d="M294.399 189.763L291.279 183.199" stroke="#A86A50"/>
<path d="M297.484 193.803C294.009 196.64 291.149 200.475 289.067 205.089C286.985 209.703 285.723 215.006 285.351 220.695C284.979 226.383 285.505 232.346 286.899 238.243C288.294 244.14 290.529 249.856 293.478 255.063C296.427 260.271 300.031 264.869 304.085 268.594C308.139 272.32 312.563 275.1 317.105 276.776C321.647 278.452 326.218 278.992 330.556 278.363C334.895 277.735 338.917 275.951 342.391 273.114L319.938 233.458L297.484 193.803Z" fill="#FAF1ED"/>
<path fill-rule="evenodd" clip-rule="evenodd" d="M299.014 196.505C297.144 200.924 296.004 205.939 295.653 211.296C295.281 216.984 295.808 222.947 297.202 228.844C298.597 234.741 300.832 240.457 303.781 245.665C306.729 250.872 310.334 255.47 314.388 259.196C318.442 262.921 322.866 265.701 327.408 267.377C331.685 268.956 335.988 269.526 340.098 269.063L342.392 273.114C338.917 275.951 334.895 277.734 330.557 278.363C326.218 278.991 321.647 278.452 317.105 276.776C312.563 275.1 308.139 272.319 304.085 268.594C300.031 264.869 296.427 260.271 293.478 255.063C290.529 249.855 288.294 244.14 286.899 238.243C285.505 232.346 284.979 226.383 285.351 220.694C285.723 215.006 286.986 209.703 289.067 205.089C291.149 200.474 294.009 196.639 297.484 193.802L299.014 196.505Z" fill="#E7B19A"/>
<mask id="path-47-inside-4_194_182375" fill="white">
<path d="M297.484 193.803C294.009 196.64 291.149 200.475 289.067 205.089C286.985 209.703 285.723 215.006 285.351 220.695C284.979 226.383 285.505 232.346 286.899 238.243C288.294 244.14 290.529 249.856 293.478 255.063C296.427 260.271 300.031 264.869 304.085 268.594C308.139 272.32 312.563 275.1 317.105 276.776C321.647 278.452 326.218 278.992 330.556 278.363C334.895 277.735 338.917 275.951 342.391 273.114L319.938 233.458L297.484 193.803Z"/>
</mask>
<path d="M297.484 193.803C294.009 196.64 291.149 200.475 289.067 205.089C286.985 209.703 285.723 215.006 285.351 220.695C284.979 226.383 285.505 232.346 286.899 238.243C288.294 244.14 290.529 249.856 293.478 255.063C296.427 260.271 300.031 264.869 304.085 268.594C308.139 272.32 312.563 275.1 317.105 276.776C321.647 278.452 326.218 278.992 330.556 278.363C334.895 277.735 338.917 275.951 342.391 273.114L319.938 233.458L297.484 193.803Z" stroke="#A86A50" stroke-width="2" mask="url(#path-47-inside-4_194_182375)"/>
<path d="M349.16 357.702L339.116 266.754H354.586C377.275 308.924 389.745 346.816 392.132 357.702H349.16Z" fill="#FAF1ED" stroke="#A86A50"/>
<path opacity="0.8" fill-rule="evenodd" clip-rule="evenodd" d="M349.16 357.702L362.294 357.702C361.647 355.344 360.651 350.247 359.29 343.286C355.759 325.225 349.775 294.617 341.084 266.754H339.116L349.16 357.702Z" fill="#E7B19A"/>
<path d="M349.16 357.702L339.116 266.754H354.586C377.275 308.924 389.745 346.816 392.132 357.702H349.16Z" stroke="#A86A50"/>
<path fill-rule="evenodd" clip-rule="evenodd" d="M359.77 262.916C363.225 269.789 362.419 277.687 358.348 283.608L362.838 285.785C363.767 283.925 365.057 280.989 365.27 279.488C366.224 281.386 365.673 284.566 365.082 286.873L376.887 292.599C380.014 286.921 380.382 279.849 377.251 273.62C373.75 266.655 366.792 262.572 359.506 262.408C359.596 262.576 359.684 262.745 359.77 262.916Z" fill="#A86A50"/>
<path d="M351.796 241.992L342.52 267.51" stroke="#A86A50"/>
<path d="M361.186 253.952C361.697 261.783 355.767 268.545 347.941 269.056C340.115 269.567 333.356 263.633 332.844 255.803C332.333 247.972 338.263 241.21 346.09 240.699C353.916 240.188 360.675 246.122 361.186 253.952Z" fill="#FAF1ED"/>
<path d="M354.46 242.782C356.049 243.761 357.43 245.042 358.523 246.554C359.617 248.065 360.403 249.777 360.835 251.592C361.267 253.407 361.337 255.288 361.042 257.13C360.747 258.971 360.091 260.737 359.114 262.325C358.136 263.913 356.855 265.292 355.343 266.385C353.832 267.478 352.12 268.262 350.305 268.694C348.49 269.125 346.608 269.194 344.766 268.898C342.924 268.602 341.158 267.946 339.569 266.968L354.46 242.782Z" fill="#A86A50"/>
<path d="M354.46 242.782L354.722 242.357L354.296 242.095L354.034 242.52L354.46 242.782ZM339.569 266.968L339.143 266.706L338.881 267.132L339.307 267.394L339.569 266.968ZM360.687 253.985C361.181 261.54 355.459 268.064 347.908 268.557L347.974 269.555C356.076 269.026 362.214 262.026 361.685 253.92L360.687 253.985ZM347.908 268.557C340.358 269.05 333.837 263.325 333.343 255.77L332.345 255.835C332.875 263.941 339.871 270.084 347.974 269.555L347.908 268.557ZM333.343 255.77C332.85 248.215 338.572 241.691 346.122 241.198L346.057 240.2C337.955 240.729 331.816 247.729 332.345 255.835L333.343 255.77ZM346.122 241.198C353.673 240.705 360.194 246.43 360.687 253.985L361.685 253.92C361.156 245.814 354.159 239.671 346.057 240.2L346.122 241.198ZM354.198 243.208C355.731 244.152 357.063 245.388 358.118 246.847L358.928 246.261C357.796 244.696 356.367 243.369 354.722 242.357L354.198 243.208ZM358.118 246.847C359.174 248.305 359.931 249.957 360.348 251.708L361.321 251.476C360.874 249.598 360.061 247.825 358.928 246.261L358.118 246.847ZM360.348 251.708C360.765 253.458 360.833 255.274 360.548 257.051L361.536 257.209C361.841 255.303 361.768 253.355 361.321 251.476L360.348 251.708ZM360.548 257.051C360.263 258.827 359.631 260.53 358.688 262.062L359.539 262.587C360.552 260.943 361.23 259.115 361.536 257.209L360.548 257.051ZM358.688 262.062C357.745 263.595 356.509 264.926 355.05 265.98L355.636 266.79C357.201 265.659 358.527 264.231 359.539 262.587L358.688 262.062ZM355.05 265.98C353.592 267.034 351.941 267.791 350.19 268.207L350.421 269.18C352.299 268.734 354.072 267.922 355.636 266.79L355.05 265.98ZM350.19 268.207C348.439 268.623 346.623 268.69 344.845 268.405L344.687 269.392C346.593 269.698 348.542 269.626 350.421 269.18L350.19 268.207ZM344.845 268.405C343.068 268.119 341.364 267.486 339.831 266.542L339.307 267.394C340.952 268.406 342.78 269.085 344.687 269.392L344.845 268.405ZM340.287 266.683L354.593 243.6L353.743 243.073L339.437 266.157L340.287 266.683ZM339.995 267.23L354.886 243.045L354.034 242.52L339.143 266.706L339.995 267.23Z" fill="#A86A50"/>
<path d="M348.843 354.523L347.985 346.763H369.259H389.092L391.726 354.523H370.06H348.843Z" fill="#A86A50"/>
<path d="M369.259 346.763H389.092L391.726 354.523H370.06M369.259 346.763H347.985L348.843 354.523H370.06M369.259 346.763L370.06 354.523" stroke="#A86A50"/>
</g>
<defs>
<linearGradient id="paint0_linear_194_182375" x1="402.961" y1="-16.1475" x2="0.46141" y2="386.353" gradientUnits="userSpaceOnUse">
<stop stop-color="#FAFAFF"/>
<stop offset="1" stop-color="#F4F3FF"/>
</linearGradient>
<linearGradient id="paint1_linear_194_182375" x1="91.7075" y1="102.334" x2="163.656" y2="33.4519" gradientUnits="userSpaceOnUse">
<stop stop-color="#D0CBFB"/>
<stop offset="1" stop-color="#F2F1FE"/>
</linearGradient>
<linearGradient id="paint2_linear_194_182375" x1="409.821" y1="369.514" x2="297.947" y2="260.512" gradientUnits="userSpaceOnUse">
<stop stop-color="#D0CBFB"/>
<stop offset="1" stop-color="#F2F1FE"/>
</linearGradient>
<linearGradient id="paint3_linear_194_182375" x1="297.024" y1="354.523" x2="205.508" y2="260.512" gradientUnits="userSpaceOnUse">
<stop stop-color="#F2F1FE"/>
<stop offset="1" stop-color="#FBFCFC"/>
</linearGradient>
<linearGradient id="paint4_linear_194_182375" x1="267.634" y1="149.409" x2="235.021" y2="115.908" gradientUnits="userSpaceOnUse">
<stop stop-color="#F2F1FE"/>
<stop offset="1" stop-color="#FBFCFC"/>
</linearGradient>
</defs>
</svg>
