<svg width="720" height="720" viewBox="0 0 720 720" fill="none" xmlns="http://www.w3.org/2000/svg">
<g clip-path="url(#clip0_114_125852)">
<rect width="720" height="720" fill="#F5F6F7"/>
<path fill-rule="evenodd" clip-rule="evenodd" d="M364.583 -5.06006H547.384V176.596H513.174L455.98 233.789L398.787 176.596H364.583V-5.06006Z" fill="#E5E7EB"/>
<path fill-rule="evenodd" clip-rule="evenodd" d="M1.3988 357.577H547.223V539.727H330.615L274.13 596.212L217.646 539.727H1.3988V357.577Z" fill="#E5E7EB"/>
<path fill-rule="evenodd" clip-rule="evenodd" d="M47.3839 -186.245H1.88257V-186.197H1.88123V-140.796H1.88257V-95.2805H1.88135V-49.8301H1.88257V-4.44344H47.3839V-49.8301L138.236 -49.8301V-4.44507L183.63 -4.44469H183.631V28.5402L240.42 85.3373L183.63 141.961V176.029H181.515V176.031H1.88336V176.033H1.505V357.835H47.2842V357.833H92.801V357.835H138.251V357.833H183.635V357.831L365.209 357.831V357.834H513.138L513.151 357.838H546.759V358.007H546.93V507.832L546.924 507.837V539.125H365.006H365.004L330.918 539.125L274.4 596.136L217.507 539.125H183.419V539.166H1.6178V584.617H46.738V675.22H2.34241V720.56H46.738H92.0783H138.363H183.703V675.22V573.571L250.972 640.552V720.91H297.214V641.239L365.004 573.289V584.576V675.426H364.956V720.877H365.004V720.929H410.405V720.877H455.921V720.929H501.372V720.877H546.322V720.919H580.41L636.923 664.414L693.699 721.138H727.919L727.919 687.051L625.263 584.788H727.919L727.919 541.552H728.511L728.511 507.051L672.006 449.851L728.73 392.385V357.75H728.561L728.561 312.247H683.175L683.175 221.397H728.56L728.56 177.369H728.562V-5.85425L728.56 -5.85426L683.112 -5.85425H592.26H546.81H546.758V39.5962H546.81V85.1104H546.758V130.561H546.81V175.946H546.808V176.031H513.103L456.065 232.74L399.522 176.032H365.435V176.029H365.431V28.3387L365.436 28.3331V-5.32082H365.431V-152.155L365.436 -152.161V-185.815L331.346 -185.816L274.377 -129.014L217.719 -186.042L183.686 -186.042V-186.197H183.683V-186.197H47.3839V-186.245ZM138.363 584.617V675.22H92.0783V584.617H138.363ZM47.2842 312.332V221.481H92.801L92.801 312.332H47.2842ZM181.515 221.481H138.251V312.332H183.635V312.381H229.019V221.53H181.515V221.481ZM410.405 675.426L410.405 584.576H455.921L455.921 675.426H410.405ZM547.121 584.576H501.372L501.372 675.426H547.122V686.036L602.999 630.522L547.121 574.696V584.576ZM229.019 176.027V176.029H217.739L319.98 73.7884V176.029H274.47V176.027H229.019ZM274.47 312.381V221.53H319.985V312.381H274.47ZM138.236 -140.796L47.3839 -140.796V-95.2805L138.236 -95.2805V-140.796ZM183.686 -38.5883V-151.899L240.42 -95.1567L183.686 -38.5883ZM319.98 -106.705V-4.44469H330.466L274.377 51.4797L218.268 -4.99498L319.98 -106.705ZM546.808 221.397L546.808 312.247H546.759V323.701L490.018 266.793L546.808 210.687V221.397ZM592.209 312.247L592.209 221.397H637.725L637.725 312.247H592.209ZM592.38 358.007H694.39L592.38 461.652V358.007ZM592.26 175.946H683.112V130.561H592.26V175.946ZM592.26 39.5962H683.112V85.1103L592.26 85.1104V39.5962ZM692.25 539.338H583.675L638.114 484.187L692.25 539.338Z" fill="#131820"/>
<path d="M428.966 212.483L430.7 210.052L451.814 214.213L462.175 221.601L455.291 231.255L428.966 212.483Z" fill="#FAF1ED" stroke="#A86A50"/>
<rect x="429.845" y="211.823" width="31.6656" height="0.714262" transform="rotate(35.4921 429.845 211.823)" stroke="#A86A50" stroke-width="0.714262"/>
<rect width="52.9241" height="52.9518" transform="matrix(-0.888261 0.459339 0.459339 0.888261 448.176 126.279)" fill="#4E535B" stroke="#4E535B"/>
<ellipse rx="11.405" ry="11.4069" transform="matrix(0.816179 0.577798 -0.577393 0.816467 488.39 104.808)" fill="#FAF1ED" stroke="#A86A50"/>
<path d="M478.009 109.234C477.441 107.881 477.145 106.429 477.137 104.961C477.13 103.494 477.412 102.039 477.967 100.681C478.522 99.322 479.338 98.0862 480.371 97.0436C481.403 96.0011 482.631 95.1722 483.983 94.6044C485.336 94.0366 486.787 93.7409 488.255 93.7342C489.722 93.7275 491.176 94.01 492.534 94.5655C493.892 95.1209 495.128 95.9386 496.171 96.9717C497.213 98.0048 498.042 99.2331 498.61 100.586L488.31 104.91L478.009 109.234Z" fill="#A86A50" stroke="#A86A50"/>
<path d="M469.513 113.142L498.688 101.229" stroke="#A86A50"/>
<path d="M546.651 156.126C520.143 156.313 516.774 156.633 506.865 156.276C505.323 151.561 502.997 142.146 500.666 137.607C501.706 133.94 502.093 130.106 501.796 126.283C501.404 121.222 499.825 116.329 497.191 111.997C518.341 120.247 543.735 131.473 546.651 156.126Z" fill="#FAF1ED" stroke="#A86A50"/>
<path d="M546.726 156.128L546.725 159.952C546.723 168.786 539.563 175.947 530.729 175.949L489.067 175.958L462.832 221.375L445.667 211.47L477.898 156.613L546.726 156.128Z" fill="#A86A50" stroke="#A86A50" stroke-linejoin="round"/>
<path d="M463.393 163.571C466.31 168.017 470.279 171.675 474.947 174.22C479.615 176.765 484.838 178.119 490.154 178.162C495.47 178.205 500.715 176.935 505.424 174.466C510.132 171.996 514.16 168.403 517.149 164.004C520.139 159.606 521.998 154.538 522.562 149.249C523.126 143.959 522.378 138.613 520.384 133.683C518.389 128.752 515.21 124.39 511.128 120.983C507.047 117.575 502.188 115.228 496.982 114.148L490.417 145.819L463.393 163.571Z" fill="#FAF1ED" stroke="#A86A50"/>
<g style="mix-blend-mode:multiply">
<path fill-rule="evenodd" clip-rule="evenodd" d="M464.134 163.085C465.796 164.567 467.628 165.86 469.598 166.935C473.819 169.236 478.543 170.46 483.35 170.499C488.158 170.538 492.901 169.39 497.159 167.157C501.417 164.924 505.059 161.674 507.763 157.696C510.466 153.719 512.147 149.135 512.658 144.352C513.168 139.569 512.491 134.734 510.688 130.276C508.884 125.817 506.009 121.873 502.318 118.791C500.608 117.364 498.748 116.143 496.776 115.145L496.982 114.149C502.188 115.228 507.047 117.576 511.128 120.983C515.21 124.391 518.389 128.753 520.384 133.683C522.378 138.613 523.126 143.96 522.562 149.249C521.998 154.538 520.139 159.606 517.149 164.005C514.16 168.404 510.132 171.997 505.424 174.466C500.715 176.936 495.47 178.205 490.154 178.163C484.838 178.12 479.615 176.766 474.947 174.221C470.279 171.676 466.31 168.018 463.393 163.572L464.134 163.085Z" fill="#E7B19A"/>
</g>
<path d="M463.414 163.605L449.902 172.482" stroke="#A86A50"/>
<ellipse cx="368.448" cy="174.61" rx="11.4029" ry="11.4089" transform="rotate(158.657 368.448 174.61)" fill="#F7F7EB" stroke="#8F8E37"/>
<path d="M365.688 185.678C364.234 185.315 362.866 184.669 361.662 183.778C360.457 182.887 359.441 181.767 358.669 180.484C357.898 179.2 357.387 177.777 357.165 176.295C356.944 174.814 357.017 173.304 357.379 171.851C357.742 170.398 358.387 169.031 359.279 167.828C360.17 166.624 361.29 165.608 362.574 164.837C363.858 164.066 365.282 163.556 366.764 163.335C368.245 163.114 369.756 163.188 371.21 163.55L368.449 174.614L365.688 185.678Z" fill="#8F8E37" stroke="#8F8E37"/>
<path fill-rule="evenodd" clip-rule="evenodd" d="M359.385 180.338C357.097 184.89 357.63 190.121 360.327 194.042L357.353 195.485C356.737 194.253 355.883 192.308 355.742 191.314C355.111 192.571 355.475 194.677 355.866 196.206L348.048 199.997C345.977 196.237 345.733 191.553 347.807 187.428C350.126 182.814 354.734 180.11 359.56 180.001C359.5 180.112 359.442 180.224 359.385 180.338Z" fill="#8F8E37"/>
<path d="M388.835 357.061L388.824 354.074L369.185 345.276L356.46 345.322L356.503 357.179L388.835 357.061Z" fill="#F7F7EB" stroke="#8F8E37"/>
<rect x="-0.355823" y="0.358434" width="31.6656" height="0.714262" transform="matrix(-0.999993 0.0036559 0.0036559 0.999993 388.142 355.657)" fill="#F7F7EB" stroke="#8F8E37" stroke-width="0.714262"/>
<path d="M344.829 335.726L347.446 334.287L345.771 312.832L339.64 301.681L329.25 307.394L344.829 335.726Z" fill="#F7F7EB" stroke="#8F8E37"/>
<rect x="-0.485016" y="-0.140871" width="31.6656" height="0.714262" transform="matrix(-0.48182 -0.87627 -0.87627 0.48182 345.229 334.572)" fill="#F7F7EB" stroke="#8F8E37" stroke-width="0.714262"/>
<path d="M364.776 226.289L362.996 227.95C356.424 234.083 356.065 244.381 362.195 250.956L386.296 276.81L339.561 301.679L348.342 318.2L411.669 284.496C414.132 283.185 414.684 279.895 412.782 277.853L364.776 226.289Z" fill="#DBDBA1" stroke="#8F8E37" stroke-linejoin="round"/>
<path d="M375.158 225.497H356.455V345.37H375.158V225.497Z" fill="#C5C467" stroke="#8F8E37" stroke-linejoin="round"/>
<path d="M365.807 345.125L365.807 225.503" stroke="#DBDBA1" stroke-linejoin="round"/>
<path d="M356.406 225.495H373.282C371.452 224.087 369.781 222.471 368.306 220.672C365.134 216.805 362.964 212.214 361.988 207.307C361.013 202.4 361.262 197.328 362.713 192.54C363.132 191.158 363.648 189.811 364.255 188.51C359.187 198.658 356.336 210.107 356.336 222.222C356.336 223.319 356.359 224.41 356.406 225.495Z" fill="#F7F7EB" stroke="#8F8E37" stroke-linejoin="round"/>
<path d="M424.448 191.111C426.096 196.167 426.472 201.551 425.542 206.786C424.612 212.02 422.405 216.944 419.117 221.122C415.829 225.299 411.56 228.6 406.69 230.734C401.82 232.867 396.498 233.766 391.195 233.351C385.893 232.937 380.775 231.221 376.293 228.357C371.811 225.493 368.104 221.568 365.501 216.93C362.898 212.292 361.479 207.084 361.369 201.768C361.259 196.452 362.463 191.192 364.873 186.453L393.701 201.117L424.448 191.111Z" fill="#F7F7EB" stroke="#8F8E37"/>
<g style="mix-blend-mode:multiply">
<path fill-rule="evenodd" clip-rule="evenodd" d="M423.606 191.384C423.725 193.609 423.589 195.848 423.197 198.058C422.356 202.792 420.36 207.244 417.387 211.022C414.413 214.8 410.553 217.785 406.149 219.714C401.744 221.643 396.932 222.457 392.137 222.082C387.342 221.707 382.713 220.155 378.66 217.565C374.607 214.975 371.255 211.425 368.901 207.231C366.547 203.037 365.264 198.328 365.164 193.52C365.118 191.294 365.327 189.078 365.781 186.915L364.872 186.452C362.462 191.191 361.258 196.452 361.368 201.768C361.478 207.084 362.897 212.291 365.5 216.929C368.103 221.567 371.81 225.492 376.292 228.357C380.774 231.221 385.892 232.936 391.194 233.351C396.497 233.766 401.819 232.866 406.689 230.733C411.559 228.6 415.828 225.298 419.116 221.121C422.404 216.944 424.611 212.02 425.541 206.785C426.471 201.55 426.095 196.166 424.447 191.11L423.606 191.384Z" fill="#DBDBA1"/>
</g>
<path d="M424.459 191.144L439.832 186.14" stroke="#8F8E37"/>
<path d="M271.806 121.758L319.902 73.791L319.9 176.046L217.665 176.028L271.806 121.758Z" fill="#E5E7EB"/>
<rect width="52.9241" height="52.9518" transform="matrix(-0.984291 0.176551 0.176551 0.984291 244.421 347.301)" fill="#4E535B" stroke="#4E535B"/>
<rect width="96.1102" height="46.807" transform="matrix(-1 0 0.000366426 1 216.588 493.059)" fill="#4E535B" stroke="#4E535B" stroke-linejoin="round"/>
<path d="M55.2397 540.144L108.136 540.144L55.2393 487.247L55.2397 540.144Z" fill="#4E535B" stroke="#4E535B" stroke-linejoin="round"/>
<rect width="18.703" height="119.64" transform="matrix(-1 0 0 1 173.495 360.407)" fill="#DBDBA1" stroke="#8F8E37" stroke-linejoin="round"/>
<path d="M187.201 492.151L187.191 489.164L167.551 480.366L154.826 480.413L154.869 492.269L187.201 492.151Z" fill="#F7F7EB" stroke="#8F8E37"/>
<rect width="32.3799" height="1.42852" transform="matrix(-0.999993 0.0036559 0.0036559 0.999993 187.221 490.746)" fill="#8F8E37"/>
<path d="M149.036 359.325L147.315 361.047C140.961 367.404 140.961 377.709 147.315 384.066L172.302 409.066L126.461 435.547L135.812 451.752L197.927 415.865C200.343 414.469 200.78 411.162 198.808 409.186L149.036 359.325Z" fill="#C5C467" stroke="#8F8E37" stroke-linejoin="round"/>
<path d="M132.448 469.543L135.029 468.04L132.829 446.632L126.426 435.636L116.179 441.601L132.448 469.543Z" fill="#F7F7EB" stroke="#8F8E37"/>
<rect width="32.3799" height="1.42852" transform="matrix(-0.503163 -0.864192 -0.864192 0.503163 133.674 468.856)" fill="#8F8E37"/>
<path d="M130.838 442.435L186.808 410.26L153.885 375.091" stroke="#DBDBA1" stroke-linejoin="round"/>
<path d="M195.736 314.32L177.998 326.997" stroke="#7B91CB"/>
<path d="M186.799 309.394C180.498 309.394 175.39 314.499 175.39 320.797C175.39 327.095 180.498 332.2 186.799 332.2C193.1 332.2 198.207 327.095 198.207 320.797C198.207 314.499 193.1 309.394 186.799 309.394Z" fill="#FAF1ED"/>
<path d="M196.1 314.199C195.233 312.977 194.134 311.938 192.866 311.141C191.598 310.343 190.185 309.804 188.708 309.552C187.232 309.301 185.72 309.343 184.26 309.676C182.8 310.009 181.42 310.626 180.199 311.493C178.977 312.359 177.939 313.458 177.142 314.726C176.346 315.994 175.807 317.407 175.556 318.884C175.306 320.361 175.348 321.872 175.682 323.333C176.016 324.793 176.634 326.174 177.501 327.396L196.1 314.199Z" fill="#FAF1ED"/>
<path d="M177.924 327.132L195.671 314.462M186.799 309.394C180.498 309.394 175.39 314.499 175.39 320.797C175.39 327.095 180.498 332.2 186.799 332.2C193.1 332.2 198.207 327.095 198.207 320.797C198.207 314.499 193.1 309.394 186.799 309.394ZM196.1 314.199C195.233 312.977 194.134 311.938 192.866 311.141C191.598 310.343 190.185 309.804 188.708 309.552C187.232 309.301 185.72 309.343 184.26 309.676C182.8 310.009 181.42 310.626 180.199 311.493C178.977 312.359 177.939 313.458 177.142 314.726C176.346 315.994 175.807 317.407 175.556 318.884C175.306 320.361 175.348 321.872 175.682 323.333C176.016 324.793 176.634 326.174 177.501 327.396L196.1 314.199Z" stroke="#A86A50"/>
<path d="M177.447 327.096C176.602 325.86 176.009 324.469 175.702 323.003C175.395 321.538 175.38 320.026 175.657 318.554C175.934 317.082 176.499 315.679 177.319 314.425C178.138 313.17 179.197 312.09 180.434 311.245C181.671 310.399 183.062 309.806 184.528 309.498C185.994 309.19 187.507 309.174 188.979 309.451C190.451 309.727 191.854 310.291 193.108 311.11C194.362 311.929 195.442 312.987 196.287 314.223L186.867 320.66L177.447 327.096Z" fill="#A86A50"/>
<ellipse rx="5.26416" ry="5.26691" transform="matrix(-1 0 0 1 179.009 305.485)" fill="#A86A50" stroke="#A86A50"/>
<path d="M206.234 379.997C202.955 384.184 198.695 387.498 193.831 389.644C188.967 391.79 183.649 392.703 178.347 392.302C173.046 391.901 167.926 390.197 163.44 387.343C158.954 384.489 155.241 380.572 152.629 375.939C150.017 371.306 148.588 366.1 148.468 360.783C148.347 355.465 149.539 350.2 151.938 345.453C154.338 340.707 157.87 336.625 162.222 333.571C166.574 330.516 171.612 328.583 176.89 327.942L180.787 360.05L206.234 379.997Z" fill="#FAF1ED" stroke="#A86A50"/>
<g style="mix-blend-mode:multiply">
<path fill-rule="evenodd" clip-rule="evenodd" d="M205.542 379.455C203.76 380.795 201.825 381.932 199.77 382.838C195.371 384.779 190.562 385.605 185.768 385.242C180.974 384.879 176.344 383.339 172.287 380.758C168.23 378.177 164.872 374.634 162.511 370.445C160.149 366.255 158.856 361.547 158.747 356.739C158.638 351.93 159.717 347.168 161.886 342.876C164.056 338.583 167.25 334.893 171.186 332.13C173.009 330.851 174.965 329.789 177.013 328.96L176.89 327.942C171.612 328.583 166.574 330.517 162.222 333.571C157.87 336.626 154.338 340.707 151.938 345.454C149.539 350.2 148.347 355.465 148.468 360.783C148.588 366.101 150.017 371.307 152.629 375.94C155.241 380.573 158.954 384.49 163.44 387.344C167.926 390.198 173.046 391.901 178.347 392.302C183.649 392.704 188.967 391.791 193.831 389.645C198.695 387.498 202.955 384.185 206.234 379.998L205.542 379.455Z" fill="#E7B19A"/>
</g>
<path d="M206.211 380.033L218.935 390.006" stroke="#A86A50"/>
<rect width="52.8969" height="52.8969" transform="matrix(-1 0 0 1 55.2402 487.247)" fill="#4E535B" stroke="#4E535B"/>
<path d="M294.409 525.135L292.925 522.543L305.534 505.104L316.578 498.782L322.468 509.072L294.409 525.135Z" fill="#FAF1ED" stroke="#A86A50"/>
<rect x="293.689" y="523.928" width="32.3799" height="1.42852" transform="rotate(-29.7905 293.689 523.928)" fill="#A86A50"/>
<ellipse rx="11.4029" ry="11.4089" transform="matrix(1 0 0 -1 321.058 349.31)" fill="#FAF1ED" stroke="#8F8E37"/>
<path d="M327.656 358.615C328.878 357.748 329.917 356.649 330.714 355.38C331.512 354.112 332.051 352.699 332.303 351.223C332.554 349.746 332.512 348.234 332.179 346.774C331.846 345.314 331.229 343.934 330.362 342.713C329.496 341.492 328.397 340.453 327.129 339.657C325.861 338.86 324.448 338.321 322.971 338.071C321.494 337.82 319.983 337.863 318.522 338.196C317.062 338.53 315.681 339.148 314.459 340.015L321.057 349.315L327.656 358.615Z" fill="#8F8E37" stroke="#8F8E37"/>
<path d="M314.723 340.441L327.393 358.188" stroke="#8F8E37"/>
<path d="M340.924 405.304V526.999H320.652V437.393V405.304H340.924Z" fill="#A86A50" stroke="#A86A50" stroke-linejoin="round"/>
<path d="M331.441 405.597V527.252" stroke="#E19E83"/>
<path d="M308.529 539.062L308.54 536.075L328.179 527.277L340.904 527.323L340.861 539.18L308.529 539.062Z" fill="#FAF1ED" stroke="#A86A50"/>
<rect x="308.51" y="537.656" width="32.3799" height="1.42852" transform="rotate(0.209468 308.51 537.656)" fill="#A86A50"/>
<path d="M340.854 405.3H323.977C325.807 403.893 327.478 402.277 328.954 400.478C332.126 396.61 334.296 392.02 335.272 387.113C336.247 382.206 335.998 377.134 334.547 372.346C334.127 370.963 333.612 369.617 333.005 368.316C338.073 378.463 340.924 389.912 340.924 402.028C340.924 403.124 340.9 404.215 340.854 405.3Z" fill="#F7F7EB"/>
<path d="M331.735 365.884C330.42 363.621 328.813 361.529 326.95 359.665M340.854 405.3H323.977C325.807 403.893 327.478 402.277 328.954 400.478C332.126 396.61 334.296 392.02 335.272 387.113C336.247 382.206 335.998 377.134 334.547 372.346C334.127 370.963 333.612 369.617 333.005 368.316C338.073 378.463 340.924 389.912 340.924 402.028C340.924 403.124 340.9 404.215 340.854 405.3Z" stroke="#8F8E37" stroke-linejoin="round"/>
<path d="M295.691 462.363L320.652 437.389V405.3L273.96 456.808C272.333 458.603 272.028 461.233 273.2 463.353L296.579 505.619H320.652L295.691 462.363Z" fill="#E19E83" stroke="#A86A50" stroke-linejoin="round"/>
<path d="M272.244 382.192C272.241 387.51 273.55 392.746 276.054 397.436C278.558 402.126 282.18 406.125 286.6 409.08C291.02 412.034 296.1 413.853 301.392 414.374C306.683 414.895 312.022 414.103 316.936 412.068C321.849 410.033 326.186 406.818 329.561 402.707C332.937 398.596 335.247 393.717 336.287 388.501C337.327 383.285 337.065 377.894 335.524 372.805C333.983 367.716 331.211 363.086 327.453 359.326L304.577 382.192H272.244Z" fill="#FAF1ED" stroke="#8F8E37"/>
<g style="mix-blend-mode:multiply">
<path fill-rule="evenodd" clip-rule="evenodd" d="M273.128 382.191C273.703 384.343 274.525 386.43 275.582 388.409C277.846 392.65 281.122 396.267 285.119 398.939C289.116 401.611 293.71 403.255 298.495 403.727C303.28 404.198 308.108 403.482 312.552 401.641C316.995 399.801 320.917 396.893 323.969 393.176C327.022 389.458 329.111 385.046 330.051 380.329C330.991 375.612 330.754 370.737 329.361 366.135C328.716 364.004 327.832 361.962 326.731 360.046L327.453 359.325C331.211 363.086 333.983 367.715 335.524 372.804C337.065 377.893 337.327 383.284 336.287 388.5C335.247 393.716 332.937 398.595 329.561 402.706C326.186 406.817 321.849 410.033 316.936 412.068C312.022 414.103 306.683 414.895 301.392 414.374C296.1 413.852 291.02 412.034 286.6 409.079C282.18 406.125 278.558 402.125 276.054 397.435C273.55 392.745 272.241 387.509 272.244 382.191H273.128Z" fill="#DBDBA1"/>
</g>
<path d="M272.244 382.231H256.077" stroke="#8F8E37"/>
<rect width="52.9241" height="52.9518" transform="matrix(-1 0 0 1 547.223 487.1)" fill="#4E535B" stroke="#4E535B"/>
<path d="M435.715 529.363L429.561 519.49L421.843 539.548L453.944 539.43L453.934 536.463L435.96 529.566L435.803 529.506L435.715 529.363Z" fill="#F7F7EB" stroke="#8F8E37"/>
<rect width="32.3799" height="1.42852" transform="matrix(-0.999993 0.0036559 0.0036559 0.999993 453.964 538.025)" fill="#8F8E37"/>
<path d="M437.187 452.181L434.402 476.187L386.278 497.003L394.141 515.2L449.022 490.979C451.074 490.073 452.498 488.155 452.772 485.927L455.02 467.639L437.187 452.181Z" fill="#DBDBA1" stroke="#8F8E37" stroke-linejoin="round"/>
<path d="M516.684 492.193C512.653 495.663 507.83 498.084 502.641 499.243C497.453 500.403 492.058 500.264 486.937 498.839C481.815 497.414 477.123 494.748 473.278 491.075C469.433 487.403 466.552 482.839 464.892 477.786C463.231 472.734 462.842 467.349 463.758 462.11C464.674 456.87 466.868 451.937 470.144 447.748C473.421 443.559 477.679 440.243 482.543 438.093C487.406 435.943 492.724 435.027 498.025 435.424L495.602 467.677L516.684 492.193Z" fill="#FAF1ED" stroke="#A86A50"/>
<g style="mix-blend-mode:multiply">
<path fill-rule="evenodd" clip-rule="evenodd" d="M516.109 491.524C514.101 492.491 511.983 493.229 509.792 493.719C505.1 494.767 500.221 494.641 495.59 493.353C490.958 492.065 486.716 489.653 483.238 486.332C479.761 483.012 477.156 478.884 475.654 474.315C474.153 469.746 473.8 464.877 474.629 460.138C475.458 455.4 477.441 450.939 480.404 447.151C483.367 443.362 487.218 440.363 491.616 438.419C493.653 437.519 495.778 436.858 497.949 436.443L498.025 435.424C492.724 435.026 487.406 435.943 482.543 438.092C477.679 440.242 473.421 443.558 470.144 447.748C466.868 451.937 464.674 456.87 463.758 462.109C462.842 467.349 463.231 472.733 464.892 477.786C466.552 482.838 469.433 487.403 473.278 491.075C477.123 494.747 481.815 497.414 486.937 498.838C492.058 500.263 497.453 500.402 502.641 499.243C507.83 498.084 512.653 495.662 516.684 492.193L516.109 491.524Z" fill="#E7B19A"/>
</g>
<path d="M516.654 492.217L527.195 504.475" stroke="#A86A50"/>
<path d="M433.433 414.399L432.203 415.11C423.404 420.193 420.389 431.445 425.468 440.246L445.089 474.249L418.875 519.677L436.035 529.59L465.643 477.394C466.749 475.444 466.748 473.055 465.641 471.104L433.433 414.399Z" fill="#C5C467" stroke="#8F8E37" stroke-linejoin="round"/>
<path d="M427.764 524.249L456.818 473.791L434.41 436.052C431.726 431.533 433.398 425.687 438.065 423.269V423.269" stroke="#DBDBA1" stroke-linejoin="round"/>
<path d="M390.732 537.695L393.479 536.523L393.94 515.007L388.944 503.304L378.039 507.958L390.732 537.695Z" fill="#F7F7EB" stroke="#8F8E37"/>
<rect width="32.3799" height="1.42852" transform="matrix(-0.392565 -0.919724 -0.919724 0.392565 392.034 537.167)" fill="#8F8E37"/>
<path d="M433.475 414.462C446.567 437.512 447.975 440.589 453.238 448.993C458.093 447.971 467.409 445.277 472.506 445.027C475.161 442.292 478.288 440.04 481.747 438.386C486.327 436.195 491.354 435.116 496.422 435.231C478.703 421.039 456.283 404.661 433.475 414.462Z" fill="#FAF1ED" stroke="#A86A50" stroke-linejoin="round"/>
<ellipse rx="11.405" ry="11.4069" transform="matrix(-0.809908 0.586556 0.586154 0.8102 509.48 435.512)" fill="#F7F7EB" stroke="#8F8E37"/>
<path d="M519.908 439.815C520.462 438.455 520.742 437 520.734 435.532C520.725 434.065 520.428 432.613 519.858 431.261C519.289 429.908 518.459 428.681 517.415 427.65C516.372 426.619 515.135 425.803 513.777 425.25C512.418 424.697 510.963 424.417 509.496 424.426C508.029 424.435 506.578 424.733 505.226 425.303C503.874 425.873 502.647 426.704 501.616 427.748C500.584 428.792 499.769 430.03 499.215 431.389L509.562 435.602L519.908 439.815Z" fill="#DBDBA1" stroke="#8F8E37"/>
<path d="M527.932 442.783L498.631 431.186" stroke="#8F8E37"/>
</g>
<defs>
<clipPath id="clip0_114_125852">
<rect width="720" height="720" fill="white"/>
</clipPath>
</defs>
</svg>
