<svg width="112" height="24" viewBox="0 0 112 24" fill="none" xmlns="http://www.w3.org/2000/svg">
<path d="M0.956955 0H6.9573V20.3073H0.956955V0Z" fill="#131820"/>
<path d="M20.4569 0H24.9567V4.51223L5.45721 24H0.956955V19.5566L20.4569 0Z" fill="#131820"/>
<path d="M24.9567 19.5001V24H20.4566L11.5486 15.0337L13.8535 12.7649L15.9913 10.5334L24.9567 19.5001Z" fill="#131820"/>
<path d="M30.9996 0H36.9996V23.9997H30.9996V0Z" fill="#131820"/>
<path d="M54.9994 12.0082V18.0081L30.9996 18.0081L30.9996 12.0082H54.9994Z" fill="#131820"/>
<path d="M54.9994 0V5.99993L30.9996 5.99993L30.9996 0H54.9994Z" fill="#131820"/>
<rect x="48.9995" width="5.99993" height="23.9997" fill="#131820"/>
<path d="M68.5006 9.39058H74.5006V23.9998H68.5006V9.39058Z" fill="#131820"/>
<path d="M59.4993 4.49997L59.4993 0L63.9993 5.901e-07L72.9076 8.96639L72.9074 13.4667H68.4647L59.4993 4.49997Z" fill="#131820"/>
<path d="M78.9991 1.56778e-06L83.4991 2.35458e-06L83.4991 4.49997L74.5327 13.4083L70.0324 13.4081V8.96542L78.9991 1.56778e-06Z" fill="#131820"/>
<path d="M87.999 0H93.9989V23.9997H87.999V0Z" fill="#131820"/>
<path d="M111.999 12.0082V18.0081L87.999 18.0081L87.999 12.0082H111.999Z" fill="#131820"/>
<path d="M111.999 0V5.99993L87.999 5.99993L87.999 0H111.999Z" fill="#131820"/>
<rect x="105.999" width="5.99993" height="23.9997" fill="#131820"/>
</svg>
