<svg width="720" height="560" viewBox="0 0 720 560" fill="none" xmlns="http://www.w3.org/2000/svg">
<rect x="225.505" y="180.298" width="332.77" height="209.522" fill="white" stroke="#D3D5DB" stroke-width="2"/>
<rect x="315.607" y="145.028" width="143.806" height="143.806" fill="white" stroke="#6B7078" stroke-width="2"/>
<circle cx="387.511" cy="194.469" r="19.2523" fill="white" stroke="#6B7078" stroke-width="2"/>
<path d="M424.265 258.645C424.265 253.818 423.314 249.039 421.467 244.579C419.62 240.12 416.912 236.068 413.499 232.655C410.086 229.243 406.035 226.535 401.575 224.688C397.116 222.841 392.337 221.89 387.51 221.89C382.684 221.89 377.904 222.841 373.445 224.688C368.986 226.535 364.934 229.243 361.521 232.655C358.108 236.068 355.401 240.12 353.554 244.579C351.707 249.039 350.756 253.818 350.756 258.645H424.265Z" fill="white" stroke="#6B7078" stroke-width="2"/>
<rect x="558.275" y="389.821" width="65.3439" height="67.6486" fill="white" stroke="#D3D5DB" stroke-width="2"/>
<rect x="155.646" y="389.821" width="179.891" height="68.4157" fill="white" stroke="#D3D5DB" stroke-width="2"/>
<path d="M449.92 375.782H497.222L449.92 424.752V375.782Z" fill="white" stroke="#6B7078" stroke-width="2"/>
<path d="M315.607 145.028L250.522 145.028L315.607 77.647L315.607 145.028Z" fill="white" stroke="#6B7078" stroke-width="2"/>
<path d="M313.484 326.481C310.607 332.703 306.346 338.167 301.077 342.39C295.808 346.613 289.694 349.464 283.277 350.69C276.86 351.916 270.338 351.479 264.288 349.419C258.238 347.359 252.847 343.739 248.593 338.879C244.339 334.019 241.353 328.07 239.9 321.558C238.447 315.046 238.571 308.173 240.261 301.547C241.952 294.921 245.156 288.747 249.591 283.571C254.026 278.396 259.555 274.379 265.687 271.876L278.24 310.166L313.484 326.481Z" fill="#F1F1DB" stroke="#8F8E37" stroke-width="2" stroke-linejoin="round"/>
<g style="mix-blend-mode:multiply">
<path fill-rule="evenodd" clip-rule="evenodd" d="M312.521 326.036C310.729 328.263 308.703 330.29 306.479 332.073C301.714 335.892 296.185 338.47 290.382 339.578C284.579 340.687 278.681 340.293 273.21 338.43C267.739 336.567 262.864 333.293 259.017 328.898C255.17 324.503 252.47 319.123 251.156 313.234C249.841 307.346 249.954 301.13 251.482 295.138C253.011 289.146 255.909 283.563 259.92 278.883C261.777 276.715 263.846 274.773 266.083 273.087L265.687 271.877C259.555 274.38 254.026 278.397 249.591 283.572C245.156 288.747 241.952 294.922 240.261 301.548C238.571 308.174 238.447 315.047 239.9 321.559C241.353 328.07 244.339 334.02 248.593 338.88C252.847 343.739 258.238 347.36 264.288 349.42C270.338 351.48 276.86 351.916 283.277 350.69C289.694 349.464 295.808 346.613 301.077 342.391C306.346 338.168 310.607 332.703 313.484 326.481L312.521 326.036Z" fill="#E6E6BE"/>
</g>
<path d="M140.186 413.088L144.046 413.088L156.765 384.973L156.765 366.922L140.186 366.922L140.186 413.088Z" fill="#F7F7EB" stroke="#8F8E37" stroke-width="2"/>
<rect width="46.7902" height="2.06427" transform="matrix(1.29048e-07 -1 -1 -1.29048e-07 141.938 413.4)" fill="#8F8E37"/>
<path d="M227.003 299.731L211.877 314.594C207.247 319.144 205.761 326.01 208.098 332.066L221.265 366.204L156.943 366.219L156.938 388.953L243.983 388.926C247.432 388.925 249.943 385.654 249.053 382.322L227.003 299.731Z" fill="#DBDBA1" stroke="#8F8E37" stroke-width="2" stroke-linejoin="round"/>
<path d="M240.321 457.811L240.321 456.292L201.853 434.935L189.815 457.811L240.321 457.811Z" fill="#FAF1ED" stroke="#8F8E37" stroke-width="2"/>
<rect x="-0.501748" y="0.501748" width="49.8468" height="1.0035" transform="matrix(-1 -3.99275e-09 -3.99275e-09 1 239.65 456.135)" fill="#8F8E37" stroke="#8F8E37" stroke-width="1.0035"/>
<path d="M218.017 296.847L211.828 300.422C203.028 305.505 200.013 316.757 205.092 325.559L233.041 373.993L199.251 432.55L221.37 445.327L260.05 377.138C261.156 375.187 261.156 372.798 260.048 370.848L218.017 296.847Z" fill="#C5C467" stroke="#8F8E37" stroke-width="2" stroke-linejoin="round"/>
<path d="M210.709 438.442L248.159 373.402L219.276 324.756C215.817 318.931 217.971 311.396 223.987 308.28V308.28" stroke="#E6E6BE" stroke-width="2" stroke-linejoin="round"/>
<path d="M205.3 307.546C209.353 310.343 220.598 317.757 232.832 321.46C236.681 316.353 243.448 305.844 248.186 301.281C248.449 296.375 249.578 291.538 251.536 287C254.128 280.992 260.204 276.041 265.223 271.858C245.531 271.859 219.15 278.699 205.3 307.546Z" fill="#F7F7EB" stroke="#8F8E37" stroke-width="2" stroke-linejoin="round"/>
<g style="mix-blend-mode:multiply">
<path fill-rule="evenodd" clip-rule="evenodd" d="M217.026 314.722C221.665 317.213 227.142 319.738 232.832 321.461C233.952 319.976 235.317 318.035 236.808 315.916C240.445 310.746 244.826 304.518 248.187 301.282C248.449 296.376 249.578 291.539 251.536 287.001C251.826 286.328 252.134 285.664 252.458 285.01C239.255 289.018 226.215 297.739 217.026 314.722Z" fill="#E6E6BE"/>
</g>
<ellipse rx="14.7009" ry="14.7034" transform="matrix(-0.224738 0.974419 0.974308 0.225222 276.74 257.625)" fill="white" stroke="#8F8E37" stroke-width="2"/>
<path d="M290.728 252.526C290.097 250.688 289.111 248.993 287.825 247.536C286.539 246.08 284.98 244.891 283.235 244.037C281.49 243.183 279.595 242.682 277.656 242.561C275.718 242.44 273.775 242.703 271.939 243.333C270.102 243.964 268.407 244.95 266.952 246.236C265.496 247.521 264.308 249.081 263.456 250.826C262.603 252.572 262.102 254.468 261.982 256.407C261.862 258.346 262.125 260.29 262.756 262.127L276.742 257.326L290.728 252.526Z" fill="#D0CF84"/>
<path d="M290.728 252.526C290.097 250.688 289.111 248.993 287.825 247.536C286.539 246.08 284.98 244.891 283.235 244.037C281.49 243.183 279.595 242.682 277.656 242.561C275.718 242.44 273.775 242.703 271.939 243.333C270.102 243.964 268.407 244.95 266.952 246.236C265.496 247.521 264.308 249.081 263.456 250.826C262.603 252.572 262.102 254.468 261.982 256.407C261.862 258.346 262.125 260.29 262.756 262.127L276.742 257.326L290.728 252.526ZM290.728 252.526L302.114 248.51" stroke="#8F8E37" stroke-width="2"/>
<path d="M297.439 327.223C297.439 326.118 298.335 325.223 299.439 325.223L447.921 325.223C449.026 325.223 449.921 326.118 449.921 327.223L449.921 374.05C449.921 375.154 449.026 376.05 447.921 376.05L297.439 376.05L297.439 327.223Z" fill="white"/>
<path d="M297.439 376.05L296.439 376.05L296.439 377.05L297.439 377.05L297.439 376.05ZM297.439 327.223L296.439 327.223L297.439 327.223ZM299.439 326.223L447.921 326.223L447.921 324.223L299.439 324.223L299.439 326.223ZM448.921 327.223L448.921 374.05L450.921 374.05L450.921 327.223L448.921 327.223ZM447.921 375.05L297.439 375.05L297.439 377.05L447.921 377.05L447.921 375.05ZM298.439 376.05L298.439 327.223L296.439 327.223L296.439 376.05L298.439 376.05ZM448.921 374.05C448.921 374.602 448.473 375.05 447.921 375.05L447.921 377.05C449.578 377.05 450.921 375.707 450.921 374.05L448.921 374.05ZM447.921 326.223C448.473 326.223 448.921 326.67 448.921 327.223L450.921 327.223C450.921 325.566 449.578 324.223 447.921 324.223L447.921 326.223ZM299.439 324.223C297.783 324.223 296.439 325.566 296.439 327.223L298.439 327.223C298.439 326.67 298.887 326.223 299.439 326.223L299.439 324.223Z" fill="#6B7078"/>
<path d="M333.309 341.368L333.309 359.904" stroke="#6B7078" stroke-width="2"/>
<path d="M324.041 350.636L342.577 350.636" stroke="#6B7078" stroke-width="2"/>
<path d="M326.756 344.083L339.863 357.19" stroke="#6B7078" stroke-width="2"/>
<path d="M326.756 357.19L339.863 344.083" stroke="#6B7078" stroke-width="2"/>
<path d="M360.223 341.368L360.223 359.904" stroke="#6B7078" stroke-width="2"/>
<path d="M350.955 350.636L369.491 350.636" stroke="#6B7078" stroke-width="2"/>
<path d="M353.67 344.083L366.777 357.19" stroke="#6B7078" stroke-width="2"/>
<path d="M353.67 357.19L366.777 344.083" stroke="#6B7078" stroke-width="2"/>
<path d="M387.138 341.368L387.138 359.904" stroke="#6B7078" stroke-width="2"/>
<path d="M377.87 350.636L396.406 350.636" stroke="#6B7078" stroke-width="2"/>
<path d="M380.585 344.083L393.692 357.19" stroke="#6B7078" stroke-width="2"/>
<path d="M380.585 357.19L393.692 344.083" stroke="#6B7078" stroke-width="2"/>
<path d="M414.053 341.368L414.053 359.904" stroke="#6B7078" stroke-width="2"/>
<path d="M404.784 350.636L423.32 350.636" stroke="#6B7078" stroke-width="2"/>
<path d="M407.499 344.083L420.606 357.19" stroke="#6B7078" stroke-width="2"/>
<path d="M407.499 357.19L420.606 344.083" stroke="#6B7078" stroke-width="2"/>
<path d="M303.829 340.177C299.677 340.177 296.312 343.543 296.312 347.695C296.312 351.847 299.677 355.213 303.829 355.213C307.981 355.213 311.347 351.847 311.347 347.695C311.347 343.543 307.981 340.177 303.829 340.177Z" fill="white"/>
<path d="M303.829 341.177C300.23 341.177 297.312 344.095 297.312 347.695L295.312 347.695C295.312 342.991 299.125 339.177 303.829 339.177L303.829 341.177ZM297.312 347.695C297.312 351.295 300.23 354.213 303.829 354.213L303.829 356.213C299.125 356.213 295.312 352.399 295.312 347.695L297.312 347.695ZM303.829 354.213C307.429 354.213 310.347 351.295 310.347 347.695L312.347 347.695C312.347 352.399 308.533 356.213 303.829 356.213L303.829 354.213ZM310.347 347.695C310.347 344.095 307.429 341.177 303.829 341.177L303.829 339.177C308.533 339.177 312.347 342.991 312.347 347.695L310.347 347.695Z" fill="#8F8E37"/>
<path d="M300.098 340.665C295.636 345.869 289.96 349.891 283.573 352.376C277.186 354.861 270.286 355.732 263.482 354.911C256.679 354.091 250.183 351.604 244.57 347.671C238.957 343.739 234.4 338.482 231.302 332.366C228.205 326.251 226.663 319.465 226.812 312.61C226.962 305.756 228.799 299.044 232.161 293.069C235.523 287.095 240.305 282.041 246.085 278.358C251.864 274.674 258.462 272.473 265.295 271.95L268.472 313.52L300.098 340.665Z" fill="#F7F7EB" stroke="#8F8E37" stroke-width="2" stroke-linejoin="round"/>
<g style="mix-blend-mode:multiply">
<path fill-rule="evenodd" clip-rule="evenodd" d="M299.235 339.925C296.865 341.547 294.309 342.899 291.613 343.948C285.837 346.195 279.597 346.983 273.445 346.241C267.292 345.499 261.418 343.25 256.342 339.694C251.266 336.137 247.145 331.383 244.344 325.853C241.543 320.322 240.148 314.186 240.283 307.987C240.419 301.789 242.08 295.719 245.12 290.316C248.16 284.913 252.485 280.343 257.711 277.012C260.132 275.47 262.71 274.214 265.396 273.264L265.295 271.95C258.462 272.473 251.864 274.674 246.085 278.358C240.305 282.042 235.523 287.095 232.161 293.07C228.799 299.044 226.962 305.756 226.812 312.611C226.663 319.465 228.205 326.251 231.302 332.367C234.4 338.482 238.957 343.739 244.57 347.672C250.183 351.604 256.679 354.091 263.482 354.912C270.286 355.732 277.186 354.862 283.573 352.377C289.96 349.892 295.636 345.869 300.098 340.665L299.235 339.925Z" fill="#E6E6BE"/>
</g>
<rect x="509.441" y="162.488" width="81.1782" height="84.0414" fill="white" stroke="#D3D5DB" stroke-width="2"/>
<path fill-rule="evenodd" clip-rule="evenodd" d="M477.657 57.4514C476.824 57.7482 476.389 58.664 476.686 59.4969L478.632 64.9567L475.502 59.6178C475.054 58.855 474.074 58.5993 473.311 59.0465C472.548 59.4937 472.292 60.4746 472.74 61.2374L475.714 66.3101C475.663 66.348 475.613 66.3867 475.564 66.4261L472.28 62.3236C471.727 61.6333 470.719 61.5218 470.029 62.0744C469.339 62.627 469.227 63.6345 469.78 64.3247L473.118 68.4946L469.169 66.0947C468.413 65.6355 467.429 65.8759 466.969 66.6315C466.51 67.3871 466.751 68.3719 467.506 68.8311L473.05 72.2001C473.226 74.4813 474.56 76.6161 476.756 77.7132C480.082 79.3755 484.126 78.0263 485.789 74.6998C486.626 73.0239 486.699 71.1658 486.14 69.5219L489.514 65.0117C490.044 64.3036 489.899 63.3003 489.191 62.7707C488.483 62.241 487.48 62.3856 486.95 63.0937L484.267 66.6804C483.828 66.2861 483.329 65.9434 482.775 65.6668C482.583 65.5708 482.389 65.4849 482.193 65.4088L479.702 58.422C479.406 57.5891 478.49 57.1545 477.657 57.4514Z" fill="white"/>
<path d="M476.686 59.4969L477.628 59.1612L477.628 59.1612L476.686 59.4969ZM477.657 57.4514L477.321 56.5094L477.321 56.5094L477.657 57.4514ZM478.632 64.9567L477.77 65.4625L479.574 64.621L478.632 64.9567ZM475.502 59.6178L476.364 59.112L475.502 59.6178ZM473.311 59.0465L473.817 59.9091L473.817 59.9091L473.311 59.0465ZM472.74 61.2374L471.877 61.7432L472.74 61.2374ZM475.714 66.3101L476.315 67.1094L477.028 66.5735L476.577 65.8043L475.714 66.3101ZM475.564 66.4261L474.783 67.0511L475.407 67.8301L476.187 67.2081L475.564 66.4261ZM472.28 62.3236L471.499 62.9486L472.28 62.3236ZM470.029 62.0744L470.654 62.855L470.029 62.0744ZM469.78 64.3247L468.999 64.9497L468.999 64.9497L469.78 64.3247ZM473.118 68.4946L472.599 69.3492L473.899 67.8696L473.118 68.4946ZM469.169 66.0947L468.65 66.9493L468.65 66.9493L469.169 66.0947ZM466.969 66.6315L467.824 67.1508L466.969 66.6315ZM467.506 68.8311L466.987 69.6856L466.987 69.6856L467.506 68.8311ZM473.05 72.2001L474.047 72.1234L474.008 71.6119L473.57 71.3455L473.05 72.2001ZM476.756 77.7132L476.309 78.6077L476.756 77.7132ZM485.789 74.6998L486.683 75.1468L485.789 74.6998ZM486.14 69.5219L485.339 68.9229L485.024 69.3449L485.193 69.8439L486.14 69.5219ZM489.514 65.0117L490.315 65.6107L490.315 65.6107L489.514 65.0117ZM489.191 62.7707L489.79 61.9699L489.79 61.9699L489.191 62.7707ZM486.95 63.0937L486.149 62.4947L486.149 62.4947L486.95 63.0937ZM484.267 66.6804L483.599 67.4246L484.413 68.155L485.068 67.2794L484.267 66.6804ZM482.775 65.6668L482.328 66.5613L482.328 66.5613L482.775 65.6668ZM482.193 65.4088L481.251 65.7445L481.404 66.1757L481.831 66.3412L482.193 65.4088ZM479.702 58.422L478.76 58.7577L479.702 58.422ZM477.628 59.1612C477.517 58.8485 477.68 58.5047 477.993 58.3933L477.321 56.5094C475.968 56.9916 475.262 58.4795 475.744 59.8326L477.628 59.1612ZM479.574 64.621L477.628 59.1612L475.744 59.8326L477.69 65.2924L479.574 64.621ZM474.639 60.1236L477.77 65.4625L479.495 64.4509L476.364 59.112L474.639 60.1236ZM473.817 59.9091C474.103 59.7413 474.471 59.8373 474.639 60.1236L476.364 59.112C475.638 57.8728 474.044 57.4573 472.805 58.1838L473.817 59.9091ZM473.602 60.7316C473.434 60.4452 473.53 60.077 473.817 59.9091L472.805 58.1838C471.566 58.9104 471.15 60.504 471.877 61.7432L473.602 60.7316ZM476.577 65.8043L473.602 60.7316L471.877 61.7432L474.851 66.8159L476.577 65.8043ZM476.187 67.2081C476.229 67.1746 476.272 67.1416 476.315 67.1094L475.113 65.5108C475.055 65.5544 474.998 65.5989 474.941 65.6442L476.187 67.2081ZM471.499 62.9486L474.783 67.0511L476.345 65.8012L473.06 61.6986L471.499 62.9486ZM470.654 62.855C470.913 62.6476 471.291 62.6895 471.499 62.9486L473.06 61.6986C472.162 60.5772 470.526 60.396 469.404 61.2937L470.654 62.855ZM470.561 63.6998C470.353 63.4407 470.395 63.0624 470.654 62.855L469.404 61.2937C468.283 62.1915 468.102 63.8283 468.999 64.9497L470.561 63.6998ZM473.899 67.8696L470.561 63.6998L468.999 64.9497L472.338 69.1195L473.899 67.8696ZM468.65 66.9493L472.599 69.3492L473.638 67.64L469.688 65.2401L468.65 66.9493ZM467.824 67.1508C467.996 66.8671 468.366 66.7769 468.65 66.9493L469.688 65.2401C468.461 64.4941 466.861 64.8846 466.115 66.1122L467.824 67.1508ZM468.025 67.9765C467.742 67.8041 467.652 67.4344 467.824 67.1508L466.115 66.1122C465.369 67.3398 465.759 68.9397 466.987 69.6856L468.025 67.9765ZM473.57 71.3455L468.025 67.9765L466.987 69.6856L472.531 73.0547L473.57 71.3455ZM477.203 76.8187C475.334 75.885 474.197 74.0688 474.047 72.1234L472.053 72.2768C472.255 74.8937 473.786 77.3471 476.309 78.6077L477.203 76.8187ZM484.894 74.2528C483.479 77.0853 480.035 78.2341 477.203 76.8187L476.309 78.6077C480.129 80.5169 484.774 78.9674 486.683 75.1468L484.894 74.2528ZM485.193 69.8439C485.67 71.2452 485.607 72.8256 484.894 74.2528L486.683 75.1468C487.645 73.2222 487.728 71.0865 487.087 69.2L485.193 69.8439ZM488.713 64.4127L485.339 68.9229L486.941 70.1209L490.315 65.6107L488.713 64.4127ZM488.592 63.5714C488.858 63.7702 488.912 64.1469 488.713 64.4127L490.315 65.6107C491.175 64.4604 490.94 62.8304 489.79 61.9699L488.592 63.5714ZM487.751 63.6927C487.95 63.4269 488.326 63.3726 488.592 63.5714L489.79 61.9699C488.64 61.1095 487.01 61.3444 486.149 62.4947L487.751 63.6927ZM485.068 67.2794L487.751 63.6927L486.149 62.4947L483.466 66.0814L485.068 67.2794ZM482.328 66.5613C482.801 66.7976 483.226 67.0895 483.599 67.4246L484.935 65.9362C484.43 65.4827 483.857 65.0893 483.222 64.7723L482.328 66.5613ZM481.831 66.3412C481.998 66.406 482.164 66.4793 482.328 66.5613L483.222 64.7723C483.002 64.6623 482.779 64.5638 482.554 64.4764L481.831 66.3412ZM478.76 58.7577L481.251 65.7445L483.134 65.0731L480.644 58.0862L478.76 58.7577ZM477.993 58.3933C478.305 58.2819 478.649 58.445 478.76 58.7577L480.644 58.0862C480.162 56.7331 478.674 56.0272 477.321 56.5094L477.993 58.3933Z" fill="#A86A50"/>
<path d="M485.916 74.7266C478.718 77.3441 472.6 82.2889 468.53 88.7775C464.461 95.2661 462.674 102.927 463.452 110.547C464.23 118.166 467.529 125.308 472.825 130.84C478.122 136.372 485.113 139.978 492.692 141.087C500.27 142.196 508.002 140.744 514.661 136.961C521.32 133.177 526.527 127.28 529.455 120.203C532.383 113.126 532.865 105.274 530.825 97.8913C528.786 90.509 528.776 87.0633 522.63 82.4936L497.671 107.053L485.916 74.7266Z" fill="#FAF1ED" stroke="#A86A50" stroke-width="2" stroke-linejoin="round"/>
<g style="mix-blend-mode:multiply">
<path fill-rule="evenodd" clip-rule="evenodd" d="M485.938 74.5928C480.955 77.1021 476.728 80.9342 473.74 85.6993C470.108 91.4892 468.514 98.3255 469.208 105.125C469.902 111.924 472.846 118.296 477.572 123.233C482.298 128.17 488.537 131.388 495.3 132.377C502.062 133.366 508.961 132.07 514.904 128.695C520.846 125.319 525.492 120.056 528.105 113.741C530.717 107.426 531.148 100.419 529.328 93.8318C529.203 93.3825 529.069 92.937 528.925 92.4954C529.694 94.1673 530.331 95.9064 530.826 97.6981C532.866 105.08 532.383 112.932 529.455 120.01C526.527 127.087 521.321 132.984 514.661 136.767C508.002 140.55 500.27 142.003 492.692 140.894C485.114 139.785 478.122 136.179 472.825 130.647C467.529 125.114 464.23 117.973 463.452 110.353C462.674 102.734 464.461 95.0729 468.531 88.5843C472.6 82.0957 478.718 77.1509 485.916 74.5334L485.938 74.5928Z" fill="#ECC3B2"/>
</g>
<path d="M499.133 111.018L486.083 75.0957" stroke="#A86A50" stroke-width="2" stroke-linejoin="round"/>
<path d="M484.231 243.51L482.002 241.203L494.477 210.499L503.232 204.874L513.362 215.356L484.231 243.51Z" fill="#FAF1ED" stroke="#A86A50" stroke-width="2"/>
<rect x="482.954" y="242.754" width="41.2977" height="1.82196" transform="rotate(-44.0213 482.954 242.754)" fill="#A86A50"/>
<path d="M566.416 136.959L564.421 144.306C562.495 151.397 556.057 156.32 548.708 156.32L509.466 156.32L509.466 210.878L489.402 210.82L489.402 141.207C489.402 138.861 491.303 136.959 493.649 136.959L566.416 136.959Z" fill="#E7B19A" stroke="#A86A50" stroke-width="2" stroke-linejoin="round"/>
<path d="M437.267 205.035L438.887 202.26L465.877 205.067L479.513 213.027L472.254 225.461L437.267 205.035Z" fill="#FAF1ED" stroke="#A86A50" stroke-width="2"/>
<rect x="437.647" y="203.603" width="41.2977" height="1.82196" transform="rotate(30.2774 437.647 203.603)" fill="#A86A50"/>
<path d="M570.376 142.46L570.376 145.315C570.374 155.477 562.136 163.714 551.975 163.716L508.544 163.726L480.409 212.431L462.002 201.809L494.734 146.099C495.87 144.165 497.94 142.971 500.182 142.955L570.376 142.46Z" fill="#A86A50" stroke="#A86A50" stroke-width="2" stroke-linejoin="round"/>
<path d="M469.699 207.304L502.114 153.111L549.854 153.111C555.376 153.111 559.854 148.633 559.854 143.111L559.854 140.448" stroke="#E19E83" stroke-width="2" stroke-linejoin="round"/>
<path d="M570.293 142.459C541.866 142.659 538.254 143.002 527.627 142.619C523.736 130.721 532.24 89.3924 530.455 86.4565C553.136 95.3031 567.165 116.021 570.293 142.459Z" fill="#FAF1ED" stroke="#A86A50" stroke-width="2" stroke-linejoin="round"/>
<rect width="2.78845" height="28.2995" transform="matrix(-0.304709 0.952445 0.952445 0.304709 452.592 103.694)" fill="#A86A50"/>
<path d="M487.836 114.993C489.577 118.28 488.324 122.355 485.038 124.095C481.752 125.836 477.676 124.583 475.936 121.297C474.195 118.011 475.448 113.936 478.734 112.195C482.02 110.454 486.096 111.707 487.836 114.993Z" fill="white"/>
<path d="M486.952 115.462C488.435 118.26 487.368 121.73 484.57 123.212L485.506 124.979C489.28 122.98 490.719 118.3 488.72 114.525L486.952 115.462ZM484.57 123.212C481.772 124.694 478.302 123.627 476.82 120.829L475.052 121.765C477.051 125.539 481.732 126.978 485.506 124.979L484.57 123.212ZM476.82 120.829C475.337 118.031 476.404 114.561 479.202 113.079L478.266 111.311C474.492 113.311 473.053 117.991 475.052 121.765L476.82 120.829ZM479.202 113.079C482 111.597 485.47 112.663 486.952 115.462L488.72 114.525C486.721 110.751 482.04 109.312 478.266 111.311L479.202 113.079Z" fill="#A86A50"/>
<path d="M483.127 114.951L477.101 113.262" stroke="#A86A50" stroke-width="2"/>
<path d="M488.331 116.823C488.299 123.626 490.286 130.286 494.039 135.96C497.792 141.634 503.144 146.068 509.417 148.7C515.69 151.333 522.603 152.046 529.281 150.75C535.96 149.453 542.104 146.206 546.936 141.418C551.769 136.63 555.074 130.516 556.432 123.85C557.79 117.184 557.141 110.264 554.566 103.967C551.992 97.67 547.608 92.2776 541.969 88.4718C536.331 84.666 529.69 82.6179 522.887 82.5863L522.727 116.983L488.331 116.823Z" fill="#FAF1ED" stroke="#A86A50" stroke-width="2"/>
<g style="mix-blend-mode:multiply">
<path fill-rule="evenodd" clip-rule="evenodd" d="M491.168 117.375C492.245 123.3 495.046 128.796 499.244 133.162C503.981 138.088 510.227 141.292 516.992 142.266C523.756 143.24 530.653 141.928 536.588 138.539C542.522 135.15 547.156 129.877 549.755 123.556C552.354 117.235 552.768 110.228 550.933 103.644C549.098 97.0607 545.118 91.2781 539.625 87.2127C539.248 86.9344 538.867 86.6652 538.48 86.4052C539.505 86.9336 540.507 87.5148 541.48 88.1478C547.183 91.8568 551.658 97.1737 554.339 103.426C557.021 109.679 557.788 116.586 556.543 123.274C555.299 129.962 552.099 136.131 547.349 141.001C542.599 145.871 536.511 149.223 529.855 150.633C523.2 152.043 516.276 151.448 509.959 148.922C503.642 146.397 498.216 142.056 494.366 136.446C490.517 130.837 488.417 124.212 488.332 117.41L491.168 117.375Z" fill="#ECC3B2"/>
</g>
<ellipse rx="12.2306" ry="12.2326" transform="matrix(0.92098 0.389609 -0.389151 0.921174 513.361 68.9678)" fill="white" stroke="#A86A50" stroke-width="2"/>
<path fill-rule="evenodd" clip-rule="evenodd" d="M522.794 61.1836L524.399 64.4813L509.536 61.1028L503.019 74.8817L501.422 71.5973C500.896 69.2079 501.079 66.6381 502.103 64.2132C504.732 57.9899 511.907 55.0783 518.128 57.71C520.005 58.5042 521.581 59.7125 522.794 61.1836Z" fill="#A86A50"/>
<circle cx="504.462" cy="50.1017" r="6.39905" fill="#A86A50"/>
<path d="M372.222 130.367L356.586 114.979M387.51 130.367V103.694" stroke="#6B7078" stroke-width="2"/>
<path d="M402.798 130.367L418.434 114.979M387.51 130.367V103.694" stroke="#6B7078" stroke-width="2"/>
</svg>
