<svg width="720" height="560" viewBox="0 0 720 560" fill="none" xmlns="http://www.w3.org/2000/svg">
<g clip-path="url(#clip0_194_182538)">
<rect x="218.752" y="213.043" width="309.522" height="228.773" fill="white" stroke="#D3D5DB" stroke-width="2"/>
<path d="M467.188 251.033C467.188 249.928 466.293 249.033 465.188 249.033L300.74 249.033C299.635 249.033 298.74 249.928 298.74 251.033L298.74 303.182C298.74 304.287 299.635 305.182 300.74 305.182L467.188 305.182L467.188 251.033Z" fill="white"/>
<path d="M467.188 305.182L468.188 305.182L468.188 306.182L467.188 306.182L467.188 305.182ZM467.188 251.033L468.188 251.033L467.188 251.033ZM465.188 250.033L300.74 250.033L300.74 248.033L465.188 248.033L465.188 250.033ZM299.74 251.033L299.74 303.182L297.74 303.182L297.74 251.033L299.74 251.033ZM300.74 304.182L467.188 304.182L467.188 306.182L300.74 306.182L300.74 304.182ZM466.188 305.182L466.188 251.033L468.188 251.033L468.188 305.182L466.188 305.182ZM299.74 303.182C299.74 303.734 300.188 304.182 300.74 304.182L300.74 306.182C299.083 306.182 297.74 304.839 297.74 303.182L299.74 303.182ZM300.74 250.033C300.188 250.033 299.74 250.48 299.74 251.033L297.74 251.033C297.74 249.376 299.083 248.033 300.74 248.033L300.74 250.033ZM465.188 248.033C466.845 248.033 468.188 249.376 468.188 251.033L466.188 251.033C466.188 250.48 465.741 250.033 465.188 250.033L465.188 248.033Z" fill="#6B7078"/>
<path d="M427.565 266.869L427.565 287.346" stroke="#6B7078" stroke-width="2"/>
<path d="M437.803 277.107L417.325 277.107" stroke="#6B7078" stroke-width="2"/>
<path d="M434.804 269.868L420.324 284.348" stroke="#6B7078" stroke-width="2"/>
<path d="M434.804 284.348L420.324 269.868" stroke="#6B7078" stroke-width="2"/>
<path d="M397.832 266.869L397.832 287.346" stroke="#6B7078" stroke-width="2"/>
<path d="M408.069 277.106L387.592 277.106" stroke="#6B7078" stroke-width="2"/>
<path d="M405.07 269.867L390.591 284.347" stroke="#6B7078" stroke-width="2"/>
<path d="M405.07 284.348L390.591 269.868" stroke="#6B7078" stroke-width="2"/>
<path d="M368.1 266.869L368.1 287.346" stroke="#6B7078" stroke-width="2"/>
<path d="M378.337 277.107L357.86 277.107" stroke="#6B7078" stroke-width="2"/>
<path d="M375.337 269.868L360.857 284.348" stroke="#6B7078" stroke-width="2"/>
<path d="M375.337 284.348L360.857 269.868" stroke="#6B7078" stroke-width="2"/>
<path d="M338.365 266.869L338.365 287.346" stroke="#6B7078" stroke-width="2"/>
<path d="M348.604 277.106L328.127 277.106" stroke="#6B7078" stroke-width="2"/>
<path d="M345.605 269.867L331.126 284.347" stroke="#6B7078" stroke-width="2"/>
<path d="M345.605 284.348L331.126 269.868" stroke="#6B7078" stroke-width="2"/>
<rect width="71.0579" height="73.5642" transform="matrix(1 0 0 -1 147.694 350.672)" fill="white" stroke="#D3D5DB" stroke-width="2"/>
<rect x="528.275" y="441.816" width="65.3439" height="67.6486" fill="white" stroke="#D3D5DB" stroke-width="2"/>
<rect x="144.784" y="441.815" width="73.9681" height="67.6486" fill="white" stroke="#D3D5DB" stroke-width="2"/>
<path d="M253.164 145.701C263.715 149.538 272.684 156.786 278.649 166.297C284.613 175.808 287.233 187.038 286.093 198.207C284.952 209.376 280.117 219.845 272.353 227.954C264.589 236.063 254.341 241.35 243.232 242.975C232.123 244.6 220.79 242.471 211.028 236.926C201.267 231.38 193.635 222.736 189.343 212.362C185.051 201.988 184.344 190.478 187.334 179.657C190.324 168.835 190.338 163.785 199.348 157.086L235.933 193.086L253.164 145.701Z" fill="#FAF1ED" stroke="#A86A50" stroke-width="2" stroke-linejoin="round"/>
<g style="mix-blend-mode:multiply">
<path fill-rule="evenodd" clip-rule="evenodd" d="M253.132 145.505C260.436 149.184 266.632 154.801 271.012 161.785C276.335 170.272 278.673 180.293 277.655 190.26C276.637 200.226 272.323 209.567 265.395 216.804C258.466 224.04 249.321 228.757 239.409 230.207C229.496 231.658 219.383 229.758 210.672 224.81C201.962 219.861 195.152 212.147 191.322 202.89C187.492 193.633 186.861 183.363 189.529 173.706C189.711 173.05 189.907 172.398 190.117 171.753C188.992 174.202 188.059 176.749 187.334 179.373C184.344 190.195 185.051 201.705 189.343 212.079C193.635 222.453 201.267 231.097 211.028 236.643C220.79 242.188 232.123 244.317 243.232 242.692C254.341 241.066 264.589 235.78 272.353 227.671C280.117 219.561 284.952 209.093 286.093 197.924C287.233 186.755 284.613 175.525 278.649 166.014C272.684 156.503 263.715 149.254 253.164 145.418L253.132 145.505Z" fill="#ECC3B2"/>
</g>
<path d="M233.791 198.897L252.92 146.24" stroke="#A86A50" stroke-width="2" stroke-linejoin="round"/>
<path d="M255.646 393.766L259.448 389.832L240.991 344.406L227.712 335.875L212.273 351.85L255.646 393.766Z" fill="#FAF1ED" stroke="#A86A50" stroke-width="2"/>
<rect width="60.5358" height="2.6707" transform="matrix(-0.719081 -0.694926 -0.694926 0.719081 257.506 392)" fill="#A86A50"/>
<path d="M135.165 236.92L139.609 253.286C141.535 260.378 147.973 265.3 155.322 265.3L218.643 265.3L218.643 345.273L248.055 345.188L248.055 241.168C248.055 238.822 246.153 236.92 243.807 236.92L135.165 236.92Z" fill="#E7B19A" stroke="#A86A50" stroke-width="2" stroke-linejoin="round"/>
<path d="M325.112 336.878L322.351 332.149L282.39 336.304L261.913 348.259L273.023 367.289L325.112 336.878Z" fill="#FAF1ED" stroke="#A86A50" stroke-width="2"/>
<rect width="60.5358" height="2.6707" transform="matrix(-0.863595 0.504187 0.504187 0.863595 323.918 334.612)" fill="#A86A50"/>
<path d="M129.358 244.984L129.361 257.739C129.363 267.901 137.601 276.138 147.762 276.141L219.995 276.157L261.236 347.55L288.218 331.98L239.384 248.865C238.248 246.932 236.179 245.738 233.936 245.722L129.358 244.984Z" fill="#A86A50" stroke="#A86A50" stroke-width="2" stroke-linejoin="round"/>
<path d="M276.936 340.035L229.421 260.596L154.784 260.596C149.261 260.596 144.784 256.119 144.784 250.596L144.784 242.035" stroke="#E19E83" stroke-width="2" stroke-linejoin="round"/>
<path d="M129.481 244.985C171.15 245.279 176.445 245.781 192.023 245.22C197.726 227.78 185.26 167.198 187.877 162.894C154.631 175.862 134.066 206.231 129.481 244.985Z" fill="#FAF1ED" stroke="#A86A50" stroke-width="2" stroke-linejoin="round"/>
<rect width="143.806" height="143.806" transform="matrix(-1 0 0 1 397.385 69.2368)" fill="white" stroke="#6B7078" stroke-width="2"/>
<circle r="19.2523" transform="matrix(-1 0 0 1 325.481 118.678)" fill="white" stroke="#6B7078" stroke-width="2"/>
<path d="M288.728 182.853C288.728 178.026 289.678 173.247 291.525 168.788C293.373 164.328 296.08 160.277 299.493 156.864C302.906 153.451 306.957 150.743 311.417 148.896C315.876 147.049 320.655 146.099 325.482 146.099C330.309 146.099 335.088 147.049 339.547 148.896C344.007 150.743 348.058 153.451 351.471 156.864C354.884 160.277 357.591 164.328 359.439 168.788C361.286 173.247 362.236 178.026 362.236 182.853H288.728Z" fill="white" stroke="#6B7078" stroke-width="2"/>
<path d="M337.774 53.8282L353.41 38.4397M322.486 53.8282V27.1548" stroke="#6B7078" stroke-width="2"/>
<path d="M307.198 53.8282L291.562 38.4397M322.486 53.8282V27.1548" stroke="#6B7078" stroke-width="2"/>
<path d="M250.749 204.724C248.198 209.541 250.034 215.515 254.852 218.066C259.669 220.618 265.642 218.781 268.193 213.964C270.745 209.147 268.908 203.174 264.091 200.622C259.274 198.071 253.301 199.907 250.749 204.724Z" fill="white"/>
<path d="M251.633 205.192C249.34 209.521 250.991 214.889 255.32 217.182L254.383 218.95C249.078 216.14 247.056 209.561 249.866 204.256L251.633 205.192ZM255.32 217.182C259.649 219.475 265.017 217.825 267.31 213.496L269.077 214.432C266.267 219.737 259.689 221.76 254.383 218.95L255.32 217.182ZM267.31 213.496C269.603 209.167 267.952 203.799 263.623 201.506L264.559 199.738C269.865 202.548 271.887 209.127 269.077 214.432L267.31 213.496ZM263.623 201.506C259.294 199.213 253.926 200.863 251.633 205.192L249.866 204.256C252.676 198.951 259.254 196.928 264.559 199.738L263.623 201.506Z" fill="#A86A50"/>
<path d="M249.625 207.407C249.671 217.379 246.759 227.141 241.257 235.458C235.756 243.775 227.911 250.274 218.716 254.133C209.52 257.992 199.387 259.038 189.598 257.137C179.808 255.237 170.802 250.477 163.718 243.458C156.634 236.44 151.79 227.478 149.8 217.707C147.809 207.935 148.76 197.793 152.534 188.562C156.307 179.331 162.733 171.427 170.999 165.848C179.265 160.269 188.999 157.267 198.971 157.221L199.205 207.641L249.625 207.407Z" fill="#FAF1ED" stroke="#A86A50" stroke-width="2"/>
<g style="mix-blend-mode:multiply">
<path fill-rule="evenodd" clip-rule="evenodd" d="M245.465 208.216C243.887 216.901 239.781 224.958 233.627 231.357C226.683 238.577 217.528 243.274 207.612 244.702C197.696 246.13 187.587 244.207 178.888 239.239C170.188 234.271 163.395 226.542 159.586 217.276C155.777 208.011 155.169 197.739 157.859 188.089C160.549 178.438 166.383 169.962 174.436 164.003C174.986 163.595 175.545 163.201 176.112 162.821C174.609 163.595 173.142 164.446 171.717 165.374C163.357 170.811 156.797 178.604 152.867 187.769C148.936 196.934 147.812 207.059 149.636 216.863C151.46 226.667 156.15 235.71 163.113 242.848C170.077 249.987 179 254.9 188.756 256.967C198.512 259.034 208.661 258.161 217.921 254.46C227.181 250.758 235.135 244.394 240.778 236.172C246.421 227.95 249.499 218.239 249.622 208.267L245.465 208.216Z" fill="#ECC3B2"/>
</g>
<ellipse rx="17.9281" ry="17.931" transform="matrix(-0.72891 0.68461 0.684247 0.72925 209.256 135.337)" fill="white" stroke="#A86A50" stroke-width="2"/>
<path fill-rule="evenodd" clip-rule="evenodd" d="M200.14 150.802L215.067 118.386C208.989 116.306 201.992 117.572 196.983 122.277C189.765 129.055 189.408 140.405 196.184 147.627C197.377 148.898 198.712 149.957 200.14 150.802Z" fill="#A86A50"/>
<circle r="9.37999" transform="matrix(-0.938042 0.346522 0.346522 0.938042 183.33 118.05)" fill="#A86A50"/>
<path d="M465.986 559.457L462.184 555.523L480.641 510.098L493.92 501.567L509.358 517.542L465.986 559.457Z" fill="#F7F7EB" stroke="#8F8E37" stroke-width="2"/>
<rect x="464.126" y="557.691" width="60.5358" height="2.6707" transform="rotate(-44.0213 464.126 557.691)" fill="#8F8E37"/>
<path d="M586.467 402.612L582.023 418.977C580.097 426.069 573.659 430.992 566.31 430.992L502.989 430.992L502.989 510.964L473.577 510.88L473.577 406.859C473.577 404.514 475.479 402.612 477.825 402.612L586.467 402.612Z" fill="#D0CF84" stroke="#8F8E37" stroke-width="2" stroke-linejoin="round"/>
<path d="M396.52 502.57L399.281 497.84L439.242 501.996L459.719 513.95L448.608 532.981L396.52 502.57Z" fill="#F7F7EB" stroke="#8F8E37" stroke-width="2"/>
<rect x="397.714" y="500.303" width="60.5358" height="2.6707" transform="rotate(30.2774 397.714 500.303)" fill="#8F8E37"/>
<path d="M592.274 410.676L592.271 423.431C592.268 433.593 584.031 441.83 573.87 441.832L501.636 441.849L460.396 513.241L433.414 497.671L482.248 414.557C483.384 412.623 485.453 411.43 487.696 411.414L592.274 410.676Z" fill="#8F8E37" stroke="#8F8E37" stroke-width="2" stroke-linejoin="round"/>
<path d="M444.696 505.727L492.211 426.288L566.848 426.288C572.37 426.288 576.848 421.811 576.848 416.288L576.848 407.727" stroke="#C5C467" stroke-width="2" stroke-linejoin="round"/>
<path d="M592.151 410.676C550.482 410.97 545.186 411.472 529.609 410.912C523.906 393.471 536.372 332.89 533.755 328.586C567.001 341.554 587.566 371.923 592.151 410.676Z" fill="#F7F7EB" stroke="#8F8E37" stroke-width="2" stroke-linejoin="round"/>
<path d="M473.05 377.232C475.602 382.049 473.765 388.023 468.948 390.574C464.131 393.126 458.158 391.289 455.606 386.472C453.055 381.655 454.891 375.682 459.708 373.13C464.525 370.579 470.499 372.415 473.05 377.232Z" fill="white"/>
<path d="M472.167 377.7C474.46 382.029 472.809 387.397 468.48 389.69L469.416 391.458C474.721 388.648 476.744 382.069 473.934 376.764L472.167 377.7ZM468.48 389.69C464.151 391.983 458.783 390.333 456.49 386.004L454.723 386.94C457.533 392.245 464.111 394.268 469.416 391.458L468.48 389.69ZM456.49 386.004C454.197 381.675 455.847 376.307 460.176 374.014L459.24 372.246C453.935 375.056 451.913 381.635 454.723 386.94L456.49 386.004ZM460.176 374.014C464.505 371.721 469.874 373.371 472.167 377.7L473.934 376.764C471.124 371.459 464.545 369.436 459.24 372.246L460.176 374.014Z" fill="#8F8E37"/>
<path d="M400.962 303.41C401.086 310.127 402.953 317.043 406.459 323.765C409.964 330.487 415.037 336.882 421.39 342.586C427.742 348.29 435.25 353.19 443.483 357.006C451.716 360.823 460.514 363.482 469.374 364.831C478.234 366.18 486.983 366.193 495.121 364.869C503.26 363.545 510.628 360.91 516.805 357.114C522.983 353.319 527.849 348.437 531.125 342.748C534.401 337.058 536.024 330.673 535.9 323.956L468.431 313.683L400.962 303.41Z" fill="#F7F7EB"/>
<circle cx="391.12" cy="304.77" r="9.87002" transform="rotate(-27.9097 391.12 304.77)" fill="white" stroke="#8F8E37" stroke-width="2"/>
<path fill-rule="evenodd" clip-rule="evenodd" d="M405.559 304.109C409.031 310.402 413.879 316.387 419.861 321.758C426.214 327.461 433.721 332.361 441.954 336.178C450.187 339.995 458.985 342.654 467.845 344.003C476.706 345.352 485.455 345.365 493.593 344.041C501.731 342.717 509.1 340.082 515.277 336.286C521.095 332.712 525.749 328.174 529.008 322.906L535.898 323.955C536.022 330.672 534.4 337.058 531.123 342.747C527.847 348.436 522.981 353.318 516.804 357.114C510.626 360.909 503.258 363.545 495.12 364.869C486.981 366.193 478.232 366.18 469.372 364.831C460.512 363.482 451.714 360.823 443.481 357.006C435.248 353.189 427.741 348.289 421.388 342.585C415.035 336.882 409.962 330.487 406.457 323.765C402.952 317.043 401.084 310.126 400.96 303.409L405.559 304.109Z" fill="#DBDBA1"/>
<mask id="path-59-inside-1_194_182538" fill="white">
<path d="M400.962 303.41C401.086 310.127 402.953 317.043 406.459 323.765C409.964 330.487 415.037 336.882 421.39 342.586C427.742 348.29 435.25 353.19 443.483 357.006C451.716 360.823 460.514 363.482 469.374 364.831C478.234 366.18 486.983 366.193 495.121 364.869C503.26 363.545 510.628 360.91 516.805 357.114C522.983 353.319 527.849 348.437 531.125 342.748C534.401 337.058 536.024 330.673 535.9 323.956L468.431 313.683L400.962 303.41Z"/>
</mask>
<path d="M400.962 303.41C401.086 310.127 402.953 317.043 406.459 323.765C409.964 330.487 415.037 336.882 421.39 342.586C427.742 348.29 435.25 353.19 443.483 357.006C451.716 360.823 460.514 363.482 469.374 364.831C478.234 366.18 486.983 366.193 495.121 364.869C503.26 363.545 510.628 360.91 516.805 357.114C522.983 353.319 527.849 348.437 531.125 342.748C534.401 337.058 536.024 330.673 535.9 323.956L468.431 313.683L400.962 303.41Z" stroke="#8F8E37" stroke-width="4" mask="url(#path-59-inside-1_194_182538)"/>
<path d="M472.008 373.099C471.962 383.071 474.874 392.833 480.375 401.15C485.877 409.467 493.722 415.966 502.917 419.825C512.112 423.684 522.245 424.729 532.035 422.829C541.824 420.929 550.831 416.169 557.915 409.15C564.999 402.131 569.842 393.17 571.833 383.398C573.824 373.627 572.873 363.484 569.099 354.254C565.326 345.023 558.9 337.119 550.634 331.54C542.368 325.961 532.634 322.959 522.662 322.913L522.428 373.333L472.008 373.099Z" fill="#F7F7EB" stroke="#8F8E37" stroke-width="2"/>
<g style="mix-blend-mode:multiply">
<path fill-rule="evenodd" clip-rule="evenodd" d="M476.166 373.907C477.745 382.593 481.85 390.65 488.004 397.048C494.949 404.269 504.104 408.966 514.02 410.394C523.936 411.821 534.045 409.899 542.744 404.931C551.444 399.963 558.236 392.234 562.046 382.968C565.855 373.703 566.463 363.431 563.773 353.78C561.083 344.13 555.249 335.654 547.196 329.695C546.645 329.287 546.087 328.893 545.52 328.512C547.022 329.287 548.49 330.138 549.915 331.065C558.275 336.502 564.835 344.296 568.765 353.461C572.695 362.626 573.82 372.751 571.996 382.555C570.172 392.359 565.482 401.402 558.519 408.54C551.555 415.679 542.631 420.592 532.876 422.659C523.12 424.725 512.971 423.853 503.711 420.151C494.451 416.45 486.497 410.086 480.854 401.864C475.211 393.641 472.133 383.931 472.009 373.959L476.166 373.907Z" fill="#DBDBA1"/>
</g>
<ellipse rx="17.9281" ry="17.931" transform="matrix(0.72891 0.68461 -0.684247 0.72925 523.004 299.386)" fill="white" stroke="#8F8E37" stroke-width="2"/>
<path fill-rule="evenodd" clip-rule="evenodd" d="M532.119 314.851L517.192 282.435C523.271 280.355 530.268 281.621 535.277 286.326C542.494 293.105 542.852 304.454 536.076 311.676C534.883 312.947 533.548 314.006 532.119 314.851Z" fill="#8F8E37"/>
</g>
<defs>
<clipPath id="clip0_194_182538">
<rect width="558.251" height="558.251" fill="white" transform="translate(80.875 0.874512)"/>
</clipPath>
</defs>
</svg>
