<svg width="720" height="560" viewBox="0 0 720 560" fill="none" xmlns="http://www.w3.org/2000/svg">
<g clip-path="url(#clip0_454_216816)">
<mask id="path-1-inside-1_454_216816" fill="white">
<path fill-rule="evenodd" clip-rule="evenodd" d="M632.34 94.1143L632.341 94.1184V195.318H632.377V229.103H632.341V229.107H598.63V229.103H564.835V229.107H531.088V229.103H497.388V229.1H472.124L430.054 186.756L387.753 228.933L362.441 228.932V203.944L362.446 203.939V94.2637H396.193V170.192L472.123 94.2637H497.388V94.1143H632.34ZM598.63 127.861V195.318H564.835V127.861H598.63ZM531.088 127.861H497.388V119.619L455.267 161.617L497.388 203.744V195.318H531.088L531.088 127.861ZM362.642 363.952V363.954H395.556V363.956H429.352V363.954H463.099V363.956H499.505V365.574H631.748V365.577V397.808V465.09H631.784V498.904H631.748V498.946H598.442V498.904H565.052V498.946H531.71V498.904H499.626V498.944H361.846V498.942V498.94H252.543L252.538 498.944H227.8V499.074H92.8109L92.8109 465.097H126.511L126.511 397.64H92.8114L92.8114 363.893H92.8114V228.905H92.8155H126.559H143.382V169.519L143.202 169.519L92.7793 119.423L92.7793 94.1177L118.085 94.1177L160.4 136.427L202.436 94.1177L227.741 94.1177V119.423L177.324 169.847H177.123V228.905H194.015H227.762H227.804V262.652H227.762V296.447H227.804V330.194H227.762V363.893H227.763L227.763 363.895L227.763 364.115H252.763L294.9 406.246L337.234 363.952H362.642ZM498.148 465.197V465.09H531.71V397.808H498.148V397.741H463.099L463.099 465.197H498.148ZM361.81 397.741H361.846V465.193H286.42L361.81 390.091V397.741ZM429.352 465.197H395.556L395.556 397.741H429.352V465.197ZM227.763 397.64V389.734L269.712 431.411L227.8 473.285V465.097H227.763V397.64ZM194.053 397.64L194.053 465.097H160.258L160.258 397.64H194.053ZM126.559 363.893H194.015V330.194H126.559V363.893ZM126.559 262.652V296.447H194.015V262.652H126.559ZM93.2896 768.702L93.2896 743.391L169.511 667.461H93.2896L93.2896 633.714H203.388L203.393 633.71H227.529V633.555H362.752L388.061 633.555L430.025 675.887L472.27 633.555H497.58V633.61H497.582V633.586H632.571V667.333H599.066V734.606H632.03V768.271H599.066V768.272H565.401V768.271H531.034V768.272H497.368V768.271V734.606V659.132L447.424 708.863V768.532H413.089V709.378L362.752 658.923V667.302V734.759H362.788V768.506H362.752V768.545H329.041V768.506H295.246V768.545H261.499V768.506H228.128V768.539H202.818L160.856 726.583L118.698 768.702H93.2896ZM531.034 734.606L531.034 667.333H565.401L565.401 734.606H531.034ZM295.246 667.302H329.041L329.041 734.759H295.246L295.246 667.302ZM261.499 734.759L261.499 667.302H227.529V659.971L186.044 701.417L227.528 742.633V734.759H261.499ZM598.442 397.808V465.09H565.052V397.808H598.442Z"/>
</mask>
<path d="M632.341 94.1184H634.341V94.0892L634.34 94.06L632.341 94.1184ZM632.34 94.1143L634.34 94.0558L634.283 92.1143H632.34V94.1143ZM632.341 195.318H630.341V197.318H632.341V195.318ZM632.377 195.318H634.377V193.318H632.377V195.318ZM632.377 229.103V231.103H634.377V229.103H632.377ZM632.341 229.103V227.103H630.341V229.103H632.341ZM632.341 229.107V231.107H634.341V229.107H632.341ZM598.63 229.107H596.63V231.107H598.63V229.107ZM598.63 229.103H600.63V227.103H598.63V229.103ZM564.835 229.103V227.103H562.835V229.103H564.835ZM564.835 229.107V231.107H566.835V229.107H564.835ZM531.088 229.107H529.088V231.107H531.088V229.107ZM531.088 229.103H533.088V227.103H531.088V229.103ZM497.388 229.103H495.388V231.103H497.388V229.103ZM497.388 229.1H499.388V227.1H497.388V229.1ZM472.124 229.1L470.705 230.51L471.292 231.1H472.124V229.1ZM430.054 186.756L431.473 185.347L430.061 183.925L428.642 185.34L430.054 186.756ZM387.753 228.933L387.753 230.933L388.58 230.933L389.166 230.349L387.753 228.933ZM362.441 228.932H360.441V230.932L362.441 230.932L362.441 228.932ZM362.441 203.944L361.027 202.529L360.441 203.115V203.944H362.441ZM362.446 203.939L363.86 205.353L364.446 204.768V203.939H362.446ZM362.446 94.2637V92.2637H360.446V94.2637H362.446ZM396.193 94.2637H398.193V92.2637H396.193V94.2637ZM396.193 170.192H394.193V175.021L397.607 171.607L396.193 170.192ZM472.123 94.2637V92.2637H471.295L470.709 92.8495L472.123 94.2637ZM497.388 94.2637V96.2637H499.388V94.2637H497.388ZM497.388 94.1143V92.1143H495.388V94.1143H497.388ZM598.63 195.318V197.318H600.63V195.318H598.63ZM598.63 127.861H600.63V125.861H598.63V127.861ZM564.835 195.318H562.835V197.318H564.835V195.318ZM564.835 127.861V125.861H562.835V127.861H564.835ZM497.388 127.861H495.388V129.861H497.388V127.861ZM531.088 127.861H533.088V125.861H531.088V127.861ZM497.388 119.619H499.388V114.8L495.976 118.203L497.388 119.619ZM455.267 161.617L453.855 160.201L452.437 161.615L453.853 163.031L455.267 161.617ZM497.388 203.744L495.974 205.158L499.388 208.573V203.744H497.388ZM497.388 195.318V193.318H495.388V195.318H497.388ZM531.088 195.318V197.318H533.088V195.318H531.088ZM362.642 363.954H360.642V365.954H362.642V363.954ZM362.642 363.952H364.642V361.952H362.642V363.952ZM395.556 363.954H397.556V361.954H395.556V363.954ZM395.556 363.956H393.556V365.956H395.556V363.956ZM429.352 363.956V365.956H431.352V363.956H429.352ZM429.352 363.954V361.954H427.352V363.954H429.352ZM463.099 363.954H465.099V361.954H463.099V363.954ZM463.099 363.956H461.099V365.956H463.099V363.956ZM499.505 363.956H501.505V361.956H499.505V363.956ZM499.505 365.574H497.505V367.574H499.505V365.574ZM631.748 365.574H633.748V363.574H631.748V365.574ZM631.748 465.09H629.748V467.09H631.748V465.09ZM631.784 465.09H633.784V463.09H631.784V465.09ZM631.784 498.904V500.904H633.784V498.904H631.784ZM631.748 498.904V496.904H629.748V498.904H631.748ZM631.748 498.946V500.946H633.748V498.946H631.748ZM598.442 498.946H596.442V500.946H598.442V498.946ZM598.442 498.904H600.442V496.904H598.442V498.904ZM565.052 498.904V496.904H563.052V498.904H565.052ZM565.052 498.946V500.946H567.052V498.946H565.052ZM531.71 498.946H529.71V500.946H531.71V498.946ZM531.71 498.904H533.71V496.904H531.71V498.904ZM499.626 498.904V496.904H497.626V498.904H499.626ZM499.626 498.944V500.944H501.626V498.944H499.626ZM361.846 498.944H359.846V500.944H361.846V498.944ZM361.846 498.94H363.846V496.94H361.846V498.94ZM252.543 498.94V496.94H251.716L251.131 497.523L252.543 498.94ZM252.538 498.944V500.944H253.365L253.95 500.361L252.538 498.944ZM227.8 498.944V496.944H225.8V498.944H227.8ZM227.8 499.074V501.074H229.8V499.074H227.8ZM92.8109 499.074H90.8109V501.074H92.8109V499.074ZM92.8109 465.097V463.097H90.8109L90.8109 465.097H92.8109ZM126.511 465.097V467.097H128.511V465.097H126.511ZM126.511 397.64H128.511V395.64H126.511V397.64ZM92.8114 397.64H90.8114L90.8114 399.64H92.8114V397.64ZM92.8114 363.893V361.893H90.8114V363.893H92.8114ZM92.8114 363.893V365.893H94.8114V363.893H92.8114ZM92.8114 228.905V226.905H90.8114V228.905H92.8114ZM143.382 228.905V230.905H145.382V228.905H143.382ZM143.382 169.519H145.382V167.519L143.382 167.519L143.382 169.519ZM143.202 169.519L141.792 170.938L142.377 171.519L143.202 171.519L143.202 169.519ZM92.7793 119.423L90.7793 119.423L90.7793 120.255L91.3697 120.842L92.7793 119.423ZM92.7793 94.1177L92.7793 92.1177L90.7793 92.1177L90.7793 94.1177L92.7793 94.1177ZM118.085 94.1177L119.499 92.7034L118.913 92.1177L118.085 92.1177V94.1177ZM160.4 136.427L158.986 137.841L160.405 139.26L161.819 137.837L160.4 136.427ZM202.436 94.1177V92.1177L201.604 92.1177L201.017 92.7081L202.436 94.1177ZM227.741 94.1177H229.741V92.1177L227.741 92.1177V94.1177ZM227.741 119.423L229.156 120.837L229.741 120.252V119.423H227.741ZM177.324 169.847V171.847H178.153L178.739 171.261L177.324 169.847ZM177.123 169.847V167.847H175.123V169.847H177.123ZM177.123 228.905H175.123V230.905H177.123V228.905ZM227.804 228.905H229.804V226.905H227.804V228.905ZM227.804 262.652V264.652H229.804V262.652H227.804ZM227.762 262.652V260.652H225.762V262.652H227.762ZM227.762 296.447H225.762V298.447H227.762V296.447ZM227.804 296.447H229.804V294.447H227.804V296.447ZM227.804 330.194V332.194H229.804V330.194H227.804ZM227.762 330.194V328.194H225.762V330.194H227.762ZM227.762 363.893H225.762V365.893H227.762V363.893ZM227.763 363.893L229.763 363.876L229.747 361.893H227.763V363.893ZM227.763 363.895L229.763 363.895V363.887L229.763 363.878L227.763 363.895ZM227.763 364.115L225.763 364.115L225.763 366.115H227.763V364.115ZM252.763 364.115L254.177 362.701L253.592 362.115H252.763V364.115ZM294.9 406.246L293.486 407.661L294.9 409.074L296.314 407.661L294.9 406.246ZM337.234 363.952V361.952H336.406L335.82 362.537L337.234 363.952ZM498.148 465.09V463.09H496.148V465.09H498.148ZM498.148 465.197V467.197H500.148V465.197H498.148ZM531.71 465.09V467.09H533.71V465.09H531.71ZM531.71 397.808H533.71V395.808H531.71V397.808ZM498.148 397.808H496.148V399.808H498.148V397.808ZM498.148 397.741H500.148V395.741H498.148V397.741ZM463.099 397.741V395.741H461.099V397.741H463.099ZM463.099 465.197H461.099V467.197H463.099V465.197ZM361.846 397.741H363.846V395.741H361.846V397.741ZM361.81 397.741H359.81V399.741H361.81V397.741ZM361.846 465.193V467.193H363.846V465.193H361.846ZM286.42 465.193L285.008 463.776L281.578 467.193H286.42V465.193ZM361.81 390.091H363.81V385.276L360.398 388.675L361.81 390.091ZM395.556 465.197H393.556V467.197H395.556V465.197ZM429.352 465.197V467.197H431.352V465.197H429.352ZM395.556 397.741V395.741H393.556V397.741H395.556ZM429.352 397.741H431.352V395.741H429.352V397.741ZM227.763 389.734L229.173 388.315L225.763 384.928V389.734H227.763ZM269.712 431.411L271.126 432.826L272.546 431.407L271.122 429.993L269.712 431.411ZM227.8 473.285H225.8V478.111L229.213 474.7L227.8 473.285ZM227.8 465.097H229.8V463.097H227.8V465.097ZM227.763 465.097H225.763V467.097H227.763V465.097ZM194.053 465.097V467.097H196.053V465.097H194.053ZM194.053 397.64H196.053V395.64H194.053V397.64ZM160.258 465.097H158.258V467.097H160.258V465.097ZM160.258 397.64V395.64H158.258V397.64H160.258ZM194.015 363.893V365.893H196.015V363.893H194.015ZM126.559 363.893H124.559V365.893H126.559V363.893ZM194.015 330.194H196.015V328.194H194.015V330.194ZM126.559 330.194V328.194H124.559V330.194H126.559ZM126.559 296.447H124.559V298.447H126.559V296.447ZM126.559 262.652V260.652H124.559V262.652H126.559ZM194.015 296.447V298.447H196.015V296.447H194.015ZM194.015 262.652H196.015V260.652H194.015V262.652ZM93.2896 743.391L91.8781 741.974L91.2896 742.561V743.391H93.2896ZM93.2896 768.702H91.2896V770.702H93.2896V768.702ZM169.511 667.461L170.923 668.878L174.353 665.461H169.511V667.461ZM93.2896 667.461H91.2896V669.461H93.2896V667.461ZM93.2896 633.714V631.714H91.2896L91.2896 633.714H93.2896ZM203.388 633.714V635.714H204.215L204.8 635.131L203.388 633.714ZM203.393 633.71V631.71H202.566L201.981 632.293L203.393 633.71ZM227.529 633.71V635.71H229.529V633.71H227.529ZM227.529 633.555V631.555H225.529V633.555H227.529ZM362.752 633.555L362.752 631.555H362.752V633.555ZM388.061 633.555L389.481 632.147L388.894 631.555H388.061L388.061 633.555ZM430.025 675.887L428.605 677.295L430.021 678.723L431.441 677.299L430.025 675.887ZM472.27 633.555V631.555H471.44L470.854 632.142L472.27 633.555ZM497.58 633.555H499.58V631.555H497.58V633.555ZM497.58 633.61H495.58V635.61H497.58V633.61ZM497.582 633.61V635.61H499.582V633.61H497.582ZM497.582 633.586V631.586H495.582V633.586H497.582ZM632.571 633.586H634.571V631.586H632.571V633.586ZM632.571 667.333V669.333H634.571V667.333H632.571ZM599.066 667.333V665.333H597.066V667.333H599.066ZM599.066 734.606H597.066V736.606H599.066V734.606ZM632.03 734.606H634.03V732.606H632.03V734.606ZM632.03 768.271V770.271H634.03V768.271H632.03ZM599.066 768.271V766.271H597.066V768.271H599.066ZM599.066 768.272V770.272H601.066V768.272H599.066ZM565.401 768.272H563.401V770.272H565.401V768.272ZM565.401 768.271H567.401V766.271H565.401V768.271ZM531.034 768.271V766.271H529.034V768.271H531.034ZM531.034 768.272V770.272H533.034V768.272H531.034ZM497.368 768.272H495.368V770.272H497.368V768.272ZM497.368 659.132H499.368V654.318L495.957 657.715L497.368 659.132ZM447.424 708.863L446.013 707.445L445.424 708.032V708.863H447.424ZM447.424 768.532V770.532H449.424V768.532H447.424ZM413.089 768.532H411.089V770.532H413.089V768.532ZM413.089 709.378H415.089V708.551L414.504 707.966L413.089 709.378ZM362.752 658.923L364.168 657.51L360.752 654.086V658.923H362.752ZM362.752 734.759H360.752V736.759H362.752V734.759ZM362.788 734.759H364.788V732.759H362.788V734.759ZM362.788 768.506V770.506H364.788V768.506H362.788ZM362.752 768.506V766.506H360.752V768.506H362.752ZM362.752 768.545V770.545H364.752V768.545H362.752ZM329.041 768.545H327.041V770.545H329.041V768.545ZM329.041 768.506H331.041V766.506H329.041V768.506ZM295.246 768.506V766.506H293.246V768.506H295.246ZM295.246 768.545V770.545H297.246V768.545H295.246ZM261.499 768.545H259.499V770.545H261.499V768.545ZM261.499 768.506H263.499V766.506H261.499V768.506ZM228.128 768.506V766.506H226.128V768.506H228.128ZM228.128 768.539V770.539H230.128V768.539H228.128ZM202.818 768.539L201.404 769.953L201.99 770.539H202.818V768.539ZM160.856 726.583L162.27 725.168L160.856 723.755L159.442 725.168L160.856 726.583ZM118.698 768.702V770.702H119.526L120.111 770.117L118.698 768.702ZM531.034 667.333V665.333H529.034V667.333H531.034ZM531.034 734.606H529.034V736.606H531.034V734.606ZM565.401 667.333H567.401V665.333H565.401V667.333ZM565.401 734.606V736.606H567.401V734.606H565.401ZM329.041 667.302H331.041V665.302H329.041V667.302ZM295.246 667.302V665.302H293.246V667.302H295.246ZM329.041 734.759V736.759H331.041V734.759H329.041ZM295.246 734.759H293.246V736.759H295.246V734.759ZM261.499 667.302H263.499V665.302H261.499V667.302ZM261.499 734.759V736.759H263.499V734.759H261.499ZM227.529 667.302H225.529V669.302H227.529V667.302ZM227.529 659.971H229.529V655.146L226.115 658.556L227.529 659.971ZM186.044 701.417L184.631 700.002L183.211 701.421L184.635 702.836L186.044 701.417ZM227.528 742.633L226.119 744.051L229.528 747.439V742.633H227.528ZM227.528 734.759V732.759H225.528V734.759H227.528ZM598.442 465.09V467.09H600.442V465.09H598.442ZM598.442 397.808H600.442V395.808H598.442V397.808ZM565.052 465.09H563.052V467.09H565.052V465.09ZM565.052 397.808V395.808H563.052V397.808H565.052ZM634.34 94.06L634.34 94.0558L630.341 94.1727L630.341 94.1769L634.34 94.06ZM634.341 195.318V94.1184H630.341V195.318H634.341ZM632.377 193.318H632.341V197.318H632.377V193.318ZM634.377 229.103V195.318H630.377V229.103H634.377ZM632.341 231.103H632.377V227.103H632.341V231.103ZM634.341 229.107V229.103H630.341V229.107H634.341ZM598.63 231.107H632.341V227.107H598.63V231.107ZM596.63 229.103V229.107H600.63V229.103H596.63ZM564.835 231.103H598.63V227.103H564.835V231.103ZM566.835 229.107V229.103H562.835V229.107H566.835ZM531.088 231.107H564.835V227.107H531.088V231.107ZM529.088 229.103V229.107H533.088V229.103H529.088ZM497.388 231.103H531.088V227.103H497.388V231.103ZM495.388 229.1V229.103H499.388V229.1H495.388ZM472.124 231.1H497.388V227.1H472.124V231.1ZM428.635 188.166L470.705 230.51L473.543 227.691L431.473 185.347L428.635 188.166ZM389.166 230.349L431.466 188.173L428.642 185.34L386.341 227.517L389.166 230.349ZM362.441 230.932L387.753 230.933L387.754 226.933L362.441 226.932L362.441 230.932ZM360.441 203.944V228.932H364.441V203.944H360.441ZM361.032 202.525L361.027 202.529L363.856 205.358L363.86 205.353L361.032 202.525ZM360.446 94.2637V203.939H364.446V94.2637H360.446ZM396.193 92.2637H362.446V96.2637H396.193V92.2637ZM398.193 170.192V94.2637H394.193V170.192H398.193ZM470.709 92.8495L394.779 168.778L397.607 171.607L473.537 95.678L470.709 92.8495ZM497.388 92.2637H472.123V96.2637H497.388V92.2637ZM495.388 94.1143V94.2637H499.388V94.1143H495.388ZM632.34 92.1143H497.388V96.1143H632.34V92.1143ZM600.63 195.318L600.63 127.861H596.63L596.63 195.318H600.63ZM564.835 197.318H598.63V193.318H564.835V197.318ZM562.835 127.861V195.318H566.835V127.861H562.835ZM598.63 125.861H564.835V129.861H598.63V125.861ZM497.388 129.861H531.088V125.861H497.388V129.861ZM495.388 119.619V127.861H499.388V119.619H495.388ZM456.679 163.033L498.801 121.035L495.976 118.203L453.855 160.201L456.679 163.033ZM498.802 202.33L456.682 160.203L453.853 163.031L495.974 205.158L498.802 202.33ZM495.388 195.318V203.744H499.388V195.318H495.388ZM531.088 193.318H497.388V197.318H531.088V193.318ZM529.088 127.861L529.088 195.318H533.088L533.088 127.861H529.088ZM364.642 363.954V363.952H360.642V363.954H364.642ZM395.556 361.954H362.642V365.954H395.556V361.954ZM397.556 363.956V363.954H393.556V363.956H397.556ZM429.352 361.956H395.556V365.956H429.352V361.956ZM427.352 363.954V363.956H431.352V363.954H427.352ZM463.099 361.954H429.352V365.954H463.099V361.954ZM465.099 363.956V363.954H461.099V363.956H465.099ZM499.505 361.956H463.099V365.956H499.505V361.956ZM501.505 365.574V363.956H497.505V365.574H501.505ZM631.748 363.574H499.505V367.574H631.748V363.574ZM633.748 365.577V365.574H629.748V365.577H633.748ZM633.748 397.808V365.577H629.748V397.808H633.748ZM633.748 465.09V397.808H629.748V465.09H633.748ZM631.784 463.09H631.748V467.09H631.784V463.09ZM633.784 498.904V465.09H629.784V498.904H633.784ZM631.748 500.904H631.784V496.904H631.748V500.904ZM633.748 498.946V498.904H629.748V498.946H633.748ZM598.442 500.946H631.748V496.946H598.442V500.946ZM596.442 498.904V498.946H600.442V498.904H596.442ZM565.052 500.904H598.442V496.904H565.052V500.904ZM567.052 498.946V498.904H563.052V498.946H567.052ZM531.71 500.946H565.052V496.946H531.71V500.946ZM529.71 498.904V498.946H533.71V498.904H529.71ZM499.626 500.904H531.71V496.904H499.626V500.904ZM501.626 498.944V498.904H497.626V498.944H501.626ZM361.846 500.944H499.626V496.944H361.846V500.944ZM359.846 498.942V498.944H363.846V498.942H359.846ZM359.846 498.94V498.942H363.846V498.94H359.846ZM252.543 500.94H361.846V496.94H252.543V500.94ZM253.95 500.361L253.955 500.356L251.131 497.523L251.126 497.528L253.95 500.361ZM227.8 500.944H252.538V496.944H227.8V500.944ZM229.8 499.074V498.944H225.8V499.074H229.8ZM92.8109 501.074H227.8V497.074H92.8109V501.074ZM90.8109 465.097L90.8109 499.074H94.8109L94.8109 465.097H90.8109ZM126.511 463.097H92.8109V467.097H126.511V463.097ZM124.511 397.64L124.511 465.097H128.511L128.511 397.64H124.511ZM92.8114 399.64H126.511V395.64H92.8114V399.64ZM90.8114 363.893L90.8114 397.64H94.8114L94.8114 363.893H90.8114ZM92.8114 361.893H92.8114V365.893H92.8114V361.893ZM90.8114 228.905V363.893H94.8114V228.905H90.8114ZM92.8155 226.905H92.8114V230.905H92.8155V226.905ZM126.559 226.905H92.8155V230.905H126.559V226.905ZM143.382 226.905H126.559V230.905H143.382V226.905ZM141.382 169.519V228.905H145.382V169.519H141.382ZM143.202 171.519L143.382 171.519L143.382 167.519L143.202 167.519L143.202 171.519ZM91.3697 120.842L141.792 170.938L144.611 168.1L94.1889 118.004L91.3697 120.842ZM90.7793 94.1177L90.7793 119.423L94.7793 119.423L94.7793 94.1177L90.7793 94.1177ZM118.085 92.1177L92.7793 92.1177L92.7793 96.1177L118.085 96.1177V92.1177ZM161.814 135.013L119.499 92.7034L116.671 95.5321L158.986 137.841L161.814 135.013ZM201.017 92.7081L158.981 135.018L161.819 137.837L203.855 95.5273L201.017 92.7081ZM227.741 92.1177L202.436 92.1177V96.1177L227.741 96.1177V92.1177ZM229.741 119.423V94.1177H225.741V119.423H229.741ZM178.739 171.261L229.156 120.837L226.327 118.009L175.91 168.433L178.739 171.261ZM177.123 171.847H177.324V167.847H177.123V171.847ZM179.123 228.905V169.847H175.123V228.905H179.123ZM194.015 226.905H177.123V230.905H194.015V226.905ZM227.762 226.905H194.015V230.905H227.762V226.905ZM227.804 226.905H227.762V230.905H227.804V226.905ZM229.804 262.652V228.905H225.804V262.652H229.804ZM227.762 264.652H227.804V260.652H227.762V264.652ZM229.762 296.447V262.652H225.762V296.447H229.762ZM227.804 294.447H227.762V298.447H227.804V294.447ZM229.804 330.194V296.447H225.804V330.194H229.804ZM227.762 332.194H227.804V328.194H227.762V332.194ZM229.762 363.893V330.194H225.762V363.893H229.762ZM227.763 361.893H227.762V365.893H227.763V361.893ZM229.763 363.878L229.763 363.876L225.763 363.91L225.763 363.912L229.763 363.878ZM229.763 364.115L229.763 363.895L225.763 363.895L225.763 364.115L229.763 364.115ZM252.763 362.115H227.763V366.115H252.763V362.115ZM296.315 404.832L254.177 362.701L251.349 365.529L293.486 407.661L296.315 404.832ZM335.82 362.537L293.487 404.832L296.314 407.661L338.647 365.367L335.82 362.537ZM362.642 361.952H337.234V365.952H362.642V361.952ZM496.148 465.09V465.197H500.148V465.09H496.148ZM531.71 463.09H498.148V467.09H531.71V463.09ZM529.71 397.808V465.09H533.71V397.808H529.71ZM498.148 399.808H531.71V395.808H498.148V399.808ZM496.148 397.741V397.808H500.148V397.741H496.148ZM463.099 399.741H498.148V395.741H463.099V399.741ZM465.099 465.197L465.099 397.741H461.099L461.099 465.197H465.099ZM498.148 463.197H463.099V467.197H498.148V463.197ZM361.846 395.741H361.81V399.741H361.846V395.741ZM363.846 465.193V397.741H359.846V465.193H363.846ZM286.42 467.193H361.846V463.193H286.42V467.193ZM360.398 388.675L285.008 463.776L287.831 466.609L363.221 391.508L360.398 388.675ZM363.81 397.741V390.091H359.81V397.741H363.81ZM395.556 467.197H429.352V463.197H395.556V467.197ZM393.556 397.741L393.556 465.197H397.556L397.556 397.741H393.556ZM429.352 395.741H395.556V399.741H429.352V395.741ZM431.352 465.197V397.741H427.352V465.197H431.352ZM225.763 389.734V397.64H229.763V389.734H225.763ZM271.122 429.993L229.173 388.315L226.354 391.153L268.303 432.83L271.122 429.993ZM229.213 474.7L271.126 432.826L268.299 429.996L226.386 471.87L229.213 474.7ZM225.8 465.097V473.285H229.8V465.097H225.8ZM227.763 467.097H227.8V463.097H227.763V467.097ZM225.763 397.64V465.097H229.763V397.64H225.763ZM196.053 465.097L196.053 397.64H192.053L192.053 465.097H196.053ZM160.258 467.097H194.053V463.097H160.258V467.097ZM158.258 397.64L158.258 465.097H162.258L162.258 397.64H158.258ZM194.053 395.64H160.258V399.64H194.053V395.64ZM194.015 361.893H126.559V365.893H194.015V361.893ZM192.015 330.194V363.893H196.015V330.194H192.015ZM126.559 332.194H194.015V328.194H126.559V332.194ZM128.559 363.893V330.194H124.559V363.893H128.559ZM128.559 296.447V262.652H124.559V296.447H128.559ZM194.015 294.447H126.559V298.447H194.015V294.447ZM192.015 262.652V296.447H196.015V262.652H192.015ZM126.559 264.652H194.015V260.652H126.559V264.652ZM91.2896 743.391L91.2896 768.702H95.2896L95.2896 743.391H91.2896ZM168.1 666.045L91.8781 741.974L94.7011 744.808L170.923 668.878L168.1 666.045ZM93.2896 669.461H169.511V665.461H93.2896V669.461ZM91.2896 633.714L91.2896 667.461H95.2896L95.2896 633.714H91.2896ZM203.388 631.714H93.2896V635.714H203.388V631.714ZM201.981 632.293L201.977 632.298L204.8 635.131L204.805 635.126L201.981 632.293ZM227.529 631.71H203.393V635.71H227.529V631.71ZM225.529 633.555V633.71H229.529V633.555H225.529ZM362.752 631.555H227.529V635.555H362.752V631.555ZM388.061 631.555L362.752 631.555L362.752 635.555L388.061 635.555L388.061 631.555ZM431.446 674.479L389.481 632.147L386.641 634.963L428.605 677.295L431.446 674.479ZM470.854 632.142L428.61 674.474L431.441 677.299L473.685 634.968L470.854 632.142ZM497.58 631.555H472.27V635.555H497.58V631.555ZM499.58 633.61V633.555H495.58V633.61H499.58ZM497.582 631.61H497.58V635.61H497.582V631.61ZM495.582 633.586V633.61H499.582V633.586H495.582ZM632.571 631.586H497.582V635.586H632.571V631.586ZM634.571 667.333V633.586H630.571V667.333H634.571ZM599.066 669.333H632.571V665.333H599.066V669.333ZM601.066 734.606V667.333H597.066V734.606H601.066ZM632.03 732.606H599.066V736.606H632.03V732.606ZM634.03 768.271V734.606H630.03V768.271H634.03ZM599.066 770.271H632.03V766.271H599.066V770.271ZM601.066 768.272V768.271H597.066V768.272H601.066ZM565.401 770.272H599.066V766.272H565.401V770.272ZM563.401 768.271V768.272H567.401V768.271H563.401ZM531.034 770.271H565.401V766.271H531.034V770.271ZM533.034 768.272V768.271H529.034V768.272H533.034ZM497.368 770.272H531.034V766.272H497.368V770.272ZM495.368 768.271V768.272H499.368V768.271H495.368ZM495.368 734.606V768.271H499.368V734.606H495.368ZM495.368 659.132V734.606H499.368V659.132H495.368ZM448.835 710.28L498.779 660.549L495.957 657.715L446.013 707.445L448.835 710.28ZM449.424 768.532V708.863H445.424V768.532H449.424ZM413.089 770.532H447.424V766.532H413.089V770.532ZM411.089 709.378V768.532H415.089V709.378H411.089ZM361.336 660.335L411.673 710.791L414.504 707.966L364.168 657.51L361.336 660.335ZM364.752 667.302V658.923H360.752V667.302H364.752ZM364.752 734.759V667.302H360.752V734.759H364.752ZM362.788 732.759H362.752V736.759H362.788V732.759ZM364.788 768.506V734.759H360.788V768.506H364.788ZM362.752 770.506H362.788V766.506H362.752V770.506ZM364.752 768.545V768.506H360.752V768.545H364.752ZM329.041 770.545H362.752V766.545H329.041V770.545ZM327.041 768.506V768.545H331.041V768.506H327.041ZM295.246 770.506H329.041V766.506H295.246V770.506ZM297.246 768.545V768.506H293.246V768.545H297.246ZM261.499 770.545H295.246V766.545H261.499V770.545ZM259.499 768.506V768.545H263.499V768.506H259.499ZM228.128 770.506H261.499V766.506H228.128V770.506ZM230.128 768.539V768.506H226.128V768.539H230.128ZM202.818 770.539H228.128V766.539H202.818V770.539ZM159.442 727.997L201.404 769.953L204.232 767.125L162.27 725.168L159.442 727.997ZM120.111 770.117L162.269 727.998L159.442 725.168L117.284 767.287L120.111 770.117ZM93.2896 770.702H118.698V766.702H93.2896V770.702ZM529.034 667.333L529.034 734.606H533.034L533.034 667.333H529.034ZM565.401 665.333H531.034V669.333H565.401V665.333ZM567.401 734.606L567.401 667.333H563.401L563.401 734.606H567.401ZM531.034 736.606H565.401V732.606H531.034V736.606ZM329.041 665.302H295.246V669.302H329.041V665.302ZM331.041 734.759L331.041 667.302H327.041L327.041 734.759H331.041ZM295.246 736.759H329.041V732.759H295.246V736.759ZM293.246 667.302L293.246 734.759H297.246L297.246 667.302H293.246ZM259.499 667.302L259.499 734.759H263.499L263.499 667.302H259.499ZM227.529 669.302H261.499V665.302H227.529V669.302ZM225.529 659.971V667.302H229.529V659.971H225.529ZM187.458 702.832L228.942 661.386L226.115 658.556L184.631 700.002L187.458 702.832ZM228.938 741.214L187.454 699.998L184.635 702.836L226.119 744.051L228.938 741.214ZM225.528 734.759V742.633H229.528V734.759H225.528ZM261.499 732.759H227.528V736.759H261.499V732.759ZM600.442 465.09V397.808H596.442V465.09H600.442ZM565.052 467.09H598.442V463.09H565.052V467.09ZM563.052 397.808V465.09H567.052V397.808H563.052ZM598.442 395.808H565.052V399.808H598.442V395.808Z" fill="#B6B8BD" mask="url(#path-1-inside-1_454_216816)"/>
<path d="M483.313 316.39C491.077 324.499 501.325 329.786 512.434 331.411C523.543 333.036 534.876 330.907 544.638 325.362C554.399 319.816 562.031 311.172 566.323 300.798C570.615 290.424 571.322 278.914 568.332 268.093C565.342 257.271 565.328 252.22 556.318 245.522L529.817 281.643C499.343 267.172 450.147 281.748 483.313 316.39Z" fill="#F0F2FA" stroke="#2C3F95" stroke-width="2" stroke-linejoin="round"/>
<path d="M514.676 432.841L527.955 424.31L543.394 440.285L500.021 482.201L496.219 478.267L514.676 432.841Z" fill="#F0F2FA" stroke="#2C3F95" stroke-width="2"/>
<rect x="498.161" y="480.435" width="60.5358" height="2.6707" transform="rotate(-44.0213 498.161 480.435)" fill="#2C3F95"/>
<path d="M620.502 325.356L616.058 341.721C614.132 348.813 607.694 353.736 600.345 353.736L537.024 353.736L537.024 433.708L507.612 433.623L507.612 329.603C507.612 327.257 509.514 325.356 511.86 325.356L620.502 325.356Z" fill="#8A9DED" stroke="#2C3F95" stroke-width="2" stroke-linejoin="round"/>
<path d="M493.754 436.694L482.644 455.725L430.555 425.314L433.316 420.585L473.277 424.74L493.754 436.694Z" fill="#F0F2FA" stroke="#2C3F95" stroke-width="2"/>
<rect x="431.749" y="423.048" width="60.5358" height="2.6707" transform="rotate(30.2774 431.749 423.048)" fill="#2C3F95"/>
<path d="M626.309 333.42L626.306 346.176C626.304 356.337 618.066 364.575 607.905 364.577L535.672 364.593L494.431 435.986L467.449 420.416L516.283 337.302C517.419 335.368 519.488 334.174 521.731 334.158L626.309 333.42Z" fill="#2C3F95" stroke="#2C3F95" stroke-width="2" stroke-linejoin="round"/>
<path d="M478.731 428.472L526.246 349.032L600.883 349.032C606.406 349.032 610.883 344.555 610.883 339.032L610.883 330.472" stroke="#667EE7" stroke-width="2" stroke-linejoin="round"/>
<path d="M626.186 333.421C584.517 333.715 579.222 334.217 563.644 333.656C557.941 316.216 570.407 255.634 567.79 251.33C601.036 264.298 621.601 294.667 626.186 333.421Z" fill="#F0F2FA" stroke="#2C3F95" stroke-width="2" stroke-linejoin="round"/>
<path d="M371.615 173.187L405.482 173.187L405.482 287.804L371.615 287.804L371.615 173.187Z" fill="#3A3F47"/>
<path d="M481.676 173.187L507.073 173.187L507.073 198.654L397.015 308.646L371.615 308.646L371.615 283.567L481.676 173.187Z" fill="#3A3F47"/>
<path d="M507.073 283.248L507.073 308.646L481.674 308.646L431.396 258.039L444.405 245.234L456.472 232.639L507.073 283.248Z" fill="#3A3F47"/>
<path d="M506.152 298.618C508.703 303.435 506.867 309.409 502.05 311.96C497.232 314.512 491.259 312.675 488.708 307.858C486.156 303.041 487.993 297.068 492.81 294.516C497.627 291.965 503.6 293.801 506.152 298.618Z" fill="white"/>
<path d="M505.268 299.086C507.561 303.415 505.91 308.784 501.581 311.077L502.518 312.844C507.823 310.034 509.845 303.455 507.035 298.15L505.268 299.086ZM501.581 311.077C497.252 313.37 491.884 311.719 489.591 307.39L487.824 308.326C490.634 313.631 497.213 315.654 502.518 312.844L501.581 311.077ZM489.591 307.39C487.298 303.061 488.949 297.693 493.278 295.4L492.342 293.633C487.036 296.443 485.014 303.021 487.824 308.326L489.591 307.39ZM493.278 295.4C497.607 293.107 502.975 294.757 505.268 299.086L507.035 298.15C504.225 292.845 497.647 290.823 492.342 293.633L493.278 295.4Z" fill="#2C3F95"/>
<path d="M506.042 295.843C505.996 305.815 508.908 315.577 514.41 323.894C519.911 332.211 527.756 338.71 536.951 342.569C546.146 346.428 556.28 347.473 566.069 345.573C575.859 343.673 584.865 338.913 591.949 331.894C599.033 324.875 603.877 315.914 605.867 306.142C607.858 296.371 606.907 286.228 603.133 276.998C599.36 267.767 592.934 259.863 584.668 254.284C576.402 248.705 566.668 245.703 556.696 245.657L556.462 296.077L506.042 295.843Z" fill="#F0F2FA" stroke="#2C3F95" stroke-width="2"/>
<g style="mix-blend-mode:multiply">
<path fill-rule="evenodd" clip-rule="evenodd" d="M510.202 296.651C511.78 305.336 515.886 313.393 522.04 319.792C528.984 327.013 538.139 331.709 548.055 333.137C557.971 334.565 568.08 332.643 576.779 327.675C585.479 322.707 592.272 314.978 596.081 305.712C599.89 296.446 600.498 286.174 597.808 276.524C595.118 266.874 589.284 258.397 581.231 252.438C580.681 252.031 580.122 251.637 579.555 251.256C581.058 252.03 582.525 252.882 583.95 253.809C592.31 259.246 598.87 267.04 602.8 276.205C606.731 285.37 607.855 295.494 606.031 305.298C604.207 315.102 599.517 324.145 592.554 331.284C585.59 338.422 576.667 343.336 566.911 345.402C557.155 347.469 547.006 346.597 537.746 342.895C528.486 339.194 520.532 332.829 514.889 324.607C509.246 316.385 506.168 306.674 506.045 296.703L510.202 296.651Z" fill="#AEBDF3"/>
</g>
<ellipse rx="17.9281" ry="17.931" transform="matrix(0.72891 0.68461 -0.684247 0.72925 546.409 222.773)" fill="white" stroke="#2C3F95" stroke-width="2"/>
<path fill-rule="evenodd" clip-rule="evenodd" d="M555.525 238.238L540.598 205.822C546.676 203.742 553.673 205.008 558.682 209.713C565.9 216.491 566.257 227.841 559.481 235.063C558.288 236.334 556.953 237.393 555.525 238.238Z" fill="#2C3F95"/>
<circle cx="564.459" cy="197.624" r="9.37999" transform="rotate(20.2747 564.459 197.624)" fill="#2C3F95"/>
<path d="M326.427 434.725L313.148 426.194L297.709 442.169L341.081 484.085L344.883 480.151L326.427 434.725Z" fill="#F0FFFF" stroke="#048095" stroke-width="2"/>
<rect width="60.5358" height="2.6707" transform="matrix(-0.719081 -0.694926 -0.694926 0.719081 342.941 482.318)" fill="#048095"/>
<path d="M220.6 327.24L225.045 343.605C226.97 350.697 233.408 355.62 240.757 355.62L304.079 355.62L304.079 435.592L333.49 435.507L333.49 331.487C333.49 329.141 331.589 327.24 329.243 327.24L220.6 327.24Z" fill="#61E9ED" stroke="#048095" stroke-width="2" stroke-linejoin="round"/>
<path d="M347.349 438.578L358.459 457.609L410.548 427.198L407.787 422.468L367.825 426.624L347.349 438.578Z" fill="#F0FFFF" stroke="#048095" stroke-width="2"/>
<rect width="60.5358" height="2.6707" transform="matrix(-0.863595 0.504187 0.504187 0.863595 409.354 424.932)" fill="#048095"/>
<path d="M214.794 335.304L214.797 348.059C214.799 358.221 223.036 366.458 233.198 366.461L305.431 366.477L346.671 437.87L373.653 422.3L324.82 339.186C323.684 337.252 321.614 336.058 319.372 336.042L214.794 335.304Z" fill="#048095" stroke="#048095" stroke-width="2" stroke-linejoin="round"/>
<path d="M362.371 430.355L314.856 350.916L240.22 350.916C234.697 350.916 230.22 346.439 230.22 340.916L230.22 332.355" stroke="#36D8DE" stroke-width="2" stroke-linejoin="round"/>
<path d="M214.917 335.305C256.586 335.599 261.881 336.1 277.459 335.54C283.162 318.099 270.696 257.518 273.312 253.214C240.066 266.182 219.501 296.551 214.917 335.305Z" fill="#F0FFFF" stroke="#048095" stroke-width="2" stroke-linejoin="round"/>
<path d="M334.017 301.859C331.466 306.676 333.302 312.649 338.119 315.201C342.936 317.752 348.91 315.916 351.461 311.099C354.013 306.282 352.176 300.308 347.359 297.757C342.542 295.205 336.569 297.042 334.017 301.859Z" fill="white"/>
<path d="M334.901 302.327C332.608 306.656 334.258 312.024 338.587 314.317L337.651 316.085C332.346 313.275 330.323 306.696 333.133 301.391L334.901 302.327ZM338.587 314.317C342.916 316.61 348.284 314.96 350.577 310.631L352.345 311.567C349.535 316.872 342.956 318.895 337.651 316.085L338.587 314.317ZM350.577 310.631C352.87 306.302 351.22 300.934 346.891 298.641L347.827 296.873C353.132 299.683 355.155 306.262 352.345 311.567L350.577 310.631ZM346.891 298.641C342.562 296.348 337.194 297.998 334.901 302.327L333.133 301.391C335.943 296.086 342.522 294.063 347.827 296.873L346.891 298.641Z" fill="#048095"/>
<circle r="9.87002" transform="matrix(-0.924676 -0.380755 -0.380755 0.924676 377.443 230.801)" fill="white" stroke="#048095" stroke-width="2"/>
<mask id="path-31-inside-2_454_216816" fill="white">
<path d="M369.816 224.617C370.34 231.314 369.445 238.304 367.183 245.186C364.921 252.068 361.335 258.708 356.631 264.727C351.926 270.745 346.196 276.025 339.766 280.264C333.336 284.504 326.332 287.619 319.156 289.434C311.979 291.248 304.769 291.725 297.938 290.838C291.107 289.951 284.788 287.718 279.343 284.265C273.898 280.812 269.432 276.207 266.202 270.713C262.971 265.22 261.039 258.945 260.515 252.248L315.165 238.432L369.816 224.617Z"/>
</mask>
<path d="M369.816 224.617C370.34 231.314 369.445 238.304 367.183 245.186C364.921 252.068 361.335 258.708 356.631 264.727C351.926 270.745 346.196 276.025 339.766 280.264C333.336 284.504 326.332 287.619 319.156 289.434C311.979 291.248 304.769 291.725 297.938 290.838C291.107 289.951 284.788 287.718 279.343 284.265C273.898 280.812 269.432 276.207 266.202 270.713C262.971 265.22 261.039 258.945 260.515 252.248L315.165 238.432L369.816 224.617Z" fill="#F0FFFF" stroke="#048095" stroke-width="4" mask="url(#path-31-inside-2_454_216816)"/>
<path d="M334.062 297.726C334.109 307.698 331.197 317.46 325.695 325.777C320.193 334.094 312.349 340.593 303.153 344.452C293.958 348.311 283.825 349.356 274.035 347.456C264.246 345.556 255.24 340.796 248.156 333.777C241.072 326.758 236.228 317.797 234.237 308.025C232.246 298.254 233.198 288.111 236.971 278.881C240.745 269.65 247.17 261.745 255.436 256.167C263.702 250.588 273.437 247.586 283.409 247.54L283.642 297.959L334.062 297.726Z" fill="#F0FFFF" stroke="#048095" stroke-width="2"/>
<g style="mix-blend-mode:multiply">
<path fill-rule="evenodd" clip-rule="evenodd" d="M329.903 298.534C328.324 307.219 324.219 315.276 318.065 321.675C311.121 328.896 301.965 333.592 292.049 335.02C282.133 336.448 272.025 334.526 263.325 329.558C254.625 324.59 247.833 316.86 244.024 307.595C240.214 298.329 239.607 288.057 242.297 278.407C244.987 268.757 250.82 260.28 258.873 254.321C259.424 253.914 259.983 253.519 260.549 253.139C259.047 253.913 257.58 254.765 256.154 255.692C247.794 261.129 241.234 268.923 237.304 278.088C233.374 287.253 232.25 297.377 234.073 307.181C235.897 316.985 240.587 326.028 247.551 333.167C254.514 340.305 263.438 345.218 273.194 347.285C282.949 349.352 293.099 348.479 302.359 344.778C311.618 341.076 319.573 334.712 325.215 326.49C330.858 318.268 333.936 308.557 334.06 298.586L329.903 298.534Z" fill="#86F6FA"/>
</g>
<ellipse rx="17.9281" ry="17.931" transform="matrix(-0.72891 0.68461 0.684247 0.72925 284.065 222.014)" fill="white" stroke="#048095" stroke-width="2"/>
<path fill-rule="evenodd" clip-rule="evenodd" d="M274.949 237.479L289.876 205.063C283.798 202.983 276.8 204.249 271.791 208.954C264.574 215.733 264.216 227.082 270.992 234.304C272.186 235.576 273.52 236.634 274.949 237.479Z" fill="#048095"/>
</g>
<defs>
<clipPath id="clip0_454_216816">
<rect width="558.251" height="558.251" fill="white" transform="translate(80.875 0.875)"/>
</clipPath>
</defs>
</svg>
