<svg width="166" height="216" viewBox="0 0 166 216" fill="none" xmlns="http://www.w3.org/2000/svg">
<path fill-rule="evenodd" clip-rule="evenodd" d="M119.891 79.5898H104.94V94.541V109.513V124.464V138.561L57.0226 138.561H55.152H45.9502L45.9502 149.775L64.6939 168.53L45.9502 187.152L45.9502 198.365H57.1635L75.8444 179.687L94.5113 198.365H105.755V187.153L72.0182 153.513H105.755V150.59L127.28 172.118H127.37V198.366H142.321V171.973L142.401 171.973L164.744 149.775L164.744 138.561H164.728V124.464H164.744V109.513H164.728V94.541H164.744V79.5898H164.728H149.777H119.891ZM134.78 157.309L116.981 139.394H119.891V124.464H149.777V139.394H152.697L134.78 157.309ZM149.777 94.541H119.891V109.513H149.777V94.541Z" fill="#E3FFFF"/>
<path d="M104.94 79.5898V78.5898H103.94V79.5898H104.94ZM104.94 138.561L104.94 139.561L105.94 139.561V138.561H104.94ZM57.0226 138.561L57.0226 137.561H57.0226V138.561ZM45.9502 138.561V137.561H44.9502L44.9502 138.561L45.9502 138.561ZM45.9502 149.775L44.9502 149.775L44.9502 150.189L45.2429 150.482L45.9502 149.775ZM64.6939 168.53L65.3987 169.24L66.1102 168.533L65.4012 167.823L64.6939 168.53ZM45.9502 187.152L45.2454 186.443L44.9502 186.736L44.9502 187.152L45.9502 187.152ZM45.9502 198.365L44.9502 198.365L44.9502 199.365H45.9502V198.365ZM57.1635 198.365V199.365H57.5777L57.8705 199.073L57.1635 198.365ZM75.8444 179.687L76.5517 178.98L75.8446 178.273L75.1373 178.98L75.8444 179.687ZM94.5113 198.365L93.804 199.072L94.0969 199.365H94.5113V198.365ZM105.755 198.365V199.365H106.755V198.365H105.755ZM105.755 187.153H106.755V186.737L106.461 186.444L105.755 187.153ZM72.0182 153.513V152.513H69.599L71.3121 154.221L72.0182 153.513ZM105.755 153.513V154.513H106.755V153.513H105.755ZM105.755 150.59L106.462 149.883L104.755 148.176V150.59H105.755ZM127.28 172.118L126.573 172.826L126.866 173.118H127.28V172.118ZM127.37 172.118H128.37V171.118H127.37V172.118ZM127.37 198.366H126.37V199.366H127.37V198.366ZM142.321 198.366V199.366H143.321V198.366H142.321ZM142.321 171.973L142.321 170.973L141.321 170.973V171.973H142.321ZM142.401 171.973L142.401 172.973L142.813 172.973L143.106 172.682L142.401 171.973ZM164.744 149.775L165.449 150.484L165.744 150.191L165.744 149.775L164.744 149.775ZM164.744 138.561L165.744 138.561L165.744 137.561H164.744V138.561ZM164.728 138.561H163.728V139.561H164.728V138.561ZM164.728 124.464V123.464H163.728V124.464H164.728ZM164.744 124.464V125.464H165.744V124.464H164.744ZM164.744 109.513H165.744V108.513H164.744V109.513ZM164.728 109.513H163.728V110.513H164.728V109.513ZM164.728 94.541V93.541H163.728V94.541H164.728ZM164.744 94.541V95.541H165.744V94.541H164.744ZM164.744 79.5898H165.744V78.5898H164.744V79.5898ZM116.981 139.394V138.394H114.578L116.271 140.099L116.981 139.394ZM134.78 157.309L134.07 158.014L134.777 158.726L135.487 158.017L134.78 157.309ZM119.891 139.394V140.394H120.891V139.394H119.891ZM119.891 124.464V123.464H118.891V124.464H119.891ZM149.777 124.464H150.777V123.464H149.777V124.464ZM149.777 139.394H148.777V140.394H149.777V139.394ZM152.697 139.394L153.405 140.101L155.112 138.394H152.697V139.394ZM119.891 94.541V93.541H118.891V94.541H119.891ZM149.777 94.541H150.777V93.541H149.777V94.541ZM119.891 109.513H118.891V110.513H119.891V109.513ZM149.777 109.513V110.513H150.777V109.513H149.777ZM104.94 80.5898H119.891V78.5898H104.94V80.5898ZM105.94 94.541V79.5898H103.94V94.541H105.94ZM105.94 109.513V94.541H103.94V109.513H105.94ZM105.94 124.464V109.513H103.94V124.464H105.94ZM105.94 138.561V124.464H103.94V138.561H105.94ZM57.0226 139.561L104.94 139.561L104.94 137.561L57.0226 137.561L57.0226 139.561ZM55.152 139.561H57.0226V137.561H55.152V139.561ZM45.9502 139.561H55.152V137.561H45.9502V139.561ZM46.9502 149.775L46.9502 138.561L44.9502 138.561L44.9502 149.775L46.9502 149.775ZM65.4012 167.823L46.6575 149.068L45.2429 150.482L63.9865 169.237L65.4012 167.823ZM46.655 187.861L65.3987 169.24L63.9891 167.821L45.2454 186.443L46.655 187.861ZM46.9502 198.365L46.9502 187.152L44.9502 187.152L44.9502 198.365L46.9502 198.365ZM57.1635 197.365H45.9502V199.365H57.1635V197.365ZM75.1373 178.98L56.4564 197.658L57.8705 199.073L76.5514 180.395L75.1373 178.98ZM95.2186 197.659L76.5517 178.98L75.137 180.394L93.804 199.072L95.2186 197.659ZM105.755 197.365H94.5113V199.365H105.755V197.365ZM104.755 187.153V198.365H106.755V187.153H104.755ZM71.3121 154.221L105.049 187.861L106.461 186.444L72.7243 152.805L71.3121 154.221ZM105.755 152.513H72.0182V154.513H105.755V152.513ZM104.755 150.59V153.513H106.755V150.59H104.755ZM127.988 171.411L106.462 149.883L105.048 151.297L126.573 172.826L127.988 171.411ZM127.37 171.118H127.28V173.118H127.37V171.118ZM128.37 198.366V172.118H126.37V198.366H128.37ZM142.321 197.366H127.37V199.366H142.321V197.366ZM141.321 171.973V198.366H143.321V171.973H141.321ZM142.401 170.973L142.321 170.973L142.321 172.973L142.401 172.973L142.401 170.973ZM164.039 149.065L141.696 171.264L143.106 172.682L165.449 150.484L164.039 149.065ZM163.744 138.561L163.744 149.775L165.744 149.775L165.744 138.561L163.744 138.561ZM164.728 139.561H164.744V137.561H164.728V139.561ZM163.728 124.464V138.561H165.728V124.464H163.728ZM164.744 123.464H164.728V125.464H164.744V123.464ZM163.744 109.513V124.464H165.744V109.513H163.744ZM164.728 110.513H164.744V108.513H164.728V110.513ZM163.728 94.541V109.513H165.728V94.541H163.728ZM164.744 93.541H164.728V95.541H164.744V93.541ZM163.744 79.5898V94.541H165.744V79.5898H163.744ZM164.728 80.5898H164.744V78.5898H164.728V80.5898ZM149.777 80.5898H164.728V78.5898H149.777V80.5898ZM119.891 80.5898H149.777V78.5898H119.891V80.5898ZM116.271 140.099L134.07 158.014L135.489 156.605L117.69 138.69L116.271 140.099ZM119.891 138.394H116.981V140.394H119.891V138.394ZM118.891 124.464V139.394H120.891V124.464H118.891ZM149.777 123.464H119.891V125.464H149.777V123.464ZM150.777 139.394V124.464H148.777V139.394H150.777ZM152.697 138.394H149.777V140.394H152.697V138.394ZM135.487 158.017L153.405 140.101L151.99 138.687L134.073 156.602L135.487 158.017ZM119.891 95.541H149.777V93.541H119.891V95.541ZM120.891 109.513V94.541H118.891V109.513H120.891ZM149.777 108.513H119.891V110.513H149.777V108.513ZM148.777 94.541V109.513H150.777V94.541H148.777Z" fill="#86F6FA"/>
<rect x="17.4258" y="6.50439" width="147.498" height="73.5193" fill="#C5F9FA" stroke="#61E9ED" stroke-width="2"/>
<circle cx="25.0281" cy="25.0281" r="25.0281" transform="matrix(-0.96226 -0.272131 -0.272131 0.96226 125.573 21.5356)" fill="#E3FFFF" stroke="#066480" stroke-width="2"/>
<ellipse cx="19.7764" cy="19.7764" rx="19.7764" ry="19.7764" transform="matrix(-0.96226 -0.272131 -0.272131 0.96226 119.092 25.1592)" fill="#FAFAFB" stroke="#01B8BF" stroke-width="2"/>
<path d="M78.6462 34.2763C79.6794 30.6229 81.9293 27.4319 85.0235 25.2316C88.1176 23.0314 91.8704 21.9538 95.6605 22.1773" stroke="#01B8BF" stroke-width="2"/>
<path d="M87.8691 62.8936L74.4406 110.377" stroke="#066480" stroke-width="2" stroke-linejoin="round"/>
<path d="M88.9678 34.4966H91.8239V44.1628H88.9678V34.4966Z" fill="#01B8BF"/>
<path d="M98.2497 34.4966H100.392V36.6444L91.1099 45.9205H88.9678V43.8055L98.2497 34.4966Z" fill="#01B8BF"/>
<path d="M100.392 43.7785V45.9205H98.2496L94.0094 41.6526L95.1065 40.5727L96.1241 39.5105L100.392 43.7785Z" fill="#01B8BF"/>
<ellipse cx="98.0739" cy="22.5261" rx="0.956753" ry="0.956757" fill="#01B8BF"/>
<path d="M21.8356 105.206L21.8365 108.401C21.8386 116.609 27.9507 123.533 36.0956 124.552L70.3769 128.844L57.526 176.849L74.4902 181.399L88.6766 130.656C89.8861 126.33 87.2975 121.856 82.944 120.749L21.8356 105.206Z" fill="#039CAA" stroke="#07486B" stroke-width="2" stroke-linejoin="round"/>
<path d="M57.9447 177.592L54.7473 189.524L88.7605 198.638L89.4355 196.119L71.1484 181.13L57.9447 177.592Z" fill="#F0FFFF" stroke="#07486B" stroke-width="2"/>
<rect width="36.1498" height="1.59485" transform="matrix(-0.965926 -0.258819 -0.258819 0.965926 89.5068 197.671)" fill="#07486B"/>
<path d="M22.1773 102.359V102.359C18.4302 111.307 22.6427 121.598 31.5882 125.35L60.0777 137.299L29.6702 176.605L43.5573 187.358L79.969 140.283C83.9888 135.086 81.9899 127.491 75.9327 124.946L22.1773 102.359Z" fill="#066480" stroke="#07486B" stroke-width="2" stroke-linejoin="round"/>
<path d="M29.6527 177.645L22.0915 187.415L49.9383 208.967L51.5344 206.905L40.4627 186.012L29.6527 177.645Z" fill="#F0FFFF" stroke="#07486B" stroke-width="2"/>
<rect width="36.1498" height="1.59485" transform="matrix(-0.790809 -0.612063 -0.612063 0.790809 50.998 208.361)" fill="#07486B"/>
<ellipse cx="10.7097" cy="10.7041" rx="10.7097" ry="10.7041" transform="matrix(0.427343 0.90409 0.90409 -0.427343 43.5508 52.2808)" fill="white" stroke="#07486B" stroke-width="2"/>
<path d="M62.7882 48.4552L52.8196 66.3292" stroke="#07486B" stroke-width="2"/>
<path d="M53.2259 47.8574C47.8784 50.385 45.5914 56.7668 48.1177 62.1116C50.644 67.4563 57.027 69.74 62.3745 67.2123C67.7221 64.6847 70.0091 58.3029 67.4828 52.9581C64.9564 47.6134 58.5734 45.3297 53.2259 47.8574Z" fill="white"/>
<path d="M63.0477 48.2039C61.8218 47.5147 60.4721 47.0735 59.0759 46.9057C57.6796 46.7378 56.2641 46.8465 54.9101 47.2256C53.5561 47.6046 52.2902 48.2466 51.1846 49.1149C50.079 49.9832 49.1554 51.0608 48.4665 52.2861C47.7777 53.5114 47.337 54.8605 47.1697 56.2563C47.0024 57.6521 47.1118 59.0673 47.4916 60.421C47.8713 61.7748 48.5141 63.0407 49.3831 64.1464C50.2521 65.2521 51.3304 66.1759 52.5563 66.8651L63.0477 48.2039Z" fill="#07486B"/>
<path d="M52.8102 66.4714L62.7893 48.5993M53.2259 47.8574C47.8784 50.385 45.5914 56.7668 48.1177 62.1116C50.644 67.4563 57.027 69.74 62.3745 67.2123C67.7221 64.6847 70.0091 58.3029 67.4828 52.9581C64.9564 47.6134 58.5734 45.3297 53.2259 47.8574ZM63.0477 48.2039C61.8218 47.5147 60.4721 47.0735 59.0759 46.9057C57.6796 46.7378 56.2641 46.8465 54.9101 47.2256C53.5561 47.6046 52.2902 48.2466 51.1846 49.1149C50.079 49.9832 49.1554 51.0608 48.4665 52.2861C47.7777 53.5114 47.337 54.8605 47.1697 56.2563C47.0024 57.6521 47.1118 59.0673 47.4916 60.421C47.8713 61.7748 48.5141 63.0407 49.3831 64.1464C50.2521 65.2521 51.3304 66.1759 52.5563 66.8651L63.0477 48.2039Z" stroke="#07486B" stroke-width="2"/>
<ellipse cx="4.94153" cy="22.6213" rx="4.94153" ry="22.6213" transform="matrix(0.62018 -0.78446 -0.78446 -0.62018 46.5967 53.9639)" fill="#07486B" stroke="#07486B" stroke-width="2"/>
<ellipse cx="4.94153" cy="22.6213" rx="4.94153" ry="22.6213" transform="matrix(0.794938 -0.60669 -0.60669 -0.794939 45.7188 53.3701)" fill="#07486B" stroke="#07486B" stroke-width="2"/>
<ellipse cx="4.94153" cy="22.6213" rx="4.94153" ry="22.6213" transform="matrix(0.684796 -0.728735 -0.728735 -0.684795 46.2031 51.7349)" fill="#07486B" stroke="#07486B" stroke-width="2"/>
<path d="M77.2538 80.4268C80.9266 86.0356 82.6223 92.7097 82.0723 99.3914C81.5224 106.073 78.7581 112.38 74.2176 117.313C69.6772 122.245 63.6203 125.522 57.007 126.622C50.3937 127.723 43.6022 126.584 37.709 123.388C31.8158 120.192 27.158 115.12 24.4739 108.976C21.7897 102.833 21.2327 95.969 22.8911 89.4731C24.5496 82.9772 28.3286 77.2206 33.6293 73.1157C38.9299 69.0109 45.449 66.7925 52.1532 66.8122L52.0646 96.9213L77.2538 80.4268Z" fill="#F0FFFF" stroke="#07486B" stroke-width="2"/>
<ellipse cx="5.89402" cy="5.89402" rx="5.89402" ry="5.89402" transform="matrix(-0.981095 -0.193527 -0.193527 0.981095 90.249 74.0684)" fill="white" stroke="#07486B" stroke-width="2"/>
<path d="M80.6064 76.4253L85.5578 73.248" stroke="#07486B" stroke-width="2" stroke-linejoin="round"/>
<g style="mix-blend-mode:multiply">
<path fill-rule="evenodd" clip-rule="evenodd" d="M78.6022 82.6962C80.0423 86.4435 80.6333 90.4895 80.3 94.5387C79.8092 100.501 77.3425 106.129 73.2909 110.531C69.2393 114.932 63.8346 117.856 57.9333 118.838C52.032 119.82 45.9717 118.804 40.713 115.952C35.4543 113.099 31.298 108.574 28.9028 103.091C26.5076 97.6094 26.0106 91.4848 27.4905 85.6883C28.9704 79.8918 32.3425 74.7549 37.0725 71.092C37.5771 70.7012 38.0941 70.3296 38.6223 69.9775C36.8692 70.8522 35.1959 71.9007 33.629 73.1141C28.3283 77.219 24.5493 82.9756 22.8909 89.4715C21.2324 95.9674 21.7894 102.831 24.4736 108.975C27.1578 115.118 31.8156 120.19 37.7088 123.386C43.602 126.583 50.3934 127.721 57.0067 126.621C63.6201 125.52 69.6769 122.244 74.2174 117.311C78.7578 112.378 81.5221 106.071 82.0721 99.3898C82.5496 93.5888 81.3343 87.7936 78.6022 82.6962Z" fill="#61E9ED"/>
</g>
<path d="M38.7549 105.827L77.2534 80.5518" stroke="#07486B" stroke-width="2" stroke-linejoin="round"/>
</svg>
