<svg width="372" height="383" viewBox="0 0 372 383" fill="none" xmlns="http://www.w3.org/2000/svg">
<rect x="123.39" y="137.871" width="151.407" height="155.212" stroke="#999EA6" stroke-width="1.36614"/>
<rect x="61.4817" y="73.7791" width="61.9079" height="64.0915" stroke="#999EA6" stroke-width="1.36614"/>
<rect x="274.797" y="254.113" width="37.6419" height="38.9695" stroke="#999EA6" stroke-width="1.36614" stroke-linejoin="round"/>
<path d="M274.796 332.052L274.796 293.083L312.438 293.083L274.796 332.052Z" stroke="#999EA6" stroke-width="1.36614" stroke-linejoin="round"/>
<circle cx="199.093" cy="193.752" r="10.5783" stroke="#999EA6" stroke-width="1.36614"/>
<path d="M199.092 204.025V241.093" stroke="#999EA6" stroke-width="1.36614"/>
<path d="M151.319 137.871C151.319 131.597 152.555 125.384 154.956 119.588C157.357 113.792 160.876 108.526 165.312 104.089C169.748 99.6531 175.015 96.1341 180.811 93.7333C186.607 91.3324 192.819 90.0967 199.093 90.0967C205.367 90.0967 211.579 91.3324 217.375 93.7333C223.172 96.1341 228.438 99.6531 232.874 104.089C237.311 108.526 240.83 113.792 243.23 119.588C245.631 125.384 246.867 131.597 246.867 137.871L199.093 137.871L151.319 137.871Z" stroke="#999EA6" stroke-width="1.36614"/>
<path fill-rule="evenodd" clip-rule="evenodd" d="M62.8481 269.361C62.0936 269.361 61.4819 269.972 61.4819 270.727V309.476H61.4822L61.4822 326.744L78.7503 309.476H179.843C180.598 309.476 181.209 308.865 181.209 308.11V270.727C181.209 269.972 180.598 269.361 179.843 269.361H62.8481Z" fill="#F5F6F7"/>
<path d="M61.4819 309.476H60.7989V310.159H61.4819V309.476ZM61.4822 309.476H62.1653L62.1653 308.793H61.4822V309.476ZM61.4822 326.744H60.7991L60.7991 328.394L61.9652 327.227L61.4822 326.744ZM78.7503 309.476V308.793H78.4674L78.2673 308.993L78.7503 309.476ZM62.165 270.727C62.165 270.349 62.4708 270.044 62.8481 270.044V268.678C61.7163 268.678 60.7989 269.595 60.7989 270.727H62.165ZM62.165 309.476V270.727H60.7989V309.476H62.165ZM61.4822 308.793H61.4819V310.159H61.4822V308.793ZM62.1653 326.744L62.1653 309.476H60.7991L60.7991 326.744H62.1653ZM78.2673 308.993L60.9992 326.261L61.9652 327.227L79.2333 309.959L78.2673 308.993ZM179.843 308.793H78.7503V310.159H179.843V308.793ZM180.526 308.11C180.526 308.487 180.22 308.793 179.843 308.793V310.159C180.975 310.159 181.892 309.242 181.892 308.11H180.526ZM180.526 270.727V308.11H181.892V270.727H180.526ZM179.843 270.044C180.22 270.044 180.526 270.349 180.526 270.727H181.892C181.892 269.595 180.975 268.678 179.843 268.678V270.044ZM62.8481 270.044H179.843V268.678H62.8481V270.044Z" fill="#999EA6"/>
<path d="M85.9048 283.453V295.404" stroke="#999EA6" stroke-width="1.36614" stroke-linecap="square"/>
<path d="M79.9292 289.429L91.8805 289.429" stroke="#999EA6" stroke-width="1.36614" stroke-linecap="square"/>
<path d="M81.6792 285.203L90.13 293.654" stroke="#999EA6" stroke-width="1.36614" stroke-linecap="square"/>
<path d="M81.6792 293.654L90.13 285.203" stroke="#999EA6" stroke-width="1.36614" stroke-linecap="square"/>
<path d="M109.792 283.453V295.404" stroke="#999EA6" stroke-width="1.36614" stroke-linecap="square"/>
<path d="M103.816 289.429L115.767 289.429" stroke="#999EA6" stroke-width="1.36614" stroke-linecap="square"/>
<path d="M105.566 285.203L114.017 293.654" stroke="#999EA6" stroke-width="1.36614" stroke-linecap="square"/>
<path d="M105.566 293.654L114.017 285.203" stroke="#999EA6" stroke-width="1.36614" stroke-linecap="square"/>
<path d="M133.68 283.453V295.404" stroke="#999EA6" stroke-width="1.36614" stroke-linecap="square"/>
<path d="M127.705 289.429L139.656 289.429" stroke="#999EA6" stroke-width="1.36614" stroke-linecap="square"/>
<path d="M129.455 285.203L137.905 293.654" stroke="#999EA6" stroke-width="1.36614" stroke-linecap="square"/>
<path d="M129.455 293.654L137.905 285.203" stroke="#999EA6" stroke-width="1.36614" stroke-linecap="square"/>
<path d="M157.567 283.453V295.404" stroke="#999EA6" stroke-width="1.36614" stroke-linecap="square"/>
<path d="M151.591 289.429L163.543 289.429" stroke="#999EA6" stroke-width="1.36614" stroke-linecap="square"/>
<path d="M153.341 285.203L161.792 293.654" stroke="#999EA6" stroke-width="1.36614" stroke-linecap="square"/>
<path d="M153.341 293.654L161.792 285.203" stroke="#999EA6" stroke-width="1.36614" stroke-linecap="square"/>
<path d="M255.574 121.474L268.755 99.784M259.961 128.928L283.309 116.782" stroke="#999EA6" stroke-width="1.36614" stroke-linecap="round" stroke-linejoin="round"/>
<path d="M286.143 253.881L286.149 252.403L299.295 246.514L307.572 246.544L307.545 253.96L286.143 253.881Z" fill="#F7F7EB" stroke="#A86A50" stroke-width="1.36614"/>
<rect x="286.03" y="253.507" width="21.6299" height="0.487891" transform="rotate(0.209468 286.03 253.507)" fill="#F7F7EB" stroke="#A86A50" stroke-width="0.487891"/>
<path d="M342.719 224.206L341.24 224.201L335.351 211.054L335.381 202.777L342.797 202.804L342.719 224.206Z" fill="#F7F7EB" stroke="#A86A50" stroke-width="1.36614"/>
<rect x="342.344" y="224.319" width="21.6299" height="0.487891" transform="rotate(-89.7905 342.344 224.319)" fill="#F7F7EB" stroke="#A86A50" stroke-width="0.487891"/>
<path d="M295.565 165.031L297.171 165.462C303.101 167.053 306.621 173.149 305.033 179.08L298.79 202.402L334.952 202.411L334.955 215.191L285.953 215.176C284.047 215.175 282.66 213.368 283.151 211.526L295.565 165.031Z" fill="#E19E83" stroke="#A86A50" stroke-width="1.36614" stroke-linejoin="round"/>
<path d="M295.144 164.354H307.92V246.236H295.144V164.354Z" fill="#C27B5D" stroke="#A86A50" stroke-width="1.36614" stroke-linejoin="round"/>
<ellipse rx="7.78901" ry="7.79309" transform="matrix(0.980213 0.197946 0.197946 -0.980213 302.151 126.56)" fill="white" stroke="#8F8E37" stroke-width="1.36614"/>
<path d="M305.31 133.681C306.246 133.266 307.09 132.67 307.796 131.929C308.501 131.188 309.053 130.315 309.421 129.36C309.789 128.405 309.965 127.387 309.94 126.365C309.914 125.342 309.688 124.335 309.273 123.4C308.858 122.465 308.262 121.621 307.521 120.916C306.78 120.211 305.906 119.66 304.952 119.292C303.997 118.925 302.979 118.749 301.956 118.775C300.933 118.801 299.925 119.028 298.989 119.443L302.15 126.562L305.31 133.681Z" fill="#8F8E37" stroke="#8F8E37" stroke-width="1.36614"/>
<path d="M294.568 149.483C294.567 143.825 299.154 139.239 304.812 139.239C304.812 139.239 307.92 142.672 307.92 170.025C300.076 170.025 294.568 170.025 294.568 170.025L294.568 149.483Z" fill="#F7F7EB" stroke="#8F8E37" stroke-width="1.36614" stroke-linejoin="round"/>
<path d="M304.847 139.181C304.162 141.706 302.798 144.142 300.835 146.348C298.872 148.554 296.347 150.488 293.405 152.039C290.462 153.589 287.16 154.727 283.687 155.386C280.214 156.045 276.637 156.213 273.161 155.88C269.686 155.547 266.379 154.72 263.431 153.446C260.482 152.172 257.949 150.476 255.976 148.455C254.003 146.433 252.629 144.126 251.932 141.665C251.235 139.205 251.23 136.638 251.915 134.112L278.381 136.646L304.847 139.181Z" fill="#F7F7EB"/>
<path fill-rule="evenodd" clip-rule="evenodd" d="M303.043 139.008C301.133 141.055 298.733 142.855 295.962 144.315C293.02 145.866 289.718 147.003 286.244 147.662C282.771 148.321 279.194 148.489 275.719 148.156C272.243 147.824 268.937 146.997 265.988 145.723C263.039 144.449 260.506 142.752 258.533 140.731C256.676 138.828 255.349 136.671 254.618 134.371L251.915 134.112C251.229 136.638 251.235 139.204 251.932 141.665C252.629 144.126 254.003 146.433 255.976 148.455C257.949 150.476 260.482 152.172 263.431 153.446C266.379 154.72 269.686 155.547 273.161 155.88C276.637 156.213 280.213 156.045 283.687 155.386C287.16 154.727 290.462 153.589 293.405 152.039C296.347 150.488 298.872 148.554 300.835 146.348C302.798 144.142 304.162 141.706 304.847 139.181L303.043 139.008Z" fill="#DBDBA1"/>
<path d="M304.847 139.181C304.162 141.706 302.798 144.142 300.835 146.348C298.872 148.554 296.347 150.488 293.405 152.039C290.462 153.589 287.16 154.727 283.687 155.386C280.214 156.045 276.637 156.213 273.161 155.88C269.686 155.547 266.379 154.72 263.431 153.446C260.482 152.172 257.949 150.476 255.976 148.455C254.003 146.433 252.629 144.126 251.932 141.665C251.235 139.205 251.23 136.638 251.915 134.112L278.381 136.646L304.847 139.181Z" stroke="#8F8E37" stroke-width="1.36614" stroke-linejoin="round"/>
<circle cx="246.689" cy="135.81" r="4.40317" transform="rotate(-20.0578 246.689 135.81)" fill="white" stroke="#8F8E37" stroke-width="1.36614"/>
<rect width="11.9163" height="86.5166" transform="matrix(-1 0 0 1 81.4749 173.643)" fill="#DBDBA1" stroke="#8F8E37" stroke-width="1.36614" stroke-linejoin="round"/>
<path d="M92.6714 268.592L92.6655 266.961L78.7159 260.712L69.9048 260.744L69.9338 268.675L92.6714 268.592Z" fill="#F7F7EB" stroke="#8F8E37" stroke-width="1.36614"/>
<rect width="23.4152" height="1.03302" transform="matrix(-0.999993 0.0036559 0.0036559 0.999993 93.009 267.896)" fill="#8F8E37"/>
<path d="M74.3157 176.815L71.3152 178.58C66.1381 181.625 64.3145 188.231 67.1959 193.501L81.4239 219.524L90.0959 260.166L103.31 257.256L94.0652 214.853C94.0102 214.601 93.9217 214.357 93.8022 214.128L74.3157 176.815Z" fill="#C5C467" stroke="#8F8E37" stroke-width="1.36614" stroke-linejoin="round"/>
<path d="M114.457 263.216L114.1 261.624L99.1322 258.524L90.5346 260.453L92.2701 268.191L114.457 263.216Z" fill="#F7F7EB" stroke="#8F8E37" stroke-width="1.36614"/>
<rect width="23.4152" height="1.03302" transform="matrix(-0.975764 0.218826 0.218826 0.975764 114.637 262.464)" fill="#8F8E37"/>
<path d="M97.7833 136.452L85.9736 146.897" stroke="#7B91CB" stroke-width="1.36614"/>
<path d="M90.9865 133.578C86.4545 134.05 83.1625 138.104 83.6337 142.633C84.1049 147.163 88.1608 150.453 92.6928 149.981C97.2249 149.51 100.517 145.456 100.046 140.926C99.5745 136.396 95.5185 133.107 90.9865 133.578Z" fill="#FAF1ED"/>
<path d="M98.0364 136.338C97.3214 135.524 96.4532 134.859 95.4813 134.38C94.5094 133.902 93.4528 133.619 92.3719 133.549C91.291 133.479 90.207 133.622 89.1818 133.971C88.1565 134.319 87.21 134.867 86.3964 135.581C85.5829 136.296 84.9181 137.164 84.44 138.136C83.962 139.107 83.6801 140.164 83.6104 141.245C83.5406 142.326 83.6845 143.41 84.0337 144.435C84.383 145.461 84.9307 146.408 85.6457 147.222L98.0364 136.338Z" fill="#FAF1ED"/>
<path d="M85.9308 147L97.7476 136.56M90.9865 133.578C86.4545 134.05 83.1625 138.104 83.6337 142.633C84.1049 147.163 88.1608 150.453 92.6928 149.981C97.2249 149.51 100.517 145.456 100.046 140.926C99.5745 136.396 95.5185 133.107 90.9865 133.578ZM98.0364 136.338C97.3214 135.524 96.4532 134.859 95.4813 134.38C94.5094 133.902 93.4528 133.619 92.3719 133.549C91.291 133.479 90.207 133.622 89.1818 133.971C88.1565 134.319 87.21 134.867 86.3964 135.581C85.5829 136.296 84.9181 137.164 84.44 138.136C83.962 139.107 83.6801 140.164 83.6104 141.245C83.5406 142.326 83.6845 143.41 84.0337 144.435C84.383 145.461 84.9307 146.408 85.6457 147.222L98.0364 136.338Z" stroke="#A86A50" stroke-width="1.36614"/>
<path d="M85.5852 147.01C84.885 146.184 84.3545 145.228 84.024 144.196C83.6934 143.165 83.5692 142.079 83.6586 140.999C83.7479 139.92 84.049 138.868 84.5447 137.905C85.0403 136.942 85.7208 136.085 86.5473 135.385C87.3738 134.684 88.3302 134.153 89.3617 133.822C90.3932 133.491 91.4797 133.367 92.5593 133.455C93.6388 133.544 94.6901 133.845 95.6533 134.34C96.6164 134.835 97.4725 135.515 98.1727 136.341L91.8789 141.675L85.5852 147.01Z" fill="#A86A50"/>
<ellipse rx="3.80673" ry="3.80872" transform="matrix(-0.994633 0.103465 0.103465 0.994633 85.0931 131.349)" fill="#A86A50" stroke="#A86A50" stroke-width="1.36614"/>
<rect x="118.761" y="184.453" width="17.841" height="17.4338" transform="rotate(-25.2416 118.761 184.453)" fill="#F5F6F7" stroke="#999EA6" stroke-width="1.36614" stroke-linejoin="round"/>
<rect x="40.8877" y="206.691" width="15.2959" height="31.785" rx="7.64797" transform="rotate(-25.2416 40.8877 206.691)" fill="#F5F6F7" stroke="#999EA6" stroke-width="1.36614" stroke-linejoin="round"/>
<rect x="60.2935" y="212.018" width="82.4816" height="4.20575" transform="rotate(-25.2416 60.2935 212.018)" fill="#F5F6F7" stroke="#999EA6" stroke-width="1.36614" stroke-linejoin="round"/>
<ellipse rx="3.88351" ry="3.88351" transform="matrix(-0.142831 -0.989747 -0.989747 0.142831 107.989 191.984)" fill="white" stroke="#A86A50" stroke-width="1.36614"/>
<path d="M106.757 187.809C104.387 190.837 101.306 193.233 97.7884 194.785C94.2708 196.337 90.425 196.997 86.5916 196.707C82.7581 196.417 79.0554 195.185 75.8113 193.121C72.5672 191.058 69.882 188.225 67.9934 184.875C66.1048 181.524 65.0712 177.76 64.9841 173.914C64.8971 170.069 65.7592 166.261 67.4942 162.829C69.2291 159.396 71.7834 156.445 74.9307 154.236C78.078 152.027 81.7212 150.629 85.5376 150.166L88.3554 173.384L106.757 187.809Z" fill="#FAF1ED" stroke="#A86A50" stroke-width="1.36614"/>
<g style="mix-blend-mode:multiply">
<path fill-rule="evenodd" clip-rule="evenodd" d="M106.257 187.416C104.969 188.385 103.569 189.207 102.083 189.863C98.9024 191.267 95.4246 191.864 91.9579 191.601C88.4913 191.339 85.1428 190.225 82.2092 188.359C79.2755 186.492 76.8472 183.931 75.1394 180.901C73.4315 177.871 72.4968 174.467 72.418 170.989C72.3393 167.512 73.1189 164.069 74.6879 160.965C76.2568 157.861 78.5667 155.192 81.4128 153.194C82.7311 152.269 84.1457 151.501 85.6274 150.901L85.5381 150.165C81.7217 150.629 78.0785 152.027 74.9312 154.236C71.7839 156.445 69.2296 159.396 67.4946 162.829C65.7597 166.261 64.8975 170.069 64.9846 173.914C65.0717 177.76 66.1053 181.524 67.9939 184.874C69.8825 188.225 72.5677 191.057 75.8118 193.121C79.0559 195.185 82.7586 196.417 86.5921 196.707C90.4255 196.997 94.2713 196.337 97.7889 194.785C101.306 193.233 104.387 190.837 106.758 187.809L106.257 187.416Z" fill="#E7B19A"/>
</g>
</svg>
