<svg width="372" height="383" viewBox="0 0 372 383" fill="none" xmlns="http://www.w3.org/2000/svg">
<rect x="27.7646" y="23.6023" width="23.9878" height="23.9878" stroke="#E5E7EB"/>
<rect x="51.7527" y="23.6023" width="23.9878" height="23.9878" stroke="#E5E7EB"/>
<rect x="75.7407" y="23.6023" width="23.9878" height="23.9878" stroke="#E5E7EB"/>
<rect x="99.7285" y="23.6023" width="23.9878" height="23.9878" stroke="#E5E7EB"/>
<rect x="123.717" y="23.6023" width="23.9878" height="23.9878" stroke="#E5E7EB"/>
<rect x="147.705" y="23.6023" width="23.9878" height="23.9878" stroke="#E5E7EB"/>
<rect x="171.693" y="23.6023" width="23.9878" height="23.9878" stroke="#E5E7EB"/>
<rect x="195.68" y="23.6023" width="23.9878" height="23.9878" stroke="#E5E7EB"/>
<rect x="219.668" y="23.6023" width="23.9878" height="23.9878" stroke="#E5E7EB"/>
<rect x="243.656" y="23.6023" width="23.9878" height="23.9878" stroke="#E5E7EB"/>
<rect x="267.645" y="23.6023" width="23.9878" height="23.9878" stroke="#E5E7EB"/>
<rect x="291.632" y="23.6023" width="23.9878" height="23.9878" stroke="#E5E7EB"/>
<rect x="315.62" y="23.6023" width="23.9878" height="23.9878" stroke="#E5E7EB"/>
<rect x="27.7646" y="47.5901" width="23.9878" height="23.9878" stroke="#E5E7EB"/>
<rect x="51.7527" y="47.5901" width="23.9878" height="23.9878" stroke="#E5E7EB"/>
<rect x="75.7407" y="47.5901" width="23.9878" height="23.9878" stroke="#E5E7EB"/>
<rect x="99.7285" y="47.5901" width="23.9878" height="23.9878" stroke="#E5E7EB"/>
<rect x="123.717" y="47.5901" width="23.9878" height="23.9878" stroke="#E5E7EB"/>
<rect x="147.705" y="47.5901" width="23.9878" height="23.9878" stroke="#E5E7EB"/>
<rect x="171.693" y="47.5901" width="23.9878" height="23.9878" stroke="#E5E7EB"/>
<rect x="195.68" y="47.5901" width="23.9878" height="23.9878" stroke="#E5E7EB"/>
<rect x="219.668" y="47.5901" width="23.9878" height="23.9878" stroke="#E5E7EB"/>
<rect x="243.656" y="47.5901" width="23.9878" height="23.9878" stroke="#E5E7EB"/>
<rect x="267.645" y="47.5901" width="23.9878" height="23.9878" stroke="#E5E7EB"/>
<rect x="291.632" y="47.5901" width="23.9878" height="23.9878" stroke="#E5E7EB"/>
<rect x="315.62" y="47.5901" width="23.9878" height="23.9878" stroke="#E5E7EB"/>
<rect x="27.7646" y="71.5779" width="23.9878" height="23.9878" stroke="#E5E7EB"/>
<rect x="51.7527" y="71.5779" width="23.9878" height="23.9878" stroke="#E5E7EB"/>
<rect x="75.7407" y="71.5779" width="23.9878" height="23.9878" stroke="#E5E7EB"/>
<rect x="99.7285" y="71.5779" width="23.9878" height="23.9878" stroke="#E5E7EB"/>
<rect x="123.717" y="71.5779" width="23.9878" height="23.9878" stroke="#E5E7EB"/>
<rect x="147.705" y="71.5779" width="23.9878" height="23.9878" stroke="#E5E7EB"/>
<rect x="171.693" y="71.5779" width="23.9878" height="23.9878" stroke="#E5E7EB"/>
<rect x="195.68" y="71.5779" width="23.9878" height="23.9878" stroke="#E5E7EB"/>
<rect x="219.668" y="71.5779" width="23.9878" height="23.9878" stroke="#E5E7EB"/>
<rect x="243.656" y="71.5779" width="23.9878" height="23.9878" stroke="#E5E7EB"/>
<rect x="267.645" y="71.5779" width="23.9878" height="23.9878" stroke="#E5E7EB"/>
<rect x="291.632" y="71.5779" width="23.9878" height="23.9878" stroke="#E5E7EB"/>
<rect x="315.62" y="71.5779" width="23.9878" height="23.9878" stroke="#E5E7EB"/>
<rect x="27.7646" y="95.5657" width="23.9878" height="23.9878" stroke="#E5E7EB"/>
<rect x="51.7527" y="95.5657" width="23.9878" height="23.9878" stroke="#E5E7EB"/>
<rect x="75.7407" y="95.5657" width="23.9878" height="23.9878" stroke="#E5E7EB"/>
<rect x="99.7285" y="95.5657" width="23.9878" height="23.9878" stroke="#E5E7EB"/>
<rect x="123.717" y="95.5657" width="23.9878" height="23.9878" stroke="#E5E7EB"/>
<rect x="147.705" y="95.5657" width="23.9878" height="23.9878" stroke="#E5E7EB"/>
<rect x="171.693" y="95.5657" width="23.9878" height="23.9878" stroke="#E5E7EB"/>
<rect x="195.68" y="95.5657" width="23.9878" height="23.9878" stroke="#E5E7EB"/>
<rect x="219.668" y="95.5657" width="23.9878" height="23.9878" stroke="#E5E7EB"/>
<rect x="243.656" y="95.5657" width="23.9878" height="23.9878" stroke="#E5E7EB"/>
<rect x="267.645" y="95.5657" width="23.9878" height="23.9878" stroke="#E5E7EB"/>
<rect x="291.632" y="95.5657" width="23.9878" height="23.9878" stroke="#E5E7EB"/>
<rect x="315.62" y="95.5657" width="23.9878" height="23.9878" stroke="#E5E7EB"/>
<rect x="27.7646" y="119.553" width="23.9878" height="23.9878" stroke="#E5E7EB"/>
<rect x="51.7527" y="119.553" width="23.9878" height="23.9878" stroke="#E5E7EB"/>
<rect x="75.7407" y="119.553" width="23.9878" height="23.9878" stroke="#E5E7EB"/>
<rect x="267.645" y="119.553" width="23.9878" height="23.9878" stroke="#E5E7EB"/>
<rect x="291.632" y="119.553" width="23.9878" height="23.9878" stroke="#E5E7EB"/>
<rect x="315.62" y="119.553" width="23.9878" height="23.9878" stroke="#E5E7EB"/>
<rect x="27.7646" y="143.541" width="23.9878" height="23.9878" stroke="#E5E7EB"/>
<rect x="51.7527" y="143.541" width="23.9878" height="23.9878" stroke="#E5E7EB"/>
<rect x="75.7407" y="143.541" width="23.9878" height="23.9878" stroke="#E5E7EB"/>
<rect x="267.645" y="143.541" width="23.9878" height="23.9878" stroke="#E5E7EB"/>
<rect x="291.632" y="143.541" width="23.9878" height="23.9878" stroke="#E5E7EB"/>
<rect x="315.62" y="143.541" width="23.9878" height="23.9878" stroke="#E5E7EB"/>
<rect x="27.7646" y="167.529" width="23.9878" height="23.9878" stroke="#E5E7EB"/>
<rect x="51.7527" y="167.529" width="23.9878" height="23.9878" stroke="#E5E7EB"/>
<rect x="75.7407" y="167.529" width="23.9878" height="23.9878" stroke="#E5E7EB"/>
<rect x="267.645" y="167.529" width="23.9878" height="23.9878" stroke="#E5E7EB"/>
<rect x="291.632" y="167.529" width="23.9878" height="23.9878" stroke="#E5E7EB"/>
<rect x="315.62" y="167.529" width="23.9878" height="23.9878" stroke="#E5E7EB"/>
<rect x="27.7646" y="191.517" width="23.9878" height="23.9878" stroke="#E5E7EB"/>
<rect x="51.7527" y="191.517" width="23.9878" height="23.9878" stroke="#E5E7EB"/>
<rect x="75.7407" y="191.517" width="23.9878" height="23.9878" stroke="#E5E7EB"/>
<rect x="267.645" y="191.517" width="23.9878" height="23.9878" stroke="#E5E7EB"/>
<rect x="291.632" y="191.517" width="23.9878" height="23.9878" stroke="#E5E7EB"/>
<rect x="315.62" y="191.517" width="23.9878" height="23.9878" stroke="#E5E7EB"/>
<rect x="27.7646" y="215.505" width="23.9878" height="23.9878" stroke="#E5E7EB"/>
<rect x="51.7527" y="215.505" width="23.9878" height="23.9878" stroke="#E5E7EB"/>
<rect x="75.7407" y="215.505" width="23.9878" height="23.9878" stroke="#E5E7EB"/>
<rect x="267.645" y="215.505" width="23.9878" height="23.9878" stroke="#E5E7EB"/>
<rect x="291.632" y="215.505" width="23.9878" height="23.9878" stroke="#E5E7EB"/>
<rect x="315.62" y="215.505" width="23.9878" height="23.9878" stroke="#E5E7EB"/>
<rect x="27.7646" y="239.493" width="23.9878" height="23.9878" stroke="#E5E7EB"/>
<rect x="51.7527" y="239.493" width="23.9878" height="23.9878" stroke="#E5E7EB"/>
<rect x="75.7407" y="239.493" width="23.9878" height="23.9878" stroke="#E5E7EB"/>
<rect x="267.645" y="239.493" width="23.9878" height="23.9878" stroke="#E5E7EB"/>
<rect x="291.632" y="239.493" width="23.9878" height="23.9878" stroke="#E5E7EB"/>
<rect x="315.62" y="239.493" width="23.9878" height="23.9878" stroke="#E5E7EB"/>
<rect x="27.7646" y="263.48" width="23.9878" height="23.9878" stroke="#E5E7EB"/>
<rect x="51.7527" y="263.48" width="23.9878" height="23.9878" stroke="#E5E7EB"/>
<rect x="75.7407" y="263.48" width="23.9878" height="23.9878" stroke="#E5E7EB"/>
<rect x="99.7285" y="263.48" width="23.9878" height="23.9878" stroke="#E5E7EB"/>
<rect x="123.717" y="263.48" width="23.9878" height="23.9878" stroke="#E5E7EB"/>
<rect x="147.705" y="263.48" width="23.9878" height="23.9878" stroke="#E5E7EB"/>
<rect x="171.693" y="263.48" width="23.9878" height="23.9878" stroke="#E5E7EB"/>
<rect x="195.68" y="263.48" width="23.9878" height="23.9878" stroke="#E5E7EB"/>
<rect x="219.668" y="263.48" width="23.9878" height="23.9878" stroke="#E5E7EB"/>
<rect x="243.656" y="263.48" width="23.9878" height="23.9878" stroke="#E5E7EB"/>
<rect x="267.645" y="263.48" width="23.9878" height="23.9878" stroke="#E5E7EB"/>
<rect x="291.632" y="263.48" width="23.9878" height="23.9878" stroke="#E5E7EB"/>
<rect x="315.62" y="263.48" width="23.9878" height="23.9878" stroke="#E5E7EB"/>
<rect x="27.7646" y="287.468" width="23.9878" height="23.9878" stroke="#E5E7EB"/>
<rect x="51.7527" y="287.468" width="23.9878" height="23.9878" stroke="#E5E7EB"/>
<rect x="75.7407" y="287.468" width="23.9878" height="23.9878" stroke="#E5E7EB"/>
<rect x="99.7285" y="287.468" width="23.9878" height="23.9878" stroke="#E5E7EB"/>
<rect x="123.717" y="287.468" width="23.9878" height="23.9878" stroke="#E5E7EB"/>
<rect x="147.705" y="287.468" width="23.9878" height="23.9878" stroke="#E5E7EB"/>
<rect x="171.693" y="287.468" width="23.9878" height="23.9878" stroke="#E5E7EB"/>
<rect x="195.68" y="287.468" width="23.9878" height="23.9878" stroke="#E5E7EB"/>
<rect x="219.668" y="287.468" width="23.9878" height="23.9878" stroke="#E5E7EB"/>
<rect x="243.656" y="287.468" width="23.9878" height="23.9878" stroke="#E5E7EB"/>
<rect x="267.645" y="287.468" width="23.9878" height="23.9878" stroke="#E5E7EB"/>
<rect x="291.632" y="287.468" width="23.9878" height="23.9878" stroke="#E5E7EB"/>
<rect x="315.62" y="287.468" width="23.9878" height="23.9878" stroke="#E5E7EB"/>
<rect x="27.7646" y="311.456" width="23.9878" height="23.9878" stroke="#E5E7EB"/>
<rect x="51.7527" y="311.456" width="23.9878" height="23.9878" stroke="#E5E7EB"/>
<rect x="75.7407" y="311.456" width="23.9878" height="23.9878" stroke="#E5E7EB"/>
<rect x="99.7285" y="311.456" width="23.9878" height="23.9878" stroke="#E5E7EB"/>
<rect x="123.717" y="311.456" width="23.9878" height="23.9878" stroke="#E5E7EB"/>
<rect x="147.705" y="311.456" width="23.9878" height="23.9878" stroke="#E5E7EB"/>
<rect x="171.693" y="311.456" width="23.9878" height="23.9878" stroke="#E5E7EB"/>
<rect x="195.68" y="311.456" width="23.9878" height="23.9878" stroke="#E5E7EB"/>
<rect x="219.668" y="311.456" width="23.9878" height="23.9878" stroke="#E5E7EB"/>
<rect x="243.656" y="311.456" width="23.9878" height="23.9878" stroke="#E5E7EB"/>
<rect x="267.645" y="311.456" width="23.9878" height="23.9878" stroke="#E5E7EB"/>
<rect x="291.632" y="311.456" width="23.9878" height="23.9878" stroke="#E5E7EB"/>
<rect x="315.62" y="311.456" width="23.9878" height="23.9878" stroke="#E5E7EB"/>
<circle cx="183.687" cy="167.628" r="11.9932" fill="white" stroke="#6B7078" stroke-width="2"/>
<path d="M183.686 179.398V215.505" stroke="#6B7078" stroke-width="2"/>
<path d="M243.656 119.554V69.5901C243.656 57.4398 233.806 47.5901 221.656 47.5901H145.716C133.566 47.5901 123.716 57.4398 123.716 69.5901V119.554" stroke="#6B7078" stroke-width="2"/>
<rect x="99.6338" y="119.553" width="168.01" height="143.927" stroke="#6B7078" stroke-width="2"/>
<path fill-rule="evenodd" clip-rule="evenodd" d="M279.639 143.541C312.759 143.541 339.608 116.692 339.608 83.5719C339.608 50.4516 312.759 23.6023 279.639 23.6023C246.518 23.6023 219.669 50.4516 219.669 83.5719C219.669 101.143 227.226 116.949 239.266 127.917L223.643 143.54H278.275L278.261 143.526C278.719 143.536 279.178 143.541 279.639 143.541Z" fill="white"/>
<path d="M239.266 127.917L239.974 128.624L240.714 127.883L239.94 127.178L239.266 127.917ZM223.643 143.54L222.936 142.833L221.229 144.54H223.643V143.54ZM278.275 143.54V144.54H280.689L278.983 142.833L278.275 143.54ZM278.261 143.526L278.283 142.526L275.791 142.47L277.554 144.233L278.261 143.526ZM338.608 83.5719C338.608 116.14 312.207 142.541 279.639 142.541V144.541C313.311 144.541 340.608 117.244 340.608 83.5719H338.608ZM279.639 24.6023C312.207 24.6023 338.608 51.0039 338.608 83.5719H340.608C340.608 49.8993 313.311 22.6023 279.639 22.6023V24.6023ZM220.669 83.5719C220.669 51.0039 247.071 24.6023 279.639 24.6023V22.6023C245.966 22.6023 218.669 49.8993 218.669 83.5719H220.669ZM239.94 127.178C228.098 116.391 220.669 100.85 220.669 83.5719H218.669C218.669 101.436 226.353 117.506 238.593 128.656L239.94 127.178ZM238.559 127.21L222.936 142.833L224.35 144.248L239.974 128.624L238.559 127.21ZM223.643 144.54H278.275V142.54H223.643V144.54ZM278.983 142.833L278.968 142.819L277.554 144.233L277.568 144.247L278.983 142.833ZM279.639 142.541C279.186 142.541 278.734 142.536 278.283 142.526L278.238 144.526C278.704 144.536 279.171 144.541 279.639 144.541V142.541Z" fill="#6B7078"/>
<rect x="272.142" y="53.196" width="14.9932" height="37.0471" fill="#6B7078"/>
<rect x="272.142" y="98.9551" width="14.9932" height="14.9926" fill="#6B7078"/>
<path fill-rule="evenodd" clip-rule="evenodd" d="M29.7644 239.493C28.6598 239.493 27.7644 240.388 27.7644 241.493V311.456H27.7645L27.7645 336.967L53.275 311.456H169.692C170.796 311.456 171.692 310.561 171.692 309.456V241.493C171.692 240.388 170.796 239.493 169.692 239.493H29.7644Z" fill="white"/>
<path d="M27.7644 311.456H26.7644V312.456H27.7644V311.456ZM27.7645 311.456H28.7645L28.7645 310.456H27.7645V311.456ZM27.7645 336.967H26.7645L26.7645 339.381L28.4716 337.674L27.7645 336.967ZM53.275 311.456V310.456H52.8608L52.5679 310.749L53.275 311.456ZM28.7644 241.493C28.7644 240.94 29.2121 240.493 29.7644 240.493V238.493C28.1076 238.493 26.7644 239.836 26.7644 241.493H28.7644ZM28.7644 311.456V241.493H26.7644V311.456H28.7644ZM27.7645 310.456H27.7644V312.456H27.7645V310.456ZM28.7645 336.967L28.7645 311.456H26.7645L26.7645 336.967H28.7645ZM52.5679 310.749L27.0574 336.259L28.4716 337.674L53.9821 312.163L52.5679 310.749ZM169.692 310.456H53.275V312.456H169.692V310.456ZM170.692 309.456C170.692 310.008 170.244 310.456 169.692 310.456V312.456C171.349 312.456 172.692 311.113 172.692 309.456H170.692ZM170.692 241.493V309.456H172.692V241.493H170.692ZM169.692 240.493C170.244 240.493 170.692 240.94 170.692 241.493H172.692C172.692 239.836 171.349 238.493 169.692 238.493V240.493ZM29.7644 240.493H169.692V238.493H29.7644V240.493Z" fill="#6B7078"/>
<path d="M61.6218 266.726V284.222" stroke="#6B7078" stroke-width="2" stroke-linecap="square"/>
<path d="M52.8738 275.474L70.3701 275.474" stroke="#6B7078" stroke-width="2" stroke-linecap="square"/>
<path d="M55.4358 269.289L67.8076 281.66" stroke="#6B7078" stroke-width="2" stroke-linecap="square"/>
<path d="M55.4363 281.66L67.8081 269.288" stroke="#6B7078" stroke-width="2" stroke-linecap="square"/>
<path d="M87.0261 266.726V284.222" stroke="#6B7078" stroke-width="2" stroke-linecap="square"/>
<path d="M78.2781 275.474L95.7744 275.474" stroke="#6B7078" stroke-width="2" stroke-linecap="square"/>
<path d="M80.8401 269.289L93.2119 281.66" stroke="#6B7078" stroke-width="2" stroke-linecap="square"/>
<path d="M80.8406 281.66L93.2124 269.288" stroke="#6B7078" stroke-width="2" stroke-linecap="square"/>
<path d="M112.43 266.726V284.222" stroke="#6B7078" stroke-width="2" stroke-linecap="square"/>
<path d="M103.682 275.474L121.179 275.474" stroke="#6B7078" stroke-width="2" stroke-linecap="square"/>
<path d="M106.244 269.289L118.616 281.66" stroke="#6B7078" stroke-width="2" stroke-linecap="square"/>
<path d="M106.245 281.66L118.617 269.288" stroke="#6B7078" stroke-width="2" stroke-linecap="square"/>
<path d="M137.835 266.726V284.222" stroke="#6B7078" stroke-width="2" stroke-linecap="square"/>
<path d="M129.087 275.474L146.583 275.474" stroke="#6B7078" stroke-width="2" stroke-linecap="square"/>
<path d="M131.649 269.289L144.02 281.66" stroke="#6B7078" stroke-width="2" stroke-linecap="square"/>
<path d="M131.649 281.66L144.021 269.288" stroke="#6B7078" stroke-width="2" stroke-linecap="square"/>
</svg>
