<svg width="559" height="560" viewBox="0 0 559 560" fill="none" xmlns="http://www.w3.org/2000/svg">
<g clip-path="url(#clip0_454_209454)">
<rect width="558.251" height="558.251" transform="translate(0.375 0.874512)" fill="white"/>
<mask id="path-1-inside-1_454_209454" fill="white">
<path fill-rule="evenodd" clip-rule="evenodd" d="M429.325 73.1706V40.8779H429.364H461.657H526.206L558.496 40.8779L558.498 40.8779V170.047H558.504L558.504 202.339H526.254L526.254 266.888H558.501L558.501 299.222H558.625V323.831L518.321 364.662L558.468 405.302L558.468 429.816H558.046L558.046 460.534H485.108L558.046 533.192L558.046 557.412H533.733L493.394 517.111L453.242 557.257H429.023V557.225H397.082V557.265H364.79V557.225H332.454V557.265H300.197V557.225H300.159V524.932H300.197V460.384V453.081L252.744 500.646V557.253H219.888V500.151L172.091 452.558L172.091 556.998H43.233V524.784H74.7742L74.7742 460.41H42.7194V428.117H171.89V428.14H171.897V428.092H196.116L236.538 468.597L276.691 428.093H300.197V428.092H429.451V405.86L429.454 405.857V299.401H429.33V266.888H429.369V202.339V171.059H429.364V137.802H429.325V105.509H429.364V73.1706H429.325ZM139.876 460.41L139.876 524.784H106.989V460.41H139.876ZM332.454 460.384H364.79L364.79 524.932H332.454V460.384ZM397.082 460.384L397.082 524.932H429.589V532.475L469.291 493.03L429.591 453.367V460.384H397.082ZM461.626 202.339H493.962L493.962 266.888H461.626L461.626 202.339ZM461.657 170.047H526.206V137.802L461.657 137.802V170.047ZM461.657 73.1706L526.206 73.1706V105.509L461.657 105.509V73.1706ZM171.326 65.3166V41.0971L195.546 41.0971L235.802 81.6158L276.278 41.2582L300.5 41.2593V65.1705L300.496 65.1737V170.106H300.497V202.435H300.459L300.459 266.984V299.277H171.326V299.278H139.086V299.28H106.793V299.278H74.4494V299.28H41.9231V170.109H42.1935V170.107H169.821V170.106H171.326V145.904L211.676 105.672L171.326 65.3166ZM74.4493 202.4H106.793L106.793 266.949H74.4494L74.4493 202.4ZM139.086 202.4V266.949H171.326V266.984H203.573V202.435H169.821V202.4H139.086ZM268.202 266.984H235.866V202.435H268.202L268.202 266.984ZM268.202 170.106H235.866V170.104H203.573V170.106H195.562L268.204 97.4659V170.104H268.202V170.106ZM461.747 299.401H534.23L461.747 373.046V299.401ZM532.703 428.241H455.563L494.24 389.058L532.703 428.241Z"/>
</mask>
<path fill-rule="evenodd" clip-rule="evenodd" d="M429.325 73.1706V40.8779H429.364H461.657H526.206L558.496 40.8779L558.498 40.8779V170.047H558.504L558.504 202.339H526.254L526.254 266.888H558.501L558.501 299.222H558.625V323.831L518.321 364.662L558.468 405.302L558.468 429.816H558.046L558.046 460.534H485.108L558.046 533.192L558.046 557.412H533.733L493.394 517.111L453.242 557.257H429.023V557.225H397.082V557.265H364.79V557.225H332.454V557.265H300.197V557.225H300.159V524.932H300.197V460.384V453.081L252.744 500.646V557.253H219.888V500.151L172.091 452.558L172.091 556.998H43.233V524.784H74.7742L74.7742 460.41H42.7194V428.117H171.89V428.14H171.897V428.092H196.116L236.538 468.597L276.691 428.093H300.197V428.092H429.451V405.86L429.454 405.857V299.401H429.33V266.888H429.369V202.339V171.059H429.364V137.802H429.325V105.509H429.364V73.1706H429.325ZM139.876 460.41L139.876 524.784H106.989V460.41H139.876ZM332.454 460.384H364.79L364.79 524.932H332.454V460.384ZM397.082 460.384L397.082 524.932H429.589V532.475L469.291 493.03L429.591 453.367V460.384H397.082ZM461.626 202.339H493.962L493.962 266.888H461.626L461.626 202.339ZM461.657 170.047H526.206V137.802L461.657 137.802V170.047ZM461.657 73.1706L526.206 73.1706V105.509L461.657 105.509V73.1706ZM171.326 65.3166V41.0971L195.546 41.0971L235.802 81.6158L276.278 41.2582L300.5 41.2593V65.1705L300.496 65.1737V170.106H300.497V202.435H300.459L300.459 266.984V299.277H171.326V299.278H139.086V299.28H106.793V299.278H74.4494V299.28H41.9231V170.109H42.1935V170.107H169.821V170.106H171.326V145.904L211.676 105.672L171.326 65.3166ZM74.4493 202.4H106.793L106.793 266.949H74.4494L74.4493 202.4ZM139.086 202.4V266.949H171.326V266.984H203.573V202.435H169.821V202.4H139.086ZM268.202 266.984H235.866V202.435H268.202L268.202 266.984ZM268.202 170.106H235.866V170.104H203.573V170.106H195.562L268.204 97.4659V170.104H268.202V170.106ZM461.747 299.401H534.23L461.747 373.046V299.401ZM532.703 428.241H455.563L494.24 389.058L532.703 428.241Z" fill="white"/>
<path d="M429.325 40.8779H428.325V39.8779H429.325V40.8779ZM429.325 73.1706V74.1706H428.325V73.1706H429.325ZM526.206 40.8779V41.8779V40.8779ZM558.496 40.8779L558.496 39.8779L558.498 39.8779L558.496 40.8779ZM558.498 40.8779L558.501 39.8779L559.498 39.8803V40.8779H558.498ZM558.498 170.047V171.047H557.498V170.047H558.498ZM558.504 170.047V169.047H559.504V170.047H558.504ZM558.504 202.339H559.504L559.504 203.339H558.504V202.339ZM526.254 202.339H525.254V201.339H526.254V202.339ZM526.254 266.888V267.888H525.254V266.888H526.254ZM558.501 266.888V265.888H559.501L559.501 266.888H558.501ZM558.501 299.222V300.222H557.501L557.501 299.222H558.501ZM558.625 299.222V298.222H559.625V299.222H558.625ZM558.625 323.831H559.625V324.241L559.337 324.533L558.625 323.831ZM518.321 364.662L517.61 365.365L516.916 364.662L517.609 363.959L518.321 364.662ZM558.468 405.302L559.18 404.6L559.468 404.892L559.468 405.302H558.468ZM558.468 429.816H559.468L559.468 430.816H558.468V429.816ZM558.046 429.816H557.046V428.816H558.046V429.816ZM558.046 460.534H559.046L559.046 461.534H558.046V460.534ZM485.108 460.534L484.402 461.242L482.687 459.534H485.108V460.534ZM558.046 533.192L558.751 532.484L559.046 532.777L559.046 533.192H558.046ZM558.046 557.412H559.046L559.046 558.412H558.046V557.412ZM533.733 557.412V558.412H533.319L533.026 558.119L533.733 557.412ZM493.394 517.111L492.687 516.403L493.394 515.697L494.101 516.403L493.394 517.111ZM453.242 557.257L453.949 557.964L453.656 558.257H453.242V557.257ZM429.023 557.257V558.257H428.023V557.257H429.023ZM429.023 557.225V556.225H430.023V557.225H429.023ZM397.082 557.225H396.082V556.225H397.082V557.225ZM397.082 557.265H398.082V558.265H397.082V557.265ZM364.79 557.265V558.265H363.79V557.265H364.79ZM364.79 557.225V556.225H365.79V557.225H364.79ZM332.454 557.225H331.454V556.225H332.454V557.225ZM332.454 557.265H333.454V558.265H332.454V557.265ZM300.197 557.265V558.265H299.197V557.265H300.197ZM300.197 557.225V556.225H301.197V557.225H300.197ZM300.159 557.225V558.225H299.159V557.225H300.159ZM300.159 524.932H299.159V523.932H300.159V524.932ZM300.197 524.932H301.197V525.932H300.197V524.932ZM300.197 453.081L299.489 452.375L301.197 450.663V453.081H300.197ZM252.744 500.646H251.744V500.232L252.036 499.939L252.744 500.646ZM252.744 557.253H253.744V558.253H252.744V557.253ZM219.888 557.253V558.253H218.888V557.253H219.888ZM219.888 500.151L220.594 499.443L220.888 499.736V500.151H219.888ZM172.091 452.558H171.091V450.151L172.796 451.849L172.091 452.558ZM172.091 556.998H173.091V557.998H172.091V556.998ZM43.233 556.998V557.998H42.233V556.998H43.233ZM43.233 524.784H42.233V523.784H43.233V524.784ZM74.7742 524.784H75.7742V525.784H74.7742V524.784ZM74.7742 460.41V459.41H75.7742V460.41H74.7742ZM42.7194 460.41V461.41H41.7194V460.41H42.7194ZM42.7194 428.117H41.7194V427.117H42.7194V428.117ZM171.89 428.117V427.117H172.89V428.117H171.89ZM171.89 428.14V429.14H170.89V428.14H171.89ZM171.897 428.14H172.897V429.14H171.897V428.14ZM171.897 428.092H170.897V427.092H171.897V428.092ZM196.116 428.092V427.092H196.531L196.824 427.385L196.116 428.092ZM236.538 468.597L237.248 469.301L236.54 470.015L235.83 469.303L236.538 468.597ZM276.691 428.093L275.981 427.389L276.274 427.093H276.691V428.093ZM300.197 428.093H301.197V429.093H300.197V428.093ZM300.197 428.092H299.197V427.092H300.197V428.092ZM429.451 428.092H430.451V429.092H429.451V428.092ZM429.451 405.86H428.451V405.45L428.739 405.158L429.451 405.86ZM429.454 405.857H430.454V406.267L430.166 406.559L429.454 405.857ZM429.454 299.401V298.401H430.454V299.401H429.454ZM429.33 299.401V300.401H428.33V299.401H429.33ZM429.33 266.888H428.33V265.888H429.33V266.888ZM429.369 266.888H430.369V267.888H429.369V266.888ZM429.369 171.059V170.059H430.369V171.059H429.369ZM429.364 171.059V172.059H428.364V171.059H429.364ZM429.364 137.802V136.802H430.364V137.802H429.364ZM429.325 137.802V138.802H428.325V137.802H429.325ZM429.325 105.509H428.325V104.509H429.325V105.509ZM429.364 105.509H430.364V106.509H429.364V105.509ZM429.364 73.1706V72.1706H430.364V73.1706H429.364ZM139.876 460.41V459.41H140.876V460.41H139.876ZM139.876 524.784H140.876V525.784H139.876V524.784ZM106.989 524.784V525.784H105.989V524.784H106.989ZM106.989 460.41H105.989V459.41H106.989V460.41ZM364.79 460.384V459.384H365.79V460.384H364.79ZM332.454 460.384H331.454V459.384H332.454V460.384ZM364.79 524.932H365.79V525.932H364.79V524.932ZM332.454 524.932V525.932H331.454V524.932H332.454ZM397.082 524.932V525.932H396.082V524.932H397.082ZM397.082 460.384H396.082V459.384H397.082V460.384ZM429.589 524.932V523.932H430.589V524.932H429.589ZM429.589 532.475L430.293 533.184L428.589 534.878V532.475H429.589ZM469.291 493.03L469.998 492.322L470.708 493.032L469.996 493.739L469.291 493.03ZM429.591 453.367H428.591V450.954L430.298 452.659L429.591 453.367ZM429.591 460.384H430.591V461.384H429.591V460.384ZM493.962 202.339V201.339H494.962V202.339H493.962ZM461.626 202.339H460.626V201.339H461.626V202.339ZM493.962 266.888H494.962V267.888H493.962V266.888ZM461.626 266.888V267.888H460.626V266.888H461.626ZM526.206 170.047H527.206V171.047H526.206V170.047ZM461.657 170.047V171.047H460.657V170.047H461.657ZM526.206 137.802V136.802H527.206V137.802H526.206ZM461.657 137.802H460.657V136.802H461.657V137.802ZM526.206 73.1706V72.1706H527.206V73.1706H526.206ZM461.657 73.1706H460.657V72.1706H461.657V73.1706ZM526.206 105.509H527.206V106.509H526.206V105.509ZM461.657 105.509V106.509H460.657V105.509H461.657ZM171.326 41.0971H170.326V40.0971L171.326 40.0971V41.0971ZM171.326 65.3166L170.619 66.0236L170.326 65.7308V65.3166H171.326ZM195.546 41.0971V40.0971H195.962L196.255 40.3923L195.546 41.0971ZM235.802 81.6158L236.508 82.3239L235.799 83.0313L235.093 82.3206L235.802 81.6158ZM276.278 41.2582L275.572 40.55L275.865 40.2582L276.278 40.2582L276.278 41.2582ZM300.5 41.2593L300.5 40.2593L301.5 40.2593V41.2593H300.5ZM300.5 65.1705H301.5V65.5847L301.207 65.8776L300.5 65.1705ZM300.496 65.1737H299.496V64.7595L299.789 64.4666L300.496 65.1737ZM300.496 170.106V171.106H299.496V170.106H300.496ZM300.497 170.106V169.106H301.497V170.106H300.497ZM300.497 202.435H301.497V203.435H300.497V202.435ZM300.459 202.435H299.459V201.435H300.459V202.435ZM300.459 266.984H301.459H300.459ZM300.459 299.277H301.459V300.277H300.459V299.277ZM171.326 299.277H170.326V298.277H171.326V299.277ZM171.326 299.278H172.326V300.278H171.326V299.278ZM139.086 299.278H138.086V298.278H139.086V299.278ZM139.086 299.28H140.086V300.28H139.086V299.28ZM106.793 299.28V300.28H105.793V299.28H106.793ZM106.793 299.278V298.278H107.793V299.278H106.793ZM74.4494 299.278H73.4494V298.278H74.4494V299.278ZM74.4494 299.28H75.4494V300.28H74.4494V299.28ZM41.9231 299.28V300.28H40.9231V299.28H41.9231ZM41.9231 170.109H40.9231V169.109H41.9231V170.109ZM42.1935 170.109H43.1935V171.109H42.1935V170.109ZM42.1935 170.107H41.1935V169.107H42.1935V170.107ZM169.821 170.107H170.821V171.107H169.821V170.107ZM169.821 170.106H168.821V169.106H169.821V170.106ZM171.326 170.106H172.326V171.106H171.326V170.106ZM171.326 145.904H170.326V145.489L170.62 145.196L171.326 145.904ZM211.676 105.672L212.383 104.965L213.091 105.673L212.382 106.38L211.676 105.672ZM106.793 202.4V201.4H107.793V202.4H106.793ZM74.4493 202.4H73.4493V201.4H74.4493V202.4ZM106.793 266.949H107.793V267.949H106.793V266.949ZM74.4494 266.949V267.949H73.4494V266.949H74.4494ZM139.086 266.949V267.949H138.086V266.949H139.086ZM139.086 202.4H138.086V201.4H139.086V202.4ZM171.326 266.949V265.949H172.326V266.949H171.326ZM171.326 266.984V267.984H170.326V266.984H171.326ZM203.573 266.984H204.573V267.984H203.573V266.984ZM203.573 202.435V201.435H204.573V202.435H203.573ZM169.821 202.435V203.435H168.821V202.435H169.821ZM169.821 202.4V201.4H170.821V202.4H169.821ZM235.866 266.984V267.984H234.866V266.984H235.866ZM268.202 266.984H269.202V267.984H268.202V266.984ZM235.866 202.435H234.866V201.435H235.866V202.435ZM268.202 202.435V201.435H269.202V202.435H268.202ZM235.866 170.106V171.106H234.866V170.106H235.866ZM268.202 170.106H269.202V171.106H268.202V170.106ZM235.866 170.104V169.104H236.866V170.104H235.866ZM203.573 170.104H202.573V169.104H203.573V170.104ZM203.573 170.106H204.573V171.106H203.573V170.106ZM195.562 170.106V171.106H193.148L194.855 169.399L195.562 170.106ZM268.204 97.4659L267.497 96.7588L269.204 95.0517V97.4659H268.204ZM268.204 170.104H269.204V171.104H268.204V170.104ZM268.202 170.104H267.202V169.104H268.202V170.104ZM534.23 299.401V298.401H536.617L534.943 300.102L534.23 299.401ZM461.747 299.401H460.747V298.401H461.747V299.401ZM461.747 373.046L462.46 373.748L460.747 375.488V373.046H461.747ZM455.563 428.241V429.241H453.171L454.851 427.539L455.563 428.241ZM532.703 428.241L533.416 427.541L535.086 429.241H532.703V428.241ZM494.24 389.058L493.529 388.355L494.242 387.632L494.954 388.357L494.24 389.058ZM430.325 40.8779V73.1706H428.325V40.8779H430.325ZM429.364 41.8779H429.325V39.8779H429.364V41.8779ZM461.657 41.8779H429.364V39.8779H461.657V41.8779ZM526.206 41.8779H461.657V39.8779H526.206V41.8779ZM558.496 41.8779L526.206 41.8779V39.8779L558.496 39.8779L558.496 41.8779ZM558.496 41.8779L558.494 41.8779L558.498 39.8779L558.501 39.8779L558.496 41.8779ZM557.498 170.047V40.8779H559.498V170.047H557.498ZM558.504 171.047H558.498V169.047H558.504V171.047ZM557.504 202.339L557.504 170.047H559.504L559.504 202.339H557.504ZM526.254 201.339H558.504V203.339H526.254V201.339ZM525.254 266.888L525.254 202.339H527.254L527.254 266.888H525.254ZM558.501 267.888H526.254V265.888H558.501V267.888ZM557.501 299.222L557.501 266.888H559.501L559.501 299.222H557.501ZM558.625 300.222H558.501V298.222H558.625V300.222ZM557.625 323.831V299.222H559.625V323.831H557.625ZM517.609 363.959L557.913 323.128L559.337 324.533L519.033 365.364L517.609 363.959ZM557.757 406.005L517.61 365.365L519.033 363.959L559.18 404.6L557.757 406.005ZM557.468 429.816L557.468 405.302H559.468L559.468 429.816H557.468ZM558.046 428.816H558.468V430.816H558.046V428.816ZM557.046 460.534L557.046 429.816H559.046L559.046 460.534H557.046ZM485.108 459.534H558.046V461.534H485.108V459.534ZM557.34 533.901L484.402 461.242L485.814 459.825L558.751 532.484L557.34 533.901ZM557.046 557.412L557.046 533.192H559.046L559.046 557.412H557.046ZM533.733 556.412H558.046V558.412H533.733V556.412ZM494.101 516.403L534.439 556.704L533.026 558.119L492.687 517.818L494.101 516.403ZM452.535 556.55L492.687 516.403L494.101 517.818L453.949 557.964L452.535 556.55ZM429.023 556.257H453.242V558.257H429.023V556.257ZM430.023 557.225V557.257H428.023V557.225H430.023ZM397.082 556.225H429.023V558.225H397.082V556.225ZM396.082 557.265V557.225H398.082V557.265H396.082ZM364.79 556.265H397.082V558.265H364.79V556.265ZM365.79 557.225V557.265H363.79V557.225H365.79ZM332.454 556.225H364.79V558.225H332.454V556.225ZM331.454 557.265V557.225H333.454V557.265H331.454ZM300.197 556.265H332.454V558.265H300.197V556.265ZM301.197 557.225V557.265H299.197V557.225H301.197ZM300.159 556.225H300.197V558.225H300.159V556.225ZM301.159 524.932V557.225H299.159V524.932H301.159ZM300.197 525.932H300.159V523.932H300.197V525.932ZM301.197 460.384V524.932H299.197V460.384H301.197ZM301.197 453.081V460.384H299.197V453.081H301.197ZM252.036 499.939L299.489 452.375L300.905 453.787L253.452 501.352L252.036 499.939ZM251.744 557.253V500.646H253.744V557.253H251.744ZM219.888 556.253H252.744V558.253H219.888V556.253ZM220.888 500.151V557.253H218.888V500.151H220.888ZM172.796 451.849L220.594 499.443L219.183 500.86L171.385 453.266L172.796 451.849ZM171.091 556.998L171.091 452.558H173.091L173.091 556.998H171.091ZM172.091 557.998H43.233V555.998H172.091V557.998ZM42.233 556.998V524.784H44.233V556.998H42.233ZM43.233 523.784H74.7742V525.784H43.233V523.784ZM73.7742 524.784L73.7742 460.41H75.7742L75.7742 524.784H73.7742ZM74.7742 461.41H42.7194V459.41H74.7742V461.41ZM41.7194 460.41V428.117H43.7194V460.41H41.7194ZM42.7194 427.117H171.89V429.117H42.7194V427.117ZM172.89 428.117V428.14H170.89V428.117H172.89ZM171.897 429.14H171.89V427.14H171.897V429.14ZM172.897 428.092V428.14H170.897V428.092H172.897ZM196.116 429.092H171.897V427.092H196.116V429.092ZM235.83 469.303L195.408 428.798L196.824 427.385L237.246 467.89L235.83 469.303ZM277.401 428.797L237.248 469.301L235.828 467.893L275.981 427.389L277.401 428.797ZM300.197 429.093H276.691V427.093H300.197V429.093ZM301.197 428.092V428.093H299.197V428.092H301.197ZM429.451 429.092H300.197V427.092H429.451V429.092ZM430.451 405.86V428.092H428.451V405.86H430.451ZM430.166 406.559L430.163 406.562L428.739 405.158L428.742 405.155L430.166 406.559ZM430.454 299.401V405.857H428.454V299.401H430.454ZM429.33 298.401H429.454V300.401H429.33V298.401ZM430.33 266.888V299.401H428.33V266.888H430.33ZM429.369 267.888H429.33V265.888H429.369V267.888ZM430.369 202.339V266.888H428.369V202.339H430.369ZM430.369 171.059V202.339H428.369V171.059H430.369ZM429.364 170.059H429.369V172.059H429.364V170.059ZM430.364 137.802V171.059H428.364V137.802H430.364ZM429.325 136.802H429.364V138.802H429.325V136.802ZM430.325 105.509V137.802H428.325V105.509H430.325ZM429.364 106.509H429.325V104.509H429.364V106.509ZM430.364 73.1706V105.509H428.364V73.1706H430.364ZM429.325 72.1706H429.364V74.1706H429.325V72.1706ZM140.876 460.41L140.876 524.784H138.876L138.876 460.41H140.876ZM106.989 523.784H139.876V525.784H106.989V523.784ZM107.989 460.41V524.784H105.989V460.41H107.989ZM139.876 461.41H106.989V459.41H139.876V461.41ZM364.79 461.384H332.454V459.384H364.79V461.384ZM363.79 524.932L363.79 460.384H365.79L365.79 524.932H363.79ZM332.454 523.932H364.79V525.932H332.454V523.932ZM333.454 460.384V524.932H331.454V460.384H333.454ZM396.082 524.932L396.082 460.384H398.082L398.082 524.932H396.082ZM429.589 525.932H397.082V523.932H429.589V525.932ZM428.589 532.475V524.932H430.589V532.475H428.589ZM469.996 493.739L430.293 533.184L428.884 531.766L468.586 492.32L469.996 493.739ZM430.298 452.659L469.998 492.322L468.584 493.737L428.885 454.074L430.298 452.659ZM428.591 460.384V453.367H430.591V460.384H428.591ZM397.082 459.384H429.591V461.384H397.082V459.384ZM493.962 203.339H461.626V201.339H493.962V203.339ZM492.962 266.888L492.962 202.339H494.962L494.962 266.888H492.962ZM461.626 265.888H493.962V267.888H461.626V265.888ZM462.626 202.339L462.626 266.888H460.626L460.626 202.339H462.626ZM526.206 171.047H461.657V169.047H526.206V171.047ZM527.206 137.802V170.047H525.206V137.802H527.206ZM461.657 136.802L526.206 136.802V138.802L461.657 138.802V136.802ZM460.657 170.047V137.802H462.657V170.047H460.657ZM526.206 74.1706L461.657 74.1706V72.1706L526.206 72.1706V74.1706ZM525.206 105.509V73.1706H527.206V105.509H525.206ZM461.657 104.509L526.206 104.509V106.509L461.657 106.509V104.509ZM462.657 73.1706V105.509H460.657V73.1706H462.657ZM172.326 41.0971V65.3166H170.326V41.0971H172.326ZM195.546 42.0971L171.326 42.0971V40.0971L195.546 40.0971V42.0971ZM235.093 82.3206L194.837 41.8019L196.255 40.3923L236.512 80.911L235.093 82.3206ZM276.984 41.9663L236.508 82.3239L235.096 80.9077L275.572 40.55L276.984 41.9663ZM300.5 42.2593L276.278 42.2582L276.278 40.2582L300.5 40.2593L300.5 42.2593ZM299.5 65.1705V41.2593H301.5V65.1705H299.5ZM299.789 64.4666L299.792 64.4634L301.207 65.8776L301.203 65.8808L299.789 64.4666ZM299.496 170.106V65.1737H301.496V170.106H299.496ZM300.497 171.106H300.496V169.106H300.497V171.106ZM299.497 202.435V170.106H301.497V202.435H299.497ZM300.459 201.435H300.497V203.435H300.459V201.435ZM299.459 266.984L299.459 202.435H301.459L301.459 266.984H299.459ZM299.459 299.277V266.984H301.459V299.277H299.459ZM171.326 298.277H300.459V300.277H171.326V298.277ZM170.326 299.278V299.277H172.326V299.278H170.326ZM139.086 298.278H171.326V300.278H139.086V298.278ZM138.086 299.28V299.278H140.086V299.28H138.086ZM106.793 298.28H139.086V300.28H106.793V298.28ZM107.793 299.278V299.28H105.793V299.278H107.793ZM74.4494 298.278H106.793V300.278H74.4494V298.278ZM73.4494 299.28V299.278H75.4494V299.28H73.4494ZM41.9231 298.28H74.4494V300.28H41.9231V298.28ZM42.9231 170.109V299.28H40.9231V170.109H42.9231ZM42.1935 171.109H41.9231V169.109H42.1935V171.109ZM43.1935 170.107V170.109H41.1935V170.107H43.1935ZM169.821 171.107H42.1935V169.107H169.821V171.107ZM170.821 170.106V170.107H168.821V170.106H170.821ZM171.326 171.106H169.821V169.106H171.326V171.106ZM172.326 145.904V170.106H170.326V145.904H172.326ZM212.382 106.38L172.032 146.612L170.62 145.196L210.97 104.964L212.382 106.38ZM172.034 64.6095L212.383 104.965L210.969 106.379L170.619 66.0236L172.034 64.6095ZM106.793 203.4H74.4493V201.4H106.793V203.4ZM105.793 266.949L105.793 202.4H107.793L107.793 266.949H105.793ZM74.4494 265.949H106.793V267.949H74.4494V265.949ZM75.4493 202.4L75.4494 266.949H73.4494L73.4493 202.4H75.4493ZM138.086 266.949V202.4H140.086V266.949H138.086ZM171.326 267.949H139.086V265.949H171.326V267.949ZM170.326 266.984V266.949H172.326V266.984H170.326ZM203.573 267.984H171.326V265.984H203.573V267.984ZM204.573 202.435V266.984H202.573V202.435H204.573ZM169.821 201.435H203.573V203.435H169.821V201.435ZM170.821 202.4V202.435H168.821V202.4H170.821ZM139.086 201.4H169.821V203.4H139.086V201.4ZM235.866 265.984H268.202V267.984H235.866V265.984ZM236.866 202.435V266.984H234.866V202.435H236.866ZM268.202 203.435H235.866V201.435H268.202V203.435ZM267.202 266.984L267.202 202.435H269.202L269.202 266.984H267.202ZM235.866 169.106H268.202V171.106H235.866V169.106ZM236.866 170.104V170.106H234.866V170.104H236.866ZM203.573 169.104H235.866V171.104H203.573V169.104ZM202.573 170.106V170.104H204.573V170.106H202.573ZM195.562 169.106H203.573V171.106H195.562V169.106ZM268.911 98.173L196.269 170.814L194.855 169.399L267.497 96.7588L268.911 98.173ZM267.204 170.104V97.4659H269.204V170.104H267.204ZM268.202 169.104H268.204V171.104H268.202V169.104ZM267.202 170.106V170.104H269.202V170.106H267.202ZM534.23 300.401H461.747V298.401H534.23V300.401ZM461.034 372.345L533.517 298.699L534.943 300.102L462.46 373.748L461.034 372.345ZM462.747 299.401V373.046H460.747V299.401H462.747ZM455.563 427.241H532.703V429.241H455.563V427.241ZM494.952 389.76L456.274 428.944L454.851 427.539L493.529 388.355L494.952 389.76ZM531.989 428.942L493.527 389.758L494.954 388.357L533.416 427.541L531.989 428.942Z" fill="#B6B8BD" mask="url(#path-1-inside-1_454_209454)"/>
<path d="M212.791 427.693L212.791 421.505L157.01 398.543L146.037 402.855L146.037 427.693L212.791 427.693Z" fill="#F0FFFF" stroke="#07486B" stroke-width="2"/>
<path d="M176.721 213.729L161.452 213.729C152.963 213.729 146.081 221.018 146.081 230.01L146.05 404.497L176.686 404.523L176.721 213.729Z" fill="#61E9ED" stroke="#07486B" stroke-width="2" stroke-linejoin="round"/>
<path d="M46.2443 357.805L52.4567 357.781L70.6071 317.242L70.5053 290.956L45.9859 291.051L46.2443 357.805Z" fill="#F0FFFF" stroke="#07486B" stroke-width="2"/>
<path d="M180.97 195.087L164.459 199.03C153.205 201.718 145.266 211.777 145.266 223.347L145.268 290.004L70.3282 290.382L70.4464 322.832L170.772 322.322C176.412 322.294 180.97 317.713 180.97 312.073L180.97 195.087Z" fill="#01B8BF" stroke="#07486B" stroke-width="2" stroke-linejoin="round"/>
<path d="M234.043 118.291C231.511 112.672 224.903 110.171 219.285 112.703L219.073 112.798L227.441 131.364C228.702 134.16 231.99 135.405 234.786 134.145C237.725 132.82 239.034 129.363 237.709 126.424L234.043 118.291Z" fill="white"/>
<path d="M219.073 112.798L218.162 113.209L217.751 112.298L218.662 111.887L219.073 112.798ZM237.709 126.424L236.797 126.835L237.709 126.424ZM234.043 118.291L234.955 117.88L234.043 118.291ZM219.696 113.615L219.484 113.71L218.662 111.887L218.874 111.791L219.696 113.615ZM219.985 112.387L228.353 130.953L226.53 131.775L218.162 113.209L219.985 112.387ZM236.797 126.835L233.132 118.702L234.955 117.88L238.621 126.013L236.797 126.835ZM234.375 133.233C236.811 132.135 237.895 129.271 236.797 126.835L238.621 126.013C240.172 129.456 238.639 133.505 235.197 135.057L234.375 133.233ZM228.353 130.953C229.386 133.246 232.082 134.266 234.375 133.233L235.197 135.057C231.897 136.544 228.017 135.074 226.53 131.775L228.353 130.953ZM218.874 111.791C224.996 109.032 232.196 111.758 234.955 117.88L233.132 118.702C230.826 113.587 224.811 111.309 219.696 113.615L218.874 111.791Z" fill="#07486B"/>
<path d="M227.436 131.97C235.745 139.533 241.568 149.435 244.14 160.373C246.712 171.31 245.912 182.77 241.845 193.243C237.778 203.717 230.635 212.714 221.356 219.049C212.077 225.384 201.097 228.762 189.861 228.736C178.626 228.711 167.661 225.284 158.411 218.906C149.161 212.528 142.059 203.499 138.04 193.007C134.02 182.515 133.272 171.052 135.894 160.127C138.516 149.201 144.384 139.326 152.727 131.8L189.988 173.107L227.436 131.97Z" fill="#F0FFFF" stroke="#07486B" stroke-width="2"/>
<path d="M169.844 194.704L227.784 132.39" stroke="#07486B" stroke-width="2" stroke-linejoin="round"/>
<circle cx="466.818" cy="299.163" r="8.71541" fill="white" stroke="#161F4B" stroke-width="2"/>
<path d="M285.03 387.492L285.03 381.28L325.499 362.973L351.785 362.973L351.785 387.492L285.03 387.492Z" fill="#F0F2FA" stroke="#161F4B" stroke-width="2"/>
<path d="M432.743 254.597L432.804 268.556C432.848 278.527 424.776 286.634 414.804 286.634L352.38 286.634L352.36 363.148L322.909 363.155L322.946 259.912C322.947 257.013 325.297 254.664 328.196 254.664L415.518 254.664L432.743 254.597Z" fill="#425EE0" stroke="#161F4B" stroke-width="2" stroke-linejoin="round"/>
<path d="M362.46 459.479V453.291L418.241 430.329L429.214 434.641V459.479H362.46Z" fill="#F0F2FA" stroke="#161F4B" stroke-width="2"/>
<path d="M396.762 220.259L414.733 220.259C424.725 220.259 432.826 227.549 432.826 236.541L432.86 437.224L396.8 437.25L396.762 220.259Z" fill="#8A9DED" stroke="#161F4B" stroke-width="2" stroke-linejoin="round"/>
<ellipse cx="415.565" cy="143.806" rx="19.7871" ry="19.7768" transform="rotate(109.907 415.565 143.806)" fill="white" stroke="#161F4B" stroke-width="2"/>
<path d="M404.846 128.232L426.286 159.379" stroke="#161F4B" stroke-width="2"/>
<path d="M422.329 125.476C432.604 129.197 437.919 140.538 434.2 150.808C430.481 161.078 419.136 166.387 408.861 162.666C398.586 158.945 393.271 147.604 396.99 137.334C400.709 127.064 412.054 121.755 422.329 125.476Z" fill="white"/>
<path d="M404.322 127.819C406.458 126.338 408.864 125.292 411.403 124.741C413.942 124.19 416.565 124.144 419.121 124.606C421.677 125.068 424.117 126.029 426.302 127.435C428.486 128.84 430.372 130.661 431.852 132.796C433.332 134.93 434.377 137.335 434.927 139.873C435.477 142.412 435.521 145.034 435.058 147.59C434.594 150.146 433.632 152.586 432.225 154.771C430.819 156.956 428.996 158.842 426.861 160.323L404.322 127.819Z" fill="#161F4B"/>
<path d="M404.322 127.819L403.753 126.997L402.931 127.567L403.501 128.388L404.322 127.819ZM426.861 160.323L426.039 160.893L426.609 161.714L427.43 161.144L426.861 160.323ZM421.988 126.416C431.745 129.949 436.79 140.718 433.259 150.468L435.14 151.149C439.047 140.359 433.463 128.444 422.669 124.536L421.988 126.416ZM433.259 150.468C429.729 160.218 418.958 165.259 409.202 161.726L408.521 163.606C419.315 167.515 431.233 161.938 435.14 151.149L433.259 150.468ZM409.202 161.726C399.445 158.193 394.4 147.424 397.93 137.674L396.05 136.993C392.143 147.783 397.727 159.698 408.521 163.606L409.202 161.726ZM397.93 137.674C401.461 127.924 412.232 122.883 421.988 126.416L422.669 124.536C411.875 120.627 399.957 126.204 396.05 136.993L397.93 137.674ZM404.892 128.64C406.92 127.235 409.204 126.242 411.615 125.718L411.191 123.764C408.523 124.343 405.996 125.441 403.753 126.997L404.892 128.64ZM411.615 125.718C414.026 125.195 416.516 125.151 418.943 125.59L419.299 123.622C416.613 123.137 413.858 123.185 411.191 123.764L411.615 125.718ZM418.943 125.59C421.37 126.029 423.687 126.942 425.761 128.276L426.843 126.594C424.548 125.117 421.985 124.108 419.299 123.622L418.943 125.59ZM425.761 128.276C427.835 129.61 429.625 131.339 431.03 133.366L432.674 132.226C431.119 129.984 429.138 128.07 426.843 126.594L425.761 128.276ZM431.03 133.366C432.435 135.392 433.427 137.675 433.949 140.085L435.904 139.662C435.326 136.995 434.229 134.468 432.674 132.226L431.03 133.366ZM433.949 140.085C434.472 142.495 434.514 144.985 434.074 147.412L436.042 147.768C436.529 145.083 436.482 142.328 435.904 139.662L433.949 140.085ZM434.074 147.412C433.634 149.838 432.72 152.155 431.385 154.23L433.066 155.312C434.544 153.017 435.555 150.454 436.042 147.768L434.074 147.412ZM431.385 154.23C430.049 156.304 428.318 158.095 426.291 159.501L427.43 161.144C429.674 159.589 431.589 157.607 433.066 155.312L431.385 154.23ZM427.149 159.075L405.69 127.934L404.043 129.069L425.502 160.21L427.149 159.075ZM427.682 159.753L405.144 127.249L403.501 128.388L426.039 160.893L427.682 159.753Z" fill="#161F4B"/>
<path d="M339.168 129.652C341.479 125.316 346.159 122.783 351.053 123.22L354.387 123.517L346.925 142.529C345.546 146.041 341.413 147.567 338.083 145.792C334.85 144.069 333.626 140.051 335.349 136.817L339.168 129.652Z" fill="white"/>
<path d="M354.387 123.517L355.318 123.882L355.806 122.64L354.476 122.521L354.387 123.517ZM346.925 142.529L347.856 142.894L346.925 142.529ZM351.053 123.22L350.964 124.216L351.053 123.22ZM350.964 124.216L354.298 124.513L354.476 122.521L351.141 122.224L350.964 124.216ZM353.456 123.152L345.994 142.163L347.856 142.894L355.318 123.882L353.456 123.152ZM336.231 137.288L340.051 130.122L338.286 129.181L334.466 136.347L336.231 137.288ZM338.553 144.909C335.808 143.446 334.768 140.034 336.231 137.288L334.466 136.347C332.483 140.068 333.892 144.691 337.613 146.674L338.553 144.909ZM345.994 142.163C344.834 145.119 341.356 146.403 338.553 144.909L337.613 146.674C341.471 148.731 346.259 146.963 347.856 142.894L345.994 142.163ZM351.141 122.224C345.848 121.751 340.785 124.491 338.286 129.181L340.051 130.122C342.172 126.141 346.47 123.815 350.964 124.216L351.141 122.224Z" fill="#161F4B"/>
<path d="M346.64 145.1C336.961 148.61 328.572 154.968 322.577 163.338C316.582 171.707 313.262 181.696 313.054 191.989C312.845 202.282 315.759 212.397 321.41 221.003C327.062 229.608 335.187 236.3 344.715 240.199C354.244 244.097 364.73 245.019 374.792 242.843C384.855 240.666 394.023 235.494 401.089 228.006C408.155 220.519 412.788 211.067 414.379 200.896C415.969 190.724 414.443 180.309 410 171.022L364.017 193.021L346.64 145.1Z" fill="#F0F2FA" stroke="#161F4B" stroke-width="2"/>
<path d="M396.709 190.658C396.709 178.508 406.559 168.658 418.709 168.658H419.955L432.773 196.925C432.832 197.055 432.862 197.196 432.862 197.338V254.84H396.709V190.658Z" fill="#F0F2FA" stroke="#161F4B" stroke-width="2" stroke-linejoin="round"/>
<path d="M458.384 295.154C468.698 291.779 476.413 281.888 479.831 267.656C483.248 253.424 482.089 236.018 476.609 219.265C471.128 202.513 461.774 187.787 450.605 178.327C439.436 168.868 427.367 165.449 417.053 168.823L437.719 231.989L458.384 295.154Z" fill="#F0F2FA" stroke="#161F4B" stroke-width="2"/>
<ellipse rx="19.7871" ry="19.7768" transform="matrix(0.427343 0.90409 0.90409 -0.427343 161.477 108.403)" fill="white" stroke="#07486B"/>
<path d="M170.686 91.8899L152.268 124.914" stroke="#07486B"/>
<path d="M153.021 90.7893C143.141 95.4594 138.915 107.25 143.583 117.125C148.251 127 160.044 131.219 169.924 126.549C179.804 121.879 184.029 110.088 179.362 100.213C174.694 90.3386 162.901 86.1192 153.021 90.7893Z" fill="white"/>
<path d="M171.168 91.4295C168.902 90.1561 166.409 89.341 163.829 89.0309C161.249 88.7208 158.634 88.9216 156.133 89.622C153.631 90.3223 151.292 91.5085 149.249 93.1127C147.207 94.7169 145.5 96.7078 144.227 98.9717C142.955 101.236 142.141 103.728 141.831 106.307C141.522 108.886 141.724 111.501 142.426 114.002C143.128 116.503 144.315 118.842 145.921 120.885C147.526 122.928 149.519 124.634 151.784 125.908L171.168 91.4295Z" fill="#07486B"/>
<path d="M171.168 91.4295L171.658 90.5578L172.529 91.0479L172.039 91.9196L171.168 91.4295ZM151.784 125.908L152.655 126.398L152.165 127.27L151.294 126.779L151.784 125.908ZM153.448 91.6934C144.067 96.1276 140.056 107.323 144.487 116.698L142.679 117.553C137.775 107.178 142.215 94.7911 152.593 89.8852L153.448 91.6934ZM144.487 116.698C148.918 126.073 160.115 130.079 169.496 125.645L170.351 127.453C159.972 132.359 147.583 127.927 142.679 117.553L144.487 116.698ZM169.496 125.645C178.878 121.211 182.889 110.016 178.458 100.641L180.266 99.7861C185.17 110.161 180.73 122.547 170.351 127.453L169.496 125.645ZM178.458 100.641C174.026 91.2657 162.829 87.2591 153.448 91.6934L152.593 89.8852C162.972 84.9794 175.362 89.4115 180.266 99.7861L178.458 100.641ZM170.677 92.3012C168.527 91.0921 166.159 90.3182 163.71 90.0238L163.949 88.0381C166.659 88.3639 169.278 89.2201 171.658 90.5578L170.677 92.3012ZM163.71 90.0238C161.26 89.7293 158.777 89.92 156.402 90.5849L155.863 88.659C158.491 87.9232 161.238 87.7122 163.949 88.0381L163.71 90.0238ZM156.402 90.5849C154.027 91.2499 151.806 92.3761 149.867 93.8992L148.632 92.3262C150.778 90.6409 153.235 89.3947 155.863 88.659L156.402 90.5849ZM149.867 93.8992C147.928 95.4222 146.307 97.3124 145.099 99.4618L143.356 98.4816C144.693 96.1032 146.486 94.0116 148.632 92.3262L149.867 93.8992ZM145.099 99.4618C143.891 101.611 143.118 103.978 142.824 106.426L140.839 106.188C141.163 103.479 142.019 100.86 143.356 98.4816L145.099 99.4618ZM142.824 106.426C142.531 108.874 142.723 111.357 143.389 113.732L141.463 114.272C140.726 111.644 140.514 108.897 140.839 106.188L142.824 106.426ZM143.389 113.732C144.055 116.106 145.183 118.327 146.707 120.267L145.135 121.503C143.448 119.357 142.2 116.9 141.463 114.272L143.389 113.732ZM146.707 120.267C148.232 122.206 150.123 123.827 152.274 125.036L151.294 126.779C148.914 125.442 146.821 123.649 145.135 121.503L146.707 120.267ZM151.38 124.693L169.817 91.6726L171.563 92.6476L153.126 125.668L151.38 124.693ZM150.912 125.418L170.296 90.9395L172.039 91.9196L152.655 126.398L150.912 125.418Z" fill="#07486B"/>
</g>
<defs>
<clipPath id="clip0_454_209454">
<rect width="558.251" height="558.251" fill="white" transform="translate(0.375 0.874512)"/>
</clipPath>
</defs>
</svg>
