<svg width="559" height="560" viewBox="0 0 559 560" fill="none" xmlns="http://www.w3.org/2000/svg">
<rect width="558.251" height="558.251" transform="translate(0.375 0.875)" fill="white"/>
<path d="M299.115 297.951L299.115 291.739L339.584 273.432L365.87 273.432L365.87 297.951L299.115 297.951Z" fill="white" stroke="#161F4B" stroke-width="2"/>
<path d="M446.828 165.056L446.889 179.015C446.933 188.986 438.861 197.093 428.889 197.093L366.465 197.093L366.445 273.607L336.994 273.614L337.031 170.371C337.032 167.472 339.382 165.123 342.281 165.123L429.603 165.123L446.828 165.056Z" fill="#425EE0" stroke="#161F4B" stroke-width="2" stroke-linejoin="round"/>
<path d="M395.784 408.089L391.408 403.714L414.615 348.034L425.423 343.323L442.986 360.886L395.784 408.089Z" fill="white" stroke="#161F4B" stroke-width="2"/>
<path d="M410.847 130.718L428.818 130.718C438.81 130.718 446.911 138.007 446.911 146.999L446.945 347.683L410.885 347.709L410.847 130.718Z" fill="#667EE7" stroke="#161F4B" stroke-width="2" stroke-linejoin="round"/>
<ellipse cx="422.171" cy="51.5228" rx="19.7871" ry="19.7768" transform="rotate(93.6535 422.171 51.5228)" fill="white" stroke="#161F4B" stroke-width="2"/>
<path d="M407.521 39.5709L436.822 63.4723" stroke="#161F4B" stroke-width="2"/>
<path d="M423.534 32.0313C434.44 32.7276 442.717 42.1285 442.021 53.0287C441.325 63.9289 431.919 72.2008 421.014 71.5044C410.108 70.8081 401.831 61.4072 402.527 50.507C403.223 39.6068 412.628 31.3349 423.534 32.0313Z" fill="white"/>
<path d="M406.903 39.32C408.539 37.3009 410.556 35.6235 412.839 34.3837C415.123 33.1438 417.628 32.3658 420.211 32.094C422.795 31.8222 425.406 32.062 427.897 32.7996C430.387 33.5373 432.707 34.7583 434.725 36.3931C436.744 38.0279 438.42 40.0443 439.658 42.3273C440.897 44.6103 441.673 47.1152 441.944 49.6989C442.214 52.2826 441.973 54.8945 441.234 57.3855C440.495 59.8765 439.273 62.1979 437.638 64.217L406.903 39.32Z" fill="#161F4B"/>
<path d="M406.903 39.32L406.126 38.6905L405.497 39.4676L406.274 40.097L406.903 39.32ZM437.638 64.217L437.008 64.994L437.785 65.6235L438.415 64.8465L437.638 64.217ZM423.47 33.0292C433.825 33.6904 441.683 42.6164 441.023 52.965L443.019 53.0925C443.75 41.6406 435.054 31.7648 423.598 31.0333L423.47 33.0292ZM441.023 52.965C440.362 63.3136 431.432 71.1677 421.077 70.5065L420.95 72.5024C432.406 73.2339 442.287 64.5443 443.019 53.0925L441.023 52.965ZM421.077 70.5065C410.722 69.8453 402.864 60.9193 403.525 50.5707L401.529 50.4433C400.798 61.8951 409.493 71.7709 420.95 72.5024L421.077 70.5065ZM403.525 50.5707C404.186 40.2221 413.115 32.368 423.47 33.0292L423.598 31.0333C412.141 30.3018 402.26 38.9914 401.529 50.4433L403.525 50.5707ZM407.68 39.9494C409.233 38.0323 411.148 36.4397 413.316 35.2625L412.362 33.5049C409.963 34.8073 407.844 36.5694 406.126 38.6905L407.68 39.9494ZM413.316 35.2625C415.484 34.0853 417.863 33.3466 420.316 33.0885L420.106 31.0995C417.392 31.385 414.761 32.2024 412.362 33.5049L413.316 35.2625ZM420.316 33.0885C422.769 32.8305 425.248 33.0581 427.613 33.7585L428.181 31.8408C425.564 31.0659 422.821 30.814 420.106 31.0995L420.316 33.0885ZM427.613 33.7585C429.977 34.4588 432.18 35.6181 434.096 37.1701L435.355 35.6161C433.235 33.8986 430.797 32.6158 428.181 31.8408L427.613 33.7585ZM434.096 37.1701C436.012 38.7222 437.603 40.6366 438.779 42.8042L440.537 41.8505C439.236 39.452 437.475 37.3335 435.355 35.6161L434.096 37.1701ZM438.779 42.8042C439.955 44.9717 440.692 47.3499 440.949 49.803L442.938 49.5948C442.654 46.8805 441.838 44.249 440.537 41.8505L438.779 42.8042ZM440.949 49.803C441.206 52.2561 440.977 54.736 440.276 57.1012L442.193 57.6699C442.969 55.053 443.222 52.3091 442.938 49.5948L440.949 49.803ZM440.276 57.1012C439.574 59.4663 438.414 61.6704 436.861 63.5876L438.415 64.8465C440.133 62.7253 441.417 60.2867 442.193 57.6699L440.276 57.1012ZM437.565 62.9386L408.248 39.0477L406.985 40.5981L436.302 64.489L437.565 62.9386ZM438.267 63.44L407.533 38.543L406.274 40.097L437.008 64.994L438.267 63.44Z" fill="#161F4B"/>
<path d="M329.865 86.9952C327.154 94.9274 326.441 103.406 327.79 111.679C329.138 119.953 332.506 127.766 337.595 134.427C342.685 141.088 349.338 146.391 356.966 149.867C364.595 153.342 372.962 154.883 381.328 154.352C389.694 153.821 397.8 151.235 404.928 146.823C412.055 142.411 417.985 136.309 422.192 129.058C426.398 121.808 428.751 113.631 429.043 105.253C429.334 96.8759 427.555 88.5556 423.863 81.0297L378.1 103.48L329.865 86.9952Z" fill="white" stroke="#161F4B" stroke-width="2"/>
<path d="M410.794 101.117C410.794 88.9669 420.644 79.1172 432.794 79.1172H434.04L446.858 107.384C446.917 107.514 446.947 107.655 446.947 107.797V165.299H410.794V101.117Z" fill="white" stroke="#161F4B" stroke-width="2" stroke-linejoin="round"/>
<mask id="path-11-inside-1_454_208636" fill="white">
<path fill-rule="evenodd" clip-rule="evenodd" d="M195.665 28.282V4.0625L219.884 4.0625L260.141 44.5812L300.617 4.22359L324.838 4.22467V28.1359L324.835 28.1391V133.089H292.542V60.4313L219.884 133.089H195.664V108.869L236.014 68.6371L195.665 28.282ZM534.407 299.222H558.627V323.83L518.323 364.661L558.47 405.302L558.47 429.816H558.045L558.045 460.534H485.107L558.045 533.192L558.045 557.412H533.732L493.394 517.11L453.242 557.257H429.022V557.225H397.082V557.265H364.79V557.225H332.454V557.265H300.197V557.225H300.159V524.932H300.197V460.384V453.081L252.744 500.646V557.253H219.888V500.151L172.091 452.558L172.091 557H43.233V524.786H74.7742L74.7742 460.411H42.7194V428.119H171.89V428.142H171.897V428.092H196.116L236.538 468.597L276.691 428.093H299.904V404.274L340.663 364.265L299.564 323.697L299.565 299.476H323.86L323.864 299.479H429.456V299.222H461.749V373.046L534.407 299.222ZM139.876 460.411L139.876 524.786H106.989V460.411H139.876ZM332.454 460.384H364.79L364.79 524.932H332.454V460.384ZM397.082 460.384L397.082 524.932H429.589V532.475L469.291 493.03L429.591 453.367V460.384H397.082ZM324.824 428.092H405.324L365.059 388.346L324.824 428.092ZM455.564 428.241L494.242 389.057L532.705 428.241H455.564ZM356.674 331.772H429.456V403.405L356.674 331.772ZM428.446 153.046V153.047V185.339V249.888H428.408V282.4H557.579L557.579 249.888H525.332L525.332 185.339H557.582L557.582 153.046H428.446ZM460.704 249.888L460.704 185.339H493.039L493.039 249.888L460.704 249.888ZM300.459 299.276V266.983L300.459 202.435H300.497V170.106H300.459V170.104H268.202V170.106H235.866V170.104H203.573V170.106H169.821V170.107H42.1935V170.109H41.9231V299.28H74.4494V299.278H106.793V299.28H139.086V299.278H171.326V299.276H300.459ZM74.4494 266.949L74.4493 202.4H106.793L106.793 266.949H74.4494ZM169.821 202.4H139.086V266.949H171.326V266.983H203.573V202.435H169.821V202.4ZM268.202 202.435L268.202 266.983H235.866V202.435H268.202Z"/>
</mask>
<path fill-rule="evenodd" clip-rule="evenodd" d="M195.665 28.282V4.0625L219.884 4.0625L260.141 44.5812L300.617 4.22359L324.838 4.22467V28.1359L324.835 28.1391V133.089H292.542V60.4313L219.884 133.089H195.664V108.869L236.014 68.6371L195.665 28.282ZM534.407 299.222H558.627V323.83L518.323 364.661L558.47 405.302L558.47 429.816H558.045L558.045 460.534H485.107L558.045 533.192L558.045 557.412H533.732L493.394 517.11L453.242 557.257H429.022V557.225H397.082V557.265H364.79V557.225H332.454V557.265H300.197V557.225H300.159V524.932H300.197V460.384V453.081L252.744 500.646V557.253H219.888V500.151L172.091 452.558L172.091 557H43.233V524.786H74.7742L74.7742 460.411H42.7194V428.119H171.89V428.142H171.897V428.092H196.116L236.538 468.597L276.691 428.093H299.904V404.274L340.663 364.265L299.564 323.697L299.565 299.476H323.86L323.864 299.479H429.456V299.222H461.749V373.046L534.407 299.222ZM139.876 460.411L139.876 524.786H106.989V460.411H139.876ZM332.454 460.384H364.79L364.79 524.932H332.454V460.384ZM397.082 460.384L397.082 524.932H429.589V532.475L469.291 493.03L429.591 453.367V460.384H397.082ZM324.824 428.092H405.324L365.059 388.346L324.824 428.092ZM455.564 428.241L494.242 389.057L532.705 428.241H455.564ZM356.674 331.772H429.456V403.405L356.674 331.772ZM428.446 153.046V153.047V185.339V249.888H428.408V282.4H557.579L557.579 249.888H525.332L525.332 185.339H557.582L557.582 153.046H428.446ZM460.704 249.888L460.704 185.339H493.039L493.039 249.888L460.704 249.888ZM300.459 299.276V266.983L300.459 202.435H300.497V170.106H300.459V170.104H268.202V170.106H235.866V170.104H203.573V170.106H169.821V170.107H42.1935V170.109H41.9231V299.28H74.4494V299.278H106.793V299.28H139.086V299.278H171.326V299.276H300.459ZM74.4494 266.949L74.4493 202.4H106.793L106.793 266.949H74.4494ZM169.821 202.4H139.086V266.949H171.326V266.983H203.573V202.435H169.821V202.4ZM268.202 202.435L268.202 266.983H235.866V202.435H268.202Z" fill="#E5E7EB"/>
<path d="M195.665 4.0625H194.665V3.0625H195.665V4.0625ZM195.665 28.282L194.958 28.9891L194.665 28.6962V28.282H195.665ZM219.884 4.0625V3.0625H220.3L220.594 3.35769L219.884 4.0625ZM260.141 44.5812L260.847 45.2894L260.137 45.9967L259.431 45.286L260.141 44.5812ZM300.617 4.22359L299.911 3.51545L300.203 3.22358L300.617 3.22359L300.617 4.22359ZM324.838 4.22467L324.838 3.22467L325.838 3.22472V4.22467H324.838ZM324.838 28.1359H325.838V28.5501L325.545 28.843L324.838 28.1359ZM324.835 28.1391H323.835V27.7249L324.128 27.432L324.835 28.1391ZM324.835 133.089H325.835V134.089H324.835V133.089ZM292.542 133.089V134.089H291.542V133.089H292.542ZM292.542 60.4313L291.835 59.7242L293.542 58.0171V60.4313H292.542ZM219.884 133.089L220.591 133.796L220.298 134.089H219.884V133.089ZM195.664 133.089V134.089H194.664V133.089H195.664ZM195.664 108.869H194.664V108.454L194.958 108.161L195.664 108.869ZM236.014 68.6371L236.721 67.9301L237.429 68.6382L236.72 69.3453L236.014 68.6371ZM558.627 299.222V298.222H559.627V299.222H558.627ZM534.407 299.222L533.695 298.521L533.989 298.222H534.407V299.222ZM558.627 323.83H559.627V324.241L559.339 324.533L558.627 323.83ZM518.323 364.661L517.612 365.364L516.918 364.662L517.611 363.959L518.323 364.661ZM558.47 405.302L559.182 404.599L559.47 404.892L559.47 405.302H558.47ZM558.47 429.816H559.47L559.47 430.816H558.47V429.816ZM558.045 429.816H557.045V428.816H558.045V429.816ZM558.045 460.534H559.045L559.045 461.534H558.045V460.534ZM485.107 460.534L484.402 461.242L482.687 459.534H485.107V460.534ZM558.045 533.192L558.751 532.484L559.045 532.777L559.045 533.192H558.045ZM558.045 557.412H559.045L559.045 558.412H558.045V557.412ZM533.732 557.412V558.412H533.318L533.025 558.119L533.732 557.412ZM493.394 517.11L492.687 516.403L493.394 515.697L494.101 516.403L493.394 517.11ZM453.242 557.257L453.949 557.964L453.656 558.257H453.242V557.257ZM429.022 557.257V558.257H428.022V557.257H429.022ZM429.022 557.225V556.225H430.022V557.225H429.022ZM397.082 557.225H396.082V556.225H397.082V557.225ZM397.082 557.265H398.082V558.265H397.082V557.265ZM364.79 557.265V558.265H363.79V557.265H364.79ZM364.79 557.225V556.225H365.79V557.225H364.79ZM332.454 557.225H331.454V556.225H332.454V557.225ZM332.454 557.265H333.454V558.265H332.454V557.265ZM300.197 557.265V558.265H299.197V557.265H300.197ZM300.197 557.225V556.225H301.197V557.225H300.197ZM300.159 557.225V558.225H299.159V557.225H300.159ZM300.159 524.932H299.159V523.932H300.159V524.932ZM300.197 524.932H301.197V525.932H300.197V524.932ZM300.197 453.081L299.489 452.375L301.197 450.663V453.081H300.197ZM252.744 500.646H251.744V500.232L252.036 499.939L252.744 500.646ZM252.744 557.253H253.744V558.253H252.744V557.253ZM219.888 557.253V558.253H218.888V557.253H219.888ZM219.888 500.151L220.594 499.443L220.888 499.736V500.151H219.888ZM172.091 452.558H171.091V450.151L172.796 451.849L172.091 452.558ZM172.091 557H173.091V558H172.091V557ZM43.233 557V558H42.233V557H43.233ZM43.233 524.786H42.233V523.786H43.233V524.786ZM74.7742 524.786H75.7742V525.786H74.7742V524.786ZM74.7742 460.411V459.411H75.7742V460.411H74.7742ZM42.7194 460.411V461.411H41.7194V460.411H42.7194ZM42.7194 428.119H41.7194V427.119H42.7194V428.119ZM171.89 428.119V427.119H172.89V428.119H171.89ZM171.89 428.142V429.142H170.89V428.142H171.89ZM171.897 428.142H172.897V429.142H171.897V428.142ZM171.897 428.092H170.897V427.092H171.897V428.092ZM196.116 428.092V427.092H196.531L196.824 427.385L196.116 428.092ZM236.538 468.597L237.248 469.301L236.54 470.015L235.83 469.303L236.538 468.597ZM276.691 428.093L275.981 427.389L276.274 427.093H276.691V428.093ZM299.904 428.093H300.904V429.093H299.904V428.093ZM299.904 404.274H298.904V403.854L299.204 403.56L299.904 404.274ZM340.663 364.265L341.365 363.553L342.088 364.267L341.363 364.979L340.663 364.265ZM299.564 323.697L298.862 324.409L298.564 324.115L298.564 323.697L299.564 323.697ZM299.565 299.476L298.565 299.476L298.565 298.476H299.565V299.476ZM323.86 299.476V298.476H324.27L324.562 298.764L323.86 299.476ZM323.864 299.479V300.479H323.454L323.162 300.191L323.864 299.479ZM429.456 299.479H430.456V300.479H429.456V299.479ZM429.456 299.222H428.456V298.222H429.456V299.222ZM461.749 299.222V298.222H462.749V299.222H461.749ZM461.749 373.046L462.462 373.747L460.749 375.488V373.046H461.749ZM139.876 460.411V459.411H140.876V460.411H139.876ZM139.876 524.786H140.876V525.786H139.876V524.786ZM106.989 524.786V525.786H105.989V524.786H106.989ZM106.989 460.411H105.989V459.411H106.989V460.411ZM364.79 460.384V459.384H365.79V460.384H364.79ZM332.454 460.384H331.454V459.384H332.454V460.384ZM364.79 524.932H365.79V525.932H364.79V524.932ZM332.454 524.932V525.932H331.454V524.932H332.454ZM397.082 524.932V525.932H396.082V524.932H397.082ZM397.082 460.384H396.082V459.384H397.082V460.384ZM429.589 524.932V523.932H430.589V524.932H429.589ZM429.589 532.475L430.293 533.184L428.589 534.878V532.475H429.589ZM469.291 493.03L469.997 492.322L470.707 493.032L469.995 493.739L469.291 493.03ZM429.591 453.367H428.591V450.954L430.298 452.659L429.591 453.367ZM429.591 460.384H430.591V461.384H429.591V460.384ZM405.324 428.092L406.027 427.38L407.761 429.092H405.324V428.092ZM324.824 428.092V429.092H322.389L324.122 427.38L324.824 428.092ZM365.059 388.346L364.356 387.635L365.058 386.941L365.761 387.634L365.059 388.346ZM494.242 389.057L493.531 388.355L494.244 387.632L494.956 388.357L494.242 389.057ZM455.564 428.241V429.241H453.172L454.853 427.539L455.564 428.241ZM532.705 428.241L533.419 427.541L535.088 429.241H532.705V428.241ZM429.456 331.772V330.772H430.456V331.772H429.456ZM356.674 331.772L355.973 332.485L354.233 330.772H356.674V331.772ZM429.456 403.405H430.456V405.792L428.755 404.118L429.456 403.405ZM428.446 153.046H427.446V152.046H428.446V153.046ZM428.446 249.888H429.446V250.888H428.446V249.888ZM428.408 249.888H427.408V248.888H428.408V249.888ZM428.408 282.4V283.4H427.408V282.4H428.408ZM557.579 282.4H558.579L558.579 283.4H557.579V282.4ZM557.579 249.888V248.888H558.579L558.579 249.888H557.579ZM525.332 249.888V250.888H524.332V249.888H525.332ZM525.332 185.339H524.332V184.339H525.332V185.339ZM557.582 185.339H558.582L558.582 186.339H557.582V185.339ZM557.582 153.046V152.046H558.582L558.582 153.046H557.582ZM460.704 185.339H459.704V184.339H460.704V185.339ZM460.704 249.888V250.888L459.704 250.888V249.888H460.704ZM493.039 185.339V184.339H494.039V185.339H493.039ZM493.039 249.888H494.039V250.888H493.039V249.888ZM300.459 266.983H301.459H300.459ZM300.459 299.276H301.459V300.276H300.459V299.276ZM300.459 202.435L299.459 202.435V201.435H300.459V202.435ZM300.497 202.435H301.497V203.435H300.497V202.435ZM300.497 170.106V169.106H301.497V170.106H300.497ZM300.459 170.106V171.106H299.459V170.106H300.459ZM300.459 170.104V169.104H301.459V170.104H300.459ZM268.202 170.104H267.202V169.104H268.202V170.104ZM268.202 170.106H269.202V171.106H268.202V170.106ZM235.866 170.106V171.106H234.866V170.106H235.866ZM235.866 170.104V169.104H236.866V170.104H235.866ZM203.573 170.104H202.573V169.104H203.573V170.104ZM203.573 170.106H204.573V171.106H203.573V170.106ZM169.821 170.106H168.821V169.106H169.821V170.106ZM169.821 170.107H170.821V171.107H169.821V170.107ZM42.1935 170.107H41.1935V169.107H42.1935V170.107ZM42.1935 170.109H43.1935V171.109H42.1935V170.109ZM41.9231 170.109H40.9231V169.109H41.9231V170.109ZM41.9231 299.28V300.28H40.9231V299.28H41.9231ZM74.4494 299.28H75.4494V300.28H74.4494V299.28ZM74.4494 299.278H73.4494V298.278H74.4494V299.278ZM106.793 299.278V298.278H107.793V299.278H106.793ZM106.793 299.28V300.28H105.793V299.28H106.793ZM139.086 299.28H140.086V300.28H139.086V299.28ZM139.086 299.278H138.086V298.278H139.086V299.278ZM171.326 299.278H172.326V300.278H171.326V299.278ZM171.326 299.276H170.326V298.276H171.326V299.276ZM74.4493 202.4L73.4493 202.4V201.4H74.4493V202.4ZM74.4494 266.949V267.949H73.4494V266.949H74.4494ZM106.793 202.4V201.4H107.793V202.4H106.793ZM106.793 266.949H107.793V267.949H106.793V266.949ZM139.086 202.4H138.086V201.4H139.086V202.4ZM169.821 202.4V201.4H170.821V202.4H169.821ZM139.086 266.949V267.949H138.086V266.949H139.086ZM171.326 266.949V265.949H172.326V266.949H171.326ZM171.326 266.983V267.983H170.326V266.983H171.326ZM203.573 266.983H204.573V267.983H203.573V266.983ZM203.573 202.435V201.435H204.573V202.435H203.573ZM169.821 202.435V203.435H168.821V202.435H169.821ZM268.202 266.983H269.202V267.983H268.202V266.983ZM268.202 202.435V201.435H269.202V202.435H268.202ZM235.866 266.983V267.983H234.866V266.983H235.866ZM235.866 202.435H234.866V201.435H235.866V202.435ZM196.665 4.0625V28.282H194.665V4.0625H196.665ZM219.884 5.0625L195.665 5.0625V3.0625L219.884 3.0625V5.0625ZM259.431 45.286L219.175 4.76731L220.594 3.35769L260.85 43.8764L259.431 45.286ZM301.323 4.93174L260.847 45.2894L259.435 43.8731L299.911 3.51545L301.323 4.93174ZM324.838 5.22467L300.617 5.22359L300.617 3.22359L324.838 3.22467L324.838 5.22467ZM323.838 28.1359V4.22467H325.838V28.1359H323.838ZM324.128 27.432L324.131 27.4288L325.545 28.843L325.542 28.8462L324.128 27.432ZM323.835 133.089V28.1391H325.835V133.089H323.835ZM292.542 132.089H324.835V134.089H292.542V132.089ZM293.542 60.4313V133.089H291.542V60.4313H293.542ZM219.176 132.382L291.835 59.7242L293.249 61.1384L220.591 133.796L219.176 132.382ZM195.664 132.089H219.884V134.089H195.664V132.089ZM196.664 108.869V133.089H194.664V108.869H196.664ZM236.72 69.3453L196.37 109.577L194.958 108.161L235.308 67.929L236.72 69.3453ZM196.372 27.5749L236.721 67.9301L235.307 69.3442L194.958 28.9891L196.372 27.5749ZM558.627 300.222H534.407V298.222H558.627V300.222ZM557.627 323.83V299.222H559.627V323.83H557.627ZM517.611 363.959L557.915 323.128L559.339 324.533L519.035 365.364L517.611 363.959ZM557.759 406.005L517.612 365.364L519.035 363.959L559.182 404.599L557.759 406.005ZM557.47 429.816L557.47 405.302H559.47L559.47 429.816H557.47ZM558.045 428.816H558.47V430.816H558.045V428.816ZM557.045 460.534L557.045 429.816H559.045L559.045 460.534H557.045ZM485.107 459.534H558.045V461.534H485.107V459.534ZM557.339 533.901L484.402 461.242L485.813 459.825L558.751 532.484L557.339 533.901ZM557.045 557.412L557.045 533.192H559.045L559.045 557.412H557.045ZM533.732 556.412H558.045V558.412H533.732V556.412ZM494.101 516.403L534.439 556.704L533.025 558.119L492.687 517.818L494.101 516.403ZM452.535 556.55L492.687 516.403L494.101 517.818L453.949 557.964L452.535 556.55ZM429.022 556.257H453.242V558.257H429.022V556.257ZM430.022 557.225V557.257H428.022V557.225H430.022ZM397.082 556.225H429.022V558.225H397.082V556.225ZM396.082 557.265V557.225H398.082V557.265H396.082ZM364.79 556.265H397.082V558.265H364.79V556.265ZM365.79 557.225V557.265H363.79V557.225H365.79ZM332.454 556.225H364.79V558.225H332.454V556.225ZM331.454 557.265V557.225H333.454V557.265H331.454ZM300.197 556.265H332.454V558.265H300.197V556.265ZM301.197 557.225V557.265H299.197V557.225H301.197ZM300.159 556.225H300.197V558.225H300.159V556.225ZM301.159 524.932V557.225H299.159V524.932H301.159ZM300.197 525.932H300.159V523.932H300.197V525.932ZM301.197 460.384V524.932H299.197V460.384H301.197ZM301.197 453.081V460.384H299.197V453.081H301.197ZM252.036 499.939L299.489 452.375L300.905 453.787L253.452 501.352L252.036 499.939ZM251.744 557.253V500.646H253.744V557.253H251.744ZM219.888 556.253H252.744V558.253H219.888V556.253ZM220.888 500.151V557.253H218.888V500.151H220.888ZM172.796 451.849L220.594 499.443L219.183 500.86L171.385 453.266L172.796 451.849ZM171.091 557L171.091 452.558H173.091L173.091 557H171.091ZM172.091 558H43.233V556H172.091V558ZM42.233 557V524.786H44.233V557H42.233ZM43.233 523.786H74.7742V525.786H43.233V523.786ZM73.7742 524.786L73.7742 460.411H75.7742L75.7742 524.786H73.7742ZM74.7742 461.411H42.7194V459.411H74.7742V461.411ZM41.7194 460.411V428.119H43.7194V460.411H41.7194ZM42.7194 427.119H171.89V429.119H42.7194V427.119ZM172.89 428.119V428.142H170.89V428.119H172.89ZM171.897 429.142H171.89V427.142H171.897V429.142ZM172.897 428.092V428.142H170.897V428.092H172.897ZM196.116 429.092H171.897V427.092H196.116V429.092ZM235.83 469.303L195.408 428.798L196.824 427.385L237.246 467.89L235.83 469.303ZM277.401 428.797L237.248 469.301L235.828 467.893L275.981 427.389L277.401 428.797ZM299.904 429.093H276.691V427.093H299.904V429.093ZM300.904 404.274V428.093H298.904V404.274H300.904ZM341.363 364.979L300.605 404.987L299.204 403.56L339.962 363.551L341.363 364.979ZM300.267 322.985L341.365 363.553L339.96 364.977L298.862 324.409L300.267 322.985ZM300.565 299.476L300.564 323.697L298.564 323.697L298.565 299.476L300.565 299.476ZM323.86 300.476H299.565V298.476H323.86V300.476ZM323.162 300.191L323.158 300.188L324.562 298.764L324.566 298.767L323.162 300.191ZM429.456 300.479H323.864V298.479H429.456V300.479ZM430.456 299.222V299.479H428.456V299.222H430.456ZM461.749 300.222H429.456V298.222H461.749V300.222ZM460.749 373.046V299.222H462.749V373.046H460.749ZM535.12 299.924L462.462 373.747L461.036 372.344L533.695 298.521L535.12 299.924ZM140.876 460.411L140.876 524.786H138.876L138.876 460.411H140.876ZM106.989 523.786H139.876V525.786H106.989V523.786ZM107.989 460.411V524.786H105.989V460.411H107.989ZM139.876 461.411H106.989V459.411H139.876V461.411ZM364.79 461.384H332.454V459.384H364.79V461.384ZM363.79 524.932L363.79 460.384H365.79L365.79 524.932H363.79ZM332.454 523.932H364.79V525.932H332.454V523.932ZM333.454 460.384V524.932H331.454V460.384H333.454ZM396.082 524.932L396.082 460.384H398.082L398.082 524.932H396.082ZM429.589 525.932H397.082V523.932H429.589V525.932ZM428.589 532.475V524.932H430.589V532.475H428.589ZM469.995 493.739L430.293 533.184L428.884 531.765L468.586 492.32L469.995 493.739ZM430.298 452.659L469.997 492.322L468.584 493.737L428.885 454.074L430.298 452.659ZM428.591 460.384V453.367H430.591V460.384H428.591ZM397.082 459.384H429.591V461.384H397.082V459.384ZM405.324 429.092H324.824V427.092H405.324V429.092ZM365.761 387.634L406.027 427.38L404.622 428.803L364.356 389.058L365.761 387.634ZM324.122 427.38L364.356 387.635L365.761 389.057L325.527 428.803L324.122 427.38ZM494.954 389.76L456.276 428.944L454.853 427.539L493.531 388.355L494.954 389.76ZM531.991 428.942L493.529 389.758L494.956 388.357L533.419 427.541L531.991 428.942ZM455.564 427.241H532.705V429.241H455.564V427.241ZM429.456 332.772H356.674V330.772H429.456V332.772ZM428.456 403.405V331.772H430.456V403.405H428.456ZM357.376 331.059L430.158 402.692L428.755 404.118L355.973 332.485L357.376 331.059ZM427.446 153.047V153.046H429.446V153.047H427.446ZM427.446 185.339V153.047H429.446V185.339H427.446ZM427.446 249.888V185.339H429.446V249.888H427.446ZM428.408 248.888H428.446V250.888H428.408V248.888ZM427.408 282.4V249.888H429.408V282.4H427.408ZM557.579 283.4H428.408V281.4H557.579V283.4ZM558.579 249.888L558.579 282.4H556.579L556.579 249.888H558.579ZM525.332 248.888H557.579V250.888H525.332V248.888ZM526.332 185.339L526.332 249.888H524.332L524.332 185.339H526.332ZM557.582 186.339H525.332V184.339H557.582V186.339ZM558.582 153.046L558.582 185.339H556.582L556.582 153.046H558.582ZM428.446 152.046H557.582V154.046H428.446V152.046ZM461.704 185.339L461.704 249.888H459.704L459.704 185.339H461.704ZM493.039 186.339H460.704V184.339H493.039V186.339ZM492.039 249.888L492.039 185.339H494.039L494.039 249.888H492.039ZM460.704 248.888L493.039 248.888V250.888L460.704 250.888V248.888ZM301.459 266.983V299.276H299.459V266.983H301.459ZM301.459 202.435L301.459 266.983H299.459L299.459 202.435L301.459 202.435ZM300.497 203.435H300.459V201.435H300.497V203.435ZM301.497 170.106V202.435H299.497V170.106H301.497ZM300.459 169.106H300.497V171.106H300.459V169.106ZM301.459 170.104V170.106H299.459V170.104H301.459ZM268.202 169.104H300.459V171.104H268.202V169.104ZM267.202 170.106V170.104H269.202V170.106H267.202ZM235.866 169.106H268.202V171.106H235.866V169.106ZM236.866 170.104V170.106H234.866V170.104H236.866ZM203.573 169.104H235.866V171.104H203.573V169.104ZM202.573 170.106V170.104H204.573V170.106H202.573ZM169.821 169.106H203.573V171.106H169.821V169.106ZM168.821 170.107V170.106H170.821V170.107H168.821ZM42.1935 169.107H169.821V171.107H42.1935V169.107ZM41.1935 170.109V170.107H43.1935V170.109H41.1935ZM41.9231 169.109H42.1935V171.109H41.9231V169.109ZM40.9231 299.28V170.109H42.9231V299.28H40.9231ZM74.4494 300.28H41.9231V298.28H74.4494V300.28ZM75.4494 299.278V299.28H73.4494V299.278H75.4494ZM106.793 300.278H74.4494V298.278H106.793V300.278ZM105.793 299.28V299.278H107.793V299.28H105.793ZM139.086 300.28H106.793V298.28H139.086V300.28ZM140.086 299.278V299.28H138.086V299.278H140.086ZM171.326 300.278H139.086V298.278H171.326V300.278ZM172.326 299.276V299.278H170.326V299.276H172.326ZM300.459 300.276H171.326V298.276H300.459V300.276ZM75.4493 202.4L75.4494 266.949H73.4494L73.4493 202.4L75.4493 202.4ZM106.793 203.4H74.4493V201.4H106.793V203.4ZM105.793 266.949L105.793 202.4L107.793 202.4L107.793 266.949H105.793ZM74.4494 265.949H106.793V267.949H74.4494V265.949ZM139.086 201.4H169.821V203.4H139.086V201.4ZM138.086 266.949V202.4H140.086V266.949H138.086ZM171.326 267.949H139.086V265.949H171.326V267.949ZM170.326 266.983V266.949H172.326V266.983H170.326ZM203.573 267.983H171.326V265.983H203.573V267.983ZM204.573 202.435V266.983H202.573V202.435H204.573ZM169.821 201.435H203.573V203.435H169.821V201.435ZM170.821 202.4V202.435H168.821V202.4H170.821ZM267.202 266.983L267.202 202.435L269.202 202.435L269.202 266.983H267.202ZM235.866 265.983H268.202V267.983H235.866V265.983ZM236.866 202.435V266.983H234.866V202.435H236.866ZM268.202 203.435H235.866V201.435H268.202V203.435Z" fill="#B6B8BD" mask="url(#path-11-inside-1_454_208636)"/>
<circle cx="457.767" cy="210.673" r="8.71541" transform="rotate(-7.17407 457.767 210.673)" fill="white" stroke="#161F4B" stroke-width="2"/>
<circle cx="320.593" cy="87.6095" r="8.71541" transform="rotate(-7.17407 320.593 87.6095)" fill="white" stroke="#161F4B" stroke-width="2"/>
<path d="M452.309 202.332C458.66 202.339 464.927 199.944 470.613 195.338C476.299 190.731 481.249 184.039 485.069 175.791C488.89 167.544 491.477 157.967 492.626 147.819C493.775 137.671 493.453 127.231 491.688 117.324C489.922 107.418 486.76 98.3184 482.452 90.7451C478.145 83.1719 472.81 77.3332 466.87 73.6914C460.93 70.0496 454.548 68.7047 448.229 69.763C441.911 70.8214 435.829 74.2541 430.465 79.7892L452.382 135.872L452.309 202.332Z" fill="white" stroke="#161F4B" stroke-width="2"/>
<path d="M184.493 427.333L187.246 422.525L163.491 389.67L142.72 377.779L131.665 397.089L184.493 427.333Z" fill="white" stroke="#07486B" stroke-width="2"/>
<rect width="61.0764" height="2.69455" transform="matrix(-0.867848 -0.496831 -0.496831 0.867848 189.113 426.048)" fill="white"/>
<path d="M185.342 309.922L138.26 262.815L138.26 202.287L228.744 302.104C230.371 303.899 230.676 306.529 229.504 308.649L183.667 391.514L138.261 391.514L185.342 309.922Z" fill="#36D8DE" stroke="#07486B" stroke-width="2" stroke-linejoin="round"/>
<path d="M188.095 427.695L188.095 421.507L132.314 398.545L121.34 402.857L121.34 427.695L188.095 427.695Z" fill="white" stroke="#07486B" stroke-width="2"/>
<path d="M157.822 200.635L139.667 200.635C129.572 200.635 121.389 208.424 121.389 218.033L121.352 404.497L157.781 404.525L157.822 200.635Z" fill="#36D8DE" stroke="#07486B" stroke-width="2" stroke-linejoin="round"/>
<path d="M205.384 131.97C213.692 139.534 219.516 149.436 222.088 160.373C224.66 171.31 223.859 182.77 219.792 193.244C215.725 203.717 208.582 212.714 199.303 219.05C190.024 225.385 179.044 228.762 167.809 228.737C156.573 228.711 145.609 225.284 136.359 218.906C127.108 212.529 120.006 203.5 115.987 193.008C111.968 182.516 111.22 171.053 113.841 160.127C116.463 149.202 122.331 139.326 130.674 131.8L167.935 173.107L205.384 131.97Z" fill="white" stroke="#07486B" stroke-width="2"/>
<circle cx="214.075" cy="128.245" r="8.71541" transform="rotate(-7.17407 214.075 128.245)" fill="white" stroke="#07486B" stroke-width="2"/>
<path d="M147.791 194.704L205.731 132.39" stroke="#07486B" stroke-width="2" stroke-linejoin="round"/>
<ellipse rx="19.7871" ry="19.7768" transform="matrix(0.427343 0.90409 0.90409 -0.427343 139.426 105.404)" fill="white" stroke="#07486B"/>
<path d="M148.635 88.8904L130.217 121.914" stroke="#07486B"/>
<path d="M130.969 87.7898C121.089 92.4599 116.864 104.251 121.531 114.126C126.199 124.001 137.992 128.22 147.872 123.55C157.752 118.88 161.977 107.089 157.31 97.2139C152.642 87.339 140.849 83.1197 130.969 87.7898Z" fill="white"/>
<path d="M149.116 88.43C146.851 87.1566 144.357 86.3415 141.777 86.0314C139.198 85.7212 136.582 85.9221 134.081 86.6224C131.579 87.3228 129.24 88.509 127.198 90.1132C125.155 91.7174 123.448 93.7083 122.176 95.9722C120.903 98.2361 120.089 100.729 119.78 103.307C119.471 105.886 119.673 108.501 120.374 111.002C121.076 113.504 122.264 115.842 123.869 117.885C125.475 119.928 127.467 121.635 129.732 122.908L149.116 88.43Z" fill="#07486B"/>
<path d="M149.116 88.43L149.606 87.5583L150.478 88.0484L149.987 88.9201L149.116 88.43ZM129.732 122.908L130.604 123.398L130.114 124.27L129.242 123.78L129.732 122.908ZM131.396 88.6939C122.015 93.1281 118.004 104.323 122.435 113.698L120.627 114.553C115.723 104.178 120.163 91.7916 130.542 86.8857L131.396 88.6939ZM122.435 113.698C126.867 123.073 138.064 127.08 147.445 122.646L148.299 124.454C137.92 129.36 125.531 124.928 120.627 114.553L122.435 113.698ZM147.445 122.646C156.826 118.211 160.837 107.016 156.406 97.6412L158.214 96.7865C163.118 107.161 158.678 119.548 148.299 124.454L147.445 122.646ZM156.406 97.6412C151.974 88.2662 140.778 84.2596 131.396 88.6939L130.542 86.8857C140.921 81.9798 153.31 86.4119 158.214 96.7865L156.406 97.6412ZM148.626 89.3017C146.475 88.0926 144.107 87.3187 141.658 87.0242L141.897 85.0385C144.607 85.3644 147.226 86.2206 149.606 87.5583L148.626 89.3017ZM141.658 87.0242C139.209 86.7298 136.726 86.9205 134.35 87.5854L133.811 85.6595C136.439 84.9237 139.187 84.7127 141.897 85.0385L141.658 87.0242ZM134.35 87.5854C131.975 88.2504 129.755 89.3766 127.815 90.8996L126.58 89.3267C128.726 87.6414 131.183 86.3952 133.811 85.6595L134.35 87.5854ZM127.815 90.8996C125.876 92.4227 124.256 94.3129 123.047 96.4622L121.304 95.4821C122.641 93.1037 124.434 91.0121 126.58 89.3267L127.815 90.8996ZM123.047 96.4622C121.839 98.6116 121.066 100.978 120.773 103.426L118.787 103.188C119.112 100.479 119.967 97.8605 121.304 95.4821L123.047 96.4622ZM120.773 103.426C120.479 105.875 120.671 108.357 121.337 110.732L119.412 111.272C118.674 108.645 118.462 105.898 118.787 103.188L120.773 103.426ZM121.337 110.732C122.003 113.107 123.131 115.328 124.655 117.267L123.083 118.503C121.396 116.357 120.149 113.9 119.412 111.272L121.337 110.732ZM124.655 117.267C126.18 119.207 128.071 120.828 130.222 122.037L129.242 123.78C126.862 122.442 124.77 120.649 123.083 118.503L124.655 117.267ZM129.328 121.693L147.765 88.6731L149.511 89.6481L131.074 122.668L129.328 121.693ZM128.86 122.418L148.244 87.9399L149.987 88.9201L130.604 123.398L128.86 122.418Z" fill="#07486B"/>
</svg>
