<svg width="717" height="560" viewBox="0 0 717 560" fill="none" xmlns="http://www.w3.org/2000/svg">
<g clip-path="url(#clip0_177_200017)">
<rect width="558.251" height="558.251" transform="translate(79.375 0.874512)" fill="white"/>
<path fill-rule="evenodd" clip-rule="evenodd" d="M183.489 85.831C201.88 85.831 216.788 70.9225 216.788 52.5319C216.788 34.1414 201.88 19.2329 183.489 19.2329C165.099 19.2329 150.19 34.1414 150.19 52.5319C150.19 62.2883 154.386 71.0647 161.072 77.1551L152.397 85.8304H182.732L182.724 85.8223C182.978 85.8281 183.234 85.831 183.489 85.831Z" fill="white"/>
<path d="M161.072 77.1551L161.779 77.8622L162.52 77.1213L161.745 76.4158L161.072 77.1551ZM152.397 85.8304L151.69 85.1233L149.982 86.8304H152.397V85.8304ZM182.732 85.8304V86.8304H185.147L183.439 85.1231L182.732 85.8304ZM182.724 85.8223L182.747 84.8226L180.253 84.7664L182.017 86.5296L182.724 85.8223ZM215.788 52.5319C215.788 70.3702 201.328 84.831 183.489 84.831V86.831C202.432 86.831 217.788 71.4748 217.788 52.5319H215.788ZM183.489 20.2329C201.328 20.2329 215.788 34.6937 215.788 52.5319H217.788C217.788 33.5891 202.432 18.2329 183.489 18.2329V20.2329ZM151.19 52.5319C151.19 34.6937 165.651 20.2329 183.489 20.2329V18.2329C164.547 18.2329 149.19 33.5891 149.19 52.5319H151.19ZM161.745 76.4158C155.259 70.507 151.19 61.9953 151.19 52.5319H149.19C149.19 62.5814 153.514 71.6225 160.399 77.8943L161.745 76.4158ZM160.365 76.448L151.69 85.1233L153.104 86.5375L161.779 77.8622L160.365 76.448ZM152.397 86.8304H182.732V84.8304H152.397V86.8304ZM183.439 85.1231L183.431 85.1151L182.017 86.5296L182.025 86.5377L183.439 85.1231ZM183.489 84.831C183.241 84.831 182.994 84.8282 182.747 84.8226L182.701 86.8221C182.963 86.828 183.226 86.831 183.489 86.831V84.831Z" fill="#D3D5DB"/>
<rect x="152.029" y="111.818" width="25.781" height="25.9872" transform="rotate(-180 152.029 111.818)" stroke="#D3D5DB" stroke-width="2"/>
<rect x="126.248" y="111.818" width="195.926" height="325.243" stroke="#D3D5DB" stroke-width="2"/>
<rect x="88.834" y="333.874" width="136.474" height="139.903" fill="white" stroke="#D3D5DB" stroke-width="2"/>
<rect x="535.858" y="463.049" width="61.678" height="63.8535" fill="white" stroke="#D3D5DB" stroke-width="2"/>
<rect x="401.61" y="94.8335" width="195.926" height="342.228" fill="white" stroke="#D3D5DB" stroke-width="2"/>
<path fill-rule="evenodd" clip-rule="evenodd" d="M595.536 40.9053C596.641 40.9053 597.536 41.8007 597.536 42.9053V77.6573H597.536L597.536 93.4774L581.716 77.6573H537.858C536.754 77.6573 535.858 76.7618 535.858 75.6573V42.9053C535.858 41.8007 536.754 40.9053 537.858 40.9053H595.536Z" fill="white"/>
<path d="M597.536 77.6573H598.536V78.6573H597.536V77.6573ZM597.536 77.6573H596.536V76.6573H597.536V77.6573ZM597.536 93.4774H598.536L598.536 95.8916L596.829 94.1845L597.536 93.4774ZM581.716 77.6573V76.6573H582.13L582.423 76.9502L581.716 77.6573ZM596.536 42.9053C596.536 42.353 596.088 41.9053 595.536 41.9053V39.9053C597.193 39.9053 598.536 41.2484 598.536 42.9053H596.536ZM596.536 77.6573V42.9053H598.536V77.6573H596.536ZM597.536 76.6573H597.536V78.6573H597.536V76.6573ZM596.536 93.4774L596.536 77.6573H598.536L598.536 93.4774H596.536ZM582.423 76.9502L598.243 92.7703L596.829 94.1845L581.009 78.3644L582.423 76.9502ZM537.858 76.6573H581.716V78.6573H537.858V76.6573ZM536.858 75.6573C536.858 76.2095 537.306 76.6573 537.858 76.6573V78.6573C536.202 78.6573 534.858 77.3141 534.858 75.6573H536.858ZM536.858 42.9053V75.6573H534.858V42.9053H536.858ZM537.858 41.9053C537.306 41.9053 536.858 42.353 536.858 42.9053H534.858C534.858 41.2484 536.202 39.9053 537.858 39.9053V41.9053ZM595.536 41.9053H537.858V39.9053H595.536V41.9053Z" fill="#D3D5DB"/>
<rect x="624.055" y="463.049" width="26.5188" height="25.9872" transform="rotate(-180 624.055 463.049)" fill="white" stroke="#D3D5DB" stroke-width="2"/>
<path d="M343.039 106.268L328.28 91.5098M357.469 106.268V80.687" stroke="#293056" stroke-width="2"/>
<path d="M371.899 106.268L386.658 91.5096M357.469 106.268V80.6868" stroke="#293056" stroke-width="2"/>
<path d="M283.691 492.65L288.203 488.416L266.782 432.026L256.129 426.973L238.015 443.968L283.691 492.65Z" fill="#F7F7EB" stroke="#8F8E37" stroke-width="2"/>
<rect width="66.7901" height="2.94662" transform="matrix(-0.684228 -0.729268 -0.729268 0.684228 285.84 490.66)" fill="#8F8E37"/>
<path d="M276.735 220.241L260.562 220.241C251.57 220.241 244.281 227.53 244.281 236.522L244.28 345.389L244.25 437.206L276.7 437.232L276.735 303.226L276.735 220.241Z" fill="#D0CF84" stroke="#8F8E37" stroke-width="2" stroke-linejoin="round"/>
<path opacity="0.5" d="M264.368 220.275L270.266 220.275C273.545 220.275 276.203 227.547 276.203 236.518L276.214 436.721L264.381 436.747L264.368 220.275Z" fill="#E6E6BE"/>
<path d="M144.445 390.511L150.658 390.487L168.808 349.948L168.706 323.662L144.187 323.757L144.445 390.511Z" fill="#F7F7EB" stroke="#8F8E37" stroke-width="2"/>
<rect width="66.7901" height="2.94662" transform="matrix(-0.00387075 -0.999993 -0.999993 0.00387075 147.375 390.519)" fill="#8F8E37"/>
<path d="M268.168 227.793L252.563 232.044C243.89 234.406 238.773 243.35 241.13 252.024L260.345 322.711L168.529 323.088L168.647 355.538L295.818 355.006C299.268 354.992 301.766 351.712 300.863 348.383L268.168 227.793Z" fill="#BAB94A" stroke="#8F8E37" stroke-width="2" stroke-linejoin="round"/>
<path d="M169.703 338.996L279.187 338.996C281.181 338.996 282.62 337.087 282.072 335.17L255.939 243.859" stroke="#DBDBA1" stroke-width="2" stroke-linejoin="round"/>
<path fill-rule="evenodd" clip-rule="evenodd" d="M104.799 224.407C103.651 224.896 103.116 226.223 103.605 227.372C104.094 228.52 105.422 229.055 106.57 228.566L115.675 224.69C118.218 226.637 121.709 227.195 124.866 225.851L131.747 222.922C134.14 221.903 135.254 219.137 134.235 216.744C133.266 214.468 130.635 213.408 128.359 214.377L118.933 218.39L118.933 218.39L104.799 224.407Z" fill="white"/>
<path d="M104.799 224.407L104.408 223.487L104.799 224.407ZM106.57 228.566L106.178 227.646L106.57 228.566ZM115.675 224.69L116.282 223.896L115.819 223.541L115.283 223.77L115.675 224.69ZM128.359 214.377L127.967 213.457L128.359 214.377ZM118.933 218.39L118.013 218.782L118.405 219.702L119.325 219.31L118.933 218.39ZM118.933 218.39L119.853 217.998L119.461 217.078L118.541 217.47L118.933 218.39ZM104.525 226.98C104.253 226.34 104.551 225.599 105.191 225.327L104.408 223.487C102.751 224.192 101.98 226.107 102.685 227.763L104.525 226.98ZM106.178 227.646C105.538 227.918 104.798 227.62 104.525 226.98L102.685 227.763C103.39 229.42 105.305 230.191 106.962 229.486L106.178 227.646ZM115.283 223.77L106.178 227.646L106.962 229.486L116.066 225.61L115.283 223.77ZM124.474 224.931C121.662 226.129 118.552 225.632 116.282 223.896L115.067 225.484C117.885 227.641 121.755 228.262 125.258 226.771L124.474 224.931ZM131.355 222.002L124.474 224.931L125.258 226.771L132.138 223.842L131.355 222.002ZM133.315 217.136C134.117 219.021 133.24 221.2 131.355 222.002L132.138 223.842C135.04 222.607 136.39 219.254 135.155 216.353L133.315 217.136ZM128.75 215.298C130.519 214.545 132.562 215.368 133.315 217.136L135.155 216.353C133.97 213.568 130.751 212.272 127.967 213.457L128.75 215.298ZM119.325 219.31L128.75 215.298L127.967 213.457L118.541 217.47L119.325 219.31ZM118.013 218.782L118.013 218.782L119.853 217.999L119.853 217.998L118.013 218.782ZM105.191 225.327L119.324 219.31L118.541 217.47L104.408 223.487L105.191 225.327Z" fill="#8F8E37"/>
<path d="M250.911 164.409C252.257 170.529 252.065 177.208 250.345 184.067C248.625 190.925 245.412 197.827 240.888 204.38C236.364 210.932 230.618 217.007 223.979 222.257C217.34 227.506 209.937 231.828 202.193 234.975C194.449 238.123 186.516 240.034 178.846 240.6C171.177 241.166 163.921 240.375 157.494 238.274C151.066 236.172 145.593 232.8 141.386 228.351C137.179 223.902 134.321 218.462 132.975 212.342L191.943 188.376L250.911 164.409Z" fill="#F7F7EB"/>
<path fill-rule="evenodd" clip-rule="evenodd" d="M246.894 166.042C245.11 172.504 242.012 178.985 237.752 185.155C233.228 191.708 227.483 197.782 220.843 203.032C214.204 208.282 206.801 212.603 199.057 215.751C191.314 218.898 183.381 220.809 175.711 221.375C168.042 221.941 160.786 221.151 154.359 219.049C148.306 217.07 143.099 213.965 139 209.894L132.976 212.342C134.322 218.462 137.18 223.901 141.387 228.351C145.594 232.8 151.067 236.172 157.495 238.273C163.922 240.375 171.178 241.165 178.847 240.6C186.517 240.034 194.45 238.123 202.194 234.975C209.938 231.828 217.341 227.506 223.98 222.256C230.619 217.007 236.365 210.932 240.889 204.38C245.413 197.827 248.626 190.924 250.346 184.066C252.066 177.208 252.258 170.529 250.912 164.409L246.894 166.042Z" fill="#DBDBA1"/>
<path d="M250.911 164.409C252.257 170.529 252.065 177.208 250.345 184.067C248.625 190.925 245.412 197.827 240.888 204.38C236.364 210.932 230.618 217.007 223.979 222.257C217.34 227.506 209.937 231.828 202.193 234.975C194.449 238.123 186.516 240.034 178.846 240.6C171.177 241.166 163.921 240.375 157.494 238.274C151.066 236.172 145.593 232.8 141.386 228.351C137.179 223.902 134.321 218.462 132.975 212.342L191.943 188.376L250.911 164.409Z" stroke="#8F8E37" stroke-width="2" stroke-linejoin="round"/>
<path fill-rule="evenodd" clip-rule="evenodd" d="M315.191 140.217C314.678 139.079 315.185 137.741 316.323 137.228C317.461 136.715 318.799 137.222 319.312 138.36L323.378 147.381C326.568 147.674 329.513 149.629 330.923 152.758L333.996 159.575C335.064 161.946 334.008 164.735 331.637 165.804C329.382 166.82 326.729 165.816 325.713 163.561L321.503 154.221L321.503 154.221L315.191 140.217Z" fill="white"/>
<path d="M315.191 140.217L314.279 140.628L315.191 140.217ZM319.312 138.36L318.4 138.771L319.312 138.36ZM323.378 147.381L323.286 148.377L322.706 148.323L322.466 147.792L323.378 147.381ZM325.713 163.561L324.801 163.972L325.713 163.561ZM321.503 154.221L321.092 153.309L322.004 152.898L322.415 153.81L321.503 154.221ZM321.503 154.221L321.914 155.133L321.002 155.544L320.591 154.632L321.503 154.221ZM316.733 138.14C316.099 138.426 315.816 139.172 316.102 139.806L314.279 140.628C313.539 138.987 314.27 137.056 315.912 136.316L316.733 138.14ZM318.4 138.771C318.114 138.136 317.368 137.854 316.733 138.14L315.912 136.316C317.553 135.576 319.484 136.307 320.224 137.949L318.4 138.771ZM322.466 147.792L318.4 138.771L320.224 137.949L324.29 146.97L322.466 147.792ZM330.011 153.169C328.755 150.382 326.132 148.638 323.286 148.377L323.47 146.385C327.003 146.71 330.27 148.877 331.834 152.347L330.011 153.169ZM333.084 159.986L330.011 153.169L331.834 152.347L334.907 159.164L333.084 159.986ZM331.226 164.892C333.094 164.05 333.926 161.854 333.084 159.986L334.907 159.164C336.203 162.039 334.923 165.42 332.048 166.715L331.226 164.892ZM326.624 163.15C327.414 164.902 329.474 165.682 331.226 164.892L332.048 166.715C329.289 167.959 326.045 166.73 324.801 163.972L326.624 163.15ZM322.415 153.81L326.624 163.15L324.801 163.972L320.591 154.632L322.415 153.81ZM321.092 153.31L321.092 153.309L321.914 155.133L321.914 155.133L321.092 153.31ZM316.102 139.806L322.414 153.81L320.591 154.632L314.279 140.628L316.102 139.806Z" fill="#8F8E37"/>
<path d="M325.637 164.676C333.945 172.239 339.769 182.141 342.341 193.079C344.912 204.016 344.112 215.476 340.045 225.949C335.978 236.423 328.835 245.42 319.556 251.755C310.277 258.091 299.297 261.468 288.062 261.442C276.826 261.417 265.862 257.99 256.612 251.612C247.361 245.234 240.259 236.205 236.24 225.713C232.221 215.221 231.472 203.758 234.094 192.833C236.716 181.907 242.584 172.032 250.927 164.506L288.188 205.813L325.637 164.676Z" fill="#F7F7EB" stroke="#8F8E37" stroke-width="2"/>
<g style="mix-blend-mode:multiply">
<path fill-rule="evenodd" clip-rule="evenodd" d="M324.15 167.689C324.219 167.781 324.289 167.873 324.358 167.965C330.973 176.819 334.445 187.629 334.221 198.679C333.998 209.73 330.093 220.391 323.125 228.971C316.156 237.551 306.524 243.56 295.754 246.045C284.984 248.531 273.692 247.351 263.669 242.692C253.646 238.033 245.464 230.163 240.42 220.327C235.377 210.492 233.76 199.255 235.826 188.397C236.042 187.26 236.298 186.135 236.591 185.022C235.618 187.436 234.812 189.925 234.183 192.472C231.496 203.35 232.156 214.787 236.078 225.284C240 235.781 247.001 244.849 256.164 251.3C265.326 257.751 276.223 261.284 287.428 261.438C298.633 261.591 309.623 258.357 318.958 252.159C328.294 245.961 335.54 237.088 339.748 226.702C343.956 216.317 344.929 204.902 342.54 193.954C340.151 183.006 334.512 173.035 326.36 165.346L324.15 167.689Z" fill="#DBDBA1"/>
</g>
<path d="M268.044 227.41L325.984 165.096" stroke="#8F8E37" stroke-width="2" stroke-linejoin="round"/>
<path d="M455.933 492.65L451.421 488.417L472.842 432.026L483.495 426.974L501.609 443.969L455.933 492.65Z" fill="#FAF1ED" stroke="#A86A50" stroke-width="2"/>
<rect x="453.784" y="490.66" width="66.7901" height="2.94662" transform="rotate(-46.8251 453.784 490.66)" fill="#A86A50"/>
<path d="M462.889 220.241L479.062 220.241C488.054 220.241 495.343 227.531 495.343 236.523L495.344 345.39L495.374 437.206L462.924 437.232L462.889 303.226L462.889 220.241Z" fill="#E7B19A" stroke="#A86A50" stroke-width="2" stroke-linejoin="round"/>
<path opacity="0.5" d="M463.416 220.275L469.313 220.275C472.592 220.275 475.251 227.547 475.251 236.517L475.262 436.721L463.429 436.747L463.416 220.275Z" fill="#ECC3B2"/>
<ellipse cx="481.689" cy="143.789" rx="19.7871" ry="19.7768" transform="rotate(109.907 481.689 143.789)" fill="white" stroke="#A86A50" stroke-width="2"/>
<path d="M470.97 128.214L492.41 159.361" stroke="#A86A50" stroke-width="2"/>
<path d="M488.453 125.458C498.728 129.179 504.043 140.521 500.324 150.79C496.605 161.06 485.26 166.369 474.985 162.648C464.71 158.927 459.395 147.586 463.114 137.316C466.833 127.046 478.178 121.737 488.453 125.458Z" fill="white"/>
<path d="M470.446 127.801C472.582 126.32 474.988 125.274 477.527 124.723C480.066 124.172 482.689 124.126 485.245 124.588C487.801 125.05 490.241 126.012 492.426 127.417C494.61 128.822 496.496 130.644 497.976 132.778C499.456 134.912 500.501 137.317 501.051 139.856C501.601 142.394 501.645 145.016 501.182 147.572C500.718 150.128 499.756 152.568 498.349 154.753C496.943 156.938 495.12 158.824 492.985 160.305L470.446 127.801Z" fill="#A86A50"/>
<path d="M470.446 127.801L469.877 126.979L469.055 127.549L469.625 128.371L470.446 127.801ZM492.985 160.305L492.163 160.875L492.733 161.696L493.554 161.127L492.985 160.305ZM488.112 126.398C497.869 129.931 502.914 140.7 499.384 150.45L501.264 151.131C505.171 140.341 499.587 128.427 488.793 124.518L488.112 126.398ZM499.384 150.45C495.853 160.2 485.082 165.241 475.326 161.708L474.645 163.589C485.439 167.497 497.357 161.92 501.264 151.131L499.384 150.45ZM475.326 161.708C465.569 158.175 460.524 147.406 464.054 137.656L462.174 136.975C458.267 147.765 463.851 159.68 474.645 163.589L475.326 161.708ZM464.054 137.656C467.585 127.906 478.356 122.865 488.112 126.398L488.793 124.518C477.999 120.609 466.081 126.186 462.174 136.975L464.054 137.656ZM471.016 128.623C473.044 127.217 475.328 126.224 477.739 125.7L477.315 123.746C474.647 124.325 472.12 125.424 469.877 126.979L471.016 128.623ZM477.739 125.7C480.15 125.177 482.64 125.134 485.067 125.572L485.423 123.604C482.737 123.119 479.982 123.167 477.315 123.746L477.739 125.7ZM485.067 125.572C487.494 126.011 489.811 126.924 491.885 128.258L492.967 126.576C490.672 125.099 488.109 124.09 485.423 123.604L485.067 125.572ZM491.885 128.258C493.959 129.592 495.749 131.321 497.154 133.348L498.798 132.208C497.243 129.966 495.262 128.052 492.967 126.576L491.885 128.258ZM497.154 133.348C498.559 135.374 499.551 137.657 500.074 140.067L502.028 139.644C501.45 136.977 500.353 134.45 498.798 132.208L497.154 133.348ZM500.074 140.067C500.596 142.477 500.638 144.967 500.198 147.394L502.166 147.751C502.653 145.065 502.606 142.311 502.028 139.644L500.074 140.067ZM500.198 147.394C499.758 149.821 498.844 152.137 497.509 154.212L499.19 155.294C500.668 152.999 501.679 150.436 502.166 147.751L500.198 147.394ZM497.509 154.212C496.173 156.286 494.442 158.077 492.415 159.483L493.554 161.127C495.798 159.571 497.713 157.589 499.19 155.294L497.509 154.212ZM493.273 159.057L471.814 127.916L470.167 129.051L491.626 160.192L493.273 159.057ZM493.806 159.735L471.268 127.231L469.625 128.371L492.163 160.875L493.806 159.735Z" fill="#A86A50"/>
<ellipse rx="3.7821" ry="22.345" transform="matrix(-0.386552 0.922268 -0.905652 -0.424022 474.934 130.442)" fill="#A86A50" stroke="#A86A50" stroke-width="2"/>
<path fill-rule="evenodd" clip-rule="evenodd" d="M419.68 118.098C420.267 116.996 419.85 115.627 418.749 115.04C417.647 114.453 416.278 114.87 415.691 115.972L411.037 124.704C407.835 124.786 404.767 126.542 403.153 129.57L399.636 136.169C398.412 138.465 399.281 141.317 401.577 142.54C403.76 143.704 406.473 142.877 407.637 140.694L412.455 131.653L412.456 131.654L419.68 118.098Z" fill="white"/>
<path d="M419.68 118.098L420.563 118.568L419.68 118.098ZM415.691 115.972L416.573 116.442L415.691 115.972ZM411.037 124.704L411.062 125.704L411.645 125.689L411.919 125.175L411.037 124.704ZM403.153 129.57L402.27 129.1L403.153 129.57ZM399.636 136.169L400.518 136.64L399.636 136.169ZM412.455 131.653L412.925 130.771L412.043 130.301L411.573 131.183L412.455 131.653ZM412.456 131.654L411.985 132.536L412.868 133.006L413.338 132.124L412.456 131.654ZM418.278 115.923C418.893 116.25 419.125 117.013 418.798 117.628L420.563 118.568C421.41 116.979 420.808 115.005 419.219 114.158L418.278 115.923ZM416.573 116.442C416.901 115.828 417.664 115.595 418.278 115.923L419.219 114.158C417.63 113.311 415.655 113.913 414.808 115.501L416.573 116.442ZM411.919 125.175L416.573 116.442L414.808 115.501L410.154 124.234L411.919 125.175ZM404.035 130.04C405.473 127.343 408.206 125.777 411.062 125.704L411.011 123.705C407.464 123.795 404.061 125.74 402.27 129.1L404.035 130.04ZM400.518 136.64L404.035 130.04L402.27 129.1L398.753 135.699L400.518 136.64ZM402.047 141.658C400.239 140.694 399.555 138.448 400.518 136.64L398.753 135.699C397.27 138.482 398.324 141.94 401.106 143.423L402.047 141.658ZM406.754 140.224C405.85 141.92 403.743 142.562 402.047 141.658L401.106 143.423C403.777 144.846 407.096 143.835 408.519 141.164L406.754 140.224ZM411.573 131.183L406.754 140.224L408.519 141.164L413.338 132.124L411.573 131.183ZM412.926 130.771L412.925 130.771L411.985 132.536L411.985 132.536L412.926 130.771ZM418.798 117.628L411.573 131.183L413.338 132.124L420.563 118.568L418.798 117.628Z" fill="#A86A50"/>
<path d="M406.804 142.291C396.241 146.121 387.086 153.06 380.543 162.194C374 171.328 370.377 182.23 370.15 193.463C369.922 204.696 373.102 215.735 379.27 225.126C385.437 234.518 394.304 241.821 404.703 246.076C415.102 250.33 426.546 251.336 437.527 248.961C448.509 246.586 458.514 240.941 466.226 232.77C473.937 224.599 478.994 214.284 480.729 203.183C482.465 192.082 480.799 180.716 475.95 170.581L425.768 194.589L406.804 142.291Z" fill="#FAF1ED" stroke="#A86A50" stroke-width="2"/>
<g style="mix-blend-mode:multiply">
<path fill-rule="evenodd" clip-rule="evenodd" d="M407.031 145.643C406.932 145.702 406.833 145.76 406.735 145.819C397.246 151.488 389.92 160.161 385.919 170.465C381.918 180.768 381.47 192.112 384.646 202.699C387.822 213.286 394.441 222.51 403.453 228.909C412.466 235.309 423.356 238.517 434.398 238.026C445.44 237.534 456.003 233.372 464.412 226.198C472.82 219.024 478.594 209.249 480.818 198.421C481.05 197.288 481.243 196.151 481.395 195.01C481.375 197.612 481.173 200.22 480.785 202.815C479.128 213.898 474.162 224.221 466.539 232.434C458.916 240.647 448.989 246.366 438.061 248.843C427.132 251.319 415.71 250.437 405.291 246.313C394.872 242.188 385.942 235.013 379.669 225.727C373.397 216.442 370.075 205.478 370.139 194.273C370.202 183.067 373.648 172.142 380.026 162.928C386.403 153.714 395.415 146.641 405.88 142.635L407.031 145.643Z" fill="#ECC3B2"/>
</g>
<path d="M462.832 190.64C462.832 178.49 472.682 168.64 484.832 168.64H486.078L498.896 196.907C498.955 197.037 498.985 197.178 498.985 197.32V254.822H462.832V190.64Z" fill="#FAF1ED" stroke="#A86A50" stroke-width="2" stroke-linejoin="round"/>
<g style="mix-blend-mode:multiply">
<path fill-rule="evenodd" clip-rule="evenodd" d="M492.963 183.823C492.265 185.969 491.887 188.26 491.887 190.64V254.822H498.986V197.32C498.986 197.178 498.955 197.037 498.896 196.907L492.963 183.823Z" fill="#F2D6CA"/>
</g>
<path fill-rule="evenodd" clip-rule="evenodd" d="M628.178 227.035C629.327 227.524 629.861 228.851 629.372 230C628.883 231.148 627.556 231.683 626.407 231.194L617.303 227.318C614.759 229.265 611.269 229.824 608.111 228.479L601.231 225.55C598.838 224.531 597.724 221.766 598.743 219.373C599.712 217.096 602.343 216.037 604.619 217.006L614.045 221.018L614.045 221.018L628.178 227.035Z" fill="white"/>
<path d="M628.178 227.035L628.57 226.115L628.178 227.035ZM626.407 231.194L626.799 230.274L626.407 231.194ZM617.303 227.318L616.695 226.524L617.158 226.17L617.695 226.398L617.303 227.318ZM608.111 228.479L607.72 229.399L608.111 228.479ZM601.231 225.55L601.623 224.63L601.231 225.55ZM604.619 217.006L605.011 216.086L604.619 217.006ZM614.045 221.018L614.965 221.41L614.573 222.33L613.653 221.939L614.045 221.018ZM614.045 221.018L613.125 220.626L613.516 219.706L614.437 220.098L614.045 221.018ZM628.452 229.608C628.725 228.968 628.427 228.228 627.786 227.955L628.57 226.115C630.226 226.82 630.998 228.735 630.292 230.392L628.452 229.608ZM626.799 230.274C627.439 230.547 628.18 230.249 628.452 229.608L630.292 230.392C629.587 232.048 627.672 232.819 626.016 232.114L626.799 230.274ZM617.695 226.398L626.799 230.274L626.016 232.114L616.911 228.238L617.695 226.398ZM608.503 227.559C611.316 228.757 614.426 228.261 616.695 226.524L617.911 228.112C615.092 230.269 611.222 230.891 607.72 229.399L608.503 227.559ZM601.623 224.63L608.503 227.559L607.72 229.399L600.839 226.47L601.623 224.63ZM599.663 219.764C598.86 221.649 599.738 223.828 601.623 224.63L600.839 226.47C597.938 225.235 596.587 221.882 597.822 218.981L599.663 219.764ZM604.227 217.926C602.459 217.173 600.415 217.996 599.663 219.764L597.822 218.981C599.008 216.196 602.226 214.9 605.011 216.086L604.227 217.926ZM613.653 221.939L604.227 217.926L605.011 216.086L614.436 220.098L613.653 221.939ZM614.965 221.41L614.965 221.41L613.125 220.627L613.125 220.626L614.965 221.41ZM627.786 227.955L613.653 221.938L614.437 220.098L628.57 226.115L627.786 227.955Z" fill="#A86A50"/>
<path d="M486.558 168.892C485.212 175.012 485.405 181.691 487.125 188.549C488.844 195.407 492.058 202.31 496.582 208.862C501.106 215.415 506.852 221.49 513.491 226.739C520.13 231.989 527.533 236.311 535.277 239.458C543.021 242.605 550.954 244.517 558.623 245.082C566.293 245.648 573.548 244.858 579.976 242.756C586.403 240.655 591.877 237.283 596.084 232.834C600.291 228.384 603.149 222.945 604.495 216.825L545.527 192.858L486.558 168.892Z" fill="#FAF1ED"/>
<path fill-rule="evenodd" clip-rule="evenodd" d="M490.43 198.008C491.112 199.072 491.837 200.127 492.603 201.171C497.064 207.25 502.839 212.841 509.599 217.625C516.358 222.408 523.971 226.29 532 229.05C540.03 231.81 548.32 233.392 556.397 233.708C564.475 234.023 572.181 233.065 579.076 230.889C585.971 228.712 591.92 225.36 596.583 221.022C598.399 219.334 600.006 217.508 601.393 215.564L604.494 216.825C603.148 222.944 600.29 228.384 596.083 232.833C591.876 237.282 586.402 240.654 579.975 242.756C573.547 244.858 566.292 245.648 558.622 245.082C550.953 244.516 543.02 242.605 535.276 239.458C527.532 236.31 520.129 231.988 513.49 226.739C506.851 221.489 501.105 215.415 496.581 208.862C494.139 205.325 492.079 201.687 490.43 198.008Z" fill="#ECC3B2"/>
<path d="M486.558 168.892C485.212 175.012 485.405 181.691 487.125 188.549C488.844 195.407 492.058 202.31 496.582 208.862C501.106 215.415 506.852 221.49 513.491 226.739C520.13 231.989 527.533 236.311 535.277 239.458C543.021 242.605 550.954 244.517 558.623 245.082C566.293 245.648 573.548 244.858 579.976 242.756C586.403 240.655 591.877 237.283 596.084 232.834C600.291 228.384 603.149 222.945 604.495 216.825L545.527 192.858L486.558 168.892Z" stroke="#A86A50" stroke-width="2" stroke-linejoin="round"/>
<path d="M351.153 387.474L351.153 381.262L391.622 362.955L417.908 362.955L417.908 387.474L351.153 387.474Z" fill="#FAF1ED" stroke="#A86A50" stroke-width="2"/>
<rect x="351.135" y="384.545" width="66.7901" height="2.94662" fill="#A86A50"/>
<path d="M498.866 254.579L498.917 267.753C498.962 279.427 488.054 288.055 476.704 285.323L418.504 271.313L418.482 363.13L386.032 363.137L386.071 235.965C386.072 232.515 389.343 230.004 392.676 230.894L481.64 254.646L498.866 254.579Z" fill="#DB8C6B" stroke="#A86A50" stroke-width="2" stroke-linejoin="round"/>
<path d="M402.57 362.018L402.147 252.544C402.139 250.547 404.048 249.1 405.968 249.647L478.768 270.371C480.619 270.898 482.48 269.57 482.585 267.648L483.28 254.838" stroke="#ECC3B2" stroke-width="2" stroke-linejoin="round"/>
<ellipse rx="19.7871" ry="19.7768" transform="matrix(0.427343 0.90409 0.90409 -0.427343 260.676 142.11)" fill="white" stroke="#8F8E37"/>
<path d="M269.885 125.597L251.467 158.621" stroke="#8F8E37"/>
<path d="M252.219 124.496C242.339 129.166 238.114 140.957 242.781 150.832C247.449 160.707 259.242 164.926 269.122 160.256C279.002 155.586 283.227 143.795 278.56 133.92C273.892 124.045 262.099 119.826 252.219 124.496Z" fill="white"/>
<path d="M270.366 125.136C268.101 123.863 265.607 123.048 263.027 122.738C260.448 122.428 257.832 122.628 255.331 123.329C252.829 124.029 250.49 125.215 248.448 126.819C246.405 128.424 244.698 130.415 243.426 132.678C242.153 134.942 241.339 137.435 241.03 140.014C240.721 142.593 240.923 145.207 241.624 147.709C242.326 150.21 243.514 152.549 245.119 154.591C246.725 156.634 248.717 158.341 250.982 159.615L270.366 125.136Z" fill="#8F8E37"/>
<path d="M270.366 125.136L270.856 124.265L271.728 124.755L271.237 125.626L270.366 125.136ZM250.982 159.615L251.854 160.105L251.364 160.976L250.492 160.486L250.982 159.615ZM252.646 125.4C243.265 129.834 239.254 141.03 243.685 150.405L241.877 151.259C236.973 140.885 241.413 128.498 251.792 123.592L252.646 125.4ZM243.685 150.405C248.117 159.78 259.314 163.786 268.695 159.352L269.549 161.16C259.17 166.066 246.781 161.634 241.877 151.259L243.685 150.405ZM268.695 159.352C278.076 154.918 282.087 143.723 277.656 134.348L279.464 133.493C284.368 143.867 279.928 156.254 269.549 161.16L268.695 159.352ZM277.656 134.348C273.224 124.972 262.028 120.966 252.646 125.4L251.792 123.592C262.171 118.686 274.56 123.118 279.464 133.493L277.656 134.348ZM269.876 126.008C267.725 124.799 265.357 124.025 262.908 123.731L263.147 121.745C265.857 122.071 268.476 122.927 270.856 124.265L269.876 126.008ZM262.908 123.731C260.459 123.436 257.976 123.627 255.6 124.292L255.061 122.366C257.689 121.63 260.437 121.419 263.147 121.745L262.908 123.731ZM255.6 124.292C253.225 124.957 251.005 126.083 249.065 127.606L247.83 126.033C249.976 124.348 252.433 123.102 255.061 122.366L255.6 124.292ZM249.065 127.606C247.126 129.129 245.506 131.019 244.297 133.169L242.554 132.188C243.891 129.81 245.684 127.718 247.83 126.033L249.065 127.606ZM244.297 133.169C243.089 135.318 242.316 137.684 242.023 140.133L240.037 139.895C240.362 137.185 241.217 134.567 242.554 132.188L244.297 133.169ZM242.023 140.133C241.729 142.581 241.921 145.064 242.587 147.438L240.662 147.979C239.924 145.351 239.712 142.604 240.037 139.895L242.023 140.133ZM242.587 147.438C243.253 149.813 244.381 152.034 245.905 153.974L244.333 155.209C242.646 153.063 241.399 150.606 240.662 147.979L242.587 147.438ZM245.905 153.974C247.43 155.913 249.321 157.534 251.472 158.743L250.492 160.486C248.112 159.149 246.02 157.355 244.333 155.209L245.905 153.974ZM250.578 158.4L269.015 125.379L270.761 126.354L252.324 159.375L250.578 158.4ZM250.11 159.125L269.494 124.646L271.237 125.626L251.854 160.105L250.11 159.125Z" fill="#8F8E37"/>
<circle cx="238.194" cy="117.81" r="10.5694" fill="#8F8E37"/>
</g>
<defs>
<clipPath id="clip0_177_200017">
<rect width="558.251" height="558.251" fill="white" transform="translate(79.375 0.874512)"/>
</clipPath>
</defs>
</svg>
