<svg width="559" height="560" viewBox="0 0 559 560" fill="none" xmlns="http://www.w3.org/2000/svg">
<g clip-path="url(#clip0_454_209358)">
<rect width="558.251" height="558.251" transform="translate(0.375 0.874512)" fill="white"/>
<path d="M332.614 536.766V530.484L389.076 507.242L400.193 511.61V536.766H332.614Z" fill="#F0F2FA" stroke="#161F4B" stroke-width="2"/>
<path d="M370.55 294.662L387.137 294.662C396.36 294.662 403.837 302.039 403.837 311.139L403.869 514.229L370.585 514.255L370.55 294.662Z" fill="#8A9DED" stroke="#161F4B" stroke-width="2" stroke-linejoin="round"/>
<path d="M354.26 536.764V530.481L410.722 507.239L421.839 511.607V536.764H354.26Z" fill="#F0F2FA" stroke="#161F4B" stroke-width="2"/>
<path d="M388.981 294.662L405.327 294.662C414.416 294.662 421.784 302.039 421.784 311.139L421.815 514.229L389.016 514.255L388.981 294.662Z" fill="#8A9DED" stroke="#161F4B" stroke-width="2" stroke-linejoin="round"/>
<ellipse cx="401.937" cy="216.279" rx="20.0245" ry="20.014" transform="rotate(109.907 401.937 216.279)" fill="white" stroke="#161F4B" stroke-width="2"/>
<path d="M391.091 200.517L412.788 232.038" stroke="#161F4B" stroke-width="2"/>
<path d="M408.783 197.728C419.182 201.493 424.56 212.971 420.797 223.364C417.033 233.757 405.553 239.129 395.154 235.364C384.756 231.598 379.377 220.121 383.141 209.728C386.904 199.335 398.385 193.962 408.783 197.728Z" fill="white"/>
<path d="M390.561 200.099C392.722 198.6 395.157 197.542 397.726 196.984C400.296 196.426 402.95 196.38 405.537 196.847C408.124 197.315 410.593 198.288 412.804 199.71C415.015 201.132 416.923 202.975 418.421 205.135C419.918 207.295 420.976 209.729 421.532 212.298C422.089 214.867 422.134 217.52 421.665 220.107C421.196 222.694 420.222 225.163 418.799 227.374C417.375 229.585 415.531 231.494 413.37 232.992L390.561 200.099Z" fill="#161F4B"/>
<path d="M390.561 200.099L389.991 199.277L389.169 199.847L389.739 200.668L390.561 200.099ZM413.37 232.992L412.548 233.562L413.118 234.384L413.939 233.814L413.37 232.992ZM408.443 198.668C418.322 202.246 423.432 213.15 419.856 223.023L421.737 223.704C425.689 212.792 420.041 200.741 409.124 196.787L408.443 198.668ZM419.856 223.023C416.281 232.897 405.374 238.001 395.495 234.424L394.814 236.304C405.731 240.258 417.785 234.617 421.737 223.704L419.856 223.023ZM395.495 234.424C385.615 230.846 380.506 219.941 384.081 210.068L382.2 209.387C378.249 220.3 383.896 232.351 394.814 236.304L395.495 234.424ZM384.081 210.068C387.656 200.195 398.563 195.09 408.443 198.668L409.124 196.787C398.206 192.834 386.152 198.475 382.2 209.387L384.081 210.068ZM391.131 200.92C393.184 199.497 395.497 198.491 397.939 197.961L397.514 196.007C394.816 196.592 392.26 197.704 389.991 199.277L391.131 200.92ZM397.939 197.961C400.38 197.431 402.901 197.387 405.359 197.832L405.715 195.863C402.999 195.372 400.212 195.421 397.514 196.007L397.939 197.961ZM405.359 197.832C407.817 198.276 410.163 199.2 412.263 200.551L413.345 198.869C411.024 197.376 408.431 196.355 405.715 195.863L405.359 197.832ZM412.263 200.551C414.363 201.902 416.176 203.653 417.599 205.705L419.243 204.565C417.67 202.298 415.666 200.362 413.345 198.869L412.263 200.551ZM417.599 205.705C419.022 207.757 420.026 210.069 420.555 212.51L422.51 212.086C421.925 209.389 420.815 206.833 419.243 204.565L417.599 205.705ZM420.555 212.51C421.084 214.95 421.127 217.471 420.681 219.929L422.649 220.285C423.142 217.569 423.094 214.783 422.51 212.086L420.555 212.51ZM420.681 219.929C420.236 222.386 419.31 224.732 417.958 226.833L419.64 227.915C421.134 225.594 422.157 223.001 422.649 220.285L420.681 219.929ZM417.958 226.833C416.606 228.933 414.853 230.747 412.8 232.171L413.939 233.814C416.208 232.241 418.145 230.237 419.64 227.915L417.958 226.833ZM413.651 231.737L391.935 200.222L390.288 201.357L412.004 232.872L413.651 231.737ZM414.191 232.423L391.383 199.529L389.739 200.668L412.548 233.562L414.191 232.423Z" fill="#161F4B"/>
<path d="M388.929 277.824C388.929 272.537 390.833 267.426 394.293 263.428L412.454 242.441L425.426 271.05C425.485 271.18 425.515 271.32 425.515 271.463V329.657H388.929V277.824Z" fill="#F0F2FA" stroke="#161F4B" stroke-width="2" stroke-linejoin="round"/>
<path fill-rule="evenodd" clip-rule="evenodd" d="M184.031 413.977L432.876 413.977V538.294H557.366V413.977H557.502V289.487H557.366V164.824H557.502V40.3335H557.366H432.876H184.031H59.541L59.541 164.824L59.541 289.487L59.541 413.977L59.541 538.294H184.031V413.977ZM184.031 289.487L432.876 289.487V164.824H184.031V289.487Z" fill="#3A3F47"/>
<path d="M286.277 203.286L271.519 188.527M300.707 203.286V177.705" stroke="#293056" stroke-width="2"/>
<path d="M315.138 203.286L329.896 188.527M300.708 203.286V177.705" stroke="#293056" stroke-width="2"/>
<path d="M71.6415 464.887L78.1613 464.862L97.0354 422.706L96.9295 395.345L71.3727 395.444L71.6415 464.887Z" fill="#F0FFFF" stroke="#07486B" stroke-width="2"/>
<path d="M211.677 295.767L194.617 299.954C183.437 302.698 175.577 312.722 175.577 324.234L175.578 394.396L96.7073 394.789L96.8302 428.508L201.479 427.977C207.119 427.948 211.677 423.368 211.677 417.727L211.677 295.767Z" fill="#01B8BF" stroke="#07486B" stroke-width="2" stroke-linejoin="round"/>
<ellipse rx="20.5611" ry="20.5504" transform="matrix(0.427343 0.90409 0.90409 -0.427343 193.509 204.653)" fill="white" stroke="#07486B"/>
<path d="M203.076 187.495L183.938 221.81" stroke="#07486B"/>
<path d="M184.722 186.349C174.455 191.202 170.064 203.454 174.915 213.715C179.765 223.976 192.019 228.36 202.286 223.508C212.552 218.655 216.943 206.403 212.093 196.142C207.243 185.881 194.988 181.496 184.722 186.349Z" fill="white"/>
<path d="M203.578 187.014C201.225 185.691 198.633 184.844 195.953 184.522C193.272 184.199 190.555 184.408 187.955 185.136C185.356 185.864 182.925 187.096 180.803 188.763C178.68 190.43 176.907 192.499 175.584 194.851C174.262 197.204 173.416 199.794 173.095 202.474C172.773 205.153 172.983 207.87 173.713 210.469C174.442 213.068 175.676 215.499 177.344 217.621C179.012 219.744 181.082 221.518 183.436 222.841L203.578 187.014Z" fill="#07486B"/>
<path d="M203.578 187.014L204.068 186.142L204.94 186.633L204.45 187.504L203.578 187.014ZM183.436 222.841L184.308 223.331L183.818 224.203L182.946 223.713L183.436 222.841ZM185.149 187.253C175.381 191.87 171.205 203.526 175.819 213.288L174.011 214.142C168.924 203.381 173.529 190.533 184.294 185.445L185.149 187.253ZM175.819 213.288C180.433 223.049 192.091 227.22 201.858 222.604L202.713 224.412C191.948 229.5 179.097 224.903 174.011 214.142L175.819 213.288ZM201.858 222.604C211.626 217.987 215.803 206.33 211.189 196.569L212.997 195.714C218.083 206.475 213.478 219.323 202.713 224.412L201.858 222.604ZM211.189 196.569C206.575 186.808 194.917 182.636 185.149 187.253L184.294 185.445C195.06 180.356 207.91 184.953 212.997 195.714L211.189 196.569ZM203.088 187.886C200.849 186.627 198.384 185.821 195.833 185.515L196.072 183.529C198.883 183.867 201.6 184.755 204.068 186.142L203.088 187.886ZM195.833 185.515C193.283 185.208 190.698 185.407 188.225 186.099L187.685 184.173C190.411 183.41 193.261 183.191 196.072 183.529L195.833 185.515ZM188.225 186.099C185.752 186.791 183.44 187.964 181.42 189.55L180.185 187.977C182.411 186.229 184.96 184.936 187.685 184.173L188.225 186.099ZM181.42 189.55C179.401 191.135 177.714 193.104 176.456 195.341L174.713 194.361C176.1 191.894 177.959 189.725 180.185 187.977L181.42 189.55ZM176.456 195.341C175.198 197.579 174.393 200.043 174.088 202.593L172.102 202.355C172.439 199.544 173.326 196.828 174.713 194.361L176.456 195.341ZM174.088 202.593C173.782 205.142 173.982 207.727 174.675 210.199L172.75 210.739C171.985 208.014 171.765 205.165 172.102 202.355L174.088 202.593ZM174.675 210.199C175.369 212.672 176.543 214.984 178.13 217.004L176.558 218.239C174.808 216.013 173.514 213.465 172.75 210.739L174.675 210.199ZM178.13 217.004C179.717 219.023 181.687 220.711 183.926 221.969L182.946 223.713C180.478 222.325 178.307 220.465 176.558 218.239L178.13 217.004ZM183.05 221.598L202.209 187.286L203.955 188.261L184.797 222.573L183.05 221.598ZM182.564 222.351L202.706 186.524L204.45 187.504L184.308 223.331L182.564 222.351Z" fill="#07486B"/>
<path d="M244.788 537.509L244.788 531.014L186.786 507.138L175.344 511.634L175.344 537.509L244.788 537.509Z" fill="#F0FFFF" stroke="#07486B" stroke-width="2"/>
<path d="M211.51 299.366L193.531 299.366C183.535 299.366 175.432 307.543 175.431 317.629L175.395 513.365L211.468 513.394L211.51 299.366Z" fill="#61E9ED" stroke="#07486B" stroke-width="2" stroke-linejoin="round"/>
<path d="M266.83 215.965C264.199 210.127 257.333 207.527 251.494 210.159L251.274 210.258L259.97 229.55C261.279 232.455 264.696 233.749 267.602 232.439C270.656 231.063 272.016 227.471 270.639 224.416L266.83 215.965Z" fill="white"/>
<path d="M251.274 210.258L250.363 210.669L249.952 209.757L250.864 209.346L251.274 210.258ZM270.639 224.416L269.728 224.827L270.639 224.416ZM266.83 215.965L267.742 215.554L266.83 215.965ZM251.905 211.07L251.685 211.169L250.864 209.346L251.083 209.247L251.905 211.07ZM252.186 209.847L260.882 229.139L259.058 229.961L250.363 210.669L252.186 209.847ZM269.728 224.827L265.918 216.376L267.742 215.554L271.551 224.005L269.728 224.827ZM267.191 231.528C269.741 230.378 270.877 227.378 269.728 224.827L271.551 224.005C273.154 227.563 271.57 231.747 268.012 233.351L267.191 231.528ZM260.882 229.139C261.964 231.541 264.789 232.61 267.191 231.528L268.012 233.351C264.604 234.887 260.595 233.37 259.058 229.961L260.882 229.139ZM251.083 209.247C257.425 206.389 264.883 209.213 267.742 215.554L265.918 216.376C263.514 211.041 257.24 208.666 251.905 211.07L251.083 209.247Z" fill="#07486B"/>
<path d="M259.961 230.179C268.594 238.038 274.645 248.327 277.318 259.693C279.99 271.058 279.159 282.966 274.933 293.849C270.707 304.732 263.284 314.081 253.642 320.664C244 327.248 232.591 330.757 220.916 330.73C209.241 330.704 197.847 327.143 188.235 320.516C178.624 313.889 171.244 304.506 167.067 293.604C162.89 282.701 162.113 270.79 164.837 259.437C167.561 248.084 173.659 237.822 182.329 230.002L221.047 272.925L259.961 230.179Z" fill="#F0FFFF" stroke="#07486B" stroke-width="2"/>
<path d="M200.12 295.369L260.326 230.617" stroke="#07486B" stroke-width="2" stroke-linejoin="round"/>
<path d="M334.705 216.641C335.974 211.834 339.996 208.252 344.918 207.546L348.271 207.065L345.335 227.524C344.793 231.304 341.076 233.766 337.384 232.791C333.799 231.844 331.66 228.171 332.607 224.586L334.705 216.641Z" fill="white"/>
<path d="M348.271 207.065L349.261 207.207L349.451 205.885L348.129 206.075L348.271 207.065ZM332.607 224.586L331.64 224.33L332.607 224.586ZM345.335 227.524L344.345 227.382L345.335 227.524ZM344.918 207.546L345.06 208.536L344.918 207.546ZM334.705 216.641L335.672 216.896L334.705 216.641ZM345.06 208.536L348.413 208.055L348.129 206.075L344.776 206.556L345.06 208.536ZM347.282 206.923L344.345 227.382L346.325 227.666L349.261 207.207L347.282 206.923ZM333.574 224.841L335.672 216.896L333.738 216.385L331.64 224.33L333.574 224.841ZM337.639 231.824C334.588 231.018 332.768 227.892 333.574 224.841L331.64 224.33C330.552 228.449 333.009 232.67 337.128 233.758L337.639 231.824ZM344.345 227.382C343.888 230.57 340.753 232.646 337.639 231.824L337.128 233.758C341.399 234.885 345.698 232.038 346.325 227.666L344.345 227.382ZM344.776 206.556C339.457 207.319 335.11 211.19 333.738 216.385L335.672 216.896C336.839 212.477 340.536 209.185 345.06 208.536L344.776 206.556Z" fill="#161F4B"/>
<path d="M345.654 230.121C336.936 235.825 330.149 244.036 326.187 253.672C322.225 263.308 321.274 273.918 323.458 284.105C325.643 294.292 330.861 303.579 338.426 310.743C345.991 317.907 355.548 322.613 365.839 324.24C376.13 325.868 386.672 324.341 396.078 319.861C405.485 315.381 413.314 308.158 418.536 299.142C423.757 290.126 426.127 279.74 425.332 269.352C424.537 258.964 420.615 249.059 414.082 240.943L373.897 273.288L345.654 230.121Z" fill="#F0F2FA" stroke="#161F4B" stroke-width="2"/>
</g>
<defs>
<clipPath id="clip0_454_209358">
<rect width="558.251" height="558.251" fill="white" transform="translate(0.375 0.874512)"/>
</clipPath>
</defs>
</svg>
